  0
SECTION
  2
HEADER
  9
$ACADVER
  1
AC1009
  9
$EXTMIN
 10
0.0
 20
0.0
 30
0.0
  9
$EXTMAX
 10
1000.0
 20
1000.0
 30
0.0
  9
$FILLMODE
 70
 0
  9
$SPLFRAME
 70
 1
  0
ENDSEC
  0
SECTION
  2
TABLES
  0
TABLE
  2
LAYER
 70
1
  0
LAYER
  2
0
 70
     0
 62
     7
  6
CONTINUOUS
  0
ENDTAB
  0
ENDSEC
  0
SECTION
  2
ENTITIES
  0
LINE
  8
0
 62
     0
 10
0.0950846
 20
92.3325
 30
0.0
 11
206.595
 21
92.3325
 31
0.0
  0
LINE
  8
0
 62
     0
 10
206.595
 20
92.3325
 30
0.0
 11
206.595
 21
0.132292
 31
0.0
  0
LINE
  8
0
 62
     0
 10
206.595
 20
0.132292
 30
0.0
 11
0.0950846
 21
0.132292
 31
0.0
  0
LINE
  8
0
 62
     0
 10
0.0950846
 20
0.132292
 30
0.0
 11
0.0950846
 21
92.3325
 31
0.0
  0
LINE
  8
0
 62
     0
 10
3.47541
 20
6.03582
 30
0.0
 11
2.91869
 21
5.75194
 31
0.0
  0
LINE
  8
0
 62
     0
 10
2.91869
 20
5.75194
 30
0.0
 11
2.47496
 21
5.30821
 31
0.0
  0
LINE
  8
0
 62
     0
 10
2.47496
 20
5.30821
 30
0.0
 11
2.19108
 21
4.75149
 31
0.0
  0
LINE
  8
0
 62
     0
 10
2.19108
 20
4.75149
 30
0.0
 11
2.09324
 21
4.13272
 31
0.0
  0
LINE
  8
0
 62
     0
 10
2.09324
 20
4.13272
 30
0.0
 11
2.19108
 21
3.514
 31
0.0
  0
LINE
  8
0
 62
     0
 10
2.19108
 20
3.514
 30
0.0
 11
2.47496
 21
2.95727
 31
0.0
  0
LINE
  8
0
 62
     0
 10
2.47496
 20
2.95727
 30
0.0
 11
2.91869
 21
2.51492
 31
0.0
  0
LINE
  8
0
 62
     0
 10
2.91869
 20
2.51492
 30
0.0
 11
3.47541
 21
2.22966
 31
0.0
  0
LINE
  8
0
 62
     0
 10
3.47541
 20
2.22966
 30
0.0
 11
4.09416
 21
2.13183
 31
0.0
  0
LINE
  8
0
 62
     0
 10
4.09416
 20
2.13183
 30
0.0
 11
4.7129
 21
2.22966
 31
0.0
  0
LINE
  8
0
 62
     0
 10
4.7129
 20
2.22966
 30
0.0
 11
5.26962
 21
2.51492
 31
0.0
  0
LINE
  8
0
 62
     0
 10
5.26962
 20
2.51492
 30
0.0
 11
5.71197
 21
2.95727
 31
0.0
  0
LINE
  8
0
 62
     0
 10
5.71197
 20
2.95727
 30
0.0
 11
5.99585
 21
3.514
 31
0.0
  0
LINE
  8
0
 62
     0
 10
5.99585
 20
3.514
 30
0.0
 11
6.09505
 21
4.13272
 31
0.0
  0
LINE
  8
0
 62
     0
 10
6.09505
 20
4.13272
 30
0.0
 11
5.99585
 21
4.75149
 31
0.0
  0
LINE
  8
0
 62
     0
 10
5.99585
 20
4.75149
 30
0.0
 11
5.71197
 21
5.30821
 31
0.0
  0
LINE
  8
0
 62
     0
 10
5.71197
 20
5.30821
 30
0.0
 11
5.26962
 21
5.75194
 31
0.0
  0
LINE
  8
0
 62
     0
 10
5.26962
 20
5.75194
 30
0.0
 11
4.7129
 21
6.03582
 31
0.0
  0
LINE
  8
0
 62
     0
 10
4.7129
 20
6.03582
 30
0.0
 11
4.09416
 21
6.13227
 31
0.0
  0
LINE
  8
0
 62
     0
 10
4.09416
 20
6.13227
 30
0.0
 11
3.47541
 21
6.03582
 31
0.0
  0
LINE
  8
0
 62
     0
 10
102.726
 20
6.03582
 30
0.0
 11
102.169
 21
5.75194
 31
0.0
  0
LINE
  8
0
 62
     0
 10
102.169
 20
5.75194
 30
0.0
 11
101.727
 21
5.30821
 31
0.0
  0
LINE
  8
0
 62
     0
 10
101.727
 20
5.30821
 30
0.0
 11
101.443
 21
4.75149
 31
0.0
  0
LINE
  8
0
 62
     0
 10
101.443
 20
4.75149
 30
0.0
 11
101.345
 21
4.13272
 31
0.0
  0
LINE
  8
0
 62
     0
 10
101.345
 20
4.13272
 30
0.0
 11
101.443
 21
3.514
 31
0.0
  0
LINE
  8
0
 62
     0
 10
101.443
 20
3.514
 30
0.0
 11
101.727
 21
2.95727
 31
0.0
  0
LINE
  8
0
 62
     0
 10
101.727
 20
2.95727
 30
0.0
 11
102.169
 21
2.51492
 31
0.0
  0
LINE
  8
0
 62
     0
 10
102.169
 20
2.51492
 30
0.0
 11
102.726
 21
2.22966
 31
0.0
  0
LINE
  8
0
 62
     0
 10
102.726
 20
2.22966
 30
0.0
 11
103.344
 21
2.13183
 31
0.0
  0
LINE
  8
0
 62
     0
 10
103.344
 20
2.13183
 30
0.0
 11
103.962
 21
2.22966
 31
0.0
  0
LINE
  8
0
 62
     0
 10
103.962
 20
2.22966
 30
0.0
 11
104.52
 21
2.51492
 31
0.0
  0
LINE
  8
0
 62
     0
 10
104.52
 20
2.51492
 30
0.0
 11
104.962
 21
2.95727
 31
0.0
  0
LINE
  8
0
 62
     0
 10
104.962
 20
2.95727
 30
0.0
 11
105.246
 21
3.514
 31
0.0
  0
LINE
  8
0
 62
     0
 10
105.246
 20
3.514
 30
0.0
 11
105.344
 21
4.13272
 31
0.0
  0
LINE
  8
0
 62
     0
 10
105.344
 20
4.13272
 30
0.0
 11
105.246
 21
4.75149
 31
0.0
  0
LINE
  8
0
 62
     0
 10
105.246
 20
4.75149
 30
0.0
 11
104.962
 21
5.30821
 31
0.0
  0
LINE
  8
0
 62
     0
 10
104.962
 20
5.30821
 30
0.0
 11
104.52
 21
5.75194
 31
0.0
  0
LINE
  8
0
 62
     0
 10
104.52
 20
5.75194
 30
0.0
 11
103.962
 21
6.03582
 31
0.0
  0
LINE
  8
0
 62
     0
 10
103.962
 20
6.03582
 30
0.0
 11
103.344
 21
6.13227
 31
0.0
  0
LINE
  8
0
 62
     0
 10
103.344
 20
6.13227
 30
0.0
 11
102.726
 21
6.03582
 31
0.0
  0
LINE
  8
0
 62
     0
 10
201.976
 20
6.03582
 30
0.0
 11
201.42
 21
5.75194
 31
0.0
  0
LINE
  8
0
 62
     0
 10
201.42
 20
5.75194
 30
0.0
 11
200.976
 21
5.30821
 31
0.0
  0
LINE
  8
0
 62
     0
 10
200.976
 20
5.30821
 30
0.0
 11
200.692
 21
4.75149
 31
0.0
  0
LINE
  8
0
 62
     0
 10
200.692
 20
4.75149
 30
0.0
 11
200.595
 21
4.13272
 31
0.0
  0
LINE
  8
0
 62
     0
 10
200.595
 20
4.13272
 30
0.0
 11
200.692
 21
3.514
 31
0.0
  0
LINE
  8
0
 62
     0
 10
200.692
 20
3.514
 30
0.0
 11
200.976
 21
2.95727
 31
0.0
  0
LINE
  8
0
 62
     0
 10
200.976
 20
2.95727
 30
0.0
 11
201.42
 21
2.51492
 31
0.0
  0
LINE
  8
0
 62
     0
 10
201.42
 20
2.51492
 30
0.0
 11
201.976
 21
2.22966
 31
0.0
  0
LINE
  8
0
 62
     0
 10
201.976
 20
2.22966
 30
0.0
 11
202.595
 21
2.13183
 31
0.0
  0
LINE
  8
0
 62
     0
 10
202.595
 20
2.13183
 30
0.0
 11
203.214
 21
2.22966
 31
0.0
  0
LINE
  8
0
 62
     0
 10
203.214
 20
2.22966
 30
0.0
 11
203.77
 21
2.51492
 31
0.0
  0
LINE
  8
0
 62
     0
 10
203.77
 20
2.51492
 30
0.0
 11
204.213
 21
2.95727
 31
0.0
  0
LINE
  8
0
 62
     0
 10
204.213
 20
2.95727
 30
0.0
 11
204.498
 21
3.514
 31
0.0
  0
LINE
  8
0
 62
     0
 10
204.498
 20
3.514
 30
0.0
 11
204.596
 21
4.13272
 31
0.0
  0
LINE
  8
0
 62
     0
 10
204.596
 20
4.13272
 30
0.0
 11
204.498
 21
4.75149
 31
0.0
  0
LINE
  8
0
 62
     0
 10
204.498
 20
4.75149
 30
0.0
 11
204.213
 21
5.30821
 31
0.0
  0
LINE
  8
0
 62
     0
 10
204.213
 20
5.30821
 30
0.0
 11
203.77
 21
5.75194
 31
0.0
  0
LINE
  8
0
 62
     0
 10
203.77
 20
5.75194
 30
0.0
 11
203.214
 21
6.03582
 31
0.0
  0
LINE
  8
0
 62
     0
 10
203.214
 20
6.03582
 30
0.0
 11
202.595
 21
6.13227
 31
0.0
  0
LINE
  8
0
 62
     0
 10
202.595
 20
6.13227
 30
0.0
 11
201.976
 21
6.03582
 31
0.0
  0
LINE
  8
0
 62
     0
 10
8.09459
 20
84.3333
 30
0.0
 11
198.596
 21
84.3333
 31
0.0
  0
LINE
  8
0
 62
     0
 10
198.596
 20
84.3333
 30
0.0
 11
198.596
 21
8.13181
 31
0.0
  0
LINE
  8
0
 62
     0
 10
198.596
 20
8.13181
 30
0.0
 11
8.09459
 21
8.13181
 31
0.0
  0
LINE
  8
0
 62
     0
 10
8.09459
 20
8.13181
 30
0.0
 11
8.09459
 21
84.3333
 31
0.0
  0
LINE
  8
0
 62
     0
 10
3.47541
 20
90.2367
 30
0.0
 11
2.91869
 21
89.9527
 31
0.0
  0
LINE
  8
0
 62
     0
 10
2.91869
 20
89.9527
 30
0.0
 11
2.47496
 21
89.5092
 31
0.0
  0
LINE
  8
0
 62
     0
 10
2.47496
 20
89.5092
 30
0.0
 11
2.19108
 21
88.9522
 31
0.0
  0
LINE
  8
0
 62
     0
 10
2.19108
 20
88.9522
 30
0.0
 11
2.09324
 21
88.3338
 31
0.0
  0
LINE
  8
0
 62
     0
 10
2.09324
 20
88.3338
 30
0.0
 11
2.19108
 21
87.715
 31
0.0
  0
LINE
  8
0
 62
     0
 10
2.19108
 20
87.715
 30
0.0
 11
2.47496
 21
87.1583
 31
0.0
  0
LINE
  8
0
 62
     0
 10
2.47496
 20
87.1583
 30
0.0
 11
2.91869
 21
86.716
 31
0.0
  0
LINE
  8
0
 62
     0
 10
2.91869
 20
86.716
 30
0.0
 11
3.47541
 21
86.432
 31
0.0
  0
LINE
  8
0
 62
     0
 10
3.47541
 20
86.432
 30
0.0
 11
4.09416
 21
86.3328
 31
0.0
  0
LINE
  8
0
 62
     0
 10
4.09416
 20
86.3328
 30
0.0
 11
4.7129
 21
86.432
 31
0.0
  0
LINE
  8
0
 62
     0
 10
4.7129
 20
86.432
 30
0.0
 11
5.26962
 21
86.716
 31
0.0
  0
LINE
  8
0
 62
     0
 10
5.26962
 20
86.716
 30
0.0
 11
5.71197
 21
87.1583
 31
0.0
  0
LINE
  8
0
 62
     0
 10
5.71197
 20
87.1583
 30
0.0
 11
5.99585
 21
87.715
 31
0.0
  0
LINE
  8
0
 62
     0
 10
5.99585
 20
87.715
 30
0.0
 11
6.09505
 21
88.3338
 31
0.0
  0
LINE
  8
0
 62
     0
 10
6.09505
 20
88.3338
 30
0.0
 11
5.99585
 21
88.9522
 31
0.0
  0
LINE
  8
0
 62
     0
 10
5.99585
 20
88.9522
 30
0.0
 11
5.71197
 21
89.5092
 31
0.0
  0
LINE
  8
0
 62
     0
 10
5.71197
 20
89.5092
 30
0.0
 11
5.26962
 21
89.9527
 31
0.0
  0
LINE
  8
0
 62
     0
 10
5.26962
 20
89.9527
 30
0.0
 11
4.7129
 21
90.2367
 31
0.0
  0
LINE
  8
0
 62
     0
 10
4.7129
 20
90.2367
 30
0.0
 11
4.09416
 21
90.3333
 31
0.0
  0
LINE
  8
0
 62
     0
 10
4.09416
 20
90.3333
 30
0.0
 11
3.47541
 21
90.2367
 31
0.0
  0
LINE
  8
0
 62
     0
 10
201.976
 20
90.2367
 30
0.0
 11
201.42
 21
89.9527
 31
0.0
  0
LINE
  8
0
 62
     0
 10
201.42
 20
89.9527
 30
0.0
 11
200.976
 21
89.5092
 31
0.0
  0
LINE
  8
0
 62
     0
 10
200.976
 20
89.5092
 30
0.0
 11
200.692
 21
88.9522
 31
0.0
  0
LINE
  8
0
 62
     0
 10
200.692
 20
88.9522
 30
0.0
 11
200.595
 21
88.3338
 31
0.0
  0
LINE
  8
0
 62
     0
 10
200.595
 20
88.3338
 30
0.0
 11
200.692
 21
87.715
 31
0.0
  0
LINE
  8
0
 62
     0
 10
200.692
 20
87.715
 30
0.0
 11
200.976
 21
87.1583
 31
0.0
  0
LINE
  8
0
 62
     0
 10
200.976
 20
87.1583
 30
0.0
 11
201.42
 21
86.716
 31
0.0
  0
LINE
  8
0
 62
     0
 10
201.42
 20
86.716
 30
0.0
 11
201.976
 21
86.432
 31
0.0
  0
LINE
  8
0
 62
     0
 10
201.976
 20
86.432
 30
0.0
 11
202.595
 21
86.3328
 31
0.0
  0
LINE
  8
0
 62
     0
 10
202.595
 20
86.3328
 30
0.0
 11
203.214
 21
86.432
 31
0.0
  0
LINE
  8
0
 62
     0
 10
203.214
 20
86.432
 30
0.0
 11
203.77
 21
86.716
 31
0.0
  0
LINE
  8
0
 62
     0
 10
203.77
 20
86.716
 30
0.0
 11
204.213
 21
87.1583
 31
0.0
  0
LINE
  8
0
 62
     0
 10
204.213
 20
87.1583
 30
0.0
 11
204.498
 21
87.715
 31
0.0
  0
LINE
  8
0
 62
     0
 10
204.498
 20
87.715
 30
0.0
 11
204.596
 21
88.3338
 31
0.0
  0
LINE
  8
0
 62
     0
 10
204.596
 20
88.3338
 30
0.0
 11
204.498
 21
88.9522
 31
0.0
  0
LINE
  8
0
 62
     0
 10
204.498
 20
88.9522
 30
0.0
 11
204.213
 21
89.5092
 31
0.0
  0
LINE
  8
0
 62
     0
 10
204.213
 20
89.5092
 30
0.0
 11
203.77
 21
89.9527
 31
0.0
  0
LINE
  8
0
 62
     0
 10
203.77
 20
89.9527
 30
0.0
 11
203.214
 21
90.2367
 31
0.0
  0
LINE
  8
0
 62
     0
 10
203.214
 20
90.2367
 30
0.0
 11
202.595
 21
90.3333
 31
0.0
  0
LINE
  8
0
 62
     0
 10
202.595
 20
90.3333
 30
0.0
 11
201.976
 21
90.2367
 31
0.0
  0
LINE
  8
0
 62
     0
 10
102.726
 20
90.2367
 30
0.0
 11
102.169
 21
89.9527
 31
0.0
  0
LINE
  8
0
 62
     0
 10
102.169
 20
89.9527
 30
0.0
 11
101.727
 21
89.5092
 31
0.0
  0
LINE
  8
0
 62
     0
 10
101.727
 20
89.5092
 30
0.0
 11
101.443
 21
88.9522
 31
0.0
  0
LINE
  8
0
 62
     0
 10
101.443
 20
88.9522
 30
0.0
 11
101.345
 21
88.3338
 31
0.0
  0
LINE
  8
0
 62
     0
 10
101.345
 20
88.3338
 30
0.0
 11
101.443
 21
87.715
 31
0.0
  0
LINE
  8
0
 62
     0
 10
101.443
 20
87.715
 30
0.0
 11
101.727
 21
87.1583
 31
0.0
  0
LINE
  8
0
 62
     0
 10
101.727
 20
87.1583
 30
0.0
 11
102.169
 21
86.716
 31
0.0
  0
LINE
  8
0
 62
     0
 10
102.169
 20
86.716
 30
0.0
 11
102.726
 21
86.432
 31
0.0
  0
LINE
  8
0
 62
     0
 10
102.726
 20
86.432
 30
0.0
 11
103.344
 21
86.3328
 31
0.0
  0
LINE
  8
0
 62
     0
 10
103.344
 20
86.3328
 30
0.0
 11
103.962
 21
86.432
 31
0.0
  0
LINE
  8
0
 62
     0
 10
103.962
 20
86.432
 30
0.0
 11
104.52
 21
86.716
 31
0.0
  0
LINE
  8
0
 62
     0
 10
104.52
 20
86.716
 30
0.0
 11
104.962
 21
87.1583
 31
0.0
  0
LINE
  8
0
 62
     0
 10
104.962
 20
87.1583
 30
0.0
 11
105.246
 21
87.715
 31
0.0
  0
LINE
  8
0
 62
     0
 10
105.246
 20
87.715
 30
0.0
 11
105.344
 21
88.3338
 31
0.0
  0
LINE
  8
0
 62
     0
 10
105.344
 20
88.3338
 30
0.0
 11
105.246
 21
88.9522
 31
0.0
  0
LINE
  8
0
 62
     0
 10
105.246
 20
88.9522
 30
0.0
 11
104.962
 21
89.5092
 31
0.0
  0
LINE
  8
0
 62
     0
 10
104.962
 20
89.5092
 30
0.0
 11
104.52
 21
89.9527
 31
0.0
  0
LINE
  8
0
 62
     0
 10
104.52
 20
89.9527
 30
0.0
 11
103.962
 21
90.2367
 31
0.0
  0
LINE
  8
0
 62
     0
 10
103.962
 20
90.2367
 30
0.0
 11
103.344
 21
90.3333
 31
0.0
  0
LINE
  8
0
 62
     0
 10
103.344
 20
90.3333
 30
0.0
 11
102.726
 21
90.2367
 31
0.0
  0
ENDSEC
  0
EOF
