  0
SECTION
  2
HEADER
  9
$ACADVER
  1
AC1009
  9
$EXTMIN
 10
0.0
 20
0.0
 30
0.0
  9
$EXTMAX
 10
1000.0
 20
1000.0
 30
0.0
  9
$FILLMODE
 70
 0
  9
$SPLFRAME
 70
 1
  0
ENDSEC
  0
SECTION
  2
TABLES
  0
TABLE
  2
LAYER
 70
1
  0
LAYER
  2
0
 70
     0
 62
     7
  6
CONTINUOUS
  0
ENDTAB
  0
ENDSEC
  0
SECTION
  2
ENTITIES
  0
LINE
  8
0
 62
     0
 10
0.0950846
 20
92.3325
 30
0.0
 11
206.595
 21
92.3325
 31
0.0
  0
LINE
  8
0
 62
     0
 10
206.595
 20
92.3325
 30
0.0
 11
206.595
 21
0.132292
 31
0.0
  0
LINE
  8
0
 62
     0
 10
206.595
 20
0.132292
 30
0.0
 11
0.0950846
 21
0.132292
 31
0.0
  0
LINE
  8
0
 62
     0
 10
0.0950846
 20
0.132292
 30
0.0
 11
0.0950846
 21
92.3325
 31
0.0
  0
LINE
  8
0
 62
     0
 10
3.47541
 20
6.03582
 30
0.0
 11
2.91869
 21
5.75194
 31
0.0
  0
LINE
  8
0
 62
     0
 10
2.91869
 20
5.75194
 30
0.0
 11
2.47496
 21
5.30821
 31
0.0
  0
LINE
  8
0
 62
     0
 10
2.47496
 20
5.30821
 30
0.0
 11
2.19108
 21
4.75149
 31
0.0
  0
LINE
  8
0
 62
     0
 10
2.19108
 20
4.75149
 30
0.0
 11
2.09324
 21
4.13272
 31
0.0
  0
LINE
  8
0
 62
     0
 10
2.09324
 20
4.13272
 30
0.0
 11
2.19108
 21
3.514
 31
0.0
  0
LINE
  8
0
 62
     0
 10
2.19108
 20
3.514
 30
0.0
 11
2.47496
 21
2.95727
 31
0.0
  0
LINE
  8
0
 62
     0
 10
2.47496
 20
2.95727
 30
0.0
 11
2.91869
 21
2.51492
 31
0.0
  0
LINE
  8
0
 62
     0
 10
2.91869
 20
2.51492
 30
0.0
 11
3.47541
 21
2.22966
 31
0.0
  0
LINE
  8
0
 62
     0
 10
3.47541
 20
2.22966
 30
0.0
 11
4.09416
 21
2.13183
 31
0.0
  0
LINE
  8
0
 62
     0
 10
4.09416
 20
2.13183
 30
0.0
 11
4.7129
 21
2.22966
 31
0.0
  0
LINE
  8
0
 62
     0
 10
4.7129
 20
2.22966
 30
0.0
 11
5.26962
 21
2.51492
 31
0.0
  0
LINE
  8
0
 62
     0
 10
5.26962
 20
2.51492
 30
0.0
 11
5.71197
 21
2.95727
 31
0.0
  0
LINE
  8
0
 62
     0
 10
5.71197
 20
2.95727
 30
0.0
 11
5.99585
 21
3.514
 31
0.0
  0
LINE
  8
0
 62
     0
 10
5.99585
 20
3.514
 30
0.0
 11
6.09505
 21
4.13272
 31
0.0
  0
LINE
  8
0
 62
     0
 10
6.09505
 20
4.13272
 30
0.0
 11
5.99585
 21
4.75149
 31
0.0
  0
LINE
  8
0
 62
     0
 10
5.99585
 20
4.75149
 30
0.0
 11
5.71197
 21
5.30821
 31
0.0
  0
LINE
  8
0
 62
     0
 10
5.71197
 20
5.30821
 30
0.0
 11
5.26962
 21
5.75194
 31
0.0
  0
LINE
  8
0
 62
     0
 10
5.26962
 20
5.75194
 30
0.0
 11
4.7129
 21
6.03582
 31
0.0
  0
LINE
  8
0
 62
     0
 10
4.7129
 20
6.03582
 30
0.0
 11
4.09416
 21
6.13227
 31
0.0
  0
LINE
  8
0
 62
     0
 10
4.09416
 20
6.13227
 30
0.0
 11
3.47541
 21
6.03582
 31
0.0
  0
LINE
  8
0
 62
     0
 10
102.726
 20
6.03582
 30
0.0
 11
102.169
 21
5.75194
 31
0.0
  0
LINE
  8
0
 62
     0
 10
102.169
 20
5.75194
 30
0.0
 11
101.727
 21
5.30821
 31
0.0
  0
LINE
  8
0
 62
     0
 10
101.727
 20
5.30821
 30
0.0
 11
101.443
 21
4.75149
 31
0.0
  0
LINE
  8
0
 62
     0
 10
101.443
 20
4.75149
 30
0.0
 11
101.345
 21
4.13272
 31
0.0
  0
LINE
  8
0
 62
     0
 10
101.345
 20
4.13272
 30
0.0
 11
101.443
 21
3.514
 31
0.0
  0
LINE
  8
0
 62
     0
 10
101.443
 20
3.514
 30
0.0
 11
101.727
 21
2.95727
 31
0.0
  0
LINE
  8
0
 62
     0
 10
101.727
 20
2.95727
 30
0.0
 11
102.169
 21
2.51492
 31
0.0
  0
LINE
  8
0
 62
     0
 10
102.169
 20
2.51492
 30
0.0
 11
102.726
 21
2.22966
 31
0.0
  0
LINE
  8
0
 62
     0
 10
102.726
 20
2.22966
 30
0.0
 11
103.344
 21
2.13183
 31
0.0
  0
LINE
  8
0
 62
     0
 10
103.344
 20
2.13183
 30
0.0
 11
103.962
 21
2.22966
 31
0.0
  0
LINE
  8
0
 62
     0
 10
103.962
 20
2.22966
 30
0.0
 11
104.52
 21
2.51492
 31
0.0
  0
LINE
  8
0
 62
     0
 10
104.52
 20
2.51492
 30
0.0
 11
104.962
 21
2.95727
 31
0.0
  0
LINE
  8
0
 62
     0
 10
104.962
 20
2.95727
 30
0.0
 11
105.246
 21
3.514
 31
0.0
  0
LINE
  8
0
 62
     0
 10
105.246
 20
3.514
 30
0.0
 11
105.344
 21
4.13272
 31
0.0
  0
LINE
  8
0
 62
     0
 10
105.344
 20
4.13272
 30
0.0
 11
105.246
 21
4.75149
 31
0.0
  0
LINE
  8
0
 62
     0
 10
105.246
 20
4.75149
 30
0.0
 11
104.962
 21
5.30821
 31
0.0
  0
LINE
  8
0
 62
     0
 10
104.962
 20
5.30821
 30
0.0
 11
104.52
 21
5.75194
 31
0.0
  0
LINE
  8
0
 62
     0
 10
104.52
 20
5.75194
 30
0.0
 11
103.962
 21
6.03582
 31
0.0
  0
LINE
  8
0
 62
     0
 10
103.962
 20
6.03582
 30
0.0
 11
103.344
 21
6.13227
 31
0.0
  0
LINE
  8
0
 62
     0
 10
103.344
 20
6.13227
 30
0.0
 11
102.726
 21
6.03582
 31
0.0
  0
LINE
  8
0
 62
     0
 10
201.976
 20
6.03582
 30
0.0
 11
201.42
 21
5.75194
 31
0.0
  0
LINE
  8
0
 62
     0
 10
201.42
 20
5.75194
 30
0.0
 11
200.976
 21
5.30821
 31
0.0
  0
LINE
  8
0
 62
     0
 10
200.976
 20
5.30821
 30
0.0
 11
200.692
 21
4.75149
 31
0.0
  0
LINE
  8
0
 62
     0
 10
200.692
 20
4.75149
 30
0.0
 11
200.595
 21
4.13272
 31
0.0
  0
LINE
  8
0
 62
     0
 10
200.595
 20
4.13272
 30
0.0
 11
200.692
 21
3.514
 31
0.0
  0
LINE
  8
0
 62
     0
 10
200.692
 20
3.514
 30
0.0
 11
200.976
 21
2.95727
 31
0.0
  0
LINE
  8
0
 62
     0
 10
200.976
 20
2.95727
 30
0.0
 11
201.42
 21
2.51492
 31
0.0
  0
LINE
  8
0
 62
     0
 10
201.42
 20
2.51492
 30
0.0
 11
201.976
 21
2.22966
 31
0.0
  0
LINE
  8
0
 62
     0
 10
201.976
 20
2.22966
 30
0.0
 11
202.595
 21
2.13183
 31
0.0
  0
LINE
  8
0
 62
     0
 10
202.595
 20
2.13183
 30
0.0
 11
203.214
 21
2.22966
 31
0.0
  0
LINE
  8
0
 62
     0
 10
203.214
 20
2.22966
 30
0.0
 11
203.77
 21
2.51492
 31
0.0
  0
LINE
  8
0
 62
     0
 10
203.77
 20
2.51492
 30
0.0
 11
204.213
 21
2.95727
 31
0.0
  0
LINE
  8
0
 62
     0
 10
204.213
 20
2.95727
 30
0.0
 11
204.498
 21
3.514
 31
0.0
  0
LINE
  8
0
 62
     0
 10
204.498
 20
3.514
 30
0.0
 11
204.596
 21
4.13272
 31
0.0
  0
LINE
  8
0
 62
     0
 10
204.596
 20
4.13272
 30
0.0
 11
204.498
 21
4.75149
 31
0.0
  0
LINE
  8
0
 62
     0
 10
204.498
 20
4.75149
 30
0.0
 11
204.213
 21
5.30821
 31
0.0
  0
LINE
  8
0
 62
     0
 10
204.213
 20
5.30821
 30
0.0
 11
203.77
 21
5.75194
 31
0.0
  0
LINE
  8
0
 62
     0
 10
203.77
 20
5.75194
 30
0.0
 11
203.214
 21
6.03582
 31
0.0
  0
LINE
  8
0
 62
     0
 10
203.214
 20
6.03582
 30
0.0
 11
202.595
 21
6.13227
 31
0.0
  0
LINE
  8
0
 62
     0
 10
202.595
 20
6.13227
 30
0.0
 11
201.976
 21
6.03582
 31
0.0
  0
LINE
  8
0
 62
     0
 10
143.969
 20
24.6586
 30
0.0
 11
143.969
 21
23.6582
 31
0.0
  0
LINE
  8
0
 62
     0
 10
143.969
 20
23.6582
 30
0.0
 11
143.17
 21
23.6582
 31
0.0
  0
LINE
  8
0
 62
     0
 10
143.17
 20
23.6582
 30
0.0
 11
143.17
 21
20.5589
 31
0.0
  0
LINE
  8
0
 62
     0
 10
143.17
 20
20.5589
 30
0.0
 11
143.969
 21
20.5589
 31
0.0
  0
LINE
  8
0
 62
     0
 10
143.969
 20
20.5589
 30
0.0
 11
143.969
 21
14.7588
 31
0.0
  0
LINE
  8
0
 62
     0
 10
143.969
 20
14.7588
 30
0.0
 11
143.17
 21
14.7588
 31
0.0
  0
LINE
  8
0
 62
     0
 10
143.17
 20
14.7588
 30
0.0
 11
143.17
 21
11.6582
 31
0.0
  0
LINE
  8
0
 62
     0
 10
143.17
 20
11.6582
 30
0.0
 11
143.969
 21
11.6582
 31
0.0
  0
LINE
  8
0
 62
     0
 10
143.969
 20
11.6582
 30
0.0
 11
143.969
 21
10.6577
 31
0.0
  0
LINE
  8
0
 62
     0
 10
143.969
 20
10.6577
 30
0.0
 11
157.97
 21
10.6577
 31
0.0
  0
LINE
  8
0
 62
     0
 10
157.97
 20
10.6577
 30
0.0
 11
157.97
 21
11.6582
 31
0.0
  0
LINE
  8
0
 62
     0
 10
157.97
 20
11.6582
 30
0.0
 11
158.769
 21
11.6582
 31
0.0
  0
LINE
  8
0
 62
     0
 10
158.769
 20
11.6582
 30
0.0
 11
158.769
 21
14.7588
 31
0.0
  0
LINE
  8
0
 62
     0
 10
158.769
 20
14.7588
 30
0.0
 11
157.97
 21
14.7588
 31
0.0
  0
LINE
  8
0
 62
     0
 10
157.97
 20
14.7588
 30
0.0
 11
157.97
 21
20.5589
 31
0.0
  0
LINE
  8
0
 62
     0
 10
157.97
 20
20.5589
 30
0.0
 11
158.769
 21
20.5589
 31
0.0
  0
LINE
  8
0
 62
     0
 10
158.769
 20
20.5589
 30
0.0
 11
158.769
 21
23.6582
 31
0.0
  0
LINE
  8
0
 62
     0
 10
158.769
 20
23.6582
 30
0.0
 11
157.97
 21
23.6582
 31
0.0
  0
LINE
  8
0
 62
     0
 10
157.97
 20
23.6582
 30
0.0
 11
157.97
 21
24.6586
 31
0.0
  0
LINE
  8
0
 62
     0
 10
157.97
 20
24.6586
 30
0.0
 11
143.969
 21
24.6586
 31
0.0
  0
LINE
  8
0
 62
     0
 10
124.919
 20
24.6586
 30
0.0
 11
124.919
 21
23.6582
 31
0.0
  0
LINE
  8
0
 62
     0
 10
124.919
 20
23.6582
 30
0.0
 11
124.119
 21
23.6582
 31
0.0
  0
LINE
  8
0
 62
     0
 10
124.119
 20
23.6582
 30
0.0
 11
124.119
 21
20.5589
 31
0.0
  0
LINE
  8
0
 62
     0
 10
124.119
 20
20.5589
 30
0.0
 11
124.919
 21
20.5589
 31
0.0
  0
LINE
  8
0
 62
     0
 10
124.919
 20
20.5589
 30
0.0
 11
124.919
 21
14.7588
 31
0.0
  0
LINE
  8
0
 62
     0
 10
124.919
 20
14.7588
 30
0.0
 11
124.119
 21
14.7588
 31
0.0
  0
LINE
  8
0
 62
     0
 10
124.119
 20
14.7588
 30
0.0
 11
124.119
 21
11.6582
 31
0.0
  0
LINE
  8
0
 62
     0
 10
124.119
 20
11.6582
 30
0.0
 11
124.919
 21
11.6582
 31
0.0
  0
LINE
  8
0
 62
     0
 10
124.919
 20
11.6582
 30
0.0
 11
124.919
 21
10.6577
 31
0.0
  0
LINE
  8
0
 62
     0
 10
124.919
 20
10.6577
 30
0.0
 11
138.92
 21
10.6577
 31
0.0
  0
LINE
  8
0
 62
     0
 10
138.92
 20
10.6577
 30
0.0
 11
138.92
 21
11.6582
 31
0.0
  0
LINE
  8
0
 62
     0
 10
138.92
 20
11.6582
 30
0.0
 11
139.719
 21
11.6582
 31
0.0
  0
LINE
  8
0
 62
     0
 10
139.719
 20
11.6582
 30
0.0
 11
139.719
 21
14.7588
 31
0.0
  0
LINE
  8
0
 62
     0
 10
139.719
 20
14.7588
 30
0.0
 11
138.92
 21
14.7588
 31
0.0
  0
LINE
  8
0
 62
     0
 10
138.92
 20
14.7588
 30
0.0
 11
138.92
 21
20.5589
 31
0.0
  0
LINE
  8
0
 62
     0
 10
138.92
 20
20.5589
 30
0.0
 11
139.719
 21
20.5589
 31
0.0
  0
LINE
  8
0
 62
     0
 10
139.719
 20
20.5589
 30
0.0
 11
139.719
 21
23.6582
 31
0.0
  0
LINE
  8
0
 62
     0
 10
139.719
 20
23.6582
 30
0.0
 11
138.92
 21
23.6582
 31
0.0
  0
LINE
  8
0
 62
     0
 10
138.92
 20
23.6582
 30
0.0
 11
138.92
 21
24.6586
 31
0.0
  0
LINE
  8
0
 62
     0
 10
138.92
 20
24.6586
 30
0.0
 11
124.919
 21
24.6586
 31
0.0
  0
LINE
  8
0
 62
     0
 10
105.869
 20
24.6586
 30
0.0
 11
105.869
 21
23.6582
 31
0.0
  0
LINE
  8
0
 62
     0
 10
105.869
 20
23.6582
 30
0.0
 11
105.07
 21
23.6582
 31
0.0
  0
LINE
  8
0
 62
     0
 10
105.07
 20
23.6582
 30
0.0
 11
105.07
 21
20.5589
 31
0.0
  0
LINE
  8
0
 62
     0
 10
105.07
 20
20.5589
 30
0.0
 11
105.869
 21
20.5589
 31
0.0
  0
LINE
  8
0
 62
     0
 10
105.869
 20
20.5589
 30
0.0
 11
105.869
 21
14.7588
 31
0.0
  0
LINE
  8
0
 62
     0
 10
105.869
 20
14.7588
 30
0.0
 11
105.07
 21
14.7588
 31
0.0
  0
LINE
  8
0
 62
     0
 10
105.07
 20
14.7588
 30
0.0
 11
105.07
 21
11.6582
 31
0.0
  0
LINE
  8
0
 62
     0
 10
105.07
 20
11.6582
 30
0.0
 11
105.869
 21
11.6582
 31
0.0
  0
LINE
  8
0
 62
     0
 10
105.869
 20
11.6582
 30
0.0
 11
105.869
 21
10.6577
 31
0.0
  0
LINE
  8
0
 62
     0
 10
105.869
 20
10.6577
 30
0.0
 11
119.869
 21
10.6577
 31
0.0
  0
LINE
  8
0
 62
     0
 10
119.869
 20
10.6577
 30
0.0
 11
119.869
 21
11.6582
 31
0.0
  0
LINE
  8
0
 62
     0
 10
119.869
 20
11.6582
 30
0.0
 11
120.668
 21
11.6582
 31
0.0
  0
LINE
  8
0
 62
     0
 10
120.668
 20
11.6582
 30
0.0
 11
120.668
 21
14.7588
 31
0.0
  0
LINE
  8
0
 62
     0
 10
120.668
 20
14.7588
 30
0.0
 11
119.869
 21
14.7588
 31
0.0
  0
LINE
  8
0
 62
     0
 10
119.869
 20
14.7588
 30
0.0
 11
119.869
 21
20.5589
 31
0.0
  0
LINE
  8
0
 62
     0
 10
119.869
 20
20.5589
 30
0.0
 11
120.668
 21
20.5589
 31
0.0
  0
LINE
  8
0
 62
     0
 10
120.668
 20
20.5589
 30
0.0
 11
120.668
 21
23.6582
 31
0.0
  0
LINE
  8
0
 62
     0
 10
120.668
 20
23.6582
 30
0.0
 11
119.869
 21
23.6582
 31
0.0
  0
LINE
  8
0
 62
     0
 10
119.869
 20
23.6582
 30
0.0
 11
119.869
 21
24.6586
 31
0.0
  0
LINE
  8
0
 62
     0
 10
119.869
 20
24.6586
 30
0.0
 11
105.869
 21
24.6586
 31
0.0
  0
LINE
  8
0
 62
     0
 10
86.8193
 20
24.6586
 30
0.0
 11
86.8193
 21
23.6582
 31
0.0
  0
LINE
  8
0
 62
     0
 10
86.8193
 20
23.6582
 30
0.0
 11
86.0199
 21
23.6582
 31
0.0
  0
LINE
  8
0
 62
     0
 10
86.0199
 20
23.6582
 30
0.0
 11
86.0199
 21
20.5589
 31
0.0
  0
LINE
  8
0
 62
     0
 10
86.0199
 20
20.5589
 30
0.0
 11
86.8193
 21
20.5589
 31
0.0
  0
LINE
  8
0
 62
     0
 10
86.8193
 20
20.5589
 30
0.0
 11
86.8193
 21
14.7588
 31
0.0
  0
LINE
  8
0
 62
     0
 10
86.8193
 20
14.7588
 30
0.0
 11
86.0199
 21
14.7588
 31
0.0
  0
LINE
  8
0
 62
     0
 10
86.0199
 20
14.7588
 30
0.0
 11
86.0199
 21
11.6582
 31
0.0
  0
LINE
  8
0
 62
     0
 10
86.0199
 20
11.6582
 30
0.0
 11
86.8193
 21
11.6582
 31
0.0
  0
LINE
  8
0
 62
     0
 10
86.8193
 20
11.6582
 30
0.0
 11
86.8193
 21
10.6577
 31
0.0
  0
LINE
  8
0
 62
     0
 10
86.8193
 20
10.6577
 30
0.0
 11
100.82
 21
10.6577
 31
0.0
  0
LINE
  8
0
 62
     0
 10
100.82
 20
10.6577
 30
0.0
 11
100.82
 21
11.6582
 31
0.0
  0
LINE
  8
0
 62
     0
 10
100.82
 20
11.6582
 30
0.0
 11
101.618
 21
11.6582
 31
0.0
  0
LINE
  8
0
 62
     0
 10
101.618
 20
11.6582
 30
0.0
 11
101.618
 21
14.7588
 31
0.0
  0
LINE
  8
0
 62
     0
 10
101.618
 20
14.7588
 30
0.0
 11
100.82
 21
14.7588
 31
0.0
  0
LINE
  8
0
 62
     0
 10
100.82
 20
14.7588
 30
0.0
 11
100.82
 21
20.5589
 31
0.0
  0
LINE
  8
0
 62
     0
 10
100.82
 20
20.5589
 30
0.0
 11
101.618
 21
20.5589
 31
0.0
  0
LINE
  8
0
 62
     0
 10
101.618
 20
20.5589
 30
0.0
 11
101.618
 21
23.6582
 31
0.0
  0
LINE
  8
0
 62
     0
 10
101.618
 20
23.6582
 30
0.0
 11
100.82
 21
23.6582
 31
0.0
  0
LINE
  8
0
 62
     0
 10
100.82
 20
23.6582
 30
0.0
 11
100.82
 21
24.6586
 31
0.0
  0
LINE
  8
0
 62
     0
 10
100.82
 20
24.6586
 30
0.0
 11
86.8193
 21
24.6586
 31
0.0
  0
LINE
  8
0
 62
     0
 10
67.7693
 20
24.6586
 30
0.0
 11
67.7693
 21
23.6582
 31
0.0
  0
LINE
  8
0
 62
     0
 10
67.7693
 20
23.6582
 30
0.0
 11
66.9699
 21
23.6582
 31
0.0
  0
LINE
  8
0
 62
     0
 10
66.9699
 20
23.6582
 30
0.0
 11
66.9699
 21
20.5589
 31
0.0
  0
LINE
  8
0
 62
     0
 10
66.9699
 20
20.5589
 30
0.0
 11
67.7693
 21
20.5589
 31
0.0
  0
LINE
  8
0
 62
     0
 10
67.7693
 20
20.5589
 30
0.0
 11
67.7693
 21
14.7588
 31
0.0
  0
LINE
  8
0
 62
     0
 10
67.7693
 20
14.7588
 30
0.0
 11
66.9699
 21
14.7588
 31
0.0
  0
LINE
  8
0
 62
     0
 10
66.9699
 20
14.7588
 30
0.0
 11
66.9699
 21
11.6582
 31
0.0
  0
LINE
  8
0
 62
     0
 10
66.9699
 20
11.6582
 30
0.0
 11
67.7693
 21
11.6582
 31
0.0
  0
LINE
  8
0
 62
     0
 10
67.7693
 20
11.6582
 30
0.0
 11
67.7693
 21
10.6577
 31
0.0
  0
LINE
  8
0
 62
     0
 10
67.7693
 20
10.6577
 30
0.0
 11
81.77
 21
10.6577
 31
0.0
  0
LINE
  8
0
 62
     0
 10
81.77
 20
10.6577
 30
0.0
 11
81.77
 21
11.6582
 31
0.0
  0
LINE
  8
0
 62
     0
 10
81.77
 20
11.6582
 30
0.0
 11
82.5694
 21
11.6582
 31
0.0
  0
LINE
  8
0
 62
     0
 10
82.5694
 20
11.6582
 30
0.0
 11
82.5694
 21
14.7588
 31
0.0
  0
LINE
  8
0
 62
     0
 10
82.5694
 20
14.7588
 30
0.0
 11
81.77
 21
14.7588
 31
0.0
  0
LINE
  8
0
 62
     0
 10
81.77
 20
14.7588
 30
0.0
 11
81.77
 21
20.5589
 31
0.0
  0
LINE
  8
0
 62
     0
 10
81.77
 20
20.5589
 30
0.0
 11
82.5694
 21
20.5589
 31
0.0
  0
LINE
  8
0
 62
     0
 10
82.5694
 20
20.5589
 30
0.0
 11
82.5694
 21
23.6582
 31
0.0
  0
LINE
  8
0
 62
     0
 10
82.5694
 20
23.6582
 30
0.0
 11
81.77
 21
23.6582
 31
0.0
  0
LINE
  8
0
 62
     0
 10
81.77
 20
23.6582
 30
0.0
 11
81.77
 21
24.6586
 31
0.0
  0
LINE
  8
0
 62
     0
 10
81.77
 20
24.6586
 30
0.0
 11
67.7693
 21
24.6586
 31
0.0
  0
LINE
  8
0
 62
     0
 10
48.7193
 20
24.6586
 30
0.0
 11
48.7193
 21
23.6582
 31
0.0
  0
LINE
  8
0
 62
     0
 10
48.7193
 20
23.6582
 30
0.0
 11
47.9199
 21
23.6582
 31
0.0
  0
LINE
  8
0
 62
     0
 10
47.9199
 20
23.6582
 30
0.0
 11
47.9199
 21
20.5589
 31
0.0
  0
LINE
  8
0
 62
     0
 10
47.9199
 20
20.5589
 30
0.0
 11
48.7193
 21
20.5589
 31
0.0
  0
LINE
  8
0
 62
     0
 10
48.7193
 20
20.5589
 30
0.0
 11
48.7193
 21
14.7588
 31
0.0
  0
LINE
  8
0
 62
     0
 10
48.7193
 20
14.7588
 30
0.0
 11
47.9199
 21
14.7588
 31
0.0
  0
LINE
  8
0
 62
     0
 10
47.9199
 20
14.7588
 30
0.0
 11
47.9199
 21
11.6582
 31
0.0
  0
LINE
  8
0
 62
     0
 10
47.9199
 20
11.6582
 30
0.0
 11
48.7193
 21
11.6582
 31
0.0
  0
LINE
  8
0
 62
     0
 10
48.7193
 20
11.6582
 30
0.0
 11
48.7193
 21
10.6577
 31
0.0
  0
LINE
  8
0
 62
     0
 10
48.7193
 20
10.6577
 30
0.0
 11
62.72
 21
10.6577
 31
0.0
  0
LINE
  8
0
 62
     0
 10
62.72
 20
10.6577
 30
0.0
 11
62.72
 21
11.6582
 31
0.0
  0
LINE
  8
0
 62
     0
 10
62.72
 20
11.6582
 30
0.0
 11
63.5194
 21
11.6582
 31
0.0
  0
LINE
  8
0
 62
     0
 10
63.5194
 20
11.6582
 30
0.0
 11
63.5194
 21
14.7588
 31
0.0
  0
LINE
  8
0
 62
     0
 10
63.5194
 20
14.7588
 30
0.0
 11
62.72
 21
14.7588
 31
0.0
  0
LINE
  8
0
 62
     0
 10
62.72
 20
14.7588
 30
0.0
 11
62.72
 21
20.5589
 31
0.0
  0
LINE
  8
0
 62
     0
 10
62.72
 20
20.5589
 30
0.0
 11
63.5194
 21
20.5589
 31
0.0
  0
LINE
  8
0
 62
     0
 10
63.5194
 20
20.5589
 30
0.0
 11
63.5194
 21
23.6582
 31
0.0
  0
LINE
  8
0
 62
     0
 10
63.5194
 20
23.6582
 30
0.0
 11
62.72
 21
23.6582
 31
0.0
  0
LINE
  8
0
 62
     0
 10
62.72
 20
23.6582
 30
0.0
 11
62.72
 21
24.6586
 31
0.0
  0
LINE
  8
0
 62
     0
 10
62.72
 20
24.6586
 30
0.0
 11
48.7193
 21
24.6586
 31
0.0
  0
LINE
  8
0
 62
     0
 10
182.069
 20
43.7085
 30
0.0
 11
182.069
 21
42.7083
 31
0.0
  0
LINE
  8
0
 62
     0
 10
182.069
 20
42.7083
 30
0.0
 11
181.27
 21
42.7083
 31
0.0
  0
LINE
  8
0
 62
     0
 10
181.27
 20
42.7083
 30
0.0
 11
181.27
 21
39.6088
 31
0.0
  0
LINE
  8
0
 62
     0
 10
181.27
 20
39.6088
 30
0.0
 11
182.069
 21
39.6088
 31
0.0
  0
LINE
  8
0
 62
     0
 10
182.069
 20
39.6088
 30
0.0
 11
182.069
 21
33.8088
 31
0.0
  0
LINE
  8
0
 62
     0
 10
182.069
 20
33.8088
 30
0.0
 11
181.27
 21
33.8088
 31
0.0
  0
LINE
  8
0
 62
     0
 10
181.27
 20
33.8088
 30
0.0
 11
181.27
 21
30.7082
 31
0.0
  0
LINE
  8
0
 62
     0
 10
181.27
 20
30.7082
 30
0.0
 11
182.069
 21
30.7082
 31
0.0
  0
LINE
  8
0
 62
     0
 10
182.069
 20
30.7082
 30
0.0
 11
182.069
 21
29.7077
 31
0.0
  0
LINE
  8
0
 62
     0
 10
182.069
 20
29.7077
 30
0.0
 11
196.07
 21
29.7077
 31
0.0
  0
LINE
  8
0
 62
     0
 10
196.07
 20
29.7077
 30
0.0
 11
196.07
 21
30.7082
 31
0.0
  0
LINE
  8
0
 62
     0
 10
196.07
 20
30.7082
 30
0.0
 11
196.869
 21
30.7082
 31
0.0
  0
LINE
  8
0
 62
     0
 10
196.869
 20
30.7082
 30
0.0
 11
196.869
 21
33.8088
 31
0.0
  0
LINE
  8
0
 62
     0
 10
196.869
 20
33.8088
 30
0.0
 11
196.07
 21
33.8088
 31
0.0
  0
LINE
  8
0
 62
     0
 10
196.07
 20
33.8088
 30
0.0
 11
196.07
 21
39.6088
 31
0.0
  0
LINE
  8
0
 62
     0
 10
196.07
 20
39.6088
 30
0.0
 11
196.869
 21
39.6088
 31
0.0
  0
LINE
  8
0
 62
     0
 10
196.869
 20
39.6088
 30
0.0
 11
196.869
 21
42.7083
 31
0.0
  0
LINE
  8
0
 62
     0
 10
196.869
 20
42.7083
 30
0.0
 11
196.07
 21
42.7083
 31
0.0
  0
LINE
  8
0
 62
     0
 10
196.07
 20
42.7083
 30
0.0
 11
196.07
 21
43.7085
 31
0.0
  0
LINE
  8
0
 62
     0
 10
196.07
 20
43.7085
 30
0.0
 11
182.069
 21
43.7085
 31
0.0
  0
LINE
  8
0
 62
     0
 10
163.019
 20
43.7085
 30
0.0
 11
163.019
 21
42.7083
 31
0.0
  0
LINE
  8
0
 62
     0
 10
163.019
 20
42.7083
 30
0.0
 11
162.22
 21
42.7083
 31
0.0
  0
LINE
  8
0
 62
     0
 10
162.22
 20
42.7083
 30
0.0
 11
162.22
 21
39.6088
 31
0.0
  0
LINE
  8
0
 62
     0
 10
162.22
 20
39.6088
 30
0.0
 11
163.019
 21
39.6088
 31
0.0
  0
LINE
  8
0
 62
     0
 10
163.019
 20
39.6088
 30
0.0
 11
163.019
 21
33.8088
 31
0.0
  0
LINE
  8
0
 62
     0
 10
163.019
 20
33.8088
 30
0.0
 11
162.22
 21
33.8088
 31
0.0
  0
LINE
  8
0
 62
     0
 10
162.22
 20
33.8088
 30
0.0
 11
162.22
 21
30.7082
 31
0.0
  0
LINE
  8
0
 62
     0
 10
162.22
 20
30.7082
 30
0.0
 11
163.019
 21
30.7082
 31
0.0
  0
LINE
  8
0
 62
     0
 10
163.019
 20
30.7082
 30
0.0
 11
163.019
 21
29.7077
 31
0.0
  0
LINE
  8
0
 62
     0
 10
163.019
 20
29.7077
 30
0.0
 11
177.02
 21
29.7077
 31
0.0
  0
LINE
  8
0
 62
     0
 10
177.02
 20
29.7077
 30
0.0
 11
177.02
 21
30.7082
 31
0.0
  0
LINE
  8
0
 62
     0
 10
177.02
 20
30.7082
 30
0.0
 11
177.819
 21
30.7082
 31
0.0
  0
LINE
  8
0
 62
     0
 10
177.819
 20
30.7082
 30
0.0
 11
177.819
 21
33.8088
 31
0.0
  0
LINE
  8
0
 62
     0
 10
177.819
 20
33.8088
 30
0.0
 11
177.02
 21
33.8088
 31
0.0
  0
LINE
  8
0
 62
     0
 10
177.02
 20
33.8088
 30
0.0
 11
177.02
 21
39.6088
 31
0.0
  0
LINE
  8
0
 62
     0
 10
177.02
 20
39.6088
 30
0.0
 11
177.819
 21
39.6088
 31
0.0
  0
LINE
  8
0
 62
     0
 10
177.819
 20
39.6088
 30
0.0
 11
177.819
 21
42.7083
 31
0.0
  0
LINE
  8
0
 62
     0
 10
177.819
 20
42.7083
 30
0.0
 11
177.02
 21
42.7083
 31
0.0
  0
LINE
  8
0
 62
     0
 10
177.02
 20
42.7083
 30
0.0
 11
177.02
 21
43.7085
 31
0.0
  0
LINE
  8
0
 62
     0
 10
177.02
 20
43.7085
 30
0.0
 11
163.019
 21
43.7085
 31
0.0
  0
LINE
  8
0
 62
     0
 10
143.969
 20
43.7085
 30
0.0
 11
143.969
 21
42.7083
 31
0.0
  0
LINE
  8
0
 62
     0
 10
143.969
 20
42.7083
 30
0.0
 11
143.17
 21
42.7083
 31
0.0
  0
LINE
  8
0
 62
     0
 10
143.17
 20
42.7083
 30
0.0
 11
143.17
 21
39.6088
 31
0.0
  0
LINE
  8
0
 62
     0
 10
143.17
 20
39.6088
 30
0.0
 11
143.969
 21
39.6088
 31
0.0
  0
LINE
  8
0
 62
     0
 10
143.969
 20
39.6088
 30
0.0
 11
143.969
 21
33.8088
 31
0.0
  0
LINE
  8
0
 62
     0
 10
143.969
 20
33.8088
 30
0.0
 11
143.17
 21
33.8088
 31
0.0
  0
LINE
  8
0
 62
     0
 10
143.17
 20
33.8088
 30
0.0
 11
143.17
 21
30.7082
 31
0.0
  0
LINE
  8
0
 62
     0
 10
143.17
 20
30.7082
 30
0.0
 11
143.969
 21
30.7082
 31
0.0
  0
LINE
  8
0
 62
     0
 10
143.969
 20
30.7082
 30
0.0
 11
143.969
 21
29.7077
 31
0.0
  0
LINE
  8
0
 62
     0
 10
143.969
 20
29.7077
 30
0.0
 11
157.97
 21
29.7077
 31
0.0
  0
LINE
  8
0
 62
     0
 10
157.97
 20
29.7077
 30
0.0
 11
157.97
 21
30.7082
 31
0.0
  0
LINE
  8
0
 62
     0
 10
157.97
 20
30.7082
 30
0.0
 11
158.769
 21
30.7082
 31
0.0
  0
LINE
  8
0
 62
     0
 10
158.769
 20
30.7082
 30
0.0
 11
158.769
 21
33.8088
 31
0.0
  0
LINE
  8
0
 62
     0
 10
158.769
 20
33.8088
 30
0.0
 11
157.97
 21
33.8088
 31
0.0
  0
LINE
  8
0
 62
     0
 10
157.97
 20
33.8088
 30
0.0
 11
157.97
 21
39.6088
 31
0.0
  0
LINE
  8
0
 62
     0
 10
157.97
 20
39.6088
 30
0.0
 11
158.769
 21
39.6088
 31
0.0
  0
LINE
  8
0
 62
     0
 10
158.769
 20
39.6088
 30
0.0
 11
158.769
 21
42.7083
 31
0.0
  0
LINE
  8
0
 62
     0
 10
158.769
 20
42.7083
 30
0.0
 11
157.97
 21
42.7083
 31
0.0
  0
LINE
  8
0
 62
     0
 10
157.97
 20
42.7083
 30
0.0
 11
157.97
 21
43.7085
 31
0.0
  0
LINE
  8
0
 62
     0
 10
157.97
 20
43.7085
 30
0.0
 11
143.969
 21
43.7085
 31
0.0
  0
LINE
  8
0
 62
     0
 10
124.919
 20
43.7085
 30
0.0
 11
124.919
 21
42.7083
 31
0.0
  0
LINE
  8
0
 62
     0
 10
124.919
 20
42.7083
 30
0.0
 11
124.119
 21
42.7083
 31
0.0
  0
LINE
  8
0
 62
     0
 10
124.119
 20
42.7083
 30
0.0
 11
124.119
 21
39.6088
 31
0.0
  0
LINE
  8
0
 62
     0
 10
124.119
 20
39.6088
 30
0.0
 11
124.919
 21
39.6088
 31
0.0
  0
LINE
  8
0
 62
     0
 10
124.919
 20
39.6088
 30
0.0
 11
124.919
 21
33.8088
 31
0.0
  0
LINE
  8
0
 62
     0
 10
124.919
 20
33.8088
 30
0.0
 11
124.119
 21
33.8088
 31
0.0
  0
LINE
  8
0
 62
     0
 10
124.119
 20
33.8088
 30
0.0
 11
124.119
 21
30.7082
 31
0.0
  0
LINE
  8
0
 62
     0
 10
124.119
 20
30.7082
 30
0.0
 11
124.919
 21
30.7082
 31
0.0
  0
LINE
  8
0
 62
     0
 10
124.919
 20
30.7082
 30
0.0
 11
124.919
 21
29.7077
 31
0.0
  0
LINE
  8
0
 62
     0
 10
124.919
 20
29.7077
 30
0.0
 11
138.92
 21
29.7077
 31
0.0
  0
LINE
  8
0
 62
     0
 10
138.92
 20
29.7077
 30
0.0
 11
138.92
 21
30.7082
 31
0.0
  0
LINE
  8
0
 62
     0
 10
138.92
 20
30.7082
 30
0.0
 11
139.719
 21
30.7082
 31
0.0
  0
LINE
  8
0
 62
     0
 10
139.719
 20
30.7082
 30
0.0
 11
139.719
 21
33.8088
 31
0.0
  0
LINE
  8
0
 62
     0
 10
139.719
 20
33.8088
 30
0.0
 11
138.92
 21
33.8088
 31
0.0
  0
LINE
  8
0
 62
     0
 10
138.92
 20
33.8088
 30
0.0
 11
138.92
 21
39.6088
 31
0.0
  0
LINE
  8
0
 62
     0
 10
138.92
 20
39.6088
 30
0.0
 11
139.719
 21
39.6088
 31
0.0
  0
LINE
  8
0
 62
     0
 10
139.719
 20
39.6088
 30
0.0
 11
139.719
 21
42.7083
 31
0.0
  0
LINE
  8
0
 62
     0
 10
139.719
 20
42.7083
 30
0.0
 11
138.92
 21
42.7083
 31
0.0
  0
LINE
  8
0
 62
     0
 10
138.92
 20
42.7083
 30
0.0
 11
138.92
 21
43.7085
 31
0.0
  0
LINE
  8
0
 62
     0
 10
138.92
 20
43.7085
 30
0.0
 11
124.919
 21
43.7085
 31
0.0
  0
LINE
  8
0
 62
     0
 10
105.869
 20
43.7085
 30
0.0
 11
105.869
 21
42.7083
 31
0.0
  0
LINE
  8
0
 62
     0
 10
105.869
 20
42.7083
 30
0.0
 11
105.07
 21
42.7083
 31
0.0
  0
LINE
  8
0
 62
     0
 10
105.07
 20
42.7083
 30
0.0
 11
105.07
 21
39.6088
 31
0.0
  0
LINE
  8
0
 62
     0
 10
105.07
 20
39.6088
 30
0.0
 11
105.869
 21
39.6088
 31
0.0
  0
LINE
  8
0
 62
     0
 10
105.869
 20
39.6088
 30
0.0
 11
105.869
 21
33.8088
 31
0.0
  0
LINE
  8
0
 62
     0
 10
105.869
 20
33.8088
 30
0.0
 11
105.07
 21
33.8088
 31
0.0
  0
LINE
  8
0
 62
     0
 10
105.07
 20
33.8088
 30
0.0
 11
105.07
 21
30.7082
 31
0.0
  0
LINE
  8
0
 62
     0
 10
105.07
 20
30.7082
 30
0.0
 11
105.869
 21
30.7082
 31
0.0
  0
LINE
  8
0
 62
     0
 10
105.869
 20
30.7082
 30
0.0
 11
105.869
 21
29.7077
 31
0.0
  0
LINE
  8
0
 62
     0
 10
105.869
 20
29.7077
 30
0.0
 11
119.869
 21
29.7077
 31
0.0
  0
LINE
  8
0
 62
     0
 10
119.869
 20
29.7077
 30
0.0
 11
119.869
 21
30.7082
 31
0.0
  0
LINE
  8
0
 62
     0
 10
119.869
 20
30.7082
 30
0.0
 11
120.668
 21
30.7082
 31
0.0
  0
LINE
  8
0
 62
     0
 10
120.668
 20
30.7082
 30
0.0
 11
120.668
 21
33.8088
 31
0.0
  0
LINE
  8
0
 62
     0
 10
120.668
 20
33.8088
 30
0.0
 11
119.869
 21
33.8088
 31
0.0
  0
LINE
  8
0
 62
     0
 10
119.869
 20
33.8088
 30
0.0
 11
119.869
 21
39.6088
 31
0.0
  0
LINE
  8
0
 62
     0
 10
119.869
 20
39.6088
 30
0.0
 11
120.668
 21
39.6088
 31
0.0
  0
LINE
  8
0
 62
     0
 10
120.668
 20
39.6088
 30
0.0
 11
120.668
 21
42.7083
 31
0.0
  0
LINE
  8
0
 62
     0
 10
120.668
 20
42.7083
 30
0.0
 11
119.869
 21
42.7083
 31
0.0
  0
LINE
  8
0
 62
     0
 10
119.869
 20
42.7083
 30
0.0
 11
119.869
 21
43.7085
 31
0.0
  0
LINE
  8
0
 62
     0
 10
119.869
 20
43.7085
 30
0.0
 11
105.869
 21
43.7085
 31
0.0
  0
LINE
  8
0
 62
     0
 10
86.8193
 20
43.7085
 30
0.0
 11
86.8193
 21
42.7083
 31
0.0
  0
LINE
  8
0
 62
     0
 10
86.8193
 20
42.7083
 30
0.0
 11
86.0199
 21
42.7083
 31
0.0
  0
LINE
  8
0
 62
     0
 10
86.0199
 20
42.7083
 30
0.0
 11
86.0199
 21
39.6088
 31
0.0
  0
LINE
  8
0
 62
     0
 10
86.0199
 20
39.6088
 30
0.0
 11
86.8193
 21
39.6088
 31
0.0
  0
LINE
  8
0
 62
     0
 10
86.8193
 20
39.6088
 30
0.0
 11
86.8193
 21
33.8088
 31
0.0
  0
LINE
  8
0
 62
     0
 10
86.8193
 20
33.8088
 30
0.0
 11
86.0199
 21
33.8088
 31
0.0
  0
LINE
  8
0
 62
     0
 10
86.0199
 20
33.8088
 30
0.0
 11
86.0199
 21
30.7082
 31
0.0
  0
LINE
  8
0
 62
     0
 10
86.0199
 20
30.7082
 30
0.0
 11
86.8193
 21
30.7082
 31
0.0
  0
LINE
  8
0
 62
     0
 10
86.8193
 20
30.7082
 30
0.0
 11
86.8193
 21
29.7077
 31
0.0
  0
LINE
  8
0
 62
     0
 10
86.8193
 20
29.7077
 30
0.0
 11
100.82
 21
29.7077
 31
0.0
  0
LINE
  8
0
 62
     0
 10
100.82
 20
29.7077
 30
0.0
 11
100.82
 21
30.7082
 31
0.0
  0
LINE
  8
0
 62
     0
 10
100.82
 20
30.7082
 30
0.0
 11
101.618
 21
30.7082
 31
0.0
  0
LINE
  8
0
 62
     0
 10
101.618
 20
30.7082
 30
0.0
 11
101.618
 21
33.8088
 31
0.0
  0
LINE
  8
0
 62
     0
 10
101.618
 20
33.8088
 30
0.0
 11
100.82
 21
33.8088
 31
0.0
  0
LINE
  8
0
 62
     0
 10
100.82
 20
33.8088
 30
0.0
 11
100.82
 21
39.6088
 31
0.0
  0
LINE
  8
0
 62
     0
 10
100.82
 20
39.6088
 30
0.0
 11
101.618
 21
39.6088
 31
0.0
  0
LINE
  8
0
 62
     0
 10
101.618
 20
39.6088
 30
0.0
 11
101.618
 21
42.7083
 31
0.0
  0
LINE
  8
0
 62
     0
 10
101.618
 20
42.7083
 30
0.0
 11
100.82
 21
42.7083
 31
0.0
  0
LINE
  8
0
 62
     0
 10
100.82
 20
42.7083
 30
0.0
 11
100.82
 21
43.7085
 31
0.0
  0
LINE
  8
0
 62
     0
 10
100.82
 20
43.7085
 30
0.0
 11
86.8193
 21
43.7085
 31
0.0
  0
LINE
  8
0
 62
     0
 10
67.7693
 20
43.7085
 30
0.0
 11
67.7693
 21
42.7083
 31
0.0
  0
LINE
  8
0
 62
     0
 10
67.7693
 20
42.7083
 30
0.0
 11
66.9699
 21
42.7083
 31
0.0
  0
LINE
  8
0
 62
     0
 10
66.9699
 20
42.7083
 30
0.0
 11
66.9699
 21
39.6088
 31
0.0
  0
LINE
  8
0
 62
     0
 10
66.9699
 20
39.6088
 30
0.0
 11
67.7693
 21
39.6088
 31
0.0
  0
LINE
  8
0
 62
     0
 10
67.7693
 20
39.6088
 30
0.0
 11
67.7693
 21
33.8088
 31
0.0
  0
LINE
  8
0
 62
     0
 10
67.7693
 20
33.8088
 30
0.0
 11
66.9699
 21
33.8088
 31
0.0
  0
LINE
  8
0
 62
     0
 10
66.9699
 20
33.8088
 30
0.0
 11
66.9699
 21
30.7082
 31
0.0
  0
LINE
  8
0
 62
     0
 10
66.9699
 20
30.7082
 30
0.0
 11
67.7693
 21
30.7082
 31
0.0
  0
LINE
  8
0
 62
     0
 10
67.7693
 20
30.7082
 30
0.0
 11
67.7693
 21
29.7077
 31
0.0
  0
LINE
  8
0
 62
     0
 10
67.7693
 20
29.7077
 30
0.0
 11
81.77
 21
29.7077
 31
0.0
  0
LINE
  8
0
 62
     0
 10
81.77
 20
29.7077
 30
0.0
 11
81.77
 21
30.7082
 31
0.0
  0
LINE
  8
0
 62
     0
 10
81.77
 20
30.7082
 30
0.0
 11
82.5694
 21
30.7082
 31
0.0
  0
LINE
  8
0
 62
     0
 10
82.5694
 20
30.7082
 30
0.0
 11
82.5694
 21
33.8088
 31
0.0
  0
LINE
  8
0
 62
     0
 10
82.5694
 20
33.8088
 30
0.0
 11
81.77
 21
33.8088
 31
0.0
  0
LINE
  8
0
 62
     0
 10
81.77
 20
33.8088
 30
0.0
 11
81.77
 21
39.6088
 31
0.0
  0
LINE
  8
0
 62
     0
 10
81.77
 20
39.6088
 30
0.0
 11
82.5694
 21
39.6088
 31
0.0
  0
LINE
  8
0
 62
     0
 10
82.5694
 20
39.6088
 30
0.0
 11
82.5694
 21
42.7083
 31
0.0
  0
LINE
  8
0
 62
     0
 10
82.5694
 20
42.7083
 30
0.0
 11
81.77
 21
42.7083
 31
0.0
  0
LINE
  8
0
 62
     0
 10
81.77
 20
42.7083
 30
0.0
 11
81.77
 21
43.7085
 31
0.0
  0
LINE
  8
0
 62
     0
 10
81.77
 20
43.7085
 30
0.0
 11
67.7693
 21
43.7085
 31
0.0
  0
LINE
  8
0
 62
     0
 10
48.7193
 20
43.7085
 30
0.0
 11
48.7193
 21
42.7083
 31
0.0
  0
LINE
  8
0
 62
     0
 10
48.7193
 20
42.7083
 30
0.0
 11
47.9199
 21
42.7083
 31
0.0
  0
LINE
  8
0
 62
     0
 10
47.9199
 20
42.7083
 30
0.0
 11
47.9199
 21
39.6088
 31
0.0
  0
LINE
  8
0
 62
     0
 10
47.9199
 20
39.6088
 30
0.0
 11
48.7193
 21
39.6088
 31
0.0
  0
LINE
  8
0
 62
     0
 10
48.7193
 20
39.6088
 30
0.0
 11
48.7193
 21
33.8088
 31
0.0
  0
LINE
  8
0
 62
     0
 10
48.7193
 20
33.8088
 30
0.0
 11
47.9199
 21
33.8088
 31
0.0
  0
LINE
  8
0
 62
     0
 10
47.9199
 20
33.8088
 30
0.0
 11
47.9199
 21
30.7082
 31
0.0
  0
LINE
  8
0
 62
     0
 10
47.9199
 20
30.7082
 30
0.0
 11
48.7193
 21
30.7082
 31
0.0
  0
LINE
  8
0
 62
     0
 10
48.7193
 20
30.7082
 30
0.0
 11
48.7193
 21
29.7077
 31
0.0
  0
LINE
  8
0
 62
     0
 10
48.7193
 20
29.7077
 30
0.0
 11
62.72
 21
29.7077
 31
0.0
  0
LINE
  8
0
 62
     0
 10
62.72
 20
29.7077
 30
0.0
 11
62.72
 21
30.7082
 31
0.0
  0
LINE
  8
0
 62
     0
 10
62.72
 20
30.7082
 30
0.0
 11
63.5194
 21
30.7082
 31
0.0
  0
LINE
  8
0
 62
     0
 10
63.5194
 20
30.7082
 30
0.0
 11
63.5194
 21
33.8088
 31
0.0
  0
LINE
  8
0
 62
     0
 10
63.5194
 20
33.8088
 30
0.0
 11
62.72
 21
33.8088
 31
0.0
  0
LINE
  8
0
 62
     0
 10
62.72
 20
33.8088
 30
0.0
 11
62.72
 21
39.6088
 31
0.0
  0
LINE
  8
0
 62
     0
 10
62.72
 20
39.6088
 30
0.0
 11
63.5194
 21
39.6088
 31
0.0
  0
LINE
  8
0
 62
     0
 10
63.5194
 20
39.6088
 30
0.0
 11
63.5194
 21
42.7083
 31
0.0
  0
LINE
  8
0
 62
     0
 10
63.5194
 20
42.7083
 30
0.0
 11
62.72
 21
42.7083
 31
0.0
  0
LINE
  8
0
 62
     0
 10
62.72
 20
42.7083
 30
0.0
 11
62.72
 21
43.7085
 31
0.0
  0
LINE
  8
0
 62
     0
 10
62.72
 20
43.7085
 30
0.0
 11
48.7193
 21
43.7085
 31
0.0
  0
LINE
  8
0
 62
     0
 10
29.6692
 20
43.7085
 30
0.0
 11
29.6692
 21
42.7083
 31
0.0
  0
LINE
  8
0
 62
     0
 10
29.6692
 20
42.7083
 30
0.0
 11
28.8699
 21
42.7083
 31
0.0
  0
LINE
  8
0
 62
     0
 10
28.8699
 20
42.7083
 30
0.0
 11
28.8699
 21
39.6088
 31
0.0
  0
LINE
  8
0
 62
     0
 10
28.8699
 20
39.6088
 30
0.0
 11
29.6692
 21
39.6088
 31
0.0
  0
LINE
  8
0
 62
     0
 10
29.6692
 20
39.6088
 30
0.0
 11
29.6692
 21
33.8088
 31
0.0
  0
LINE
  8
0
 62
     0
 10
29.6692
 20
33.8088
 30
0.0
 11
28.8699
 21
33.8088
 31
0.0
  0
LINE
  8
0
 62
     0
 10
28.8699
 20
33.8088
 30
0.0
 11
28.8699
 21
30.7082
 31
0.0
  0
LINE
  8
0
 62
     0
 10
28.8699
 20
30.7082
 30
0.0
 11
29.6692
 21
30.7082
 31
0.0
  0
LINE
  8
0
 62
     0
 10
29.6692
 20
30.7082
 30
0.0
 11
29.6692
 21
29.7077
 31
0.0
  0
LINE
  8
0
 62
     0
 10
29.6692
 20
29.7077
 30
0.0
 11
43.67
 21
29.7077
 31
0.0
  0
LINE
  8
0
 62
     0
 10
43.67
 20
29.7077
 30
0.0
 11
43.67
 21
30.7082
 31
0.0
  0
LINE
  8
0
 62
     0
 10
43.67
 20
30.7082
 30
0.0
 11
44.4694
 21
30.7082
 31
0.0
  0
LINE
  8
0
 62
     0
 10
44.4694
 20
30.7082
 30
0.0
 11
44.4694
 21
33.8088
 31
0.0
  0
LINE
  8
0
 62
     0
 10
44.4694
 20
33.8088
 30
0.0
 11
43.67
 21
33.8088
 31
0.0
  0
LINE
  8
0
 62
     0
 10
43.67
 20
33.8088
 30
0.0
 11
43.67
 21
39.6088
 31
0.0
  0
LINE
  8
0
 62
     0
 10
43.67
 20
39.6088
 30
0.0
 11
44.4694
 21
39.6088
 31
0.0
  0
LINE
  8
0
 62
     0
 10
44.4694
 20
39.6088
 30
0.0
 11
44.4694
 21
42.7083
 31
0.0
  0
LINE
  8
0
 62
     0
 10
44.4694
 20
42.7083
 30
0.0
 11
43.67
 21
42.7083
 31
0.0
  0
LINE
  8
0
 62
     0
 10
43.67
 20
42.7083
 30
0.0
 11
43.67
 21
43.7085
 31
0.0
  0
LINE
  8
0
 62
     0
 10
43.67
 20
43.7085
 30
0.0
 11
29.6692
 21
43.7085
 31
0.0
  0
LINE
  8
0
 62
     0
 10
10.6192
 20
43.7085
 30
0.0
 11
10.6192
 21
42.7083
 31
0.0
  0
LINE
  8
0
 62
     0
 10
10.6192
 20
42.7083
 30
0.0
 11
9.81851
 21
42.7083
 31
0.0
  0
LINE
  8
0
 62
     0
 10
9.81851
 20
42.7083
 30
0.0
 11
9.81851
 21
39.6088
 31
0.0
  0
LINE
  8
0
 62
     0
 10
9.81851
 20
39.6088
 30
0.0
 11
10.6192
 21
39.6088
 31
0.0
  0
LINE
  8
0
 62
     0
 10
10.6192
 20
39.6088
 30
0.0
 11
10.6192
 21
33.8088
 31
0.0
  0
LINE
  8
0
 62
     0
 10
10.6192
 20
33.8088
 30
0.0
 11
9.81851
 21
33.8088
 31
0.0
  0
LINE
  8
0
 62
     0
 10
9.81851
 20
33.8088
 30
0.0
 11
9.81851
 21
30.7082
 31
0.0
  0
LINE
  8
0
 62
     0
 10
9.81851
 20
30.7082
 30
0.0
 11
10.6192
 21
30.7082
 31
0.0
  0
LINE
  8
0
 62
     0
 10
10.6192
 20
30.7082
 30
0.0
 11
10.6192
 21
29.7077
 31
0.0
  0
LINE
  8
0
 62
     0
 10
10.6192
 20
29.7077
 30
0.0
 11
24.62
 21
29.7077
 31
0.0
  0
LINE
  8
0
 62
     0
 10
24.62
 20
29.7077
 30
0.0
 11
24.62
 21
30.7082
 31
0.0
  0
LINE
  8
0
 62
     0
 10
24.62
 20
30.7082
 30
0.0
 11
25.4193
 21
30.7082
 31
0.0
  0
LINE
  8
0
 62
     0
 10
25.4193
 20
30.7082
 30
0.0
 11
25.4193
 21
33.8088
 31
0.0
  0
LINE
  8
0
 62
     0
 10
25.4193
 20
33.8088
 30
0.0
 11
24.62
 21
33.8088
 31
0.0
  0
LINE
  8
0
 62
     0
 10
24.62
 20
33.8088
 30
0.0
 11
24.62
 21
39.6088
 31
0.0
  0
LINE
  8
0
 62
     0
 10
24.62
 20
39.6088
 30
0.0
 11
25.4193
 21
39.6088
 31
0.0
  0
LINE
  8
0
 62
     0
 10
25.4193
 20
39.6088
 30
0.0
 11
25.4193
 21
42.7083
 31
0.0
  0
LINE
  8
0
 62
     0
 10
25.4193
 20
42.7083
 30
0.0
 11
24.62
 21
42.7083
 31
0.0
  0
LINE
  8
0
 62
     0
 10
24.62
 20
42.7083
 30
0.0
 11
24.62
 21
43.7085
 31
0.0
  0
LINE
  8
0
 62
     0
 10
24.62
 20
43.7085
 30
0.0
 11
10.6192
 21
43.7085
 31
0.0
  0
LINE
  8
0
 62
     0
 10
182.069
 20
62.7585
 30
0.0
 11
182.069
 21
61.7583
 31
0.0
  0
LINE
  8
0
 62
     0
 10
182.069
 20
61.7583
 30
0.0
 11
181.27
 21
61.7583
 31
0.0
  0
LINE
  8
0
 62
     0
 10
181.27
 20
61.7583
 30
0.0
 11
181.27
 21
58.6588
 31
0.0
  0
LINE
  8
0
 62
     0
 10
181.27
 20
58.6588
 30
0.0
 11
182.069
 21
58.6588
 31
0.0
  0
LINE
  8
0
 62
     0
 10
182.069
 20
58.6588
 30
0.0
 11
182.069
 21
52.8588
 31
0.0
  0
LINE
  8
0
 62
     0
 10
182.069
 20
52.8588
 30
0.0
 11
181.27
 21
52.8588
 31
0.0
  0
LINE
  8
0
 62
     0
 10
181.27
 20
52.8588
 30
0.0
 11
181.27
 21
49.7582
 31
0.0
  0
LINE
  8
0
 62
     0
 10
181.27
 20
49.7582
 30
0.0
 11
182.069
 21
49.7582
 31
0.0
  0
LINE
  8
0
 62
     0
 10
182.069
 20
49.7582
 30
0.0
 11
182.069
 21
48.7578
 31
0.0
  0
LINE
  8
0
 62
     0
 10
182.069
 20
48.7578
 30
0.0
 11
196.07
 21
48.7578
 31
0.0
  0
LINE
  8
0
 62
     0
 10
196.07
 20
48.7578
 30
0.0
 11
196.07
 21
49.7582
 31
0.0
  0
LINE
  8
0
 62
     0
 10
196.07
 20
49.7582
 30
0.0
 11
196.869
 21
49.7582
 31
0.0
  0
LINE
  8
0
 62
     0
 10
196.869
 20
49.7582
 30
0.0
 11
196.869
 21
52.8588
 31
0.0
  0
LINE
  8
0
 62
     0
 10
196.869
 20
52.8588
 30
0.0
 11
196.07
 21
52.8588
 31
0.0
  0
LINE
  8
0
 62
     0
 10
196.07
 20
52.8588
 30
0.0
 11
196.07
 21
58.6588
 31
0.0
  0
LINE
  8
0
 62
     0
 10
196.07
 20
58.6588
 30
0.0
 11
196.869
 21
58.6588
 31
0.0
  0
LINE
  8
0
 62
     0
 10
196.869
 20
58.6588
 30
0.0
 11
196.869
 21
61.7583
 31
0.0
  0
LINE
  8
0
 62
     0
 10
196.869
 20
61.7583
 30
0.0
 11
196.07
 21
61.7583
 31
0.0
  0
LINE
  8
0
 62
     0
 10
196.07
 20
61.7583
 30
0.0
 11
196.07
 21
62.7585
 31
0.0
  0
LINE
  8
0
 62
     0
 10
196.07
 20
62.7585
 30
0.0
 11
182.069
 21
62.7585
 31
0.0
  0
LINE
  8
0
 62
     0
 10
163.019
 20
62.7585
 30
0.0
 11
163.019
 21
61.7583
 31
0.0
  0
LINE
  8
0
 62
     0
 10
163.019
 20
61.7583
 30
0.0
 11
162.22
 21
61.7583
 31
0.0
  0
LINE
  8
0
 62
     0
 10
162.22
 20
61.7583
 30
0.0
 11
162.22
 21
58.6588
 31
0.0
  0
LINE
  8
0
 62
     0
 10
162.22
 20
58.6588
 30
0.0
 11
163.019
 21
58.6588
 31
0.0
  0
LINE
  8
0
 62
     0
 10
163.019
 20
58.6588
 30
0.0
 11
163.019
 21
52.8588
 31
0.0
  0
LINE
  8
0
 62
     0
 10
163.019
 20
52.8588
 30
0.0
 11
162.22
 21
52.8588
 31
0.0
  0
LINE
  8
0
 62
     0
 10
162.22
 20
52.8588
 30
0.0
 11
162.22
 21
49.7582
 31
0.0
  0
LINE
  8
0
 62
     0
 10
162.22
 20
49.7582
 30
0.0
 11
163.019
 21
49.7582
 31
0.0
  0
LINE
  8
0
 62
     0
 10
163.019
 20
49.7582
 30
0.0
 11
163.019
 21
48.7578
 31
0.0
  0
LINE
  8
0
 62
     0
 10
163.019
 20
48.7578
 30
0.0
 11
177.02
 21
48.7578
 31
0.0
  0
LINE
  8
0
 62
     0
 10
177.02
 20
48.7578
 30
0.0
 11
177.02
 21
49.7582
 31
0.0
  0
LINE
  8
0
 62
     0
 10
177.02
 20
49.7582
 30
0.0
 11
177.819
 21
49.7582
 31
0.0
  0
LINE
  8
0
 62
     0
 10
177.819
 20
49.7582
 30
0.0
 11
177.819
 21
52.8588
 31
0.0
  0
LINE
  8
0
 62
     0
 10
177.819
 20
52.8588
 30
0.0
 11
177.02
 21
52.8588
 31
0.0
  0
LINE
  8
0
 62
     0
 10
177.02
 20
52.8588
 30
0.0
 11
177.02
 21
58.6588
 31
0.0
  0
LINE
  8
0
 62
     0
 10
177.02
 20
58.6588
 30
0.0
 11
177.819
 21
58.6588
 31
0.0
  0
LINE
  8
0
 62
     0
 10
177.819
 20
58.6588
 30
0.0
 11
177.819
 21
61.7583
 31
0.0
  0
LINE
  8
0
 62
     0
 10
177.819
 20
61.7583
 30
0.0
 11
177.02
 21
61.7583
 31
0.0
  0
LINE
  8
0
 62
     0
 10
177.02
 20
61.7583
 30
0.0
 11
177.02
 21
62.7585
 31
0.0
  0
LINE
  8
0
 62
     0
 10
177.02
 20
62.7585
 30
0.0
 11
163.019
 21
62.7585
 31
0.0
  0
LINE
  8
0
 62
     0
 10
143.969
 20
62.7585
 30
0.0
 11
143.969
 21
61.7583
 31
0.0
  0
LINE
  8
0
 62
     0
 10
143.969
 20
61.7583
 30
0.0
 11
143.17
 21
61.7583
 31
0.0
  0
LINE
  8
0
 62
     0
 10
143.17
 20
61.7583
 30
0.0
 11
143.17
 21
58.6588
 31
0.0
  0
LINE
  8
0
 62
     0
 10
143.17
 20
58.6588
 30
0.0
 11
143.969
 21
58.6588
 31
0.0
  0
LINE
  8
0
 62
     0
 10
143.969
 20
58.6588
 30
0.0
 11
143.969
 21
52.8588
 31
0.0
  0
LINE
  8
0
 62
     0
 10
143.969
 20
52.8588
 30
0.0
 11
143.17
 21
52.8588
 31
0.0
  0
LINE
  8
0
 62
     0
 10
143.17
 20
52.8588
 30
0.0
 11
143.17
 21
49.7582
 31
0.0
  0
LINE
  8
0
 62
     0
 10
143.17
 20
49.7582
 30
0.0
 11
143.969
 21
49.7582
 31
0.0
  0
LINE
  8
0
 62
     0
 10
143.969
 20
49.7582
 30
0.0
 11
143.969
 21
48.7578
 31
0.0
  0
LINE
  8
0
 62
     0
 10
143.969
 20
48.7578
 30
0.0
 11
157.97
 21
48.7578
 31
0.0
  0
LINE
  8
0
 62
     0
 10
157.97
 20
48.7578
 30
0.0
 11
157.97
 21
49.7582
 31
0.0
  0
LINE
  8
0
 62
     0
 10
157.97
 20
49.7582
 30
0.0
 11
158.769
 21
49.7582
 31
0.0
  0
LINE
  8
0
 62
     0
 10
158.769
 20
49.7582
 30
0.0
 11
158.769
 21
52.8588
 31
0.0
  0
LINE
  8
0
 62
     0
 10
158.769
 20
52.8588
 30
0.0
 11
157.97
 21
52.8588
 31
0.0
  0
LINE
  8
0
 62
     0
 10
157.97
 20
52.8588
 30
0.0
 11
157.97
 21
58.6588
 31
0.0
  0
LINE
  8
0
 62
     0
 10
157.97
 20
58.6588
 30
0.0
 11
158.769
 21
58.6588
 31
0.0
  0
LINE
  8
0
 62
     0
 10
158.769
 20
58.6588
 30
0.0
 11
158.769
 21
61.7583
 31
0.0
  0
LINE
  8
0
 62
     0
 10
158.769
 20
61.7583
 30
0.0
 11
157.97
 21
61.7583
 31
0.0
  0
LINE
  8
0
 62
     0
 10
157.97
 20
61.7583
 30
0.0
 11
157.97
 21
62.7585
 31
0.0
  0
LINE
  8
0
 62
     0
 10
157.97
 20
62.7585
 30
0.0
 11
143.969
 21
62.7585
 31
0.0
  0
LINE
  8
0
 62
     0
 10
124.919
 20
62.7585
 30
0.0
 11
124.919
 21
61.7583
 31
0.0
  0
LINE
  8
0
 62
     0
 10
124.919
 20
61.7583
 30
0.0
 11
124.119
 21
61.7583
 31
0.0
  0
LINE
  8
0
 62
     0
 10
124.119
 20
61.7583
 30
0.0
 11
124.119
 21
58.6588
 31
0.0
  0
LINE
  8
0
 62
     0
 10
124.119
 20
58.6588
 30
0.0
 11
124.919
 21
58.6588
 31
0.0
  0
LINE
  8
0
 62
     0
 10
124.919
 20
58.6588
 30
0.0
 11
124.919
 21
52.8588
 31
0.0
  0
LINE
  8
0
 62
     0
 10
124.919
 20
52.8588
 30
0.0
 11
124.119
 21
52.8588
 31
0.0
  0
LINE
  8
0
 62
     0
 10
124.119
 20
52.8588
 30
0.0
 11
124.119
 21
49.7582
 31
0.0
  0
LINE
  8
0
 62
     0
 10
124.119
 20
49.7582
 30
0.0
 11
124.919
 21
49.7582
 31
0.0
  0
LINE
  8
0
 62
     0
 10
124.919
 20
49.7582
 30
0.0
 11
124.919
 21
48.7578
 31
0.0
  0
LINE
  8
0
 62
     0
 10
124.919
 20
48.7578
 30
0.0
 11
138.92
 21
48.7578
 31
0.0
  0
LINE
  8
0
 62
     0
 10
138.92
 20
48.7578
 30
0.0
 11
138.92
 21
49.7582
 31
0.0
  0
LINE
  8
0
 62
     0
 10
138.92
 20
49.7582
 30
0.0
 11
139.719
 21
49.7582
 31
0.0
  0
LINE
  8
0
 62
     0
 10
139.719
 20
49.7582
 30
0.0
 11
139.719
 21
52.8588
 31
0.0
  0
LINE
  8
0
 62
     0
 10
139.719
 20
52.8588
 30
0.0
 11
138.92
 21
52.8588
 31
0.0
  0
LINE
  8
0
 62
     0
 10
138.92
 20
52.8588
 30
0.0
 11
138.92
 21
58.6588
 31
0.0
  0
LINE
  8
0
 62
     0
 10
138.92
 20
58.6588
 30
0.0
 11
139.719
 21
58.6588
 31
0.0
  0
LINE
  8
0
 62
     0
 10
139.719
 20
58.6588
 30
0.0
 11
139.719
 21
61.7583
 31
0.0
  0
LINE
  8
0
 62
     0
 10
139.719
 20
61.7583
 30
0.0
 11
138.92
 21
61.7583
 31
0.0
  0
LINE
  8
0
 62
     0
 10
138.92
 20
61.7583
 30
0.0
 11
138.92
 21
62.7585
 31
0.0
  0
LINE
  8
0
 62
     0
 10
138.92
 20
62.7585
 30
0.0
 11
124.919
 21
62.7585
 31
0.0
  0
LINE
  8
0
 62
     0
 10
105.869
 20
62.7585
 30
0.0
 11
105.869
 21
61.7583
 31
0.0
  0
LINE
  8
0
 62
     0
 10
105.869
 20
61.7583
 30
0.0
 11
105.07
 21
61.7583
 31
0.0
  0
LINE
  8
0
 62
     0
 10
105.07
 20
61.7583
 30
0.0
 11
105.07
 21
58.6588
 31
0.0
  0
LINE
  8
0
 62
     0
 10
105.07
 20
58.6588
 30
0.0
 11
105.869
 21
58.6588
 31
0.0
  0
LINE
  8
0
 62
     0
 10
105.869
 20
58.6588
 30
0.0
 11
105.869
 21
52.8588
 31
0.0
  0
LINE
  8
0
 62
     0
 10
105.869
 20
52.8588
 30
0.0
 11
105.07
 21
52.8588
 31
0.0
  0
LINE
  8
0
 62
     0
 10
105.07
 20
52.8588
 30
0.0
 11
105.07
 21
49.7582
 31
0.0
  0
LINE
  8
0
 62
     0
 10
105.07
 20
49.7582
 30
0.0
 11
105.869
 21
49.7582
 31
0.0
  0
LINE
  8
0
 62
     0
 10
105.869
 20
49.7582
 30
0.0
 11
105.869
 21
48.7578
 31
0.0
  0
LINE
  8
0
 62
     0
 10
105.869
 20
48.7578
 30
0.0
 11
119.869
 21
48.7578
 31
0.0
  0
LINE
  8
0
 62
     0
 10
119.869
 20
48.7578
 30
0.0
 11
119.869
 21
49.7582
 31
0.0
  0
LINE
  8
0
 62
     0
 10
119.869
 20
49.7582
 30
0.0
 11
120.668
 21
49.7582
 31
0.0
  0
LINE
  8
0
 62
     0
 10
120.668
 20
49.7582
 30
0.0
 11
120.668
 21
52.8588
 31
0.0
  0
LINE
  8
0
 62
     0
 10
120.668
 20
52.8588
 30
0.0
 11
119.869
 21
52.8588
 31
0.0
  0
LINE
  8
0
 62
     0
 10
119.869
 20
52.8588
 30
0.0
 11
119.869
 21
58.6588
 31
0.0
  0
LINE
  8
0
 62
     0
 10
119.869
 20
58.6588
 30
0.0
 11
120.668
 21
58.6588
 31
0.0
  0
LINE
  8
0
 62
     0
 10
120.668
 20
58.6588
 30
0.0
 11
120.668
 21
61.7583
 31
0.0
  0
LINE
  8
0
 62
     0
 10
120.668
 20
61.7583
 30
0.0
 11
119.869
 21
61.7583
 31
0.0
  0
LINE
  8
0
 62
     0
 10
119.869
 20
61.7583
 30
0.0
 11
119.869
 21
62.7585
 31
0.0
  0
LINE
  8
0
 62
     0
 10
119.869
 20
62.7585
 30
0.0
 11
105.869
 21
62.7585
 31
0.0
  0
LINE
  8
0
 62
     0
 10
86.8193
 20
62.7585
 30
0.0
 11
86.8193
 21
61.7583
 31
0.0
  0
LINE
  8
0
 62
     0
 10
86.8193
 20
61.7583
 30
0.0
 11
86.0199
 21
61.7583
 31
0.0
  0
LINE
  8
0
 62
     0
 10
86.0199
 20
61.7583
 30
0.0
 11
86.0199
 21
58.6588
 31
0.0
  0
LINE
  8
0
 62
     0
 10
86.0199
 20
58.6588
 30
0.0
 11
86.8193
 21
58.6588
 31
0.0
  0
LINE
  8
0
 62
     0
 10
86.8193
 20
58.6588
 30
0.0
 11
86.8193
 21
52.8588
 31
0.0
  0
LINE
  8
0
 62
     0
 10
86.8193
 20
52.8588
 30
0.0
 11
86.0199
 21
52.8588
 31
0.0
  0
LINE
  8
0
 62
     0
 10
86.0199
 20
52.8588
 30
0.0
 11
86.0199
 21
49.7582
 31
0.0
  0
LINE
  8
0
 62
     0
 10
86.0199
 20
49.7582
 30
0.0
 11
86.8193
 21
49.7582
 31
0.0
  0
LINE
  8
0
 62
     0
 10
86.8193
 20
49.7582
 30
0.0
 11
86.8193
 21
48.7578
 31
0.0
  0
LINE
  8
0
 62
     0
 10
86.8193
 20
48.7578
 30
0.0
 11
100.82
 21
48.7578
 31
0.0
  0
LINE
  8
0
 62
     0
 10
100.82
 20
48.7578
 30
0.0
 11
100.82
 21
49.7582
 31
0.0
  0
LINE
  8
0
 62
     0
 10
100.82
 20
49.7582
 30
0.0
 11
101.618
 21
49.7582
 31
0.0
  0
LINE
  8
0
 62
     0
 10
101.618
 20
49.7582
 30
0.0
 11
101.618
 21
52.8588
 31
0.0
  0
LINE
  8
0
 62
     0
 10
101.618
 20
52.8588
 30
0.0
 11
100.82
 21
52.8588
 31
0.0
  0
LINE
  8
0
 62
     0
 10
100.82
 20
52.8588
 30
0.0
 11
100.82
 21
58.6588
 31
0.0
  0
LINE
  8
0
 62
     0
 10
100.82
 20
58.6588
 30
0.0
 11
101.618
 21
58.6588
 31
0.0
  0
LINE
  8
0
 62
     0
 10
101.618
 20
58.6588
 30
0.0
 11
101.618
 21
61.7583
 31
0.0
  0
LINE
  8
0
 62
     0
 10
101.618
 20
61.7583
 30
0.0
 11
100.82
 21
61.7583
 31
0.0
  0
LINE
  8
0
 62
     0
 10
100.82
 20
61.7583
 30
0.0
 11
100.82
 21
62.7585
 31
0.0
  0
LINE
  8
0
 62
     0
 10
100.82
 20
62.7585
 30
0.0
 11
86.8193
 21
62.7585
 31
0.0
  0
LINE
  8
0
 62
     0
 10
67.7693
 20
62.7585
 30
0.0
 11
67.7693
 21
61.7583
 31
0.0
  0
LINE
  8
0
 62
     0
 10
67.7693
 20
61.7583
 30
0.0
 11
66.9699
 21
61.7583
 31
0.0
  0
LINE
  8
0
 62
     0
 10
66.9699
 20
61.7583
 30
0.0
 11
66.9699
 21
58.6588
 31
0.0
  0
LINE
  8
0
 62
     0
 10
66.9699
 20
58.6588
 30
0.0
 11
67.7693
 21
58.6588
 31
0.0
  0
LINE
  8
0
 62
     0
 10
67.7693
 20
58.6588
 30
0.0
 11
67.7693
 21
52.8588
 31
0.0
  0
LINE
  8
0
 62
     0
 10
67.7693
 20
52.8588
 30
0.0
 11
66.9699
 21
52.8588
 31
0.0
  0
LINE
  8
0
 62
     0
 10
66.9699
 20
52.8588
 30
0.0
 11
66.9699
 21
49.7582
 31
0.0
  0
LINE
  8
0
 62
     0
 10
66.9699
 20
49.7582
 30
0.0
 11
67.7693
 21
49.7582
 31
0.0
  0
LINE
  8
0
 62
     0
 10
67.7693
 20
49.7582
 30
0.0
 11
67.7693
 21
48.7578
 31
0.0
  0
LINE
  8
0
 62
     0
 10
67.7693
 20
48.7578
 30
0.0
 11
81.77
 21
48.7578
 31
0.0
  0
LINE
  8
0
 62
     0
 10
81.77
 20
48.7578
 30
0.0
 11
81.77
 21
49.7582
 31
0.0
  0
LINE
  8
0
 62
     0
 10
81.77
 20
49.7582
 30
0.0
 11
82.5694
 21
49.7582
 31
0.0
  0
LINE
  8
0
 62
     0
 10
82.5694
 20
49.7582
 30
0.0
 11
82.5694
 21
52.8588
 31
0.0
  0
LINE
  8
0
 62
     0
 10
82.5694
 20
52.8588
 30
0.0
 11
81.77
 21
52.8588
 31
0.0
  0
LINE
  8
0
 62
     0
 10
81.77
 20
52.8588
 30
0.0
 11
81.77
 21
58.6588
 31
0.0
  0
LINE
  8
0
 62
     0
 10
81.77
 20
58.6588
 30
0.0
 11
82.5694
 21
58.6588
 31
0.0
  0
LINE
  8
0
 62
     0
 10
82.5694
 20
58.6588
 30
0.0
 11
82.5694
 21
61.7583
 31
0.0
  0
LINE
  8
0
 62
     0
 10
82.5694
 20
61.7583
 30
0.0
 11
81.77
 21
61.7583
 31
0.0
  0
LINE
  8
0
 62
     0
 10
81.77
 20
61.7583
 30
0.0
 11
81.77
 21
62.7585
 31
0.0
  0
LINE
  8
0
 62
     0
 10
81.77
 20
62.7585
 30
0.0
 11
67.7693
 21
62.7585
 31
0.0
  0
LINE
  8
0
 62
     0
 10
48.7193
 20
62.7585
 30
0.0
 11
48.7193
 21
61.7583
 31
0.0
  0
LINE
  8
0
 62
     0
 10
48.7193
 20
61.7583
 30
0.0
 11
47.9199
 21
61.7583
 31
0.0
  0
LINE
  8
0
 62
     0
 10
47.9199
 20
61.7583
 30
0.0
 11
47.9199
 21
58.6588
 31
0.0
  0
LINE
  8
0
 62
     0
 10
47.9199
 20
58.6588
 30
0.0
 11
48.7193
 21
58.6588
 31
0.0
  0
LINE
  8
0
 62
     0
 10
48.7193
 20
58.6588
 30
0.0
 11
48.7193
 21
52.8588
 31
0.0
  0
LINE
  8
0
 62
     0
 10
48.7193
 20
52.8588
 30
0.0
 11
47.9199
 21
52.8588
 31
0.0
  0
LINE
  8
0
 62
     0
 10
47.9199
 20
52.8588
 30
0.0
 11
47.9199
 21
49.7582
 31
0.0
  0
LINE
  8
0
 62
     0
 10
47.9199
 20
49.7582
 30
0.0
 11
48.7193
 21
49.7582
 31
0.0
  0
LINE
  8
0
 62
     0
 10
48.7193
 20
49.7582
 30
0.0
 11
48.7193
 21
48.7578
 31
0.0
  0
LINE
  8
0
 62
     0
 10
48.7193
 20
48.7578
 30
0.0
 11
62.72
 21
48.7578
 31
0.0
  0
LINE
  8
0
 62
     0
 10
62.72
 20
48.7578
 30
0.0
 11
62.72
 21
49.7582
 31
0.0
  0
LINE
  8
0
 62
     0
 10
62.72
 20
49.7582
 30
0.0
 11
63.5194
 21
49.7582
 31
0.0
  0
LINE
  8
0
 62
     0
 10
63.5194
 20
49.7582
 30
0.0
 11
63.5194
 21
52.8588
 31
0.0
  0
LINE
  8
0
 62
     0
 10
63.5194
 20
52.8588
 30
0.0
 11
62.72
 21
52.8588
 31
0.0
  0
LINE
  8
0
 62
     0
 10
62.72
 20
52.8588
 30
0.0
 11
62.72
 21
58.6588
 31
0.0
  0
LINE
  8
0
 62
     0
 10
62.72
 20
58.6588
 30
0.0
 11
63.5194
 21
58.6588
 31
0.0
  0
LINE
  8
0
 62
     0
 10
63.5194
 20
58.6588
 30
0.0
 11
63.5194
 21
61.7583
 31
0.0
  0
LINE
  8
0
 62
     0
 10
63.5194
 20
61.7583
 30
0.0
 11
62.72
 21
61.7583
 31
0.0
  0
LINE
  8
0
 62
     0
 10
62.72
 20
61.7583
 30
0.0
 11
62.72
 21
62.7585
 31
0.0
  0
LINE
  8
0
 62
     0
 10
62.72
 20
62.7585
 30
0.0
 11
48.7193
 21
62.7585
 31
0.0
  0
LINE
  8
0
 62
     0
 10
29.6692
 20
62.7585
 30
0.0
 11
29.6692
 21
61.7583
 31
0.0
  0
LINE
  8
0
 62
     0
 10
29.6692
 20
61.7583
 30
0.0
 11
28.8699
 21
61.7583
 31
0.0
  0
LINE
  8
0
 62
     0
 10
28.8699
 20
61.7583
 30
0.0
 11
28.8699
 21
58.6588
 31
0.0
  0
LINE
  8
0
 62
     0
 10
28.8699
 20
58.6588
 30
0.0
 11
29.6692
 21
58.6588
 31
0.0
  0
LINE
  8
0
 62
     0
 10
29.6692
 20
58.6588
 30
0.0
 11
29.6692
 21
52.8588
 31
0.0
  0
LINE
  8
0
 62
     0
 10
29.6692
 20
52.8588
 30
0.0
 11
28.8699
 21
52.8588
 31
0.0
  0
LINE
  8
0
 62
     0
 10
28.8699
 20
52.8588
 30
0.0
 11
28.8699
 21
49.7582
 31
0.0
  0
LINE
  8
0
 62
     0
 10
28.8699
 20
49.7582
 30
0.0
 11
29.6692
 21
49.7582
 31
0.0
  0
LINE
  8
0
 62
     0
 10
29.6692
 20
49.7582
 30
0.0
 11
29.6692
 21
48.7578
 31
0.0
  0
LINE
  8
0
 62
     0
 10
29.6692
 20
48.7578
 30
0.0
 11
43.67
 21
48.7578
 31
0.0
  0
LINE
  8
0
 62
     0
 10
43.67
 20
48.7578
 30
0.0
 11
43.67
 21
49.7582
 31
0.0
  0
LINE
  8
0
 62
     0
 10
43.67
 20
49.7582
 30
0.0
 11
44.4694
 21
49.7582
 31
0.0
  0
LINE
  8
0
 62
     0
 10
44.4694
 20
49.7582
 30
0.0
 11
44.4694
 21
52.8588
 31
0.0
  0
LINE
  8
0
 62
     0
 10
44.4694
 20
52.8588
 30
0.0
 11
43.67
 21
52.8588
 31
0.0
  0
LINE
  8
0
 62
     0
 10
43.67
 20
52.8588
 30
0.0
 11
43.67
 21
58.6588
 31
0.0
  0
LINE
  8
0
 62
     0
 10
43.67
 20
58.6588
 30
0.0
 11
44.4694
 21
58.6588
 31
0.0
  0
LINE
  8
0
 62
     0
 10
44.4694
 20
58.6588
 30
0.0
 11
44.4694
 21
61.7583
 31
0.0
  0
LINE
  8
0
 62
     0
 10
44.4694
 20
61.7583
 30
0.0
 11
43.67
 21
61.7583
 31
0.0
  0
LINE
  8
0
 62
     0
 10
43.67
 20
61.7583
 30
0.0
 11
43.67
 21
62.7585
 31
0.0
  0
LINE
  8
0
 62
     0
 10
43.67
 20
62.7585
 30
0.0
 11
29.6692
 21
62.7585
 31
0.0
  0
LINE
  8
0
 62
     0
 10
10.6192
 20
62.7585
 30
0.0
 11
10.6192
 21
61.7583
 31
0.0
  0
LINE
  8
0
 62
     0
 10
10.6192
 20
61.7583
 30
0.0
 11
9.81851
 21
61.7583
 31
0.0
  0
LINE
  8
0
 62
     0
 10
9.81851
 20
61.7583
 30
0.0
 11
9.81851
 21
58.6588
 31
0.0
  0
LINE
  8
0
 62
     0
 10
9.81851
 20
58.6588
 30
0.0
 11
10.6192
 21
58.6588
 31
0.0
  0
LINE
  8
0
 62
     0
 10
10.6192
 20
58.6588
 30
0.0
 11
10.6192
 21
52.8588
 31
0.0
  0
LINE
  8
0
 62
     0
 10
10.6192
 20
52.8588
 30
0.0
 11
9.81851
 21
52.8588
 31
0.0
  0
LINE
  8
0
 62
     0
 10
9.81851
 20
52.8588
 30
0.0
 11
9.81851
 21
49.7582
 31
0.0
  0
LINE
  8
0
 62
     0
 10
9.81851
 20
49.7582
 30
0.0
 11
10.6192
 21
49.7582
 31
0.0
  0
LINE
  8
0
 62
     0
 10
10.6192
 20
49.7582
 30
0.0
 11
10.6192
 21
48.7578
 31
0.0
  0
LINE
  8
0
 62
     0
 10
10.6192
 20
48.7578
 30
0.0
 11
24.62
 21
48.7578
 31
0.0
  0
LINE
  8
0
 62
     0
 10
24.62
 20
48.7578
 30
0.0
 11
24.62
 21
49.7582
 31
0.0
  0
LINE
  8
0
 62
     0
 10
24.62
 20
49.7582
 30
0.0
 11
25.4193
 21
49.7582
 31
0.0
  0
LINE
  8
0
 62
     0
 10
25.4193
 20
49.7582
 30
0.0
 11
25.4193
 21
52.8588
 31
0.0
  0
LINE
  8
0
 62
     0
 10
25.4193
 20
52.8588
 30
0.0
 11
24.62
 21
52.8588
 31
0.0
  0
LINE
  8
0
 62
     0
 10
24.62
 20
52.8588
 30
0.0
 11
24.62
 21
58.6588
 31
0.0
  0
LINE
  8
0
 62
     0
 10
24.62
 20
58.6588
 30
0.0
 11
25.4193
 21
58.6588
 31
0.0
  0
LINE
  8
0
 62
     0
 10
25.4193
 20
58.6588
 30
0.0
 11
25.4193
 21
61.7583
 31
0.0
  0
LINE
  8
0
 62
     0
 10
25.4193
 20
61.7583
 30
0.0
 11
24.62
 21
61.7583
 31
0.0
  0
LINE
  8
0
 62
     0
 10
24.62
 20
61.7583
 30
0.0
 11
24.62
 21
62.7585
 31
0.0
  0
LINE
  8
0
 62
     0
 10
24.62
 20
62.7585
 30
0.0
 11
10.6192
 21
62.7585
 31
0.0
  0
LINE
  8
0
 62
     0
 10
182.069
 20
81.8085
 30
0.0
 11
182.069
 21
80.8083
 31
0.0
  0
LINE
  8
0
 62
     0
 10
182.069
 20
80.8083
 30
0.0
 11
181.27
 21
80.8083
 31
0.0
  0
LINE
  8
0
 62
     0
 10
181.27
 20
80.8083
 30
0.0
 11
181.27
 21
77.7088
 31
0.0
  0
LINE
  8
0
 62
     0
 10
181.27
 20
77.7088
 30
0.0
 11
182.069
 21
77.7088
 31
0.0
  0
LINE
  8
0
 62
     0
 10
182.069
 20
77.7088
 30
0.0
 11
182.069
 21
71.9088
 31
0.0
  0
LINE
  8
0
 62
     0
 10
182.069
 20
71.9088
 30
0.0
 11
181.27
 21
71.9088
 31
0.0
  0
LINE
  8
0
 62
     0
 10
181.27
 20
71.9088
 30
0.0
 11
181.27
 21
68.8082
 31
0.0
  0
LINE
  8
0
 62
     0
 10
181.27
 20
68.8082
 30
0.0
 11
182.069
 21
68.8082
 31
0.0
  0
LINE
  8
0
 62
     0
 10
182.069
 20
68.8082
 30
0.0
 11
182.069
 21
67.8078
 31
0.0
  0
LINE
  8
0
 62
     0
 10
182.069
 20
67.8078
 30
0.0
 11
196.07
 21
67.8078
 31
0.0
  0
LINE
  8
0
 62
     0
 10
196.07
 20
67.8078
 30
0.0
 11
196.07
 21
68.8082
 31
0.0
  0
LINE
  8
0
 62
     0
 10
196.07
 20
68.8082
 30
0.0
 11
196.869
 21
68.8082
 31
0.0
  0
LINE
  8
0
 62
     0
 10
196.869
 20
68.8082
 30
0.0
 11
196.869
 21
71.9088
 31
0.0
  0
LINE
  8
0
 62
     0
 10
196.869
 20
71.9088
 30
0.0
 11
196.07
 21
71.9088
 31
0.0
  0
LINE
  8
0
 62
     0
 10
196.07
 20
71.9088
 30
0.0
 11
196.07
 21
77.7088
 31
0.0
  0
LINE
  8
0
 62
     0
 10
196.07
 20
77.7088
 30
0.0
 11
196.869
 21
77.7088
 31
0.0
  0
LINE
  8
0
 62
     0
 10
196.869
 20
77.7088
 30
0.0
 11
196.869
 21
80.8083
 31
0.0
  0
LINE
  8
0
 62
     0
 10
196.869
 20
80.8083
 30
0.0
 11
196.07
 21
80.8083
 31
0.0
  0
LINE
  8
0
 62
     0
 10
196.07
 20
80.8083
 30
0.0
 11
196.07
 21
81.8085
 31
0.0
  0
LINE
  8
0
 62
     0
 10
196.07
 20
81.8085
 30
0.0
 11
182.069
 21
81.8085
 31
0.0
  0
LINE
  8
0
 62
     0
 10
163.019
 20
81.8085
 30
0.0
 11
163.019
 21
80.8083
 31
0.0
  0
LINE
  8
0
 62
     0
 10
163.019
 20
80.8083
 30
0.0
 11
162.22
 21
80.8083
 31
0.0
  0
LINE
  8
0
 62
     0
 10
162.22
 20
80.8083
 30
0.0
 11
162.22
 21
77.7088
 31
0.0
  0
LINE
  8
0
 62
     0
 10
162.22
 20
77.7088
 30
0.0
 11
163.019
 21
77.7088
 31
0.0
  0
LINE
  8
0
 62
     0
 10
163.019
 20
77.7088
 30
0.0
 11
163.019
 21
71.9088
 31
0.0
  0
LINE
  8
0
 62
     0
 10
163.019
 20
71.9088
 30
0.0
 11
162.22
 21
71.9088
 31
0.0
  0
LINE
  8
0
 62
     0
 10
162.22
 20
71.9088
 30
0.0
 11
162.22
 21
68.8082
 31
0.0
  0
LINE
  8
0
 62
     0
 10
162.22
 20
68.8082
 30
0.0
 11
163.019
 21
68.8082
 31
0.0
  0
LINE
  8
0
 62
     0
 10
163.019
 20
68.8082
 30
0.0
 11
163.019
 21
67.8078
 31
0.0
  0
LINE
  8
0
 62
     0
 10
163.019
 20
67.8078
 30
0.0
 11
177.02
 21
67.8078
 31
0.0
  0
LINE
  8
0
 62
     0
 10
177.02
 20
67.8078
 30
0.0
 11
177.02
 21
68.8082
 31
0.0
  0
LINE
  8
0
 62
     0
 10
177.02
 20
68.8082
 30
0.0
 11
177.819
 21
68.8082
 31
0.0
  0
LINE
  8
0
 62
     0
 10
177.819
 20
68.8082
 30
0.0
 11
177.819
 21
71.9088
 31
0.0
  0
LINE
  8
0
 62
     0
 10
177.819
 20
71.9088
 30
0.0
 11
177.02
 21
71.9088
 31
0.0
  0
LINE
  8
0
 62
     0
 10
177.02
 20
71.9088
 30
0.0
 11
177.02
 21
77.7088
 31
0.0
  0
LINE
  8
0
 62
     0
 10
177.02
 20
77.7088
 30
0.0
 11
177.819
 21
77.7088
 31
0.0
  0
LINE
  8
0
 62
     0
 10
177.819
 20
77.7088
 30
0.0
 11
177.819
 21
80.8083
 31
0.0
  0
LINE
  8
0
 62
     0
 10
177.819
 20
80.8083
 30
0.0
 11
177.02
 21
80.8083
 31
0.0
  0
LINE
  8
0
 62
     0
 10
177.02
 20
80.8083
 30
0.0
 11
177.02
 21
81.8085
 31
0.0
  0
LINE
  8
0
 62
     0
 10
177.02
 20
81.8085
 30
0.0
 11
163.019
 21
81.8085
 31
0.0
  0
LINE
  8
0
 62
     0
 10
143.969
 20
81.8085
 30
0.0
 11
143.969
 21
80.8083
 31
0.0
  0
LINE
  8
0
 62
     0
 10
143.969
 20
80.8083
 30
0.0
 11
143.17
 21
80.8083
 31
0.0
  0
LINE
  8
0
 62
     0
 10
143.17
 20
80.8083
 30
0.0
 11
143.17
 21
77.7088
 31
0.0
  0
LINE
  8
0
 62
     0
 10
143.17
 20
77.7088
 30
0.0
 11
143.969
 21
77.7088
 31
0.0
  0
LINE
  8
0
 62
     0
 10
143.969
 20
77.7088
 30
0.0
 11
143.969
 21
71.9088
 31
0.0
  0
LINE
  8
0
 62
     0
 10
143.969
 20
71.9088
 30
0.0
 11
143.17
 21
71.9088
 31
0.0
  0
LINE
  8
0
 62
     0
 10
143.17
 20
71.9088
 30
0.0
 11
143.17
 21
68.8082
 31
0.0
  0
LINE
  8
0
 62
     0
 10
143.17
 20
68.8082
 30
0.0
 11
143.969
 21
68.8082
 31
0.0
  0
LINE
  8
0
 62
     0
 10
143.969
 20
68.8082
 30
0.0
 11
143.969
 21
67.8078
 31
0.0
  0
LINE
  8
0
 62
     0
 10
143.969
 20
67.8078
 30
0.0
 11
157.97
 21
67.8078
 31
0.0
  0
LINE
  8
0
 62
     0
 10
157.97
 20
67.8078
 30
0.0
 11
157.97
 21
68.8082
 31
0.0
  0
LINE
  8
0
 62
     0
 10
157.97
 20
68.8082
 30
0.0
 11
158.769
 21
68.8082
 31
0.0
  0
LINE
  8
0
 62
     0
 10
158.769
 20
68.8082
 30
0.0
 11
158.769
 21
71.9088
 31
0.0
  0
LINE
  8
0
 62
     0
 10
158.769
 20
71.9088
 30
0.0
 11
157.97
 21
71.9088
 31
0.0
  0
LINE
  8
0
 62
     0
 10
157.97
 20
71.9088
 30
0.0
 11
157.97
 21
77.7088
 31
0.0
  0
LINE
  8
0
 62
     0
 10
157.97
 20
77.7088
 30
0.0
 11
158.769
 21
77.7088
 31
0.0
  0
LINE
  8
0
 62
     0
 10
158.769
 20
77.7088
 30
0.0
 11
158.769
 21
80.8083
 31
0.0
  0
LINE
  8
0
 62
     0
 10
158.769
 20
80.8083
 30
0.0
 11
157.97
 21
80.8083
 31
0.0
  0
LINE
  8
0
 62
     0
 10
157.97
 20
80.8083
 30
0.0
 11
157.97
 21
81.8085
 31
0.0
  0
LINE
  8
0
 62
     0
 10
157.97
 20
81.8085
 30
0.0
 11
143.969
 21
81.8085
 31
0.0
  0
LINE
  8
0
 62
     0
 10
124.919
 20
81.8085
 30
0.0
 11
124.919
 21
80.8083
 31
0.0
  0
LINE
  8
0
 62
     0
 10
124.919
 20
80.8083
 30
0.0
 11
124.119
 21
80.8083
 31
0.0
  0
LINE
  8
0
 62
     0
 10
124.119
 20
80.8083
 30
0.0
 11
124.119
 21
77.7088
 31
0.0
  0
LINE
  8
0
 62
     0
 10
124.119
 20
77.7088
 30
0.0
 11
124.919
 21
77.7088
 31
0.0
  0
LINE
  8
0
 62
     0
 10
124.919
 20
77.7088
 30
0.0
 11
124.919
 21
71.9088
 31
0.0
  0
LINE
  8
0
 62
     0
 10
124.919
 20
71.9088
 30
0.0
 11
124.119
 21
71.9088
 31
0.0
  0
LINE
  8
0
 62
     0
 10
124.119
 20
71.9088
 30
0.0
 11
124.119
 21
68.8082
 31
0.0
  0
LINE
  8
0
 62
     0
 10
124.119
 20
68.8082
 30
0.0
 11
124.919
 21
68.8082
 31
0.0
  0
LINE
  8
0
 62
     0
 10
124.919
 20
68.8082
 30
0.0
 11
124.919
 21
67.8078
 31
0.0
  0
LINE
  8
0
 62
     0
 10
124.919
 20
67.8078
 30
0.0
 11
138.92
 21
67.8078
 31
0.0
  0
LINE
  8
0
 62
     0
 10
138.92
 20
67.8078
 30
0.0
 11
138.92
 21
68.8082
 31
0.0
  0
LINE
  8
0
 62
     0
 10
138.92
 20
68.8082
 30
0.0
 11
139.719
 21
68.8082
 31
0.0
  0
LINE
  8
0
 62
     0
 10
139.719
 20
68.8082
 30
0.0
 11
139.719
 21
71.9088
 31
0.0
  0
LINE
  8
0
 62
     0
 10
139.719
 20
71.9088
 30
0.0
 11
138.92
 21
71.9088
 31
0.0
  0
LINE
  8
0
 62
     0
 10
138.92
 20
71.9088
 30
0.0
 11
138.92
 21
77.7088
 31
0.0
  0
LINE
  8
0
 62
     0
 10
138.92
 20
77.7088
 30
0.0
 11
139.719
 21
77.7088
 31
0.0
  0
LINE
  8
0
 62
     0
 10
139.719
 20
77.7088
 30
0.0
 11
139.719
 21
80.8083
 31
0.0
  0
LINE
  8
0
 62
     0
 10
139.719
 20
80.8083
 30
0.0
 11
138.92
 21
80.8083
 31
0.0
  0
LINE
  8
0
 62
     0
 10
138.92
 20
80.8083
 30
0.0
 11
138.92
 21
81.8085
 31
0.0
  0
LINE
  8
0
 62
     0
 10
138.92
 20
81.8085
 30
0.0
 11
124.919
 21
81.8085
 31
0.0
  0
LINE
  8
0
 62
     0
 10
105.869
 20
81.8085
 30
0.0
 11
105.869
 21
80.8083
 31
0.0
  0
LINE
  8
0
 62
     0
 10
105.869
 20
80.8083
 30
0.0
 11
105.07
 21
80.8083
 31
0.0
  0
LINE
  8
0
 62
     0
 10
105.07
 20
80.8083
 30
0.0
 11
105.07
 21
77.7088
 31
0.0
  0
LINE
  8
0
 62
     0
 10
105.07
 20
77.7088
 30
0.0
 11
105.869
 21
77.7088
 31
0.0
  0
LINE
  8
0
 62
     0
 10
105.869
 20
77.7088
 30
0.0
 11
105.869
 21
71.9088
 31
0.0
  0
LINE
  8
0
 62
     0
 10
105.869
 20
71.9088
 30
0.0
 11
105.07
 21
71.9088
 31
0.0
  0
LINE
  8
0
 62
     0
 10
105.07
 20
71.9088
 30
0.0
 11
105.07
 21
68.8082
 31
0.0
  0
LINE
  8
0
 62
     0
 10
105.07
 20
68.8082
 30
0.0
 11
105.869
 21
68.8082
 31
0.0
  0
LINE
  8
0
 62
     0
 10
105.869
 20
68.8082
 30
0.0
 11
105.869
 21
67.8078
 31
0.0
  0
LINE
  8
0
 62
     0
 10
105.869
 20
67.8078
 30
0.0
 11
119.869
 21
67.8078
 31
0.0
  0
LINE
  8
0
 62
     0
 10
119.869
 20
67.8078
 30
0.0
 11
119.869
 21
68.8082
 31
0.0
  0
LINE
  8
0
 62
     0
 10
119.869
 20
68.8082
 30
0.0
 11
120.668
 21
68.8082
 31
0.0
  0
LINE
  8
0
 62
     0
 10
120.668
 20
68.8082
 30
0.0
 11
120.668
 21
71.9088
 31
0.0
  0
LINE
  8
0
 62
     0
 10
120.668
 20
71.9088
 30
0.0
 11
119.869
 21
71.9088
 31
0.0
  0
LINE
  8
0
 62
     0
 10
119.869
 20
71.9088
 30
0.0
 11
119.869
 21
77.7088
 31
0.0
  0
LINE
  8
0
 62
     0
 10
119.869
 20
77.7088
 30
0.0
 11
120.668
 21
77.7088
 31
0.0
  0
LINE
  8
0
 62
     0
 10
120.668
 20
77.7088
 30
0.0
 11
120.668
 21
80.8083
 31
0.0
  0
LINE
  8
0
 62
     0
 10
120.668
 20
80.8083
 30
0.0
 11
119.869
 21
80.8083
 31
0.0
  0
LINE
  8
0
 62
     0
 10
119.869
 20
80.8083
 30
0.0
 11
119.869
 21
81.8085
 31
0.0
  0
LINE
  8
0
 62
     0
 10
119.869
 20
81.8085
 30
0.0
 11
105.869
 21
81.8085
 31
0.0
  0
LINE
  8
0
 62
     0
 10
86.8193
 20
81.8085
 30
0.0
 11
86.8193
 21
80.8083
 31
0.0
  0
LINE
  8
0
 62
     0
 10
86.8193
 20
80.8083
 30
0.0
 11
86.0199
 21
80.8083
 31
0.0
  0
LINE
  8
0
 62
     0
 10
86.0199
 20
80.8083
 30
0.0
 11
86.0199
 21
77.7088
 31
0.0
  0
LINE
  8
0
 62
     0
 10
86.0199
 20
77.7088
 30
0.0
 11
86.8193
 21
77.7088
 31
0.0
  0
LINE
  8
0
 62
     0
 10
86.8193
 20
77.7088
 30
0.0
 11
86.8193
 21
71.9088
 31
0.0
  0
LINE
  8
0
 62
     0
 10
86.8193
 20
71.9088
 30
0.0
 11
86.0199
 21
71.9088
 31
0.0
  0
LINE
  8
0
 62
     0
 10
86.0199
 20
71.9088
 30
0.0
 11
86.0199
 21
68.8082
 31
0.0
  0
LINE
  8
0
 62
     0
 10
86.0199
 20
68.8082
 30
0.0
 11
86.8193
 21
68.8082
 31
0.0
  0
LINE
  8
0
 62
     0
 10
86.8193
 20
68.8082
 30
0.0
 11
86.8193
 21
67.8078
 31
0.0
  0
LINE
  8
0
 62
     0
 10
86.8193
 20
67.8078
 30
0.0
 11
100.82
 21
67.8078
 31
0.0
  0
LINE
  8
0
 62
     0
 10
100.82
 20
67.8078
 30
0.0
 11
100.82
 21
68.8082
 31
0.0
  0
LINE
  8
0
 62
     0
 10
100.82
 20
68.8082
 30
0.0
 11
101.618
 21
68.8082
 31
0.0
  0
LINE
  8
0
 62
     0
 10
101.618
 20
68.8082
 30
0.0
 11
101.618
 21
71.9088
 31
0.0
  0
LINE
  8
0
 62
     0
 10
101.618
 20
71.9088
 30
0.0
 11
100.82
 21
71.9088
 31
0.0
  0
LINE
  8
0
 62
     0
 10
100.82
 20
71.9088
 30
0.0
 11
100.82
 21
77.7088
 31
0.0
  0
LINE
  8
0
 62
     0
 10
100.82
 20
77.7088
 30
0.0
 11
101.618
 21
77.7088
 31
0.0
  0
LINE
  8
0
 62
     0
 10
101.618
 20
77.7088
 30
0.0
 11
101.618
 21
80.8083
 31
0.0
  0
LINE
  8
0
 62
     0
 10
101.618
 20
80.8083
 30
0.0
 11
100.82
 21
80.8083
 31
0.0
  0
LINE
  8
0
 62
     0
 10
100.82
 20
80.8083
 30
0.0
 11
100.82
 21
81.8085
 31
0.0
  0
LINE
  8
0
 62
     0
 10
100.82
 20
81.8085
 30
0.0
 11
86.8193
 21
81.8085
 31
0.0
  0
LINE
  8
0
 62
     0
 10
67.7693
 20
81.8085
 30
0.0
 11
67.7693
 21
80.8083
 31
0.0
  0
LINE
  8
0
 62
     0
 10
67.7693
 20
80.8083
 30
0.0
 11
66.9699
 21
80.8083
 31
0.0
  0
LINE
  8
0
 62
     0
 10
66.9699
 20
80.8083
 30
0.0
 11
66.9699
 21
77.7088
 31
0.0
  0
LINE
  8
0
 62
     0
 10
66.9699
 20
77.7088
 30
0.0
 11
67.7693
 21
77.7088
 31
0.0
  0
LINE
  8
0
 62
     0
 10
67.7693
 20
77.7088
 30
0.0
 11
67.7693
 21
71.9088
 31
0.0
  0
LINE
  8
0
 62
     0
 10
67.7693
 20
71.9088
 30
0.0
 11
66.9699
 21
71.9088
 31
0.0
  0
LINE
  8
0
 62
     0
 10
66.9699
 20
71.9088
 30
0.0
 11
66.9699
 21
68.8082
 31
0.0
  0
LINE
  8
0
 62
     0
 10
66.9699
 20
68.8082
 30
0.0
 11
67.7693
 21
68.8082
 31
0.0
  0
LINE
  8
0
 62
     0
 10
67.7693
 20
68.8082
 30
0.0
 11
67.7693
 21
67.8078
 31
0.0
  0
LINE
  8
0
 62
     0
 10
67.7693
 20
67.8078
 30
0.0
 11
81.77
 21
67.8078
 31
0.0
  0
LINE
  8
0
 62
     0
 10
81.77
 20
67.8078
 30
0.0
 11
81.77
 21
68.8082
 31
0.0
  0
LINE
  8
0
 62
     0
 10
81.77
 20
68.8082
 30
0.0
 11
82.5694
 21
68.8082
 31
0.0
  0
LINE
  8
0
 62
     0
 10
82.5694
 20
68.8082
 30
0.0
 11
82.5694
 21
71.9088
 31
0.0
  0
LINE
  8
0
 62
     0
 10
82.5694
 20
71.9088
 30
0.0
 11
81.77
 21
71.9088
 31
0.0
  0
LINE
  8
0
 62
     0
 10
81.77
 20
71.9088
 30
0.0
 11
81.77
 21
77.7088
 31
0.0
  0
LINE
  8
0
 62
     0
 10
81.77
 20
77.7088
 30
0.0
 11
82.5694
 21
77.7088
 31
0.0
  0
LINE
  8
0
 62
     0
 10
82.5694
 20
77.7088
 30
0.0
 11
82.5694
 21
80.8083
 31
0.0
  0
LINE
  8
0
 62
     0
 10
82.5694
 20
80.8083
 30
0.0
 11
81.77
 21
80.8083
 31
0.0
  0
LINE
  8
0
 62
     0
 10
81.77
 20
80.8083
 30
0.0
 11
81.77
 21
81.8085
 31
0.0
  0
LINE
  8
0
 62
     0
 10
81.77
 20
81.8085
 30
0.0
 11
67.7693
 21
81.8085
 31
0.0
  0
LINE
  8
0
 62
     0
 10
48.7193
 20
81.8085
 30
0.0
 11
48.7193
 21
80.8083
 31
0.0
  0
LINE
  8
0
 62
     0
 10
48.7193
 20
80.8083
 30
0.0
 11
47.9199
 21
80.8083
 31
0.0
  0
LINE
  8
0
 62
     0
 10
47.9199
 20
80.8083
 30
0.0
 11
47.9199
 21
77.7088
 31
0.0
  0
LINE
  8
0
 62
     0
 10
47.9199
 20
77.7088
 30
0.0
 11
48.7193
 21
77.7088
 31
0.0
  0
LINE
  8
0
 62
     0
 10
48.7193
 20
77.7088
 30
0.0
 11
48.7193
 21
71.9088
 31
0.0
  0
LINE
  8
0
 62
     0
 10
48.7193
 20
71.9088
 30
0.0
 11
47.9199
 21
71.9088
 31
0.0
  0
LINE
  8
0
 62
     0
 10
47.9199
 20
71.9088
 30
0.0
 11
47.9199
 21
68.8082
 31
0.0
  0
LINE
  8
0
 62
     0
 10
47.9199
 20
68.8082
 30
0.0
 11
48.7193
 21
68.8082
 31
0.0
  0
LINE
  8
0
 62
     0
 10
48.7193
 20
68.8082
 30
0.0
 11
48.7193
 21
67.8078
 31
0.0
  0
LINE
  8
0
 62
     0
 10
48.7193
 20
67.8078
 30
0.0
 11
62.72
 21
67.8078
 31
0.0
  0
LINE
  8
0
 62
     0
 10
62.72
 20
67.8078
 30
0.0
 11
62.72
 21
68.8082
 31
0.0
  0
LINE
  8
0
 62
     0
 10
62.72
 20
68.8082
 30
0.0
 11
63.5194
 21
68.8082
 31
0.0
  0
LINE
  8
0
 62
     0
 10
63.5194
 20
68.8082
 30
0.0
 11
63.5194
 21
71.9088
 31
0.0
  0
LINE
  8
0
 62
     0
 10
63.5194
 20
71.9088
 30
0.0
 11
62.72
 21
71.9088
 31
0.0
  0
LINE
  8
0
 62
     0
 10
62.72
 20
71.9088
 30
0.0
 11
62.72
 21
77.7088
 31
0.0
  0
LINE
  8
0
 62
     0
 10
62.72
 20
77.7088
 30
0.0
 11
63.5194
 21
77.7088
 31
0.0
  0
LINE
  8
0
 62
     0
 10
63.5194
 20
77.7088
 30
0.0
 11
63.5194
 21
80.8083
 31
0.0
  0
LINE
  8
0
 62
     0
 10
63.5194
 20
80.8083
 30
0.0
 11
62.72
 21
80.8083
 31
0.0
  0
LINE
  8
0
 62
     0
 10
62.72
 20
80.8083
 30
0.0
 11
62.72
 21
81.8085
 31
0.0
  0
LINE
  8
0
 62
     0
 10
62.72
 20
81.8085
 30
0.0
 11
48.7193
 21
81.8085
 31
0.0
  0
LINE
  8
0
 62
     0
 10
29.6692
 20
81.8085
 30
0.0
 11
29.6692
 21
80.8083
 31
0.0
  0
LINE
  8
0
 62
     0
 10
29.6692
 20
80.8083
 30
0.0
 11
28.8699
 21
80.8083
 31
0.0
  0
LINE
  8
0
 62
     0
 10
28.8699
 20
80.8083
 30
0.0
 11
28.8699
 21
77.7088
 31
0.0
  0
LINE
  8
0
 62
     0
 10
28.8699
 20
77.7088
 30
0.0
 11
29.6692
 21
77.7088
 31
0.0
  0
LINE
  8
0
 62
     0
 10
29.6692
 20
77.7088
 30
0.0
 11
29.6692
 21
71.9088
 31
0.0
  0
LINE
  8
0
 62
     0
 10
29.6692
 20
71.9088
 30
0.0
 11
28.8699
 21
71.9088
 31
0.0
  0
LINE
  8
0
 62
     0
 10
28.8699
 20
71.9088
 30
0.0
 11
28.8699
 21
68.8082
 31
0.0
  0
LINE
  8
0
 62
     0
 10
28.8699
 20
68.8082
 30
0.0
 11
29.6692
 21
68.8082
 31
0.0
  0
LINE
  8
0
 62
     0
 10
29.6692
 20
68.8082
 30
0.0
 11
29.6692
 21
67.8078
 31
0.0
  0
LINE
  8
0
 62
     0
 10
29.6692
 20
67.8078
 30
0.0
 11
43.67
 21
67.8078
 31
0.0
  0
LINE
  8
0
 62
     0
 10
43.67
 20
67.8078
 30
0.0
 11
43.67
 21
68.8082
 31
0.0
  0
LINE
  8
0
 62
     0
 10
43.67
 20
68.8082
 30
0.0
 11
44.4694
 21
68.8082
 31
0.0
  0
LINE
  8
0
 62
     0
 10
44.4694
 20
68.8082
 30
0.0
 11
44.4694
 21
71.9088
 31
0.0
  0
LINE
  8
0
 62
     0
 10
44.4694
 20
71.9088
 30
0.0
 11
43.67
 21
71.9088
 31
0.0
  0
LINE
  8
0
 62
     0
 10
43.67
 20
71.9088
 30
0.0
 11
43.67
 21
77.7088
 31
0.0
  0
LINE
  8
0
 62
     0
 10
43.67
 20
77.7088
 30
0.0
 11
44.4694
 21
77.7088
 31
0.0
  0
LINE
  8
0
 62
     0
 10
44.4694
 20
77.7088
 30
0.0
 11
44.4694
 21
80.8083
 31
0.0
  0
LINE
  8
0
 62
     0
 10
44.4694
 20
80.8083
 30
0.0
 11
43.67
 21
80.8083
 31
0.0
  0
LINE
  8
0
 62
     0
 10
43.67
 20
80.8083
 30
0.0
 11
43.67
 21
81.8085
 31
0.0
  0
LINE
  8
0
 62
     0
 10
43.67
 20
81.8085
 30
0.0
 11
29.6692
 21
81.8085
 31
0.0
  0
LINE
  8
0
 62
     0
 10
10.6192
 20
81.8085
 30
0.0
 11
10.6192
 21
80.8083
 31
0.0
  0
LINE
  8
0
 62
     0
 10
10.6192
 20
80.8083
 30
0.0
 11
9.81851
 21
80.8083
 31
0.0
  0
LINE
  8
0
 62
     0
 10
9.81851
 20
80.8083
 30
0.0
 11
9.81851
 21
77.7088
 31
0.0
  0
LINE
  8
0
 62
     0
 10
9.81851
 20
77.7088
 30
0.0
 11
10.6192
 21
77.7088
 31
0.0
  0
LINE
  8
0
 62
     0
 10
10.6192
 20
77.7088
 30
0.0
 11
10.6192
 21
71.9088
 31
0.0
  0
LINE
  8
0
 62
     0
 10
10.6192
 20
71.9088
 30
0.0
 11
9.81851
 21
71.9088
 31
0.0
  0
LINE
  8
0
 62
     0
 10
9.81851
 20
71.9088
 30
0.0
 11
9.81851
 21
68.8082
 31
0.0
  0
LINE
  8
0
 62
     0
 10
9.81851
 20
68.8082
 30
0.0
 11
10.6192
 21
68.8082
 31
0.0
  0
LINE
  8
0
 62
     0
 10
10.6192
 20
68.8082
 30
0.0
 11
10.6192
 21
67.8078
 31
0.0
  0
LINE
  8
0
 62
     0
 10
10.6192
 20
67.8078
 30
0.0
 11
24.62
 21
67.8078
 31
0.0
  0
LINE
  8
0
 62
     0
 10
24.62
 20
67.8078
 30
0.0
 11
24.62
 21
68.8082
 31
0.0
  0
LINE
  8
0
 62
     0
 10
24.62
 20
68.8082
 30
0.0
 11
25.4193
 21
68.8082
 31
0.0
  0
LINE
  8
0
 62
     0
 10
25.4193
 20
68.8082
 30
0.0
 11
25.4193
 21
71.9088
 31
0.0
  0
LINE
  8
0
 62
     0
 10
25.4193
 20
71.9088
 30
0.0
 11
24.62
 21
71.9088
 31
0.0
  0
LINE
  8
0
 62
     0
 10
24.62
 20
71.9088
 30
0.0
 11
24.62
 21
77.7088
 31
0.0
  0
LINE
  8
0
 62
     0
 10
24.62
 20
77.7088
 30
0.0
 11
25.4193
 21
77.7088
 31
0.0
  0
LINE
  8
0
 62
     0
 10
25.4193
 20
77.7088
 30
0.0
 11
25.4193
 21
80.8083
 31
0.0
  0
LINE
  8
0
 62
     0
 10
25.4193
 20
80.8083
 30
0.0
 11
24.62
 21
80.8083
 31
0.0
  0
LINE
  8
0
 62
     0
 10
24.62
 20
80.8083
 30
0.0
 11
24.62
 21
81.8085
 31
0.0
  0
LINE
  8
0
 62
     0
 10
24.62
 20
81.8085
 30
0.0
 11
10.6192
 21
81.8085
 31
0.0
  0
LINE
  8
0
 62
     0
 10
3.47541
 20
90.2367
 30
0.0
 11
2.91869
 21
89.9527
 31
0.0
  0
LINE
  8
0
 62
     0
 10
2.91869
 20
89.9527
 30
0.0
 11
2.47496
 21
89.5092
 31
0.0
  0
LINE
  8
0
 62
     0
 10
2.47496
 20
89.5092
 30
0.0
 11
2.19108
 21
88.9522
 31
0.0
  0
LINE
  8
0
 62
     0
 10
2.19108
 20
88.9522
 30
0.0
 11
2.09324
 21
88.3338
 31
0.0
  0
LINE
  8
0
 62
     0
 10
2.09324
 20
88.3338
 30
0.0
 11
2.19108
 21
87.715
 31
0.0
  0
LINE
  8
0
 62
     0
 10
2.19108
 20
87.715
 30
0.0
 11
2.47496
 21
87.1583
 31
0.0
  0
LINE
  8
0
 62
     0
 10
2.47496
 20
87.1583
 30
0.0
 11
2.91869
 21
86.716
 31
0.0
  0
LINE
  8
0
 62
     0
 10
2.91869
 20
86.716
 30
0.0
 11
3.47541
 21
86.432
 31
0.0
  0
LINE
  8
0
 62
     0
 10
3.47541
 20
86.432
 30
0.0
 11
4.09416
 21
86.3328
 31
0.0
  0
LINE
  8
0
 62
     0
 10
4.09416
 20
86.3328
 30
0.0
 11
4.7129
 21
86.432
 31
0.0
  0
LINE
  8
0
 62
     0
 10
4.7129
 20
86.432
 30
0.0
 11
5.26962
 21
86.716
 31
0.0
  0
LINE
  8
0
 62
     0
 10
5.26962
 20
86.716
 30
0.0
 11
5.71197
 21
87.1583
 31
0.0
  0
LINE
  8
0
 62
     0
 10
5.71197
 20
87.1583
 30
0.0
 11
5.99585
 21
87.715
 31
0.0
  0
LINE
  8
0
 62
     0
 10
5.99585
 20
87.715
 30
0.0
 11
6.09505
 21
88.3338
 31
0.0
  0
LINE
  8
0
 62
     0
 10
6.09505
 20
88.3338
 30
0.0
 11
5.99585
 21
88.9522
 31
0.0
  0
LINE
  8
0
 62
     0
 10
5.99585
 20
88.9522
 30
0.0
 11
5.71197
 21
89.5092
 31
0.0
  0
LINE
  8
0
 62
     0
 10
5.71197
 20
89.5092
 30
0.0
 11
5.26962
 21
89.9527
 31
0.0
  0
LINE
  8
0
 62
     0
 10
5.26962
 20
89.9527
 30
0.0
 11
4.7129
 21
90.2367
 31
0.0
  0
LINE
  8
0
 62
     0
 10
4.7129
 20
90.2367
 30
0.0
 11
4.09416
 21
90.3333
 31
0.0
  0
LINE
  8
0
 62
     0
 10
4.09416
 20
90.3333
 30
0.0
 11
3.47541
 21
90.2367
 31
0.0
  0
LINE
  8
0
 62
     0
 10
201.976
 20
90.2367
 30
0.0
 11
201.42
 21
89.9527
 31
0.0
  0
LINE
  8
0
 62
     0
 10
201.42
 20
89.9527
 30
0.0
 11
200.976
 21
89.5092
 31
0.0
  0
LINE
  8
0
 62
     0
 10
200.976
 20
89.5092
 30
0.0
 11
200.692
 21
88.9522
 31
0.0
  0
LINE
  8
0
 62
     0
 10
200.692
 20
88.9522
 30
0.0
 11
200.595
 21
88.3338
 31
0.0
  0
LINE
  8
0
 62
     0
 10
200.595
 20
88.3338
 30
0.0
 11
200.692
 21
87.715
 31
0.0
  0
LINE
  8
0
 62
     0
 10
200.692
 20
87.715
 30
0.0
 11
200.976
 21
87.1583
 31
0.0
  0
LINE
  8
0
 62
     0
 10
200.976
 20
87.1583
 30
0.0
 11
201.42
 21
86.716
 31
0.0
  0
LINE
  8
0
 62
     0
 10
201.42
 20
86.716
 30
0.0
 11
201.976
 21
86.432
 31
0.0
  0
LINE
  8
0
 62
     0
 10
201.976
 20
86.432
 30
0.0
 11
202.595
 21
86.3328
 31
0.0
  0
LINE
  8
0
 62
     0
 10
202.595
 20
86.3328
 30
0.0
 11
203.214
 21
86.432
 31
0.0
  0
LINE
  8
0
 62
     0
 10
203.214
 20
86.432
 30
0.0
 11
203.77
 21
86.716
 31
0.0
  0
LINE
  8
0
 62
     0
 10
203.77
 20
86.716
 30
0.0
 11
204.213
 21
87.1583
 31
0.0
  0
LINE
  8
0
 62
     0
 10
204.213
 20
87.1583
 30
0.0
 11
204.498
 21
87.715
 31
0.0
  0
LINE
  8
0
 62
     0
 10
204.498
 20
87.715
 30
0.0
 11
204.596
 21
88.3338
 31
0.0
  0
LINE
  8
0
 62
     0
 10
204.596
 20
88.3338
 30
0.0
 11
204.498
 21
88.9522
 31
0.0
  0
LINE
  8
0
 62
     0
 10
204.498
 20
88.9522
 30
0.0
 11
204.213
 21
89.5092
 31
0.0
  0
LINE
  8
0
 62
     0
 10
204.213
 20
89.5092
 30
0.0
 11
203.77
 21
89.9527
 31
0.0
  0
LINE
  8
0
 62
     0
 10
203.77
 20
89.9527
 30
0.0
 11
203.214
 21
90.2367
 31
0.0
  0
LINE
  8
0
 62
     0
 10
203.214
 20
90.2367
 30
0.0
 11
202.595
 21
90.3333
 31
0.0
  0
LINE
  8
0
 62
     0
 10
202.595
 20
90.3333
 30
0.0
 11
201.976
 21
90.2367
 31
0.0
  0
LINE
  8
0
 62
     0
 10
102.726
 20
90.2367
 30
0.0
 11
102.169
 21
89.9527
 31
0.0
  0
LINE
  8
0
 62
     0
 10
102.169
 20
89.9527
 30
0.0
 11
101.727
 21
89.5092
 31
0.0
  0
LINE
  8
0
 62
     0
 10
101.727
 20
89.5092
 30
0.0
 11
101.443
 21
88.9522
 31
0.0
  0
LINE
  8
0
 62
     0
 10
101.443
 20
88.9522
 30
0.0
 11
101.345
 21
88.3338
 31
0.0
  0
LINE
  8
0
 62
     0
 10
101.345
 20
88.3338
 30
0.0
 11
101.443
 21
87.715
 31
0.0
  0
LINE
  8
0
 62
     0
 10
101.443
 20
87.715
 30
0.0
 11
101.727
 21
87.1583
 31
0.0
  0
LINE
  8
0
 62
     0
 10
101.727
 20
87.1583
 30
0.0
 11
102.169
 21
86.716
 31
0.0
  0
LINE
  8
0
 62
     0
 10
102.169
 20
86.716
 30
0.0
 11
102.726
 21
86.432
 31
0.0
  0
LINE
  8
0
 62
     0
 10
102.726
 20
86.432
 30
0.0
 11
103.344
 21
86.3328
 31
0.0
  0
LINE
  8
0
 62
     0
 10
103.344
 20
86.3328
 30
0.0
 11
103.962
 21
86.432
 31
0.0
  0
LINE
  8
0
 62
     0
 10
103.962
 20
86.432
 30
0.0
 11
104.52
 21
86.716
 31
0.0
  0
LINE
  8
0
 62
     0
 10
104.52
 20
86.716
 30
0.0
 11
104.962
 21
87.1583
 31
0.0
  0
LINE
  8
0
 62
     0
 10
104.962
 20
87.1583
 30
0.0
 11
105.246
 21
87.715
 31
0.0
  0
LINE
  8
0
 62
     0
 10
105.246
 20
87.715
 30
0.0
 11
105.344
 21
88.3338
 31
0.0
  0
LINE
  8
0
 62
     0
 10
105.344
 20
88.3338
 30
0.0
 11
105.246
 21
88.9522
 31
0.0
  0
LINE
  8
0
 62
     0
 10
105.246
 20
88.9522
 30
0.0
 11
104.962
 21
89.5092
 31
0.0
  0
LINE
  8
0
 62
     0
 10
104.962
 20
89.5092
 30
0.0
 11
104.52
 21
89.9527
 31
0.0
  0
LINE
  8
0
 62
     0
 10
104.52
 20
89.9527
 30
0.0
 11
103.962
 21
90.2367
 31
0.0
  0
LINE
  8
0
 62
     0
 10
103.962
 20
90.2367
 30
0.0
 11
103.344
 21
90.3333
 31
0.0
  0
LINE
  8
0
 62
     0
 10
103.344
 20
90.3333
 30
0.0
 11
102.726
 21
90.2367
 31
0.0
  0
ENDSEC
  0
EOF
