M48
; DRILL file {KiCad (5.1.12-1-10_14)} date Monday, February 07, 2022 at 10:25:42 PM
; FORMAT={-:-/ absolute / metric / decimal}
; #@! TF.CreationDate,2022-02-07T22:25:42-07:00
; #@! TF.GenerationSoftware,Kicad,Pcbnew,(5.1.12-1-10_14)
; #@! TF.FileFunction,NonPlated,1,2,NPTH
FMAT,2
METRIC
T1C1.702
T2C2.200
T3C3.000
T4C3.988
%
G90
G05
T1
X24.52Y-28.319
X24.52Y-47.369
X24.52Y-66.419
X34.68Y-28.319
X34.68Y-47.369
X34.68Y-66.419
X43.57Y-28.319
X43.57Y-47.369
X43.57Y-66.419
X53.73Y-28.319
X53.73Y-47.369
X53.73Y-66.419
X62.62Y-28.319
X62.62Y-47.369
X62.62Y-66.419
X62.62Y-85.469
X72.78Y-28.319
X72.78Y-47.369
X72.78Y-66.419
X72.78Y-85.469
X81.67Y-28.319
X81.67Y-47.369
X81.67Y-66.419
X81.67Y-85.469
X91.83Y-28.319
X91.83Y-47.369
X91.83Y-66.419
X91.83Y-85.469
X100.72Y-28.319
X100.72Y-47.369
X100.72Y-66.419
X100.72Y-85.469
X110.88Y-28.319
X110.88Y-47.369
X110.88Y-66.419
X110.88Y-85.469
X119.77Y-28.319
X119.77Y-47.369
X119.77Y-66.419
X119.77Y-85.469
X129.93Y-28.319
X129.93Y-47.369
X129.93Y-66.419
X129.93Y-85.469
X138.82Y-28.319
X138.82Y-47.369
X138.82Y-66.419
X138.82Y-85.469
X148.98Y-28.319
X148.98Y-47.369
X148.98Y-66.419
X148.98Y-85.469
X157.87Y-28.319
X157.87Y-47.369
X157.87Y-66.419
X157.87Y-85.469
X168.03Y-28.319
X168.03Y-47.369
X168.03Y-66.419
X168.03Y-85.469
X176.92Y-28.319
X176.92Y-47.369
X176.92Y-66.419
X187.08Y-28.319
X187.08Y-47.369
X187.08Y-66.419
X195.97Y-28.319
X195.97Y-47.369
X195.97Y-66.419
X206.13Y-28.319
X206.13Y-47.369
X206.13Y-66.419
T2
X39.125Y-56.894
X58.175Y-37.844
X58.175Y-75.944
X172.475Y-37.844
X172.475Y-75.944
X191.525Y-56.894
T3
X25.79Y-25.779
X25.79Y-44.829
X25.79Y-63.879
X32.14Y-23.239
X32.14Y-42.289
X32.14Y-61.339
X44.84Y-25.779
X44.84Y-44.829
X44.84Y-63.879
X51.19Y-23.239
X51.19Y-42.289
X51.19Y-61.339
X63.89Y-25.779
X63.89Y-44.829
X63.89Y-63.879
X63.89Y-82.929
X70.24Y-23.239
X70.24Y-42.289
X70.24Y-61.339
X70.24Y-80.389
X82.94Y-25.779
X82.94Y-44.829
X82.94Y-63.879
X82.94Y-82.929
X89.29Y-23.239
X89.29Y-42.289
X89.29Y-61.339
X89.29Y-80.389
X101.99Y-25.779
X101.99Y-44.829
X101.99Y-63.879
X101.99Y-82.929
X108.34Y-23.239
X108.34Y-42.289
X108.34Y-61.339
X108.34Y-80.389
X121.04Y-25.779
X121.04Y-44.829
X121.04Y-63.879
X121.04Y-82.929
X127.39Y-23.239
X127.39Y-42.289
X127.39Y-61.339
X127.39Y-80.389
X140.09Y-25.779
X140.09Y-44.829
X140.09Y-63.879
X140.09Y-82.929
X146.44Y-23.239
X146.44Y-42.289
X146.44Y-61.339
X146.44Y-80.389
X159.14Y-25.779
X159.14Y-44.829
X159.14Y-63.879
X159.14Y-82.929
X165.49Y-23.239
X165.49Y-42.289
X165.49Y-61.339
X165.49Y-80.389
X178.19Y-25.779
X178.19Y-44.829
X178.19Y-63.879
X184.54Y-23.239
X184.54Y-42.289
X184.54Y-61.339
X197.24Y-25.779
X197.24Y-44.829
X197.24Y-63.879
X203.59Y-23.239
X203.59Y-42.289
X203.59Y-61.339
T4
X29.6Y-28.319
X29.6Y-47.369
X29.6Y-66.419
X48.65Y-28.319
X48.65Y-47.369
X48.65Y-66.419
X67.7Y-28.319
X67.7Y-47.369
X67.7Y-66.419
X67.7Y-85.469
X86.75Y-28.319
X86.75Y-47.369
X86.75Y-66.419
X86.75Y-85.469
X105.8Y-28.319
X105.8Y-47.369
X105.8Y-66.419
X105.8Y-85.469
X124.85Y-28.319
X124.85Y-47.369
X124.85Y-66.419
X124.85Y-85.469
X143.9Y-28.319
X143.9Y-47.369
X143.9Y-66.419
X143.9Y-85.469
X162.95Y-28.319
X162.95Y-47.369
X162.95Y-66.419
X162.95Y-85.469
X182.0Y-28.319
X182.0Y-47.369
X182.0Y-66.419
X201.05Y-28.319
X201.05Y-47.369
X201.05Y-66.419
T0
M30
