%TF.GenerationSoftware,KiCad,Pcbnew,(5.1.12-1-10_14)*%
%TF.CreationDate,2022-02-07T22:24:56-07:00*%
%TF.ProjectId,youwu36,796f7577-7533-4362-9e6b-696361645f70,rev?*%
%TF.SameCoordinates,Original*%
%TF.FileFunction,Legend,Top*%
%TF.FilePolarity,Positive*%
%FSLAX46Y46*%
G04 Gerber Fmt 4.6, Leading zero omitted, Abs format (unit mm)*
G04 Created by KiCad (PCBNEW (5.1.12-1-10_14)) date 2022-02-07 22:24:56*
%MOMM*%
%LPD*%
G01*
G04 APERTURE LIST*
%ADD10C,0.150000*%
%ADD11C,0.381000*%
%ADD12C,2.600000*%
%ADD13C,2.101800*%
%ADD14C,4.387800*%
%ADD15C,3.400000*%
%ADD16C,2.152600*%
G04 APERTURE END LIST*
D10*
%TO.C,SW23*%
X136900000Y-22318750D02*
X136900000Y-21318750D01*
X136900000Y-35318750D02*
X137900000Y-35318750D01*
X137900000Y-21318750D02*
X136900000Y-21318750D01*
X136900000Y-35318750D02*
X136900000Y-34318750D01*
X150900000Y-34318750D02*
X150900000Y-35318750D01*
X150900000Y-21318750D02*
X149900000Y-21318750D01*
X149900000Y-35318750D02*
X150900000Y-35318750D01*
X150900000Y-21318750D02*
X150900000Y-22318750D01*
%TO.C,SW36*%
X194050000Y-60418750D02*
X194050000Y-59418750D01*
X194050000Y-73418750D02*
X195050000Y-73418750D01*
X195050000Y-59418750D02*
X194050000Y-59418750D01*
X194050000Y-73418750D02*
X194050000Y-72418750D01*
X208050000Y-72418750D02*
X208050000Y-73418750D01*
X208050000Y-59418750D02*
X207050000Y-59418750D01*
X207050000Y-73418750D02*
X208050000Y-73418750D01*
X208050000Y-59418750D02*
X208050000Y-60418750D01*
%TO.C,SW35*%
X194050000Y-41368750D02*
X194050000Y-40368750D01*
X194050000Y-54368750D02*
X195050000Y-54368750D01*
X195050000Y-40368750D02*
X194050000Y-40368750D01*
X194050000Y-54368750D02*
X194050000Y-53368750D01*
X208050000Y-53368750D02*
X208050000Y-54368750D01*
X208050000Y-40368750D02*
X207050000Y-40368750D01*
X207050000Y-54368750D02*
X208050000Y-54368750D01*
X208050000Y-40368750D02*
X208050000Y-41368750D01*
%TO.C,SW24*%
X136900000Y-41368750D02*
X136900000Y-40368750D01*
X136900000Y-54368750D02*
X137900000Y-54368750D01*
X137900000Y-40368750D02*
X136900000Y-40368750D01*
X136900000Y-54368750D02*
X136900000Y-53368750D01*
X150900000Y-53368750D02*
X150900000Y-54368750D01*
X150900000Y-40368750D02*
X149900000Y-40368750D01*
X149900000Y-54368750D02*
X150900000Y-54368750D01*
X150900000Y-40368750D02*
X150900000Y-41368750D01*
%TO.C,SW25*%
X136900000Y-60418750D02*
X136900000Y-59418750D01*
X136900000Y-73418750D02*
X137900000Y-73418750D01*
X137900000Y-59418750D02*
X136900000Y-59418750D01*
X136900000Y-73418750D02*
X136900000Y-72418750D01*
X150900000Y-72418750D02*
X150900000Y-73418750D01*
X150900000Y-59418750D02*
X149900000Y-59418750D01*
X149900000Y-73418750D02*
X150900000Y-73418750D01*
X150900000Y-59418750D02*
X150900000Y-60418750D01*
%TO.C,SW26*%
X136900000Y-79468750D02*
X136900000Y-78468750D01*
X136900000Y-92468750D02*
X137900000Y-92468750D01*
X137900000Y-78468750D02*
X136900000Y-78468750D01*
X136900000Y-92468750D02*
X136900000Y-91468750D01*
X150900000Y-91468750D02*
X150900000Y-92468750D01*
X150900000Y-78468750D02*
X149900000Y-78468750D01*
X149900000Y-92468750D02*
X150900000Y-92468750D01*
X150900000Y-78468750D02*
X150900000Y-79468750D01*
%TO.C,SW27*%
X155950000Y-22318750D02*
X155950000Y-21318750D01*
X155950000Y-35318750D02*
X156950000Y-35318750D01*
X156950000Y-21318750D02*
X155950000Y-21318750D01*
X155950000Y-35318750D02*
X155950000Y-34318750D01*
X169950000Y-34318750D02*
X169950000Y-35318750D01*
X169950000Y-21318750D02*
X168950000Y-21318750D01*
X168950000Y-35318750D02*
X169950000Y-35318750D01*
X169950000Y-21318750D02*
X169950000Y-22318750D01*
%TO.C,SW28*%
X155950000Y-41368750D02*
X155950000Y-40368750D01*
X155950000Y-54368750D02*
X156950000Y-54368750D01*
X156950000Y-40368750D02*
X155950000Y-40368750D01*
X155950000Y-54368750D02*
X155950000Y-53368750D01*
X169950000Y-53368750D02*
X169950000Y-54368750D01*
X169950000Y-40368750D02*
X168950000Y-40368750D01*
X168950000Y-54368750D02*
X169950000Y-54368750D01*
X169950000Y-40368750D02*
X169950000Y-41368750D01*
%TO.C,SW29*%
X155950000Y-60418750D02*
X155950000Y-59418750D01*
X155950000Y-73418750D02*
X156950000Y-73418750D01*
X156950000Y-59418750D02*
X155950000Y-59418750D01*
X155950000Y-73418750D02*
X155950000Y-72418750D01*
X169950000Y-72418750D02*
X169950000Y-73418750D01*
X169950000Y-59418750D02*
X168950000Y-59418750D01*
X168950000Y-73418750D02*
X169950000Y-73418750D01*
X169950000Y-59418750D02*
X169950000Y-60418750D01*
%TO.C,SW30*%
X155950000Y-79468750D02*
X155950000Y-78468750D01*
X155950000Y-92468750D02*
X156950000Y-92468750D01*
X156950000Y-78468750D02*
X155950000Y-78468750D01*
X155950000Y-92468750D02*
X155950000Y-91468750D01*
X169950000Y-91468750D02*
X169950000Y-92468750D01*
X169950000Y-78468750D02*
X168950000Y-78468750D01*
X168950000Y-92468750D02*
X169950000Y-92468750D01*
X169950000Y-78468750D02*
X169950000Y-79468750D01*
%TO.C,SW31*%
X175000000Y-22318750D02*
X175000000Y-21318750D01*
X175000000Y-35318750D02*
X176000000Y-35318750D01*
X176000000Y-21318750D02*
X175000000Y-21318750D01*
X175000000Y-35318750D02*
X175000000Y-34318750D01*
X189000000Y-34318750D02*
X189000000Y-35318750D01*
X189000000Y-21318750D02*
X188000000Y-21318750D01*
X188000000Y-35318750D02*
X189000000Y-35318750D01*
X189000000Y-21318750D02*
X189000000Y-22318750D01*
%TO.C,SW32*%
X175000000Y-41368750D02*
X175000000Y-40368750D01*
X175000000Y-54368750D02*
X176000000Y-54368750D01*
X176000000Y-40368750D02*
X175000000Y-40368750D01*
X175000000Y-54368750D02*
X175000000Y-53368750D01*
X189000000Y-53368750D02*
X189000000Y-54368750D01*
X189000000Y-40368750D02*
X188000000Y-40368750D01*
X188000000Y-54368750D02*
X189000000Y-54368750D01*
X189000000Y-40368750D02*
X189000000Y-41368750D01*
%TO.C,SW33*%
X175000000Y-60418750D02*
X175000000Y-59418750D01*
X175000000Y-73418750D02*
X176000000Y-73418750D01*
X176000000Y-59418750D02*
X175000000Y-59418750D01*
X175000000Y-73418750D02*
X175000000Y-72418750D01*
X189000000Y-72418750D02*
X189000000Y-73418750D01*
X189000000Y-59418750D02*
X188000000Y-59418750D01*
X188000000Y-73418750D02*
X189000000Y-73418750D01*
X189000000Y-59418750D02*
X189000000Y-60418750D01*
%TO.C,SW34*%
X194050000Y-22318750D02*
X194050000Y-21318750D01*
X194050000Y-35318750D02*
X195050000Y-35318750D01*
X195050000Y-21318750D02*
X194050000Y-21318750D01*
X194050000Y-35318750D02*
X194050000Y-34318750D01*
X208050000Y-34318750D02*
X208050000Y-35318750D01*
X208050000Y-21318750D02*
X207050000Y-21318750D01*
X207050000Y-35318750D02*
X208050000Y-35318750D01*
X208050000Y-21318750D02*
X208050000Y-22318750D01*
%TO.C,SW22*%
X117850000Y-79468750D02*
X117850000Y-78468750D01*
X117850000Y-92468750D02*
X118850000Y-92468750D01*
X118850000Y-78468750D02*
X117850000Y-78468750D01*
X117850000Y-92468750D02*
X117850000Y-91468750D01*
X131850000Y-91468750D02*
X131850000Y-92468750D01*
X131850000Y-78468750D02*
X130850000Y-78468750D01*
X130850000Y-92468750D02*
X131850000Y-92468750D01*
X131850000Y-78468750D02*
X131850000Y-79468750D01*
%TO.C,SW18*%
X98800000Y-79468750D02*
X98800000Y-78468750D01*
X98800000Y-92468750D02*
X99800000Y-92468750D01*
X99800000Y-78468750D02*
X98800000Y-78468750D01*
X98800000Y-92468750D02*
X98800000Y-91468750D01*
X112800000Y-91468750D02*
X112800000Y-92468750D01*
X112800000Y-78468750D02*
X111800000Y-78468750D01*
X111800000Y-92468750D02*
X112800000Y-92468750D01*
X112800000Y-78468750D02*
X112800000Y-79468750D01*
%TO.C,SW15*%
X98800000Y-22318750D02*
X98800000Y-21318750D01*
X98800000Y-35318750D02*
X99800000Y-35318750D01*
X99800000Y-21318750D02*
X98800000Y-21318750D01*
X98800000Y-35318750D02*
X98800000Y-34318750D01*
X112800000Y-34318750D02*
X112800000Y-35318750D01*
X112800000Y-21318750D02*
X111800000Y-21318750D01*
X111800000Y-35318750D02*
X112800000Y-35318750D01*
X112800000Y-21318750D02*
X112800000Y-22318750D01*
%TO.C,SW13*%
X79750000Y-60418750D02*
X79750000Y-59418750D01*
X79750000Y-73418750D02*
X80750000Y-73418750D01*
X80750000Y-59418750D02*
X79750000Y-59418750D01*
X79750000Y-73418750D02*
X79750000Y-72418750D01*
X93750000Y-72418750D02*
X93750000Y-73418750D01*
X93750000Y-59418750D02*
X92750000Y-59418750D01*
X92750000Y-73418750D02*
X93750000Y-73418750D01*
X93750000Y-59418750D02*
X93750000Y-60418750D01*
%TO.C,SW11*%
X79750000Y-22318750D02*
X79750000Y-21318750D01*
X79750000Y-35318750D02*
X80750000Y-35318750D01*
X80750000Y-21318750D02*
X79750000Y-21318750D01*
X79750000Y-35318750D02*
X79750000Y-34318750D01*
X93750000Y-34318750D02*
X93750000Y-35318750D01*
X93750000Y-21318750D02*
X92750000Y-21318750D01*
X92750000Y-35318750D02*
X93750000Y-35318750D01*
X93750000Y-21318750D02*
X93750000Y-22318750D01*
%TO.C,SW14*%
X79750000Y-79468750D02*
X79750000Y-78468750D01*
X79750000Y-92468750D02*
X80750000Y-92468750D01*
X80750000Y-78468750D02*
X79750000Y-78468750D01*
X79750000Y-92468750D02*
X79750000Y-91468750D01*
X93750000Y-91468750D02*
X93750000Y-92468750D01*
X93750000Y-78468750D02*
X92750000Y-78468750D01*
X92750000Y-92468750D02*
X93750000Y-92468750D01*
X93750000Y-78468750D02*
X93750000Y-79468750D01*
%TO.C,SW17*%
X98800000Y-60418750D02*
X98800000Y-59418750D01*
X98800000Y-73418750D02*
X99800000Y-73418750D01*
X99800000Y-59418750D02*
X98800000Y-59418750D01*
X98800000Y-73418750D02*
X98800000Y-72418750D01*
X112800000Y-72418750D02*
X112800000Y-73418750D01*
X112800000Y-59418750D02*
X111800000Y-59418750D01*
X111800000Y-73418750D02*
X112800000Y-73418750D01*
X112800000Y-59418750D02*
X112800000Y-60418750D01*
%TO.C,SW12*%
X79750000Y-41368750D02*
X79750000Y-40368750D01*
X79750000Y-54368750D02*
X80750000Y-54368750D01*
X80750000Y-40368750D02*
X79750000Y-40368750D01*
X79750000Y-54368750D02*
X79750000Y-53368750D01*
X93750000Y-53368750D02*
X93750000Y-54368750D01*
X93750000Y-40368750D02*
X92750000Y-40368750D01*
X92750000Y-54368750D02*
X93750000Y-54368750D01*
X93750000Y-40368750D02*
X93750000Y-41368750D01*
%TO.C,SW16*%
X98800000Y-41368750D02*
X98800000Y-40368750D01*
X98800000Y-54368750D02*
X99800000Y-54368750D01*
X99800000Y-40368750D02*
X98800000Y-40368750D01*
X98800000Y-54368750D02*
X98800000Y-53368750D01*
X112800000Y-53368750D02*
X112800000Y-54368750D01*
X112800000Y-40368750D02*
X111800000Y-40368750D01*
X111800000Y-54368750D02*
X112800000Y-54368750D01*
X112800000Y-40368750D02*
X112800000Y-41368750D01*
%TO.C,SW19*%
X117850000Y-22318750D02*
X117850000Y-21318750D01*
X117850000Y-35318750D02*
X118850000Y-35318750D01*
X118850000Y-21318750D02*
X117850000Y-21318750D01*
X117850000Y-35318750D02*
X117850000Y-34318750D01*
X131850000Y-34318750D02*
X131850000Y-35318750D01*
X131850000Y-21318750D02*
X130850000Y-21318750D01*
X130850000Y-35318750D02*
X131850000Y-35318750D01*
X131850000Y-21318750D02*
X131850000Y-22318750D01*
%TO.C,SW20*%
X117850000Y-41368750D02*
X117850000Y-40368750D01*
X117850000Y-54368750D02*
X118850000Y-54368750D01*
X118850000Y-40368750D02*
X117850000Y-40368750D01*
X117850000Y-54368750D02*
X117850000Y-53368750D01*
X131850000Y-53368750D02*
X131850000Y-54368750D01*
X131850000Y-40368750D02*
X130850000Y-40368750D01*
X130850000Y-54368750D02*
X131850000Y-54368750D01*
X131850000Y-40368750D02*
X131850000Y-41368750D01*
%TO.C,SW21*%
X117850000Y-60418750D02*
X117850000Y-59418750D01*
X117850000Y-73418750D02*
X118850000Y-73418750D01*
X118850000Y-59418750D02*
X117850000Y-59418750D01*
X117850000Y-73418750D02*
X117850000Y-72418750D01*
X131850000Y-72418750D02*
X131850000Y-73418750D01*
X131850000Y-59418750D02*
X130850000Y-59418750D01*
X130850000Y-73418750D02*
X131850000Y-73418750D01*
X131850000Y-59418750D02*
X131850000Y-60418750D01*
D11*
%TO.C,U1*%
X24678750Y-53877500D02*
X55158750Y-53877500D01*
X55158750Y-53877500D02*
X55158750Y-36097500D01*
X55158750Y-36097500D02*
X24678750Y-36097500D01*
X24678750Y-51337500D02*
X27218750Y-51337500D01*
X27218750Y-51337500D02*
X27218750Y-53877500D01*
D10*
G36*
X30558110Y-40055932D02*
G01*
X30858110Y-40055932D01*
X30858110Y-40155932D01*
X30558110Y-40155932D01*
X30558110Y-40055932D01*
G37*
X30558110Y-40055932D02*
X30858110Y-40055932D01*
X30858110Y-40155932D01*
X30558110Y-40155932D01*
X30558110Y-40055932D01*
G36*
X30958110Y-40255932D02*
G01*
X31058110Y-40255932D01*
X31058110Y-40355932D01*
X30958110Y-40355932D01*
X30958110Y-40255932D01*
G37*
X30958110Y-40255932D02*
X31058110Y-40255932D01*
X31058110Y-40355932D01*
X30958110Y-40355932D01*
X30958110Y-40255932D01*
G36*
X30558110Y-40055932D02*
G01*
X30658110Y-40055932D01*
X30658110Y-40555932D01*
X30558110Y-40555932D01*
X30558110Y-40055932D01*
G37*
X30558110Y-40055932D02*
X30658110Y-40055932D01*
X30658110Y-40555932D01*
X30558110Y-40555932D01*
X30558110Y-40055932D01*
G36*
X30558110Y-40455932D02*
G01*
X31358110Y-40455932D01*
X31358110Y-40555932D01*
X30558110Y-40555932D01*
X30558110Y-40455932D01*
G37*
X30558110Y-40455932D02*
X31358110Y-40455932D01*
X31358110Y-40555932D01*
X30558110Y-40555932D01*
X30558110Y-40455932D01*
G36*
X31158110Y-40055932D02*
G01*
X31358110Y-40055932D01*
X31358110Y-40155932D01*
X31158110Y-40155932D01*
X31158110Y-40055932D01*
G37*
X31158110Y-40055932D02*
X31358110Y-40055932D01*
X31358110Y-40155932D01*
X31158110Y-40155932D01*
X31158110Y-40055932D01*
D11*
X24678750Y-36097500D02*
X22138750Y-36097500D01*
X22138750Y-36097500D02*
X22138750Y-53877500D01*
X22138750Y-53877500D02*
X24678750Y-53877500D01*
X24678750Y-51337500D02*
X24678750Y-53877500D01*
D10*
%TO.C,SW10*%
X60700000Y-79468750D02*
X60700000Y-78468750D01*
X60700000Y-92468750D02*
X61700000Y-92468750D01*
X61700000Y-78468750D02*
X60700000Y-78468750D01*
X60700000Y-92468750D02*
X60700000Y-91468750D01*
X74700000Y-91468750D02*
X74700000Y-92468750D01*
X74700000Y-78468750D02*
X73700000Y-78468750D01*
X73700000Y-92468750D02*
X74700000Y-92468750D01*
X74700000Y-78468750D02*
X74700000Y-79468750D01*
%TO.C,SW9*%
X60700000Y-60418750D02*
X60700000Y-59418750D01*
X60700000Y-73418750D02*
X61700000Y-73418750D01*
X61700000Y-59418750D02*
X60700000Y-59418750D01*
X60700000Y-73418750D02*
X60700000Y-72418750D01*
X74700000Y-72418750D02*
X74700000Y-73418750D01*
X74700000Y-59418750D02*
X73700000Y-59418750D01*
X73700000Y-73418750D02*
X74700000Y-73418750D01*
X74700000Y-59418750D02*
X74700000Y-60418750D01*
%TO.C,SW8*%
X60700000Y-41368750D02*
X60700000Y-40368750D01*
X60700000Y-54368750D02*
X61700000Y-54368750D01*
X61700000Y-40368750D02*
X60700000Y-40368750D01*
X60700000Y-54368750D02*
X60700000Y-53368750D01*
X74700000Y-53368750D02*
X74700000Y-54368750D01*
X74700000Y-40368750D02*
X73700000Y-40368750D01*
X73700000Y-54368750D02*
X74700000Y-54368750D01*
X74700000Y-40368750D02*
X74700000Y-41368750D01*
%TO.C,SW7*%
X60700000Y-22318750D02*
X60700000Y-21318750D01*
X60700000Y-35318750D02*
X61700000Y-35318750D01*
X61700000Y-21318750D02*
X60700000Y-21318750D01*
X60700000Y-35318750D02*
X60700000Y-34318750D01*
X74700000Y-34318750D02*
X74700000Y-35318750D01*
X74700000Y-21318750D02*
X73700000Y-21318750D01*
X73700000Y-35318750D02*
X74700000Y-35318750D01*
X74700000Y-21318750D02*
X74700000Y-22318750D01*
%TO.C,SW6*%
X41650000Y-60418750D02*
X41650000Y-59418750D01*
X41650000Y-73418750D02*
X42650000Y-73418750D01*
X42650000Y-59418750D02*
X41650000Y-59418750D01*
X41650000Y-73418750D02*
X41650000Y-72418750D01*
X55650000Y-72418750D02*
X55650000Y-73418750D01*
X55650000Y-59418750D02*
X54650000Y-59418750D01*
X54650000Y-73418750D02*
X55650000Y-73418750D01*
X55650000Y-59418750D02*
X55650000Y-60418750D01*
%TO.C,SW5*%
X41650000Y-41368750D02*
X41650000Y-40368750D01*
X41650000Y-54368750D02*
X42650000Y-54368750D01*
X42650000Y-40368750D02*
X41650000Y-40368750D01*
X41650000Y-54368750D02*
X41650000Y-53368750D01*
X55650000Y-53368750D02*
X55650000Y-54368750D01*
X55650000Y-40368750D02*
X54650000Y-40368750D01*
X54650000Y-54368750D02*
X55650000Y-54368750D01*
X55650000Y-40368750D02*
X55650000Y-41368750D01*
%TO.C,SW4*%
X41650000Y-22318750D02*
X41650000Y-21318750D01*
X41650000Y-35318750D02*
X42650000Y-35318750D01*
X42650000Y-21318750D02*
X41650000Y-21318750D01*
X41650000Y-35318750D02*
X41650000Y-34318750D01*
X55650000Y-34318750D02*
X55650000Y-35318750D01*
X55650000Y-21318750D02*
X54650000Y-21318750D01*
X54650000Y-35318750D02*
X55650000Y-35318750D01*
X55650000Y-21318750D02*
X55650000Y-22318750D01*
%TO.C,SW3*%
X22600000Y-60418750D02*
X22600000Y-59418750D01*
X22600000Y-73418750D02*
X23600000Y-73418750D01*
X23600000Y-59418750D02*
X22600000Y-59418750D01*
X22600000Y-73418750D02*
X22600000Y-72418750D01*
X36600000Y-72418750D02*
X36600000Y-73418750D01*
X36600000Y-59418750D02*
X35600000Y-59418750D01*
X35600000Y-73418750D02*
X36600000Y-73418750D01*
X36600000Y-59418750D02*
X36600000Y-60418750D01*
%TO.C,SW2*%
X22600000Y-41368750D02*
X22600000Y-40368750D01*
X22600000Y-54368750D02*
X23600000Y-54368750D01*
X23600000Y-40368750D02*
X22600000Y-40368750D01*
X22600000Y-54368750D02*
X22600000Y-53368750D01*
X36600000Y-53368750D02*
X36600000Y-54368750D01*
X36600000Y-40368750D02*
X35600000Y-40368750D01*
X35600000Y-54368750D02*
X36600000Y-54368750D01*
X36600000Y-40368750D02*
X36600000Y-41368750D01*
%TO.C,SW1*%
X22600000Y-22318750D02*
X22600000Y-21318750D01*
X22600000Y-35318750D02*
X23600000Y-35318750D01*
X23600000Y-21318750D02*
X22600000Y-21318750D01*
X22600000Y-35318750D02*
X22600000Y-34318750D01*
X36600000Y-34318750D02*
X36600000Y-35318750D01*
X36600000Y-21318750D02*
X35600000Y-21318750D01*
X35600000Y-35318750D02*
X36600000Y-35318750D01*
X36600000Y-21318750D02*
X36600000Y-22318750D01*
%TO.C,U1*%
X25510654Y-50749848D02*
X25510654Y-50292705D01*
X26310654Y-50521276D02*
X25510654Y-50521276D01*
X25510654Y-50102229D02*
X26310654Y-49568895D01*
X25510654Y-49568895D02*
X26310654Y-50102229D01*
X25510654Y-49111752D02*
X25510654Y-49035562D01*
X25548750Y-48959372D01*
X25586845Y-48921276D01*
X25663035Y-48883181D01*
X25815416Y-48845086D01*
X26005892Y-48845086D01*
X26158273Y-48883181D01*
X26234464Y-48921276D01*
X26272559Y-48959372D01*
X26310654Y-49035562D01*
X26310654Y-49111752D01*
X26272559Y-49187943D01*
X26234464Y-49226038D01*
X26158273Y-49264133D01*
X26005892Y-49302229D01*
X25815416Y-49302229D01*
X25663035Y-49264133D01*
X25586845Y-49226038D01*
X25548750Y-49187943D01*
X25510654Y-49111752D01*
X25472559Y-47930800D02*
X26501130Y-48616514D01*
X26310654Y-47664133D02*
X25510654Y-47664133D01*
X25510654Y-47473657D01*
X25548750Y-47359372D01*
X25624940Y-47283181D01*
X25701130Y-47245086D01*
X25853511Y-47206991D01*
X25967797Y-47206991D01*
X26120178Y-47245086D01*
X26196369Y-47283181D01*
X26272559Y-47359372D01*
X26310654Y-47473657D01*
X26310654Y-47664133D01*
X25510654Y-46940324D02*
X25510654Y-46445086D01*
X25815416Y-46711752D01*
X25815416Y-46597467D01*
X25853511Y-46521276D01*
X25891607Y-46483181D01*
X25967797Y-46445086D01*
X26158273Y-46445086D01*
X26234464Y-46483181D01*
X26272559Y-46521276D01*
X26310654Y-46597467D01*
X26310654Y-46826038D01*
X26272559Y-46902229D01*
X26234464Y-46940324D01*
X28850654Y-51038976D02*
X28050654Y-51038976D01*
X28050654Y-50848500D01*
X28088750Y-50734214D01*
X28164940Y-50658023D01*
X28241130Y-50619928D01*
X28393511Y-50581833D01*
X28507797Y-50581833D01*
X28660178Y-50619928D01*
X28736369Y-50658023D01*
X28812559Y-50734214D01*
X28850654Y-50848500D01*
X28850654Y-51038976D01*
X28126845Y-50277071D02*
X28088750Y-50238976D01*
X28050654Y-50162785D01*
X28050654Y-49972309D01*
X28088750Y-49896119D01*
X28126845Y-49858023D01*
X28203035Y-49819928D01*
X28279226Y-49819928D01*
X28393511Y-49858023D01*
X28850654Y-50315166D01*
X28850654Y-49819928D01*
X39010654Y-51038976D02*
X38210654Y-51038976D01*
X38210654Y-50848500D01*
X38248750Y-50734214D01*
X38324940Y-50658023D01*
X38401130Y-50619928D01*
X38553511Y-50581833D01*
X38667797Y-50581833D01*
X38820178Y-50619928D01*
X38896369Y-50658023D01*
X38972559Y-50734214D01*
X39010654Y-50848500D01*
X39010654Y-51038976D01*
X38210654Y-50086595D02*
X38210654Y-50010404D01*
X38248750Y-49934214D01*
X38286845Y-49896119D01*
X38363035Y-49858023D01*
X38515416Y-49819928D01*
X38705892Y-49819928D01*
X38858273Y-49858023D01*
X38934464Y-49896119D01*
X38972559Y-49934214D01*
X39010654Y-50010404D01*
X39010654Y-50086595D01*
X38972559Y-50162785D01*
X38934464Y-50200880D01*
X38858273Y-50238976D01*
X38705892Y-50277071D01*
X38515416Y-50277071D01*
X38363035Y-50238976D01*
X38286845Y-50200880D01*
X38248750Y-50162785D01*
X38210654Y-50086595D01*
X36470654Y-51038976D02*
X35670654Y-51038976D01*
X35670654Y-50848500D01*
X35708750Y-50734214D01*
X35784940Y-50658023D01*
X35861130Y-50619928D01*
X36013511Y-50581833D01*
X36127797Y-50581833D01*
X36280178Y-50619928D01*
X36356369Y-50658023D01*
X36432559Y-50734214D01*
X36470654Y-50848500D01*
X36470654Y-51038976D01*
X36470654Y-49819928D02*
X36470654Y-50277071D01*
X36470654Y-50048500D02*
X35670654Y-50048500D01*
X35784940Y-50124690D01*
X35861130Y-50200880D01*
X35899226Y-50277071D01*
X33168750Y-51058023D02*
X33130654Y-51134214D01*
X33130654Y-51248500D01*
X33168750Y-51362785D01*
X33244940Y-51438976D01*
X33321130Y-51477071D01*
X33473511Y-51515166D01*
X33587797Y-51515166D01*
X33740178Y-51477071D01*
X33816369Y-51438976D01*
X33892559Y-51362785D01*
X33930654Y-51248500D01*
X33930654Y-51172309D01*
X33892559Y-51058023D01*
X33854464Y-51019928D01*
X33587797Y-51019928D01*
X33587797Y-51172309D01*
X33930654Y-50677071D02*
X33130654Y-50677071D01*
X33930654Y-50219928D01*
X33130654Y-50219928D01*
X33930654Y-49838976D02*
X33130654Y-49838976D01*
X33130654Y-49648500D01*
X33168750Y-49534214D01*
X33244940Y-49458023D01*
X33321130Y-49419928D01*
X33473511Y-49381833D01*
X33587797Y-49381833D01*
X33740178Y-49419928D01*
X33816369Y-49458023D01*
X33892559Y-49534214D01*
X33930654Y-49648500D01*
X33930654Y-49838976D01*
X30628750Y-51058023D02*
X30590654Y-51134214D01*
X30590654Y-51248500D01*
X30628750Y-51362785D01*
X30704940Y-51438976D01*
X30781130Y-51477071D01*
X30933511Y-51515166D01*
X31047797Y-51515166D01*
X31200178Y-51477071D01*
X31276369Y-51438976D01*
X31352559Y-51362785D01*
X31390654Y-51248500D01*
X31390654Y-51172309D01*
X31352559Y-51058023D01*
X31314464Y-51019928D01*
X31047797Y-51019928D01*
X31047797Y-51172309D01*
X31390654Y-50677071D02*
X30590654Y-50677071D01*
X31390654Y-50219928D01*
X30590654Y-50219928D01*
X31390654Y-49838976D02*
X30590654Y-49838976D01*
X30590654Y-49648500D01*
X30628750Y-49534214D01*
X30704940Y-49458023D01*
X30781130Y-49419928D01*
X30933511Y-49381833D01*
X31047797Y-49381833D01*
X31200178Y-49419928D01*
X31276369Y-49458023D01*
X31352559Y-49534214D01*
X31390654Y-49648500D01*
X31390654Y-49838976D01*
X41550654Y-51038976D02*
X40750654Y-51038976D01*
X40750654Y-50848500D01*
X40788750Y-50734214D01*
X40864940Y-50658023D01*
X40941130Y-50619928D01*
X41093511Y-50581833D01*
X41207797Y-50581833D01*
X41360178Y-50619928D01*
X41436369Y-50658023D01*
X41512559Y-50734214D01*
X41550654Y-50848500D01*
X41550654Y-51038976D01*
X41017321Y-49896119D02*
X41550654Y-49896119D01*
X40712559Y-50086595D02*
X41283988Y-50277071D01*
X41283988Y-49781833D01*
X44014464Y-50581833D02*
X44052559Y-50619928D01*
X44090654Y-50734214D01*
X44090654Y-50810404D01*
X44052559Y-50924690D01*
X43976369Y-51000880D01*
X43900178Y-51038976D01*
X43747797Y-51077071D01*
X43633511Y-51077071D01*
X43481130Y-51038976D01*
X43404940Y-51000880D01*
X43328750Y-50924690D01*
X43290654Y-50810404D01*
X43290654Y-50734214D01*
X43328750Y-50619928D01*
X43366845Y-50581833D01*
X43290654Y-49896119D02*
X43290654Y-50048500D01*
X43328750Y-50124690D01*
X43366845Y-50162785D01*
X43481130Y-50238976D01*
X43633511Y-50277071D01*
X43938273Y-50277071D01*
X44014464Y-50238976D01*
X44052559Y-50200880D01*
X44090654Y-50124690D01*
X44090654Y-49972309D01*
X44052559Y-49896119D01*
X44014464Y-49858023D01*
X43938273Y-49819928D01*
X43747797Y-49819928D01*
X43671607Y-49858023D01*
X43633511Y-49896119D01*
X43595416Y-49972309D01*
X43595416Y-50124690D01*
X43633511Y-50200880D01*
X43671607Y-50238976D01*
X43747797Y-50277071D01*
X46630654Y-51038976D02*
X45830654Y-51038976D01*
X45830654Y-50848500D01*
X45868750Y-50734214D01*
X45944940Y-50658023D01*
X46021130Y-50619928D01*
X46173511Y-50581833D01*
X46287797Y-50581833D01*
X46440178Y-50619928D01*
X46516369Y-50658023D01*
X46592559Y-50734214D01*
X46630654Y-50848500D01*
X46630654Y-51038976D01*
X45830654Y-50315166D02*
X45830654Y-49781833D01*
X46630654Y-50124690D01*
X48751607Y-51000880D02*
X48751607Y-50734214D01*
X49170654Y-50619928D02*
X49170654Y-51000880D01*
X48370654Y-51000880D01*
X48370654Y-50619928D01*
X48370654Y-49934214D02*
X48370654Y-50086595D01*
X48408750Y-50162785D01*
X48446845Y-50200880D01*
X48561130Y-50277071D01*
X48713511Y-50315166D01*
X49018273Y-50315166D01*
X49094464Y-50277071D01*
X49132559Y-50238976D01*
X49170654Y-50162785D01*
X49170654Y-50010404D01*
X49132559Y-49934214D01*
X49094464Y-49896119D01*
X49018273Y-49858023D01*
X48827797Y-49858023D01*
X48751607Y-49896119D01*
X48713511Y-49934214D01*
X48675416Y-50010404D01*
X48675416Y-50162785D01*
X48713511Y-50238976D01*
X48751607Y-50277071D01*
X48827797Y-50315166D01*
X51291607Y-50772309D02*
X51329702Y-50658023D01*
X51367797Y-50619928D01*
X51443988Y-50581833D01*
X51558273Y-50581833D01*
X51634464Y-50619928D01*
X51672559Y-50658023D01*
X51710654Y-50734214D01*
X51710654Y-51038976D01*
X50910654Y-51038976D01*
X50910654Y-50772309D01*
X50948750Y-50696119D01*
X50986845Y-50658023D01*
X51063035Y-50619928D01*
X51139226Y-50619928D01*
X51215416Y-50658023D01*
X51253511Y-50696119D01*
X51291607Y-50772309D01*
X51291607Y-51038976D01*
X51177321Y-49896119D02*
X51710654Y-49896119D01*
X50872559Y-50086595D02*
X51443988Y-50277071D01*
X51443988Y-49781833D01*
X53831607Y-50772309D02*
X53869702Y-50658023D01*
X53907797Y-50619928D01*
X53983988Y-50581833D01*
X54098273Y-50581833D01*
X54174464Y-50619928D01*
X54212559Y-50658023D01*
X54250654Y-50734214D01*
X54250654Y-51038976D01*
X53450654Y-51038976D01*
X53450654Y-50772309D01*
X53488750Y-50696119D01*
X53526845Y-50658023D01*
X53603035Y-50619928D01*
X53679226Y-50619928D01*
X53755416Y-50658023D01*
X53793511Y-50696119D01*
X53831607Y-50772309D01*
X53831607Y-51038976D01*
X53450654Y-49858023D02*
X53450654Y-50238976D01*
X53831607Y-50277071D01*
X53793511Y-50238976D01*
X53755416Y-50162785D01*
X53755416Y-49972309D01*
X53793511Y-49896119D01*
X53831607Y-49858023D01*
X53907797Y-49819928D01*
X54098273Y-49819928D01*
X54174464Y-49858023D01*
X54212559Y-49896119D01*
X54250654Y-49972309D01*
X54250654Y-50162785D01*
X54212559Y-50238976D01*
X54174464Y-50277071D01*
X53831607Y-39850309D02*
X53869702Y-39736023D01*
X53907797Y-39697928D01*
X53983988Y-39659833D01*
X54098273Y-39659833D01*
X54174464Y-39697928D01*
X54212559Y-39736023D01*
X54250654Y-39812214D01*
X54250654Y-40116976D01*
X53450654Y-40116976D01*
X53450654Y-39850309D01*
X53488750Y-39774119D01*
X53526845Y-39736023D01*
X53603035Y-39697928D01*
X53679226Y-39697928D01*
X53755416Y-39736023D01*
X53793511Y-39774119D01*
X53831607Y-39850309D01*
X53831607Y-40116976D01*
X53450654Y-38974119D02*
X53450654Y-39126500D01*
X53488750Y-39202690D01*
X53526845Y-39240785D01*
X53641130Y-39316976D01*
X53793511Y-39355071D01*
X54098273Y-39355071D01*
X54174464Y-39316976D01*
X54212559Y-39278880D01*
X54250654Y-39202690D01*
X54250654Y-39050309D01*
X54212559Y-38974119D01*
X54174464Y-38936023D01*
X54098273Y-38897928D01*
X53907797Y-38897928D01*
X53831607Y-38936023D01*
X53793511Y-38974119D01*
X53755416Y-39050309D01*
X53755416Y-39202690D01*
X53793511Y-39278880D01*
X53831607Y-39316976D01*
X53907797Y-39355071D01*
X48751607Y-39850309D02*
X48789702Y-39736023D01*
X48827797Y-39697928D01*
X48903988Y-39659833D01*
X49018273Y-39659833D01*
X49094464Y-39697928D01*
X49132559Y-39736023D01*
X49170654Y-39812214D01*
X49170654Y-40116976D01*
X48370654Y-40116976D01*
X48370654Y-39850309D01*
X48408750Y-39774119D01*
X48446845Y-39736023D01*
X48523035Y-39697928D01*
X48599226Y-39697928D01*
X48675416Y-39736023D01*
X48713511Y-39774119D01*
X48751607Y-39850309D01*
X48751607Y-40116976D01*
X48370654Y-39393166D02*
X48370654Y-38897928D01*
X48675416Y-39164595D01*
X48675416Y-39050309D01*
X48713511Y-38974119D01*
X48751607Y-38936023D01*
X48827797Y-38897928D01*
X49018273Y-38897928D01*
X49094464Y-38936023D01*
X49132559Y-38974119D01*
X49170654Y-39050309D01*
X49170654Y-39278880D01*
X49132559Y-39355071D01*
X49094464Y-39393166D01*
X46211607Y-39850309D02*
X46249702Y-39736023D01*
X46287797Y-39697928D01*
X46363988Y-39659833D01*
X46478273Y-39659833D01*
X46554464Y-39697928D01*
X46592559Y-39736023D01*
X46630654Y-39812214D01*
X46630654Y-40116976D01*
X45830654Y-40116976D01*
X45830654Y-39850309D01*
X45868750Y-39774119D01*
X45906845Y-39736023D01*
X45983035Y-39697928D01*
X46059226Y-39697928D01*
X46135416Y-39736023D01*
X46173511Y-39774119D01*
X46211607Y-39850309D01*
X46211607Y-40116976D01*
X46630654Y-38897928D02*
X46630654Y-39355071D01*
X46630654Y-39126500D02*
X45830654Y-39126500D01*
X45944940Y-39202690D01*
X46021130Y-39278880D01*
X46059226Y-39355071D01*
X36051607Y-39793166D02*
X36051607Y-40059833D01*
X36470654Y-40059833D02*
X35670654Y-40059833D01*
X35670654Y-39678880D01*
X35937321Y-39031261D02*
X36470654Y-39031261D01*
X35632559Y-39221738D02*
X36203988Y-39412214D01*
X36203988Y-38916976D01*
X33130654Y-40593166D02*
X33930654Y-40326500D01*
X33130654Y-40059833D01*
X33854464Y-39336023D02*
X33892559Y-39374119D01*
X33930654Y-39488404D01*
X33930654Y-39564595D01*
X33892559Y-39678880D01*
X33816369Y-39755071D01*
X33740178Y-39793166D01*
X33587797Y-39831261D01*
X33473511Y-39831261D01*
X33321130Y-39793166D01*
X33244940Y-39755071D01*
X33168750Y-39678880D01*
X33130654Y-39564595D01*
X33130654Y-39488404D01*
X33168750Y-39374119D01*
X33206845Y-39336023D01*
X33854464Y-38536023D02*
X33892559Y-38574119D01*
X33930654Y-38688404D01*
X33930654Y-38764595D01*
X33892559Y-38878880D01*
X33816369Y-38955071D01*
X33740178Y-38993166D01*
X33587797Y-39031261D01*
X33473511Y-39031261D01*
X33321130Y-38993166D01*
X33244940Y-38955071D01*
X33168750Y-38878880D01*
X33130654Y-38764595D01*
X33130654Y-38688404D01*
X33168750Y-38574119D01*
X33206845Y-38536023D01*
X31322559Y-39787713D02*
X31360654Y-39673427D01*
X31360654Y-39482951D01*
X31322559Y-39406760D01*
X31284464Y-39368665D01*
X31208273Y-39330570D01*
X31132083Y-39330570D01*
X31055892Y-39368665D01*
X31017797Y-39406760D01*
X30979702Y-39482951D01*
X30941607Y-39635332D01*
X30903511Y-39711522D01*
X30865416Y-39749618D01*
X30789226Y-39787713D01*
X30713035Y-39787713D01*
X30636845Y-39749618D01*
X30598750Y-39711522D01*
X30560654Y-39635332D01*
X30560654Y-39444856D01*
X30598750Y-39330570D01*
X30560654Y-39101999D02*
X30560654Y-38644856D01*
X31360654Y-38873427D02*
X30560654Y-38873427D01*
X28088750Y-40136023D02*
X28050654Y-40212214D01*
X28050654Y-40326500D01*
X28088750Y-40440785D01*
X28164940Y-40516976D01*
X28241130Y-40555071D01*
X28393511Y-40593166D01*
X28507797Y-40593166D01*
X28660178Y-40555071D01*
X28736369Y-40516976D01*
X28812559Y-40440785D01*
X28850654Y-40326500D01*
X28850654Y-40250309D01*
X28812559Y-40136023D01*
X28774464Y-40097928D01*
X28507797Y-40097928D01*
X28507797Y-40250309D01*
X28850654Y-39755071D02*
X28050654Y-39755071D01*
X28850654Y-39297928D01*
X28050654Y-39297928D01*
X28850654Y-38916976D02*
X28050654Y-38916976D01*
X28050654Y-38726500D01*
X28088750Y-38612214D01*
X28164940Y-38536023D01*
X28241130Y-38497928D01*
X28393511Y-38459833D01*
X28507797Y-38459833D01*
X28660178Y-38497928D01*
X28736369Y-38536023D01*
X28812559Y-38612214D01*
X28850654Y-38726500D01*
X28850654Y-38916976D01*
X26310654Y-40078880D02*
X25929702Y-40345547D01*
X26310654Y-40536023D02*
X25510654Y-40536023D01*
X25510654Y-40231261D01*
X25548750Y-40155071D01*
X25586845Y-40116976D01*
X25663035Y-40078880D01*
X25777321Y-40078880D01*
X25853511Y-40116976D01*
X25891607Y-40155071D01*
X25929702Y-40231261D01*
X25929702Y-40536023D01*
X26082083Y-39774119D02*
X26082083Y-39393166D01*
X26310654Y-39850309D02*
X25510654Y-39583642D01*
X26310654Y-39316976D01*
X25510654Y-39126500D02*
X26310654Y-38936023D01*
X25739226Y-38783642D01*
X26310654Y-38631261D01*
X25510654Y-38440785D01*
X38591607Y-39793166D02*
X38591607Y-40059833D01*
X39010654Y-40059833D02*
X38210654Y-40059833D01*
X38210654Y-39678880D01*
X38210654Y-38993166D02*
X38210654Y-39374119D01*
X38591607Y-39412214D01*
X38553511Y-39374119D01*
X38515416Y-39297928D01*
X38515416Y-39107452D01*
X38553511Y-39031261D01*
X38591607Y-38993166D01*
X38667797Y-38955071D01*
X38858273Y-38955071D01*
X38934464Y-38993166D01*
X38972559Y-39031261D01*
X39010654Y-39107452D01*
X39010654Y-39297928D01*
X38972559Y-39374119D01*
X38934464Y-39412214D01*
X41131607Y-39793166D02*
X41131607Y-40059833D01*
X41550654Y-40059833D02*
X40750654Y-40059833D01*
X40750654Y-39678880D01*
X40750654Y-39031261D02*
X40750654Y-39183642D01*
X40788750Y-39259833D01*
X40826845Y-39297928D01*
X40941130Y-39374119D01*
X41093511Y-39412214D01*
X41398273Y-39412214D01*
X41474464Y-39374119D01*
X41512559Y-39336023D01*
X41550654Y-39259833D01*
X41550654Y-39107452D01*
X41512559Y-39031261D01*
X41474464Y-38993166D01*
X41398273Y-38955071D01*
X41207797Y-38955071D01*
X41131607Y-38993166D01*
X41093511Y-39031261D01*
X41055416Y-39107452D01*
X41055416Y-39259833D01*
X41093511Y-39336023D01*
X41131607Y-39374119D01*
X41207797Y-39412214D01*
X43671607Y-39793166D02*
X43671607Y-40059833D01*
X44090654Y-40059833D02*
X43290654Y-40059833D01*
X43290654Y-39678880D01*
X43290654Y-39450309D02*
X43290654Y-38916976D01*
X44090654Y-39259833D01*
X51291607Y-39850309D02*
X51329702Y-39736023D01*
X51367797Y-39697928D01*
X51443988Y-39659833D01*
X51558273Y-39659833D01*
X51634464Y-39697928D01*
X51672559Y-39736023D01*
X51710654Y-39812214D01*
X51710654Y-40116976D01*
X50910654Y-40116976D01*
X50910654Y-39850309D01*
X50948750Y-39774119D01*
X50986845Y-39736023D01*
X51063035Y-39697928D01*
X51139226Y-39697928D01*
X51215416Y-39736023D01*
X51253511Y-39774119D01*
X51291607Y-39850309D01*
X51291607Y-40116976D01*
X50986845Y-39355071D02*
X50948750Y-39316976D01*
X50910654Y-39240785D01*
X50910654Y-39050309D01*
X50948750Y-38974119D01*
X50986845Y-38936023D01*
X51063035Y-38897928D01*
X51139226Y-38897928D01*
X51253511Y-38936023D01*
X51710654Y-39393166D01*
X51710654Y-38897928D01*
%TD*%
%LPC*%
D12*
%TO.C,REF\u002A\u002A*%
X191525000Y-56893750D03*
%TD*%
%TO.C,REF\u002A\u002A*%
X172475000Y-75943750D03*
%TD*%
%TO.C,REF\u002A\u002A*%
X172475000Y-37843750D03*
%TD*%
D13*
%TO.C,SW23*%
X138820000Y-28318750D03*
X148980000Y-28318750D03*
D14*
X143900000Y-28318750D03*
D15*
X140090000Y-25778750D03*
X146440000Y-23238750D03*
%TD*%
D13*
%TO.C,SW36*%
X195970000Y-66418750D03*
X206130000Y-66418750D03*
D14*
X201050000Y-66418750D03*
D15*
X197240000Y-63878750D03*
X203590000Y-61338750D03*
%TD*%
D13*
%TO.C,SW35*%
X195970000Y-47368750D03*
X206130000Y-47368750D03*
D14*
X201050000Y-47368750D03*
D15*
X197240000Y-44828750D03*
X203590000Y-42288750D03*
%TD*%
D13*
%TO.C,SW24*%
X138820000Y-47368750D03*
X148980000Y-47368750D03*
D14*
X143900000Y-47368750D03*
D15*
X140090000Y-44828750D03*
X146440000Y-42288750D03*
%TD*%
D13*
%TO.C,SW25*%
X138820000Y-66418750D03*
X148980000Y-66418750D03*
D14*
X143900000Y-66418750D03*
D15*
X140090000Y-63878750D03*
X146440000Y-61338750D03*
%TD*%
D13*
%TO.C,SW26*%
X138820000Y-85468750D03*
X148980000Y-85468750D03*
D14*
X143900000Y-85468750D03*
D15*
X140090000Y-82928750D03*
X146440000Y-80388750D03*
%TD*%
D13*
%TO.C,SW27*%
X157870000Y-28318750D03*
X168030000Y-28318750D03*
D14*
X162950000Y-28318750D03*
D15*
X159140000Y-25778750D03*
X165490000Y-23238750D03*
%TD*%
D13*
%TO.C,SW28*%
X157870000Y-47368750D03*
X168030000Y-47368750D03*
D14*
X162950000Y-47368750D03*
D15*
X159140000Y-44828750D03*
X165490000Y-42288750D03*
%TD*%
D13*
%TO.C,SW29*%
X157870000Y-66418750D03*
X168030000Y-66418750D03*
D14*
X162950000Y-66418750D03*
D15*
X159140000Y-63878750D03*
X165490000Y-61338750D03*
%TD*%
D13*
%TO.C,SW30*%
X157870000Y-85468750D03*
X168030000Y-85468750D03*
D14*
X162950000Y-85468750D03*
D15*
X159140000Y-82928750D03*
X165490000Y-80388750D03*
%TD*%
D13*
%TO.C,SW31*%
X176920000Y-28318750D03*
X187080000Y-28318750D03*
D14*
X182000000Y-28318750D03*
D15*
X178190000Y-25778750D03*
X184540000Y-23238750D03*
%TD*%
D13*
%TO.C,SW32*%
X176920000Y-47368750D03*
X187080000Y-47368750D03*
D14*
X182000000Y-47368750D03*
D15*
X178190000Y-44828750D03*
X184540000Y-42288750D03*
%TD*%
D13*
%TO.C,SW33*%
X176920000Y-66418750D03*
X187080000Y-66418750D03*
D14*
X182000000Y-66418750D03*
D15*
X178190000Y-63878750D03*
X184540000Y-61338750D03*
%TD*%
D13*
%TO.C,SW34*%
X195970000Y-28318750D03*
X206130000Y-28318750D03*
D14*
X201050000Y-28318750D03*
D15*
X197240000Y-25778750D03*
X203590000Y-23238750D03*
%TD*%
D13*
%TO.C,SW22*%
X119770000Y-85468750D03*
X129930000Y-85468750D03*
D14*
X124850000Y-85468750D03*
D15*
X121040000Y-82928750D03*
X127390000Y-80388750D03*
%TD*%
D13*
%TO.C,SW18*%
X100720000Y-85468750D03*
X110880000Y-85468750D03*
D14*
X105800000Y-85468750D03*
D15*
X101990000Y-82928750D03*
X108340000Y-80388750D03*
%TD*%
D13*
%TO.C,SW15*%
X100720000Y-28318750D03*
X110880000Y-28318750D03*
D14*
X105800000Y-28318750D03*
D15*
X101990000Y-25778750D03*
X108340000Y-23238750D03*
%TD*%
D13*
%TO.C,SW13*%
X81670000Y-66418750D03*
X91830000Y-66418750D03*
D14*
X86750000Y-66418750D03*
D15*
X82940000Y-63878750D03*
X89290000Y-61338750D03*
%TD*%
D13*
%TO.C,SW11*%
X81670000Y-28318750D03*
X91830000Y-28318750D03*
D14*
X86750000Y-28318750D03*
D15*
X82940000Y-25778750D03*
X89290000Y-23238750D03*
%TD*%
D13*
%TO.C,SW14*%
X81670000Y-85468750D03*
X91830000Y-85468750D03*
D14*
X86750000Y-85468750D03*
D15*
X82940000Y-82928750D03*
X89290000Y-80388750D03*
%TD*%
D13*
%TO.C,SW17*%
X100720000Y-66418750D03*
X110880000Y-66418750D03*
D14*
X105800000Y-66418750D03*
D15*
X101990000Y-63878750D03*
X108340000Y-61338750D03*
%TD*%
D13*
%TO.C,SW12*%
X81670000Y-47368750D03*
X91830000Y-47368750D03*
D14*
X86750000Y-47368750D03*
D15*
X82940000Y-44828750D03*
X89290000Y-42288750D03*
%TD*%
D13*
%TO.C,SW16*%
X100720000Y-47368750D03*
X110880000Y-47368750D03*
D14*
X105800000Y-47368750D03*
D15*
X101990000Y-44828750D03*
X108340000Y-42288750D03*
%TD*%
D13*
%TO.C,SW19*%
X119770000Y-28318750D03*
X129930000Y-28318750D03*
D14*
X124850000Y-28318750D03*
D15*
X121040000Y-25778750D03*
X127390000Y-23238750D03*
%TD*%
D13*
%TO.C,SW20*%
X119770000Y-47368750D03*
X129930000Y-47368750D03*
D14*
X124850000Y-47368750D03*
D15*
X121040000Y-44828750D03*
X127390000Y-42288750D03*
%TD*%
D13*
%TO.C,SW21*%
X119770000Y-66418750D03*
X129930000Y-66418750D03*
D14*
X124850000Y-66418750D03*
D15*
X121040000Y-63878750D03*
X127390000Y-61338750D03*
%TD*%
D12*
%TO.C,REF\u002A\u002A*%
X39125000Y-56893750D03*
%TD*%
%TO.C,REF\u002A\u002A*%
X58175000Y-37843750D03*
%TD*%
%TO.C,REF\u002A\u002A*%
X58175000Y-75943750D03*
%TD*%
D16*
%TO.C,U1*%
X25948750Y-37367500D03*
X53888750Y-52607500D03*
X28488750Y-37367500D03*
X31028750Y-37367500D03*
X33568750Y-37367500D03*
X36108750Y-37367500D03*
X38648750Y-37367500D03*
X41188750Y-37367500D03*
X43728750Y-37367500D03*
X46268750Y-37367500D03*
X48808750Y-37367500D03*
X51348750Y-37367500D03*
X53888750Y-37367500D03*
X51348750Y-52607500D03*
X48808750Y-52607500D03*
X46268750Y-52607500D03*
X43728750Y-52607500D03*
X41188750Y-52607500D03*
X38648750Y-52607500D03*
X36108750Y-52607500D03*
X33568750Y-52607500D03*
X31028750Y-52607500D03*
X28488750Y-52607500D03*
G36*
G01*
X24872450Y-53483800D02*
X24872450Y-51731200D01*
G75*
G02*
X25072450Y-51531200I200000J0D01*
G01*
X26825050Y-51531200D01*
G75*
G02*
X27025050Y-51731200I0J-200000D01*
G01*
X27025050Y-53483800D01*
G75*
G02*
X26825050Y-53683800I-200000J0D01*
G01*
X25072450Y-53683800D01*
G75*
G02*
X24872450Y-53483800I0J200000D01*
G01*
G37*
%TD*%
D13*
%TO.C,SW10*%
X62620000Y-85468750D03*
X72780000Y-85468750D03*
D14*
X67700000Y-85468750D03*
D15*
X63890000Y-82928750D03*
X70240000Y-80388750D03*
%TD*%
D13*
%TO.C,SW9*%
X62620000Y-66418750D03*
X72780000Y-66418750D03*
D14*
X67700000Y-66418750D03*
D15*
X63890000Y-63878750D03*
X70240000Y-61338750D03*
%TD*%
D13*
%TO.C,SW8*%
X62620000Y-47368750D03*
X72780000Y-47368750D03*
D14*
X67700000Y-47368750D03*
D15*
X63890000Y-44828750D03*
X70240000Y-42288750D03*
%TD*%
D13*
%TO.C,SW7*%
X62620000Y-28318750D03*
X72780000Y-28318750D03*
D14*
X67700000Y-28318750D03*
D15*
X63890000Y-25778750D03*
X70240000Y-23238750D03*
%TD*%
D13*
%TO.C,SW6*%
X43570000Y-66418750D03*
X53730000Y-66418750D03*
D14*
X48650000Y-66418750D03*
D15*
X44840000Y-63878750D03*
X51190000Y-61338750D03*
%TD*%
D13*
%TO.C,SW5*%
X43570000Y-47368750D03*
X53730000Y-47368750D03*
D14*
X48650000Y-47368750D03*
D15*
X44840000Y-44828750D03*
X51190000Y-42288750D03*
%TD*%
D13*
%TO.C,SW4*%
X43570000Y-28318750D03*
X53730000Y-28318750D03*
D14*
X48650000Y-28318750D03*
D15*
X44840000Y-25778750D03*
X51190000Y-23238750D03*
%TD*%
D13*
%TO.C,SW3*%
X24520000Y-66418750D03*
X34680000Y-66418750D03*
D14*
X29600000Y-66418750D03*
D15*
X25790000Y-63878750D03*
X32140000Y-61338750D03*
%TD*%
D13*
%TO.C,SW2*%
X24520000Y-47368750D03*
X34680000Y-47368750D03*
D14*
X29600000Y-47368750D03*
D15*
X25790000Y-44828750D03*
X32140000Y-42288750D03*
%TD*%
D13*
%TO.C,SW1*%
X24520000Y-28318750D03*
X34680000Y-28318750D03*
D14*
X29600000Y-28318750D03*
D15*
X25790000Y-25778750D03*
X32140000Y-23238750D03*
%TD*%
M02*
