M48
; DRILL file {KiCad (5.1.12-1-10_14)} date Monday, February 07, 2022 at 10:25:42 PM
; FORMAT={-:-/ absolute / metric / decimal}
; #@! TF.CreationDate,2022-02-07T22:25:42-07:00
; #@! TF.GenerationSoftware,Kicad,Pcbnew,(5.1.12-1-10_14)
; #@! TF.FileFunction,Plated,1,2,PTH
FMAT,2
METRIC
T1C0.400
T2C1.092
%
G90
G05
T1
X26.425Y-56.894
X30.351Y-41.189
X30.394Y-39.431
X38.331Y-35.462
X38.331Y-70.388
X39.919Y-59.275
X39.919Y-60.275
X41.506Y-56.1
X41.506Y-59.275
X48.65Y-50.544
X50.328Y-50.544
X51.029Y-40.195
X56.815Y-41.156
X57.381Y-35.462
X57.381Y-42.606
X57.381Y-42.606
X57.381Y-70.388
X59.415Y-36.256
X59.415Y-39.431
X59.415Y-40.431
X59.415Y-41.431
X59.415Y-42.979
X59.415Y-54.512
X59.415Y-55.513
X60.865Y-37.225
X60.865Y-38.225
X60.865Y-39.225
X60.865Y-40.225
X60.865Y-54.512
X60.865Y-55.513
X61.35Y-42.979
X74.05Y-44.194
X74.05Y-45.781
X76.431Y-35.462
X76.431Y-51.337
X76.431Y-70.388
X78.465Y-37.05
X78.465Y-38.05
X78.465Y-39.05
X78.465Y-40.05
X78.465Y-54.512
X78.465Y-55.513
X79.915Y-37.05
X79.915Y-38.05
X79.915Y-39.05
X79.915Y-40.05
X79.915Y-54.512
X79.915Y-55.513
X95.481Y-35.462
X95.481Y-51.337
X95.481Y-70.388
X97.515Y-37.431
X97.515Y-38.431
X97.515Y-39.431
X97.515Y-54.512
X97.515Y-55.513
X98.965Y-37.431
X98.965Y-38.431
X98.965Y-39.431
X98.965Y-54.512
X98.965Y-55.513
X113.737Y-35.462
X114.531Y-51.337
X114.531Y-70.388
X116.565Y-37.637
X116.565Y-38.637
X116.565Y-54.512
X116.565Y-55.513
X118.015Y-37.637
X118.015Y-38.637
X118.015Y-54.512
X118.015Y-55.513
X133.581Y-35.462
X133.581Y-51.337
X133.581Y-70.388
X135.615Y-37.844
X135.615Y-54.512
X135.615Y-55.513
X137.065Y-37.844
X137.065Y-54.512
X137.065Y-55.513
X152.631Y-35.462
X152.631Y-51.337
X152.631Y-70.388
X154.665Y-54.512
X154.665Y-54.512
X154.665Y-55.513
X156.115Y-54.512
X156.115Y-55.513
X171.681Y-35.462
X171.681Y-51.337
X171.681Y-70.388
X173.715Y-55.306
X175.165Y-55.306
X190.731Y-35.462
X190.731Y-51.337
X190.731Y-70.388
X208.987Y-35.462
X208.987Y-51.337
X208.987Y-70.388
T2
X25.949Y-37.367
X25.949Y-52.607
X28.489Y-37.367
X28.489Y-52.607
X31.029Y-37.367
X31.029Y-52.607
X33.569Y-37.367
X33.569Y-52.607
X36.109Y-37.367
X36.109Y-52.607
X38.649Y-37.367
X38.649Y-52.607
X41.189Y-37.367
X41.189Y-52.607
X43.729Y-37.367
X43.729Y-52.607
X46.269Y-37.367
X46.269Y-52.607
X48.809Y-37.367
X48.809Y-52.607
X51.349Y-37.367
X51.349Y-52.607
X53.889Y-37.367
X53.889Y-52.607
T0
M30
