%TF.GenerationSoftware,KiCad,Pcbnew,(5.1.12-1-10_14)*%
%TF.CreationDate,2022-02-07T22:24:56-07:00*%
%TF.ProjectId,youwu36,796f7577-7533-4362-9e6b-696361645f70,rev?*%
%TF.SameCoordinates,Original*%
%TF.FileFunction,Copper,L1,Top*%
%TF.FilePolarity,Positive*%
%FSLAX46Y46*%
G04 Gerber Fmt 4.6, Leading zero omitted, Abs format (unit mm)*
G04 Created by KiCad (PCBNEW (5.1.12-1-10_14)) date 2022-02-07 22:24:56*
%MOMM*%
%LPD*%
G01*
G04 APERTURE LIST*
%TA.AperFunction,ComponentPad*%
%ADD10C,1.752600*%
%TD*%
%TA.AperFunction,ComponentPad*%
%ADD11R,1.752600X1.752600*%
%TD*%
%TA.AperFunction,ViaPad*%
%ADD12C,0.800000*%
%TD*%
%TA.AperFunction,Conductor*%
%ADD13C,0.250000*%
%TD*%
G04 APERTURE END LIST*
D10*
%TO.P,U1,24*%
%TO.N,Net-(U1-Pad24)*%
X25948750Y-37367500D03*
%TO.P,U1,12*%
%TO.N,col_8*%
X53888750Y-52607500D03*
%TO.P,U1,23*%
%TO.N,GND*%
X28488750Y-37367500D03*
%TO.P,U1,22*%
%TO.N,Net-(SW37-Pad2)*%
X31028750Y-37367500D03*
%TO.P,U1,21*%
%TO.N,VCC*%
X33568750Y-37367500D03*
%TO.P,U1,20*%
%TO.N,col_0*%
X36108750Y-37367500D03*
%TO.P,U1,19*%
%TO.N,col_1*%
X38648750Y-37367500D03*
%TO.P,U1,18*%
%TO.N,col_2*%
X41188750Y-37367500D03*
%TO.P,U1,17*%
%TO.N,col_3*%
X43728750Y-37367500D03*
%TO.P,U1,16*%
%TO.N,col_4*%
X46268750Y-37367500D03*
%TO.P,U1,15*%
%TO.N,col_5*%
X48808750Y-37367500D03*
%TO.P,U1,14*%
%TO.N,col_6*%
X51348750Y-37367500D03*
%TO.P,U1,13*%
%TO.N,col_7*%
X53888750Y-37367500D03*
%TO.P,U1,11*%
%TO.N,col_9*%
X51348750Y-52607500D03*
%TO.P,U1,10*%
%TO.N,row_0*%
X48808750Y-52607500D03*
%TO.P,U1,9*%
%TO.N,row_1*%
X46268750Y-52607500D03*
%TO.P,U1,8*%
%TO.N,row_2*%
X43728750Y-52607500D03*
%TO.P,U1,7*%
%TO.N,row_3*%
X41188750Y-52607500D03*
%TO.P,U1,6*%
%TO.N,Net-(U1-Pad6)*%
X38648750Y-52607500D03*
%TO.P,U1,5*%
%TO.N,Net-(U1-Pad5)*%
X36108750Y-52607500D03*
%TO.P,U1,4*%
%TO.N,GND*%
X33568750Y-52607500D03*
%TO.P,U1,3*%
X31028750Y-52607500D03*
%TO.P,U1,2*%
%TO.N,Net-(U1-Pad2)*%
X28488750Y-52607500D03*
D11*
%TO.P,U1,1*%
%TO.N,Net-(U1-Pad1)*%
X25948750Y-52607500D03*
%TD*%
D12*
%TO.N,row_0*%
X57381250Y-35462500D03*
X38331250Y-35462500D03*
X113737500Y-35462500D03*
X208987500Y-35462500D03*
X76431250Y-35462500D03*
X190731250Y-35462500D03*
X133581250Y-35462500D03*
X95481250Y-35462500D03*
X152631250Y-35462500D03*
X171681250Y-35462500D03*
%TO.N,row_1*%
X39918750Y-59275000D03*
X41506250Y-59275000D03*
X171681250Y-51337500D03*
X114531250Y-51337500D03*
X190731250Y-51337500D03*
X133581250Y-51337500D03*
X95481250Y-51337500D03*
X208987500Y-51337500D03*
X76431250Y-51337500D03*
X152631250Y-51337500D03*
%TO.N,row_2*%
X57381250Y-70387500D03*
X38331250Y-70387500D03*
X208987500Y-70387500D03*
X76431250Y-70387500D03*
X133581250Y-70387500D03*
X190731250Y-70387500D03*
X152631250Y-70387500D03*
X114531250Y-70387500D03*
X171681250Y-70387500D03*
X95481250Y-70387500D03*
%TO.N,row_3*%
X41506250Y-56100000D03*
X39918750Y-60275003D03*
%TO.N,col_3*%
X59415000Y-42978748D03*
X61350000Y-42978748D03*
%TO.N,col_4*%
X60865000Y-40225000D03*
X51028938Y-40194933D03*
X56815002Y-41156253D03*
X59415000Y-41431256D03*
X78465000Y-40050009D03*
X79915000Y-40050009D03*
%TO.N,col_5*%
X60865000Y-39224997D03*
X59415000Y-40431253D03*
X78465000Y-39050006D03*
X79915000Y-39050006D03*
X98965000Y-39431250D03*
X97515000Y-39431250D03*
%TO.N,col_6*%
X60865000Y-38224994D03*
X59415000Y-39431250D03*
X78465000Y-38050003D03*
X118015000Y-38637500D03*
X116565000Y-38637500D03*
X97515000Y-38431247D03*
X98965000Y-38431247D03*
X79915000Y-38050003D03*
%TO.N,col_7*%
X60865000Y-37224991D03*
X59415000Y-36256250D03*
X79915000Y-37050000D03*
X98965000Y-37431244D03*
X118015000Y-37637497D03*
X116565000Y-37637497D03*
X135615000Y-37843750D03*
X97515000Y-37431244D03*
X78465000Y-37050000D03*
X137065000Y-37843750D03*
%TO.N,col_8*%
X59415000Y-54512500D03*
X60865000Y-54512500D03*
X154665000Y-54512500D03*
X79915000Y-54512500D03*
X78465000Y-54512500D03*
X118015000Y-54512500D03*
X135615000Y-54512500D03*
X116565000Y-54512500D03*
X137065000Y-54512500D03*
X97515000Y-54512500D03*
X98965000Y-54512500D03*
X154665000Y-54512500D03*
X156115000Y-54512500D03*
%TO.N,col_9*%
X59415000Y-55512503D03*
X60865000Y-55512503D03*
X156115000Y-55512503D03*
X135615000Y-55512503D03*
X98965000Y-55512503D03*
X173715000Y-55306250D03*
X154665000Y-55512503D03*
X137065000Y-55512503D03*
X78465000Y-55512503D03*
X97515000Y-55512503D03*
X79915000Y-55512503D03*
X116565000Y-55512503D03*
X175165000Y-55306250D03*
X118015000Y-55512503D03*
%TO.N,GND*%
X26425000Y-56893750D03*
%TO.N,Net-(SW37-Pad2)*%
X30351145Y-41188749D03*
X30393750Y-39431250D03*
%TO.N,Net-(D5-Pad2)*%
X57381250Y-42606250D03*
X57381250Y-42606250D03*
X50327500Y-50543750D03*
X48650000Y-50543750D03*
%TO.N,Net-(D8-Pad2)*%
X74050000Y-45781250D03*
X74050000Y-44193750D03*
%TD*%
D13*
%TO.N,row_0*%
X57381250Y-35462500D02*
X59316987Y-35462500D01*
X38331250Y-35462500D02*
X57381250Y-35462500D01*
X57381250Y-35462500D02*
X95481250Y-35462500D01*
X49602500Y-49755916D02*
X49602500Y-52607500D01*
X51113583Y-45863583D02*
X51113583Y-48244833D01*
X49364999Y-44114999D02*
X51113583Y-45863583D01*
X49364999Y-40785870D02*
X49364999Y-44114999D01*
X50680937Y-39469932D02*
X49364999Y-40785870D01*
X53939503Y-39469932D02*
X50680937Y-39469932D01*
X57381250Y-35462500D02*
X57381250Y-36028185D01*
X57381250Y-36028185D02*
X53939503Y-39469932D01*
X51113583Y-48244833D02*
X49602500Y-49755916D01*
X95481250Y-35462500D02*
X113737500Y-35462500D01*
X171681250Y-35462500D02*
X190731250Y-35462500D01*
X190731250Y-35462500D02*
X208987500Y-35462500D01*
X113737500Y-35462500D02*
X133581250Y-35462500D01*
X152631250Y-35462500D02*
X171681250Y-35462500D01*
X133581250Y-35462500D02*
X152631250Y-35462500D01*
%TO.N,row_1*%
X47062500Y-52607500D02*
X50692504Y-56237504D01*
X50692504Y-56237504D02*
X74981254Y-56237504D01*
X39918750Y-59275000D02*
X41506250Y-59275000D01*
X208849996Y-56237504D02*
X208987500Y-56100000D01*
X193250004Y-56237504D02*
X208849996Y-56237504D01*
X208987500Y-56100000D02*
X208987500Y-51337500D01*
X192318750Y-55306250D02*
X193250004Y-56237504D01*
X190731250Y-55306250D02*
X192318750Y-55306250D01*
X190731250Y-55581258D02*
X190075004Y-56237504D01*
X189799996Y-56237504D02*
X190075004Y-56237504D01*
X190731250Y-51337500D02*
X190731250Y-55306250D01*
X190731250Y-55306250D02*
X190731250Y-55581258D01*
X133581250Y-51337500D02*
X133581250Y-54787508D01*
X133581250Y-54787508D02*
X132131254Y-56237504D01*
X132131254Y-56237504D02*
X151181254Y-56237504D01*
X169956246Y-56237504D02*
X189799996Y-56237504D01*
X171681250Y-51337500D02*
X171681250Y-54512500D01*
X74981254Y-56237504D02*
X94031254Y-56237504D01*
X76431250Y-51337500D02*
X76431250Y-54787508D01*
X171681250Y-54512500D02*
X169956246Y-56237504D01*
X76431250Y-54787508D02*
X74981254Y-56237504D01*
X152631250Y-51337500D02*
X152631250Y-54787508D01*
X95481250Y-51337500D02*
X95481250Y-54787508D01*
X95481250Y-54787508D02*
X94031254Y-56237504D01*
X151181254Y-56237504D02*
X169956246Y-56237504D01*
X114531250Y-51337500D02*
X114531250Y-54787508D01*
X114531250Y-54787508D02*
X113081254Y-56237504D01*
X94031254Y-56237504D02*
X113081254Y-56237504D01*
X113081254Y-56237504D02*
X132131254Y-56237504D01*
X152631250Y-54787508D02*
X151181254Y-56237504D01*
%TO.N,row_2*%
X76431250Y-74356250D02*
X57381250Y-74356250D01*
X57381250Y-74356250D02*
X57381250Y-70387500D01*
X57381250Y-74356250D02*
X43093750Y-74356250D01*
X43093750Y-74356250D02*
X38331250Y-74356250D01*
X38331250Y-74356250D02*
X38331250Y-70387500D01*
X76431250Y-74356250D02*
X76431250Y-70387500D01*
X95481250Y-74356250D02*
X76431250Y-74356250D01*
X133581250Y-74356250D02*
X133581250Y-70387500D01*
X152631250Y-74356250D02*
X133581250Y-74356250D01*
X190731250Y-74356250D02*
X190731250Y-70387500D01*
X208987500Y-74356250D02*
X190731250Y-74356250D01*
X208987500Y-70387500D02*
X208987500Y-74356250D01*
X171681250Y-74356250D02*
X152631250Y-74356250D01*
X152631250Y-74356250D02*
X152631250Y-70387500D01*
X133581250Y-74356250D02*
X114531250Y-74356250D01*
X114531250Y-74356250D02*
X114531250Y-70387500D01*
X114531250Y-74356250D02*
X95481250Y-74356250D01*
X95481250Y-74356250D02*
X95481250Y-70387500D01*
X171681250Y-74356250D02*
X171681250Y-70387500D01*
X190731250Y-74356250D02*
X171681250Y-74356250D01*
X46665001Y-55543751D02*
X46665001Y-65064083D01*
X43093750Y-68635334D02*
X43093750Y-74356250D01*
X46665001Y-65064083D02*
X43093750Y-68635334D01*
X43728750Y-52607500D02*
X46665001Y-55543751D01*
%TO.N,row_3*%
X41579249Y-60275003D02*
X39918750Y-60275003D01*
X42231251Y-59623001D02*
X41579249Y-60275003D01*
X42231251Y-56825001D02*
X42231251Y-59623001D01*
X41506250Y-56100000D02*
X42231251Y-56825001D01*
%TO.N,col_3*%
X59415000Y-42978748D02*
X61350000Y-42978748D01*
%TO.N,col_4*%
X53033419Y-40194933D02*
X53857236Y-41018750D01*
X51028938Y-40194933D02*
X53033419Y-40194933D01*
X56677499Y-41018750D02*
X56815002Y-41156253D01*
X53857236Y-41018750D02*
X56677499Y-41018750D01*
X59658744Y-41431256D02*
X60865000Y-40225000D01*
X59415000Y-41431256D02*
X59658744Y-41431256D01*
X78465000Y-40050009D02*
X79915000Y-40050009D01*
%TO.N,col_5*%
X60694255Y-39224997D02*
X60865000Y-39224997D01*
X59487999Y-40431253D02*
X60694255Y-39224997D01*
X59415000Y-40431253D02*
X59487999Y-40431253D01*
X78465000Y-39050006D02*
X79915000Y-39050006D01*
X97515000Y-39431250D02*
X98965000Y-39431250D01*
%TO.N,col_6*%
X60621256Y-38224994D02*
X60865000Y-38224994D01*
X59415000Y-39431250D02*
X60621256Y-38224994D01*
X116565000Y-38637500D02*
X118015000Y-38637500D01*
X97515000Y-38431247D02*
X98965000Y-38431247D01*
X78465000Y-38050003D02*
X79915000Y-38050003D01*
%TO.N,col_7*%
X59896259Y-36256250D02*
X60865000Y-37224991D01*
X59415000Y-36256250D02*
X59896259Y-36256250D01*
X79606250Y-37050000D02*
X79915000Y-37050000D01*
X97515000Y-37431244D02*
X98965000Y-37431244D01*
X116565000Y-37637497D02*
X118015000Y-37637497D01*
X78465000Y-37050000D02*
X79606250Y-37050000D01*
X135615000Y-37843750D02*
X137065000Y-37843750D01*
%TO.N,col_8*%
X59415000Y-54512500D02*
X60556250Y-54512500D01*
X60556250Y-54512500D02*
X60865000Y-54512500D01*
X155806250Y-54512500D02*
X154665000Y-54512500D01*
X118015000Y-54512500D02*
X116565000Y-54512500D01*
X79606250Y-54512500D02*
X79915000Y-54512500D01*
X78465000Y-54512500D02*
X79606250Y-54512500D01*
X135615000Y-54512500D02*
X136756250Y-54512500D01*
X136756250Y-54512500D02*
X137065000Y-54512500D01*
X97515000Y-54512500D02*
X98656250Y-54512500D01*
X98656250Y-54512500D02*
X98965000Y-54512500D01*
X154665000Y-54512500D02*
X156115000Y-54512500D01*
%TO.N,col_9*%
X59415000Y-55512503D02*
X60865000Y-55512503D01*
X154665000Y-55512503D02*
X156115000Y-55512503D01*
X97515000Y-55512503D02*
X98965000Y-55512503D01*
X135615000Y-55512503D02*
X137065000Y-55512503D01*
X78465000Y-55512503D02*
X79915000Y-55512503D01*
X173715000Y-55306250D02*
X175165000Y-55306250D01*
X116565000Y-55512503D02*
X118015000Y-55512503D01*
%TO.N,GND*%
X31822500Y-52607500D02*
X34362500Y-52607500D01*
X29282500Y-42132252D02*
X29282500Y-37367500D01*
X32698799Y-45548551D02*
X29282500Y-42132252D01*
X32698799Y-51731201D02*
X32698799Y-45548551D01*
X31822500Y-52607500D02*
X32698799Y-51731201D01*
X31822500Y-52607500D02*
X28012500Y-56417500D01*
X26901250Y-56417500D02*
X26425000Y-56893750D01*
X28012500Y-56417500D02*
X26901250Y-56417500D01*
%TO.N,Net-(SW37-Pad2)*%
X30351145Y-39473855D02*
X30393750Y-39431250D01*
X30351145Y-41188749D02*
X30351145Y-39473855D01*
%TO.N,Net-(D5-Pad2)*%
X57381250Y-45457834D02*
X52295334Y-50543750D01*
X52295334Y-50543750D02*
X50327500Y-50543750D01*
X57381250Y-42606250D02*
X57381250Y-45457834D01*
%TO.N,Net-(D8-Pad2)*%
X74050000Y-44193750D02*
X74050000Y-45781250D01*
%TD*%
M02*
