%TF.GenerationSoftware,KiCad,Pcbnew,(5.1.12-1-10_14)*%
%TF.CreationDate,2022-02-07T22:24:56-07:00*%
%TF.ProjectId,youwu36,796f7577-7533-4362-9e6b-696361645f70,rev?*%
%TF.SameCoordinates,Original*%
%TF.FileFunction,Soldermask,Bot*%
%TF.FilePolarity,Negative*%
%FSLAX46Y46*%
G04 Gerber Fmt 4.6, Leading zero omitted, Abs format (unit mm)*
G04 Created by KiCad (PCBNEW (5.1.12-1-10_14)) date 2022-02-07 22:24:56*
%MOMM*%
%LPD*%
G01*
G04 APERTURE LIST*
%ADD10C,2.600000*%
%ADD11C,2.101800*%
%ADD12C,4.387800*%
%ADD13C,3.400000*%
%ADD14C,2.152600*%
G04 APERTURE END LIST*
D10*
%TO.C,REF\u002A\u002A*%
X191525000Y-56893750D03*
%TD*%
%TO.C,REF\u002A\u002A*%
X172475000Y-75943750D03*
%TD*%
%TO.C,REF\u002A\u002A*%
X172475000Y-37843750D03*
%TD*%
%TO.C,SW23*%
G36*
G01*
X134865000Y-27028750D02*
X134865000Y-24528750D01*
G75*
G02*
X135065000Y-24328750I200000J0D01*
G01*
X137615000Y-24328750D01*
G75*
G02*
X137815000Y-24528750I0J-200000D01*
G01*
X137815000Y-27028750D01*
G75*
G02*
X137615000Y-27228750I-200000J0D01*
G01*
X135065000Y-27228750D01*
G75*
G02*
X134865000Y-27028750I0J200000D01*
G01*
G37*
D11*
X138820000Y-28318750D03*
X148980000Y-28318750D03*
D12*
X143900000Y-28318750D03*
D13*
X140090000Y-25778750D03*
X146440000Y-23238750D03*
G36*
G01*
X148715000Y-24488750D02*
X148715000Y-21988750D01*
G75*
G02*
X148915000Y-21788750I200000J0D01*
G01*
X151465000Y-21788750D01*
G75*
G02*
X151665000Y-21988750I0J-200000D01*
G01*
X151665000Y-24488750D01*
G75*
G02*
X151465000Y-24688750I-200000J0D01*
G01*
X148915000Y-24688750D01*
G75*
G02*
X148715000Y-24488750I0J200000D01*
G01*
G37*
%TD*%
%TO.C,SW36*%
G36*
G01*
X192015000Y-65128750D02*
X192015000Y-62628750D01*
G75*
G02*
X192215000Y-62428750I200000J0D01*
G01*
X194765000Y-62428750D01*
G75*
G02*
X194965000Y-62628750I0J-200000D01*
G01*
X194965000Y-65128750D01*
G75*
G02*
X194765000Y-65328750I-200000J0D01*
G01*
X192215000Y-65328750D01*
G75*
G02*
X192015000Y-65128750I0J200000D01*
G01*
G37*
D11*
X195970000Y-66418750D03*
X206130000Y-66418750D03*
D12*
X201050000Y-66418750D03*
D13*
X197240000Y-63878750D03*
X203590000Y-61338750D03*
G36*
G01*
X205865000Y-62588750D02*
X205865000Y-60088750D01*
G75*
G02*
X206065000Y-59888750I200000J0D01*
G01*
X208615000Y-59888750D01*
G75*
G02*
X208815000Y-60088750I0J-200000D01*
G01*
X208815000Y-62588750D01*
G75*
G02*
X208615000Y-62788750I-200000J0D01*
G01*
X206065000Y-62788750D01*
G75*
G02*
X205865000Y-62588750I0J200000D01*
G01*
G37*
%TD*%
%TO.C,SW35*%
G36*
G01*
X192015000Y-46078750D02*
X192015000Y-43578750D01*
G75*
G02*
X192215000Y-43378750I200000J0D01*
G01*
X194765000Y-43378750D01*
G75*
G02*
X194965000Y-43578750I0J-200000D01*
G01*
X194965000Y-46078750D01*
G75*
G02*
X194765000Y-46278750I-200000J0D01*
G01*
X192215000Y-46278750D01*
G75*
G02*
X192015000Y-46078750I0J200000D01*
G01*
G37*
D11*
X195970000Y-47368750D03*
X206130000Y-47368750D03*
D12*
X201050000Y-47368750D03*
D13*
X197240000Y-44828750D03*
X203590000Y-42288750D03*
G36*
G01*
X205865000Y-43538750D02*
X205865000Y-41038750D01*
G75*
G02*
X206065000Y-40838750I200000J0D01*
G01*
X208615000Y-40838750D01*
G75*
G02*
X208815000Y-41038750I0J-200000D01*
G01*
X208815000Y-43538750D01*
G75*
G02*
X208615000Y-43738750I-200000J0D01*
G01*
X206065000Y-43738750D01*
G75*
G02*
X205865000Y-43538750I0J200000D01*
G01*
G37*
%TD*%
%TO.C,SW24*%
G36*
G01*
X134865000Y-46078750D02*
X134865000Y-43578750D01*
G75*
G02*
X135065000Y-43378750I200000J0D01*
G01*
X137615000Y-43378750D01*
G75*
G02*
X137815000Y-43578750I0J-200000D01*
G01*
X137815000Y-46078750D01*
G75*
G02*
X137615000Y-46278750I-200000J0D01*
G01*
X135065000Y-46278750D01*
G75*
G02*
X134865000Y-46078750I0J200000D01*
G01*
G37*
D11*
X138820000Y-47368750D03*
X148980000Y-47368750D03*
D12*
X143900000Y-47368750D03*
D13*
X140090000Y-44828750D03*
X146440000Y-42288750D03*
G36*
G01*
X148715000Y-43538750D02*
X148715000Y-41038750D01*
G75*
G02*
X148915000Y-40838750I200000J0D01*
G01*
X151465000Y-40838750D01*
G75*
G02*
X151665000Y-41038750I0J-200000D01*
G01*
X151665000Y-43538750D01*
G75*
G02*
X151465000Y-43738750I-200000J0D01*
G01*
X148915000Y-43738750D01*
G75*
G02*
X148715000Y-43538750I0J200000D01*
G01*
G37*
%TD*%
%TO.C,SW25*%
G36*
G01*
X134865000Y-65128750D02*
X134865000Y-62628750D01*
G75*
G02*
X135065000Y-62428750I200000J0D01*
G01*
X137615000Y-62428750D01*
G75*
G02*
X137815000Y-62628750I0J-200000D01*
G01*
X137815000Y-65128750D01*
G75*
G02*
X137615000Y-65328750I-200000J0D01*
G01*
X135065000Y-65328750D01*
G75*
G02*
X134865000Y-65128750I0J200000D01*
G01*
G37*
D11*
X138820000Y-66418750D03*
X148980000Y-66418750D03*
D12*
X143900000Y-66418750D03*
D13*
X140090000Y-63878750D03*
X146440000Y-61338750D03*
G36*
G01*
X148715000Y-62588750D02*
X148715000Y-60088750D01*
G75*
G02*
X148915000Y-59888750I200000J0D01*
G01*
X151465000Y-59888750D01*
G75*
G02*
X151665000Y-60088750I0J-200000D01*
G01*
X151665000Y-62588750D01*
G75*
G02*
X151465000Y-62788750I-200000J0D01*
G01*
X148915000Y-62788750D01*
G75*
G02*
X148715000Y-62588750I0J200000D01*
G01*
G37*
%TD*%
%TO.C,SW26*%
G36*
G01*
X134865000Y-84178750D02*
X134865000Y-81678750D01*
G75*
G02*
X135065000Y-81478750I200000J0D01*
G01*
X137615000Y-81478750D01*
G75*
G02*
X137815000Y-81678750I0J-200000D01*
G01*
X137815000Y-84178750D01*
G75*
G02*
X137615000Y-84378750I-200000J0D01*
G01*
X135065000Y-84378750D01*
G75*
G02*
X134865000Y-84178750I0J200000D01*
G01*
G37*
D11*
X138820000Y-85468750D03*
X148980000Y-85468750D03*
D12*
X143900000Y-85468750D03*
D13*
X140090000Y-82928750D03*
X146440000Y-80388750D03*
G36*
G01*
X148715000Y-81638750D02*
X148715000Y-79138750D01*
G75*
G02*
X148915000Y-78938750I200000J0D01*
G01*
X151465000Y-78938750D01*
G75*
G02*
X151665000Y-79138750I0J-200000D01*
G01*
X151665000Y-81638750D01*
G75*
G02*
X151465000Y-81838750I-200000J0D01*
G01*
X148915000Y-81838750D01*
G75*
G02*
X148715000Y-81638750I0J200000D01*
G01*
G37*
%TD*%
%TO.C,SW27*%
G36*
G01*
X153915000Y-27028750D02*
X153915000Y-24528750D01*
G75*
G02*
X154115000Y-24328750I200000J0D01*
G01*
X156665000Y-24328750D01*
G75*
G02*
X156865000Y-24528750I0J-200000D01*
G01*
X156865000Y-27028750D01*
G75*
G02*
X156665000Y-27228750I-200000J0D01*
G01*
X154115000Y-27228750D01*
G75*
G02*
X153915000Y-27028750I0J200000D01*
G01*
G37*
D11*
X157870000Y-28318750D03*
X168030000Y-28318750D03*
D12*
X162950000Y-28318750D03*
D13*
X159140000Y-25778750D03*
X165490000Y-23238750D03*
G36*
G01*
X167765000Y-24488750D02*
X167765000Y-21988750D01*
G75*
G02*
X167965000Y-21788750I200000J0D01*
G01*
X170515000Y-21788750D01*
G75*
G02*
X170715000Y-21988750I0J-200000D01*
G01*
X170715000Y-24488750D01*
G75*
G02*
X170515000Y-24688750I-200000J0D01*
G01*
X167965000Y-24688750D01*
G75*
G02*
X167765000Y-24488750I0J200000D01*
G01*
G37*
%TD*%
%TO.C,SW28*%
G36*
G01*
X153915000Y-46078750D02*
X153915000Y-43578750D01*
G75*
G02*
X154115000Y-43378750I200000J0D01*
G01*
X156665000Y-43378750D01*
G75*
G02*
X156865000Y-43578750I0J-200000D01*
G01*
X156865000Y-46078750D01*
G75*
G02*
X156665000Y-46278750I-200000J0D01*
G01*
X154115000Y-46278750D01*
G75*
G02*
X153915000Y-46078750I0J200000D01*
G01*
G37*
D11*
X157870000Y-47368750D03*
X168030000Y-47368750D03*
D12*
X162950000Y-47368750D03*
D13*
X159140000Y-44828750D03*
X165490000Y-42288750D03*
G36*
G01*
X167765000Y-43538750D02*
X167765000Y-41038750D01*
G75*
G02*
X167965000Y-40838750I200000J0D01*
G01*
X170515000Y-40838750D01*
G75*
G02*
X170715000Y-41038750I0J-200000D01*
G01*
X170715000Y-43538750D01*
G75*
G02*
X170515000Y-43738750I-200000J0D01*
G01*
X167965000Y-43738750D01*
G75*
G02*
X167765000Y-43538750I0J200000D01*
G01*
G37*
%TD*%
%TO.C,SW29*%
G36*
G01*
X153915000Y-65128750D02*
X153915000Y-62628750D01*
G75*
G02*
X154115000Y-62428750I200000J0D01*
G01*
X156665000Y-62428750D01*
G75*
G02*
X156865000Y-62628750I0J-200000D01*
G01*
X156865000Y-65128750D01*
G75*
G02*
X156665000Y-65328750I-200000J0D01*
G01*
X154115000Y-65328750D01*
G75*
G02*
X153915000Y-65128750I0J200000D01*
G01*
G37*
D11*
X157870000Y-66418750D03*
X168030000Y-66418750D03*
D12*
X162950000Y-66418750D03*
D13*
X159140000Y-63878750D03*
X165490000Y-61338750D03*
G36*
G01*
X167765000Y-62588750D02*
X167765000Y-60088750D01*
G75*
G02*
X167965000Y-59888750I200000J0D01*
G01*
X170515000Y-59888750D01*
G75*
G02*
X170715000Y-60088750I0J-200000D01*
G01*
X170715000Y-62588750D01*
G75*
G02*
X170515000Y-62788750I-200000J0D01*
G01*
X167965000Y-62788750D01*
G75*
G02*
X167765000Y-62588750I0J200000D01*
G01*
G37*
%TD*%
%TO.C,SW30*%
G36*
G01*
X153915000Y-84178750D02*
X153915000Y-81678750D01*
G75*
G02*
X154115000Y-81478750I200000J0D01*
G01*
X156665000Y-81478750D01*
G75*
G02*
X156865000Y-81678750I0J-200000D01*
G01*
X156865000Y-84178750D01*
G75*
G02*
X156665000Y-84378750I-200000J0D01*
G01*
X154115000Y-84378750D01*
G75*
G02*
X153915000Y-84178750I0J200000D01*
G01*
G37*
D11*
X157870000Y-85468750D03*
X168030000Y-85468750D03*
D12*
X162950000Y-85468750D03*
D13*
X159140000Y-82928750D03*
X165490000Y-80388750D03*
G36*
G01*
X167765000Y-81638750D02*
X167765000Y-79138750D01*
G75*
G02*
X167965000Y-78938750I200000J0D01*
G01*
X170515000Y-78938750D01*
G75*
G02*
X170715000Y-79138750I0J-200000D01*
G01*
X170715000Y-81638750D01*
G75*
G02*
X170515000Y-81838750I-200000J0D01*
G01*
X167965000Y-81838750D01*
G75*
G02*
X167765000Y-81638750I0J200000D01*
G01*
G37*
%TD*%
%TO.C,SW31*%
G36*
G01*
X172965000Y-27028750D02*
X172965000Y-24528750D01*
G75*
G02*
X173165000Y-24328750I200000J0D01*
G01*
X175715000Y-24328750D01*
G75*
G02*
X175915000Y-24528750I0J-200000D01*
G01*
X175915000Y-27028750D01*
G75*
G02*
X175715000Y-27228750I-200000J0D01*
G01*
X173165000Y-27228750D01*
G75*
G02*
X172965000Y-27028750I0J200000D01*
G01*
G37*
D11*
X176920000Y-28318750D03*
X187080000Y-28318750D03*
D12*
X182000000Y-28318750D03*
D13*
X178190000Y-25778750D03*
X184540000Y-23238750D03*
G36*
G01*
X186815000Y-24488750D02*
X186815000Y-21988750D01*
G75*
G02*
X187015000Y-21788750I200000J0D01*
G01*
X189565000Y-21788750D01*
G75*
G02*
X189765000Y-21988750I0J-200000D01*
G01*
X189765000Y-24488750D01*
G75*
G02*
X189565000Y-24688750I-200000J0D01*
G01*
X187015000Y-24688750D01*
G75*
G02*
X186815000Y-24488750I0J200000D01*
G01*
G37*
%TD*%
%TO.C,SW32*%
G36*
G01*
X172965000Y-46078750D02*
X172965000Y-43578750D01*
G75*
G02*
X173165000Y-43378750I200000J0D01*
G01*
X175715000Y-43378750D01*
G75*
G02*
X175915000Y-43578750I0J-200000D01*
G01*
X175915000Y-46078750D01*
G75*
G02*
X175715000Y-46278750I-200000J0D01*
G01*
X173165000Y-46278750D01*
G75*
G02*
X172965000Y-46078750I0J200000D01*
G01*
G37*
D11*
X176920000Y-47368750D03*
X187080000Y-47368750D03*
D12*
X182000000Y-47368750D03*
D13*
X178190000Y-44828750D03*
X184540000Y-42288750D03*
G36*
G01*
X186815000Y-43538750D02*
X186815000Y-41038750D01*
G75*
G02*
X187015000Y-40838750I200000J0D01*
G01*
X189565000Y-40838750D01*
G75*
G02*
X189765000Y-41038750I0J-200000D01*
G01*
X189765000Y-43538750D01*
G75*
G02*
X189565000Y-43738750I-200000J0D01*
G01*
X187015000Y-43738750D01*
G75*
G02*
X186815000Y-43538750I0J200000D01*
G01*
G37*
%TD*%
%TO.C,SW33*%
G36*
G01*
X172965000Y-65128750D02*
X172965000Y-62628750D01*
G75*
G02*
X173165000Y-62428750I200000J0D01*
G01*
X175715000Y-62428750D01*
G75*
G02*
X175915000Y-62628750I0J-200000D01*
G01*
X175915000Y-65128750D01*
G75*
G02*
X175715000Y-65328750I-200000J0D01*
G01*
X173165000Y-65328750D01*
G75*
G02*
X172965000Y-65128750I0J200000D01*
G01*
G37*
D11*
X176920000Y-66418750D03*
X187080000Y-66418750D03*
D12*
X182000000Y-66418750D03*
D13*
X178190000Y-63878750D03*
X184540000Y-61338750D03*
G36*
G01*
X186815000Y-62588750D02*
X186815000Y-60088750D01*
G75*
G02*
X187015000Y-59888750I200000J0D01*
G01*
X189565000Y-59888750D01*
G75*
G02*
X189765000Y-60088750I0J-200000D01*
G01*
X189765000Y-62588750D01*
G75*
G02*
X189565000Y-62788750I-200000J0D01*
G01*
X187015000Y-62788750D01*
G75*
G02*
X186815000Y-62588750I0J200000D01*
G01*
G37*
%TD*%
%TO.C,SW34*%
G36*
G01*
X192015000Y-27028750D02*
X192015000Y-24528750D01*
G75*
G02*
X192215000Y-24328750I200000J0D01*
G01*
X194765000Y-24328750D01*
G75*
G02*
X194965000Y-24528750I0J-200000D01*
G01*
X194965000Y-27028750D01*
G75*
G02*
X194765000Y-27228750I-200000J0D01*
G01*
X192215000Y-27228750D01*
G75*
G02*
X192015000Y-27028750I0J200000D01*
G01*
G37*
D11*
X195970000Y-28318750D03*
X206130000Y-28318750D03*
D12*
X201050000Y-28318750D03*
D13*
X197240000Y-25778750D03*
X203590000Y-23238750D03*
G36*
G01*
X205865000Y-24488750D02*
X205865000Y-21988750D01*
G75*
G02*
X206065000Y-21788750I200000J0D01*
G01*
X208615000Y-21788750D01*
G75*
G02*
X208815000Y-21988750I0J-200000D01*
G01*
X208815000Y-24488750D01*
G75*
G02*
X208615000Y-24688750I-200000J0D01*
G01*
X206065000Y-24688750D01*
G75*
G02*
X205865000Y-24488750I0J200000D01*
G01*
G37*
%TD*%
%TO.C,SW22*%
G36*
G01*
X115815000Y-84178750D02*
X115815000Y-81678750D01*
G75*
G02*
X116015000Y-81478750I200000J0D01*
G01*
X118565000Y-81478750D01*
G75*
G02*
X118765000Y-81678750I0J-200000D01*
G01*
X118765000Y-84178750D01*
G75*
G02*
X118565000Y-84378750I-200000J0D01*
G01*
X116015000Y-84378750D01*
G75*
G02*
X115815000Y-84178750I0J200000D01*
G01*
G37*
D11*
X119770000Y-85468750D03*
X129930000Y-85468750D03*
D12*
X124850000Y-85468750D03*
D13*
X121040000Y-82928750D03*
X127390000Y-80388750D03*
G36*
G01*
X129665000Y-81638750D02*
X129665000Y-79138750D01*
G75*
G02*
X129865000Y-78938750I200000J0D01*
G01*
X132415000Y-78938750D01*
G75*
G02*
X132615000Y-79138750I0J-200000D01*
G01*
X132615000Y-81638750D01*
G75*
G02*
X132415000Y-81838750I-200000J0D01*
G01*
X129865000Y-81838750D01*
G75*
G02*
X129665000Y-81638750I0J200000D01*
G01*
G37*
%TD*%
%TO.C,SW18*%
G36*
G01*
X96765000Y-84178750D02*
X96765000Y-81678750D01*
G75*
G02*
X96965000Y-81478750I200000J0D01*
G01*
X99515000Y-81478750D01*
G75*
G02*
X99715000Y-81678750I0J-200000D01*
G01*
X99715000Y-84178750D01*
G75*
G02*
X99515000Y-84378750I-200000J0D01*
G01*
X96965000Y-84378750D01*
G75*
G02*
X96765000Y-84178750I0J200000D01*
G01*
G37*
D11*
X100720000Y-85468750D03*
X110880000Y-85468750D03*
D12*
X105800000Y-85468750D03*
D13*
X101990000Y-82928750D03*
X108340000Y-80388750D03*
G36*
G01*
X110615000Y-81638750D02*
X110615000Y-79138750D01*
G75*
G02*
X110815000Y-78938750I200000J0D01*
G01*
X113365000Y-78938750D01*
G75*
G02*
X113565000Y-79138750I0J-200000D01*
G01*
X113565000Y-81638750D01*
G75*
G02*
X113365000Y-81838750I-200000J0D01*
G01*
X110815000Y-81838750D01*
G75*
G02*
X110615000Y-81638750I0J200000D01*
G01*
G37*
%TD*%
%TO.C,SW15*%
G36*
G01*
X96765000Y-27028750D02*
X96765000Y-24528750D01*
G75*
G02*
X96965000Y-24328750I200000J0D01*
G01*
X99515000Y-24328750D01*
G75*
G02*
X99715000Y-24528750I0J-200000D01*
G01*
X99715000Y-27028750D01*
G75*
G02*
X99515000Y-27228750I-200000J0D01*
G01*
X96965000Y-27228750D01*
G75*
G02*
X96765000Y-27028750I0J200000D01*
G01*
G37*
D11*
X100720000Y-28318750D03*
X110880000Y-28318750D03*
D12*
X105800000Y-28318750D03*
D13*
X101990000Y-25778750D03*
X108340000Y-23238750D03*
G36*
G01*
X110615000Y-24488750D02*
X110615000Y-21988750D01*
G75*
G02*
X110815000Y-21788750I200000J0D01*
G01*
X113365000Y-21788750D01*
G75*
G02*
X113565000Y-21988750I0J-200000D01*
G01*
X113565000Y-24488750D01*
G75*
G02*
X113365000Y-24688750I-200000J0D01*
G01*
X110815000Y-24688750D01*
G75*
G02*
X110615000Y-24488750I0J200000D01*
G01*
G37*
%TD*%
%TO.C,SW13*%
G36*
G01*
X77715000Y-65128750D02*
X77715000Y-62628750D01*
G75*
G02*
X77915000Y-62428750I200000J0D01*
G01*
X80465000Y-62428750D01*
G75*
G02*
X80665000Y-62628750I0J-200000D01*
G01*
X80665000Y-65128750D01*
G75*
G02*
X80465000Y-65328750I-200000J0D01*
G01*
X77915000Y-65328750D01*
G75*
G02*
X77715000Y-65128750I0J200000D01*
G01*
G37*
D11*
X81670000Y-66418750D03*
X91830000Y-66418750D03*
D12*
X86750000Y-66418750D03*
D13*
X82940000Y-63878750D03*
X89290000Y-61338750D03*
G36*
G01*
X91565000Y-62588750D02*
X91565000Y-60088750D01*
G75*
G02*
X91765000Y-59888750I200000J0D01*
G01*
X94315000Y-59888750D01*
G75*
G02*
X94515000Y-60088750I0J-200000D01*
G01*
X94515000Y-62588750D01*
G75*
G02*
X94315000Y-62788750I-200000J0D01*
G01*
X91765000Y-62788750D01*
G75*
G02*
X91565000Y-62588750I0J200000D01*
G01*
G37*
%TD*%
%TO.C,SW11*%
G36*
G01*
X77715000Y-27028750D02*
X77715000Y-24528750D01*
G75*
G02*
X77915000Y-24328750I200000J0D01*
G01*
X80465000Y-24328750D01*
G75*
G02*
X80665000Y-24528750I0J-200000D01*
G01*
X80665000Y-27028750D01*
G75*
G02*
X80465000Y-27228750I-200000J0D01*
G01*
X77915000Y-27228750D01*
G75*
G02*
X77715000Y-27028750I0J200000D01*
G01*
G37*
D11*
X81670000Y-28318750D03*
X91830000Y-28318750D03*
D12*
X86750000Y-28318750D03*
D13*
X82940000Y-25778750D03*
X89290000Y-23238750D03*
G36*
G01*
X91565000Y-24488750D02*
X91565000Y-21988750D01*
G75*
G02*
X91765000Y-21788750I200000J0D01*
G01*
X94315000Y-21788750D01*
G75*
G02*
X94515000Y-21988750I0J-200000D01*
G01*
X94515000Y-24488750D01*
G75*
G02*
X94315000Y-24688750I-200000J0D01*
G01*
X91765000Y-24688750D01*
G75*
G02*
X91565000Y-24488750I0J200000D01*
G01*
G37*
%TD*%
%TO.C,SW14*%
G36*
G01*
X77715000Y-84178750D02*
X77715000Y-81678750D01*
G75*
G02*
X77915000Y-81478750I200000J0D01*
G01*
X80465000Y-81478750D01*
G75*
G02*
X80665000Y-81678750I0J-200000D01*
G01*
X80665000Y-84178750D01*
G75*
G02*
X80465000Y-84378750I-200000J0D01*
G01*
X77915000Y-84378750D01*
G75*
G02*
X77715000Y-84178750I0J200000D01*
G01*
G37*
D11*
X81670000Y-85468750D03*
X91830000Y-85468750D03*
D12*
X86750000Y-85468750D03*
D13*
X82940000Y-82928750D03*
X89290000Y-80388750D03*
G36*
G01*
X91565000Y-81638750D02*
X91565000Y-79138750D01*
G75*
G02*
X91765000Y-78938750I200000J0D01*
G01*
X94315000Y-78938750D01*
G75*
G02*
X94515000Y-79138750I0J-200000D01*
G01*
X94515000Y-81638750D01*
G75*
G02*
X94315000Y-81838750I-200000J0D01*
G01*
X91765000Y-81838750D01*
G75*
G02*
X91565000Y-81638750I0J200000D01*
G01*
G37*
%TD*%
%TO.C,SW17*%
G36*
G01*
X96765000Y-65128750D02*
X96765000Y-62628750D01*
G75*
G02*
X96965000Y-62428750I200000J0D01*
G01*
X99515000Y-62428750D01*
G75*
G02*
X99715000Y-62628750I0J-200000D01*
G01*
X99715000Y-65128750D01*
G75*
G02*
X99515000Y-65328750I-200000J0D01*
G01*
X96965000Y-65328750D01*
G75*
G02*
X96765000Y-65128750I0J200000D01*
G01*
G37*
D11*
X100720000Y-66418750D03*
X110880000Y-66418750D03*
D12*
X105800000Y-66418750D03*
D13*
X101990000Y-63878750D03*
X108340000Y-61338750D03*
G36*
G01*
X110615000Y-62588750D02*
X110615000Y-60088750D01*
G75*
G02*
X110815000Y-59888750I200000J0D01*
G01*
X113365000Y-59888750D01*
G75*
G02*
X113565000Y-60088750I0J-200000D01*
G01*
X113565000Y-62588750D01*
G75*
G02*
X113365000Y-62788750I-200000J0D01*
G01*
X110815000Y-62788750D01*
G75*
G02*
X110615000Y-62588750I0J200000D01*
G01*
G37*
%TD*%
%TO.C,SW12*%
G36*
G01*
X77715000Y-46078750D02*
X77715000Y-43578750D01*
G75*
G02*
X77915000Y-43378750I200000J0D01*
G01*
X80465000Y-43378750D01*
G75*
G02*
X80665000Y-43578750I0J-200000D01*
G01*
X80665000Y-46078750D01*
G75*
G02*
X80465000Y-46278750I-200000J0D01*
G01*
X77915000Y-46278750D01*
G75*
G02*
X77715000Y-46078750I0J200000D01*
G01*
G37*
D11*
X81670000Y-47368750D03*
X91830000Y-47368750D03*
D12*
X86750000Y-47368750D03*
D13*
X82940000Y-44828750D03*
X89290000Y-42288750D03*
G36*
G01*
X91565000Y-43538750D02*
X91565000Y-41038750D01*
G75*
G02*
X91765000Y-40838750I200000J0D01*
G01*
X94315000Y-40838750D01*
G75*
G02*
X94515000Y-41038750I0J-200000D01*
G01*
X94515000Y-43538750D01*
G75*
G02*
X94315000Y-43738750I-200000J0D01*
G01*
X91765000Y-43738750D01*
G75*
G02*
X91565000Y-43538750I0J200000D01*
G01*
G37*
%TD*%
%TO.C,SW16*%
G36*
G01*
X96765000Y-46078750D02*
X96765000Y-43578750D01*
G75*
G02*
X96965000Y-43378750I200000J0D01*
G01*
X99515000Y-43378750D01*
G75*
G02*
X99715000Y-43578750I0J-200000D01*
G01*
X99715000Y-46078750D01*
G75*
G02*
X99515000Y-46278750I-200000J0D01*
G01*
X96965000Y-46278750D01*
G75*
G02*
X96765000Y-46078750I0J200000D01*
G01*
G37*
D11*
X100720000Y-47368750D03*
X110880000Y-47368750D03*
D12*
X105800000Y-47368750D03*
D13*
X101990000Y-44828750D03*
X108340000Y-42288750D03*
G36*
G01*
X110615000Y-43538750D02*
X110615000Y-41038750D01*
G75*
G02*
X110815000Y-40838750I200000J0D01*
G01*
X113365000Y-40838750D01*
G75*
G02*
X113565000Y-41038750I0J-200000D01*
G01*
X113565000Y-43538750D01*
G75*
G02*
X113365000Y-43738750I-200000J0D01*
G01*
X110815000Y-43738750D01*
G75*
G02*
X110615000Y-43538750I0J200000D01*
G01*
G37*
%TD*%
%TO.C,SW19*%
G36*
G01*
X115815000Y-27028750D02*
X115815000Y-24528750D01*
G75*
G02*
X116015000Y-24328750I200000J0D01*
G01*
X118565000Y-24328750D01*
G75*
G02*
X118765000Y-24528750I0J-200000D01*
G01*
X118765000Y-27028750D01*
G75*
G02*
X118565000Y-27228750I-200000J0D01*
G01*
X116015000Y-27228750D01*
G75*
G02*
X115815000Y-27028750I0J200000D01*
G01*
G37*
D11*
X119770000Y-28318750D03*
X129930000Y-28318750D03*
D12*
X124850000Y-28318750D03*
D13*
X121040000Y-25778750D03*
X127390000Y-23238750D03*
G36*
G01*
X129665000Y-24488750D02*
X129665000Y-21988750D01*
G75*
G02*
X129865000Y-21788750I200000J0D01*
G01*
X132415000Y-21788750D01*
G75*
G02*
X132615000Y-21988750I0J-200000D01*
G01*
X132615000Y-24488750D01*
G75*
G02*
X132415000Y-24688750I-200000J0D01*
G01*
X129865000Y-24688750D01*
G75*
G02*
X129665000Y-24488750I0J200000D01*
G01*
G37*
%TD*%
%TO.C,SW20*%
G36*
G01*
X115815000Y-46078750D02*
X115815000Y-43578750D01*
G75*
G02*
X116015000Y-43378750I200000J0D01*
G01*
X118565000Y-43378750D01*
G75*
G02*
X118765000Y-43578750I0J-200000D01*
G01*
X118765000Y-46078750D01*
G75*
G02*
X118565000Y-46278750I-200000J0D01*
G01*
X116015000Y-46278750D01*
G75*
G02*
X115815000Y-46078750I0J200000D01*
G01*
G37*
D11*
X119770000Y-47368750D03*
X129930000Y-47368750D03*
D12*
X124850000Y-47368750D03*
D13*
X121040000Y-44828750D03*
X127390000Y-42288750D03*
G36*
G01*
X129665000Y-43538750D02*
X129665000Y-41038750D01*
G75*
G02*
X129865000Y-40838750I200000J0D01*
G01*
X132415000Y-40838750D01*
G75*
G02*
X132615000Y-41038750I0J-200000D01*
G01*
X132615000Y-43538750D01*
G75*
G02*
X132415000Y-43738750I-200000J0D01*
G01*
X129865000Y-43738750D01*
G75*
G02*
X129665000Y-43538750I0J200000D01*
G01*
G37*
%TD*%
%TO.C,SW21*%
G36*
G01*
X115815000Y-65128750D02*
X115815000Y-62628750D01*
G75*
G02*
X116015000Y-62428750I200000J0D01*
G01*
X118565000Y-62428750D01*
G75*
G02*
X118765000Y-62628750I0J-200000D01*
G01*
X118765000Y-65128750D01*
G75*
G02*
X118565000Y-65328750I-200000J0D01*
G01*
X116015000Y-65328750D01*
G75*
G02*
X115815000Y-65128750I0J200000D01*
G01*
G37*
D11*
X119770000Y-66418750D03*
X129930000Y-66418750D03*
D12*
X124850000Y-66418750D03*
D13*
X121040000Y-63878750D03*
X127390000Y-61338750D03*
G36*
G01*
X129665000Y-62588750D02*
X129665000Y-60088750D01*
G75*
G02*
X129865000Y-59888750I200000J0D01*
G01*
X132415000Y-59888750D01*
G75*
G02*
X132615000Y-60088750I0J-200000D01*
G01*
X132615000Y-62588750D01*
G75*
G02*
X132415000Y-62788750I-200000J0D01*
G01*
X129865000Y-62788750D01*
G75*
G02*
X129665000Y-62588750I0J200000D01*
G01*
G37*
%TD*%
D10*
%TO.C,REF\u002A\u002A*%
X39125000Y-56893750D03*
%TD*%
%TO.C,REF\u002A\u002A*%
X58175000Y-37843750D03*
%TD*%
%TO.C,REF\u002A\u002A*%
X58175000Y-75943750D03*
%TD*%
%TO.C,SW37*%
G36*
G01*
X22525000Y-57693750D02*
X22525000Y-56093750D01*
G75*
G02*
X22725000Y-55893750I200000J0D01*
G01*
X24725000Y-55893750D01*
G75*
G02*
X24925000Y-56093750I0J-200000D01*
G01*
X24925000Y-57693750D01*
G75*
G02*
X24725000Y-57893750I-200000J0D01*
G01*
X22725000Y-57893750D01*
G75*
G02*
X22525000Y-57693750I0J200000D01*
G01*
G37*
G36*
G01*
X27925000Y-57693750D02*
X27925000Y-56093750D01*
G75*
G02*
X28125000Y-55893750I200000J0D01*
G01*
X30125000Y-55893750D01*
G75*
G02*
X30325000Y-56093750I0J-200000D01*
G01*
X30325000Y-57693750D01*
G75*
G02*
X30125000Y-57893750I-200000J0D01*
G01*
X28125000Y-57893750D01*
G75*
G02*
X27925000Y-57693750I0J200000D01*
G01*
G37*
%TD*%
%TO.C,D36*%
G36*
G01*
X209587500Y-69387500D02*
X208387500Y-69387500D01*
G75*
G02*
X208187500Y-69187500I0J200000D01*
G01*
X208187500Y-68287500D01*
G75*
G02*
X208387500Y-68087500I200000J0D01*
G01*
X209587500Y-68087500D01*
G75*
G02*
X209787500Y-68287500I0J-200000D01*
G01*
X209787500Y-69187500D01*
G75*
G02*
X209587500Y-69387500I-200000J0D01*
G01*
G37*
G36*
G01*
X209587500Y-72687500D02*
X208387500Y-72687500D01*
G75*
G02*
X208187500Y-72487500I0J200000D01*
G01*
X208187500Y-71587500D01*
G75*
G02*
X208387500Y-71387500I200000J0D01*
G01*
X209587500Y-71387500D01*
G75*
G02*
X209787500Y-71587500I0J-200000D01*
G01*
X209787500Y-72487500D01*
G75*
G02*
X209587500Y-72687500I-200000J0D01*
G01*
G37*
%TD*%
%TO.C,D35*%
G36*
G01*
X209587500Y-50337500D02*
X208387500Y-50337500D01*
G75*
G02*
X208187500Y-50137500I0J200000D01*
G01*
X208187500Y-49237500D01*
G75*
G02*
X208387500Y-49037500I200000J0D01*
G01*
X209587500Y-49037500D01*
G75*
G02*
X209787500Y-49237500I0J-200000D01*
G01*
X209787500Y-50137500D01*
G75*
G02*
X209587500Y-50337500I-200000J0D01*
G01*
G37*
G36*
G01*
X209587500Y-53637500D02*
X208387500Y-53637500D01*
G75*
G02*
X208187500Y-53437500I0J200000D01*
G01*
X208187500Y-52537500D01*
G75*
G02*
X208387500Y-52337500I200000J0D01*
G01*
X209587500Y-52337500D01*
G75*
G02*
X209787500Y-52537500I0J-200000D01*
G01*
X209787500Y-53437500D01*
G75*
G02*
X209587500Y-53637500I-200000J0D01*
G01*
G37*
%TD*%
%TO.C,D34*%
G36*
G01*
X209587500Y-31287500D02*
X208387500Y-31287500D01*
G75*
G02*
X208187500Y-31087500I0J200000D01*
G01*
X208187500Y-30187500D01*
G75*
G02*
X208387500Y-29987500I200000J0D01*
G01*
X209587500Y-29987500D01*
G75*
G02*
X209787500Y-30187500I0J-200000D01*
G01*
X209787500Y-31087500D01*
G75*
G02*
X209587500Y-31287500I-200000J0D01*
G01*
G37*
G36*
G01*
X209587500Y-34587500D02*
X208387500Y-34587500D01*
G75*
G02*
X208187500Y-34387500I0J200000D01*
G01*
X208187500Y-33487500D01*
G75*
G02*
X208387500Y-33287500I200000J0D01*
G01*
X209587500Y-33287500D01*
G75*
G02*
X209787500Y-33487500I0J-200000D01*
G01*
X209787500Y-34387500D01*
G75*
G02*
X209587500Y-34587500I-200000J0D01*
G01*
G37*
%TD*%
%TO.C,D33*%
G36*
G01*
X191331250Y-69387500D02*
X190131250Y-69387500D01*
G75*
G02*
X189931250Y-69187500I0J200000D01*
G01*
X189931250Y-68287500D01*
G75*
G02*
X190131250Y-68087500I200000J0D01*
G01*
X191331250Y-68087500D01*
G75*
G02*
X191531250Y-68287500I0J-200000D01*
G01*
X191531250Y-69187500D01*
G75*
G02*
X191331250Y-69387500I-200000J0D01*
G01*
G37*
G36*
G01*
X191331250Y-72687500D02*
X190131250Y-72687500D01*
G75*
G02*
X189931250Y-72487500I0J200000D01*
G01*
X189931250Y-71587500D01*
G75*
G02*
X190131250Y-71387500I200000J0D01*
G01*
X191331250Y-71387500D01*
G75*
G02*
X191531250Y-71587500I0J-200000D01*
G01*
X191531250Y-72487500D01*
G75*
G02*
X191331250Y-72687500I-200000J0D01*
G01*
G37*
%TD*%
%TO.C,D32*%
G36*
G01*
X191331250Y-50337500D02*
X190131250Y-50337500D01*
G75*
G02*
X189931250Y-50137500I0J200000D01*
G01*
X189931250Y-49237500D01*
G75*
G02*
X190131250Y-49037500I200000J0D01*
G01*
X191331250Y-49037500D01*
G75*
G02*
X191531250Y-49237500I0J-200000D01*
G01*
X191531250Y-50137500D01*
G75*
G02*
X191331250Y-50337500I-200000J0D01*
G01*
G37*
G36*
G01*
X191331250Y-53637500D02*
X190131250Y-53637500D01*
G75*
G02*
X189931250Y-53437500I0J200000D01*
G01*
X189931250Y-52537500D01*
G75*
G02*
X190131250Y-52337500I200000J0D01*
G01*
X191331250Y-52337500D01*
G75*
G02*
X191531250Y-52537500I0J-200000D01*
G01*
X191531250Y-53437500D01*
G75*
G02*
X191331250Y-53637500I-200000J0D01*
G01*
G37*
%TD*%
%TO.C,D31*%
G36*
G01*
X191331250Y-31287500D02*
X190131250Y-31287500D01*
G75*
G02*
X189931250Y-31087500I0J200000D01*
G01*
X189931250Y-30187500D01*
G75*
G02*
X190131250Y-29987500I200000J0D01*
G01*
X191331250Y-29987500D01*
G75*
G02*
X191531250Y-30187500I0J-200000D01*
G01*
X191531250Y-31087500D01*
G75*
G02*
X191331250Y-31287500I-200000J0D01*
G01*
G37*
G36*
G01*
X191331250Y-34587500D02*
X190131250Y-34587500D01*
G75*
G02*
X189931250Y-34387500I0J200000D01*
G01*
X189931250Y-33487500D01*
G75*
G02*
X190131250Y-33287500I200000J0D01*
G01*
X191331250Y-33287500D01*
G75*
G02*
X191531250Y-33487500I0J-200000D01*
G01*
X191531250Y-34387500D01*
G75*
G02*
X191331250Y-34587500I-200000J0D01*
G01*
G37*
%TD*%
%TO.C,D30*%
G36*
G01*
X172281250Y-88437500D02*
X171081250Y-88437500D01*
G75*
G02*
X170881250Y-88237500I0J200000D01*
G01*
X170881250Y-87337500D01*
G75*
G02*
X171081250Y-87137500I200000J0D01*
G01*
X172281250Y-87137500D01*
G75*
G02*
X172481250Y-87337500I0J-200000D01*
G01*
X172481250Y-88237500D01*
G75*
G02*
X172281250Y-88437500I-200000J0D01*
G01*
G37*
G36*
G01*
X172281250Y-91737500D02*
X171081250Y-91737500D01*
G75*
G02*
X170881250Y-91537500I0J200000D01*
G01*
X170881250Y-90637500D01*
G75*
G02*
X171081250Y-90437500I200000J0D01*
G01*
X172281250Y-90437500D01*
G75*
G02*
X172481250Y-90637500I0J-200000D01*
G01*
X172481250Y-91537500D01*
G75*
G02*
X172281250Y-91737500I-200000J0D01*
G01*
G37*
%TD*%
%TO.C,D29*%
G36*
G01*
X172281250Y-69387500D02*
X171081250Y-69387500D01*
G75*
G02*
X170881250Y-69187500I0J200000D01*
G01*
X170881250Y-68287500D01*
G75*
G02*
X171081250Y-68087500I200000J0D01*
G01*
X172281250Y-68087500D01*
G75*
G02*
X172481250Y-68287500I0J-200000D01*
G01*
X172481250Y-69187500D01*
G75*
G02*
X172281250Y-69387500I-200000J0D01*
G01*
G37*
G36*
G01*
X172281250Y-72687500D02*
X171081250Y-72687500D01*
G75*
G02*
X170881250Y-72487500I0J200000D01*
G01*
X170881250Y-71587500D01*
G75*
G02*
X171081250Y-71387500I200000J0D01*
G01*
X172281250Y-71387500D01*
G75*
G02*
X172481250Y-71587500I0J-200000D01*
G01*
X172481250Y-72487500D01*
G75*
G02*
X172281250Y-72687500I-200000J0D01*
G01*
G37*
%TD*%
%TO.C,D28*%
G36*
G01*
X172281250Y-50337500D02*
X171081250Y-50337500D01*
G75*
G02*
X170881250Y-50137500I0J200000D01*
G01*
X170881250Y-49237500D01*
G75*
G02*
X171081250Y-49037500I200000J0D01*
G01*
X172281250Y-49037500D01*
G75*
G02*
X172481250Y-49237500I0J-200000D01*
G01*
X172481250Y-50137500D01*
G75*
G02*
X172281250Y-50337500I-200000J0D01*
G01*
G37*
G36*
G01*
X172281250Y-53637500D02*
X171081250Y-53637500D01*
G75*
G02*
X170881250Y-53437500I0J200000D01*
G01*
X170881250Y-52537500D01*
G75*
G02*
X171081250Y-52337500I200000J0D01*
G01*
X172281250Y-52337500D01*
G75*
G02*
X172481250Y-52537500I0J-200000D01*
G01*
X172481250Y-53437500D01*
G75*
G02*
X172281250Y-53637500I-200000J0D01*
G01*
G37*
%TD*%
%TO.C,D27*%
G36*
G01*
X172281250Y-31287500D02*
X171081250Y-31287500D01*
G75*
G02*
X170881250Y-31087500I0J200000D01*
G01*
X170881250Y-30187500D01*
G75*
G02*
X171081250Y-29987500I200000J0D01*
G01*
X172281250Y-29987500D01*
G75*
G02*
X172481250Y-30187500I0J-200000D01*
G01*
X172481250Y-31087500D01*
G75*
G02*
X172281250Y-31287500I-200000J0D01*
G01*
G37*
G36*
G01*
X172281250Y-34587500D02*
X171081250Y-34587500D01*
G75*
G02*
X170881250Y-34387500I0J200000D01*
G01*
X170881250Y-33487500D01*
G75*
G02*
X171081250Y-33287500I200000J0D01*
G01*
X172281250Y-33287500D01*
G75*
G02*
X172481250Y-33487500I0J-200000D01*
G01*
X172481250Y-34387500D01*
G75*
G02*
X172281250Y-34587500I-200000J0D01*
G01*
G37*
%TD*%
%TO.C,D26*%
G36*
G01*
X153231250Y-88437500D02*
X152031250Y-88437500D01*
G75*
G02*
X151831250Y-88237500I0J200000D01*
G01*
X151831250Y-87337500D01*
G75*
G02*
X152031250Y-87137500I200000J0D01*
G01*
X153231250Y-87137500D01*
G75*
G02*
X153431250Y-87337500I0J-200000D01*
G01*
X153431250Y-88237500D01*
G75*
G02*
X153231250Y-88437500I-200000J0D01*
G01*
G37*
G36*
G01*
X153231250Y-91737500D02*
X152031250Y-91737500D01*
G75*
G02*
X151831250Y-91537500I0J200000D01*
G01*
X151831250Y-90637500D01*
G75*
G02*
X152031250Y-90437500I200000J0D01*
G01*
X153231250Y-90437500D01*
G75*
G02*
X153431250Y-90637500I0J-200000D01*
G01*
X153431250Y-91537500D01*
G75*
G02*
X153231250Y-91737500I-200000J0D01*
G01*
G37*
%TD*%
%TO.C,D25*%
G36*
G01*
X153231250Y-69387500D02*
X152031250Y-69387500D01*
G75*
G02*
X151831250Y-69187500I0J200000D01*
G01*
X151831250Y-68287500D01*
G75*
G02*
X152031250Y-68087500I200000J0D01*
G01*
X153231250Y-68087500D01*
G75*
G02*
X153431250Y-68287500I0J-200000D01*
G01*
X153431250Y-69187500D01*
G75*
G02*
X153231250Y-69387500I-200000J0D01*
G01*
G37*
G36*
G01*
X153231250Y-72687500D02*
X152031250Y-72687500D01*
G75*
G02*
X151831250Y-72487500I0J200000D01*
G01*
X151831250Y-71587500D01*
G75*
G02*
X152031250Y-71387500I200000J0D01*
G01*
X153231250Y-71387500D01*
G75*
G02*
X153431250Y-71587500I0J-200000D01*
G01*
X153431250Y-72487500D01*
G75*
G02*
X153231250Y-72687500I-200000J0D01*
G01*
G37*
%TD*%
%TO.C,D24*%
G36*
G01*
X153231250Y-50337500D02*
X152031250Y-50337500D01*
G75*
G02*
X151831250Y-50137500I0J200000D01*
G01*
X151831250Y-49237500D01*
G75*
G02*
X152031250Y-49037500I200000J0D01*
G01*
X153231250Y-49037500D01*
G75*
G02*
X153431250Y-49237500I0J-200000D01*
G01*
X153431250Y-50137500D01*
G75*
G02*
X153231250Y-50337500I-200000J0D01*
G01*
G37*
G36*
G01*
X153231250Y-53637500D02*
X152031250Y-53637500D01*
G75*
G02*
X151831250Y-53437500I0J200000D01*
G01*
X151831250Y-52537500D01*
G75*
G02*
X152031250Y-52337500I200000J0D01*
G01*
X153231250Y-52337500D01*
G75*
G02*
X153431250Y-52537500I0J-200000D01*
G01*
X153431250Y-53437500D01*
G75*
G02*
X153231250Y-53637500I-200000J0D01*
G01*
G37*
%TD*%
%TO.C,D23*%
G36*
G01*
X153231250Y-31287500D02*
X152031250Y-31287500D01*
G75*
G02*
X151831250Y-31087500I0J200000D01*
G01*
X151831250Y-30187500D01*
G75*
G02*
X152031250Y-29987500I200000J0D01*
G01*
X153231250Y-29987500D01*
G75*
G02*
X153431250Y-30187500I0J-200000D01*
G01*
X153431250Y-31087500D01*
G75*
G02*
X153231250Y-31287500I-200000J0D01*
G01*
G37*
G36*
G01*
X153231250Y-34587500D02*
X152031250Y-34587500D01*
G75*
G02*
X151831250Y-34387500I0J200000D01*
G01*
X151831250Y-33487500D01*
G75*
G02*
X152031250Y-33287500I200000J0D01*
G01*
X153231250Y-33287500D01*
G75*
G02*
X153431250Y-33487500I0J-200000D01*
G01*
X153431250Y-34387500D01*
G75*
G02*
X153231250Y-34587500I-200000J0D01*
G01*
G37*
%TD*%
%TO.C,D22*%
G36*
G01*
X134181250Y-88437500D02*
X132981250Y-88437500D01*
G75*
G02*
X132781250Y-88237500I0J200000D01*
G01*
X132781250Y-87337500D01*
G75*
G02*
X132981250Y-87137500I200000J0D01*
G01*
X134181250Y-87137500D01*
G75*
G02*
X134381250Y-87337500I0J-200000D01*
G01*
X134381250Y-88237500D01*
G75*
G02*
X134181250Y-88437500I-200000J0D01*
G01*
G37*
G36*
G01*
X134181250Y-91737500D02*
X132981250Y-91737500D01*
G75*
G02*
X132781250Y-91537500I0J200000D01*
G01*
X132781250Y-90637500D01*
G75*
G02*
X132981250Y-90437500I200000J0D01*
G01*
X134181250Y-90437500D01*
G75*
G02*
X134381250Y-90637500I0J-200000D01*
G01*
X134381250Y-91537500D01*
G75*
G02*
X134181250Y-91737500I-200000J0D01*
G01*
G37*
%TD*%
%TO.C,D21*%
G36*
G01*
X134181250Y-69387500D02*
X132981250Y-69387500D01*
G75*
G02*
X132781250Y-69187500I0J200000D01*
G01*
X132781250Y-68287500D01*
G75*
G02*
X132981250Y-68087500I200000J0D01*
G01*
X134181250Y-68087500D01*
G75*
G02*
X134381250Y-68287500I0J-200000D01*
G01*
X134381250Y-69187500D01*
G75*
G02*
X134181250Y-69387500I-200000J0D01*
G01*
G37*
G36*
G01*
X134181250Y-72687500D02*
X132981250Y-72687500D01*
G75*
G02*
X132781250Y-72487500I0J200000D01*
G01*
X132781250Y-71587500D01*
G75*
G02*
X132981250Y-71387500I200000J0D01*
G01*
X134181250Y-71387500D01*
G75*
G02*
X134381250Y-71587500I0J-200000D01*
G01*
X134381250Y-72487500D01*
G75*
G02*
X134181250Y-72687500I-200000J0D01*
G01*
G37*
%TD*%
%TO.C,D20*%
G36*
G01*
X134181250Y-50337500D02*
X132981250Y-50337500D01*
G75*
G02*
X132781250Y-50137500I0J200000D01*
G01*
X132781250Y-49237500D01*
G75*
G02*
X132981250Y-49037500I200000J0D01*
G01*
X134181250Y-49037500D01*
G75*
G02*
X134381250Y-49237500I0J-200000D01*
G01*
X134381250Y-50137500D01*
G75*
G02*
X134181250Y-50337500I-200000J0D01*
G01*
G37*
G36*
G01*
X134181250Y-53637500D02*
X132981250Y-53637500D01*
G75*
G02*
X132781250Y-53437500I0J200000D01*
G01*
X132781250Y-52537500D01*
G75*
G02*
X132981250Y-52337500I200000J0D01*
G01*
X134181250Y-52337500D01*
G75*
G02*
X134381250Y-52537500I0J-200000D01*
G01*
X134381250Y-53437500D01*
G75*
G02*
X134181250Y-53637500I-200000J0D01*
G01*
G37*
%TD*%
%TO.C,D19*%
G36*
G01*
X134181250Y-31287500D02*
X132981250Y-31287500D01*
G75*
G02*
X132781250Y-31087500I0J200000D01*
G01*
X132781250Y-30187500D01*
G75*
G02*
X132981250Y-29987500I200000J0D01*
G01*
X134181250Y-29987500D01*
G75*
G02*
X134381250Y-30187500I0J-200000D01*
G01*
X134381250Y-31087500D01*
G75*
G02*
X134181250Y-31287500I-200000J0D01*
G01*
G37*
G36*
G01*
X134181250Y-34587500D02*
X132981250Y-34587500D01*
G75*
G02*
X132781250Y-34387500I0J200000D01*
G01*
X132781250Y-33487500D01*
G75*
G02*
X132981250Y-33287500I200000J0D01*
G01*
X134181250Y-33287500D01*
G75*
G02*
X134381250Y-33487500I0J-200000D01*
G01*
X134381250Y-34387500D01*
G75*
G02*
X134181250Y-34587500I-200000J0D01*
G01*
G37*
%TD*%
%TO.C,D18*%
G36*
G01*
X115131250Y-88437500D02*
X113931250Y-88437500D01*
G75*
G02*
X113731250Y-88237500I0J200000D01*
G01*
X113731250Y-87337500D01*
G75*
G02*
X113931250Y-87137500I200000J0D01*
G01*
X115131250Y-87137500D01*
G75*
G02*
X115331250Y-87337500I0J-200000D01*
G01*
X115331250Y-88237500D01*
G75*
G02*
X115131250Y-88437500I-200000J0D01*
G01*
G37*
G36*
G01*
X115131250Y-91737500D02*
X113931250Y-91737500D01*
G75*
G02*
X113731250Y-91537500I0J200000D01*
G01*
X113731250Y-90637500D01*
G75*
G02*
X113931250Y-90437500I200000J0D01*
G01*
X115131250Y-90437500D01*
G75*
G02*
X115331250Y-90637500I0J-200000D01*
G01*
X115331250Y-91537500D01*
G75*
G02*
X115131250Y-91737500I-200000J0D01*
G01*
G37*
%TD*%
%TO.C,D17*%
G36*
G01*
X115131250Y-69387500D02*
X113931250Y-69387500D01*
G75*
G02*
X113731250Y-69187500I0J200000D01*
G01*
X113731250Y-68287500D01*
G75*
G02*
X113931250Y-68087500I200000J0D01*
G01*
X115131250Y-68087500D01*
G75*
G02*
X115331250Y-68287500I0J-200000D01*
G01*
X115331250Y-69187500D01*
G75*
G02*
X115131250Y-69387500I-200000J0D01*
G01*
G37*
G36*
G01*
X115131250Y-72687500D02*
X113931250Y-72687500D01*
G75*
G02*
X113731250Y-72487500I0J200000D01*
G01*
X113731250Y-71587500D01*
G75*
G02*
X113931250Y-71387500I200000J0D01*
G01*
X115131250Y-71387500D01*
G75*
G02*
X115331250Y-71587500I0J-200000D01*
G01*
X115331250Y-72487500D01*
G75*
G02*
X115131250Y-72687500I-200000J0D01*
G01*
G37*
%TD*%
%TO.C,D16*%
G36*
G01*
X115131250Y-50337500D02*
X113931250Y-50337500D01*
G75*
G02*
X113731250Y-50137500I0J200000D01*
G01*
X113731250Y-49237500D01*
G75*
G02*
X113931250Y-49037500I200000J0D01*
G01*
X115131250Y-49037500D01*
G75*
G02*
X115331250Y-49237500I0J-200000D01*
G01*
X115331250Y-50137500D01*
G75*
G02*
X115131250Y-50337500I-200000J0D01*
G01*
G37*
G36*
G01*
X115131250Y-53637500D02*
X113931250Y-53637500D01*
G75*
G02*
X113731250Y-53437500I0J200000D01*
G01*
X113731250Y-52537500D01*
G75*
G02*
X113931250Y-52337500I200000J0D01*
G01*
X115131250Y-52337500D01*
G75*
G02*
X115331250Y-52537500I0J-200000D01*
G01*
X115331250Y-53437500D01*
G75*
G02*
X115131250Y-53637500I-200000J0D01*
G01*
G37*
%TD*%
%TO.C,D15*%
G36*
G01*
X114337500Y-31287500D02*
X113137500Y-31287500D01*
G75*
G02*
X112937500Y-31087500I0J200000D01*
G01*
X112937500Y-30187500D01*
G75*
G02*
X113137500Y-29987500I200000J0D01*
G01*
X114337500Y-29987500D01*
G75*
G02*
X114537500Y-30187500I0J-200000D01*
G01*
X114537500Y-31087500D01*
G75*
G02*
X114337500Y-31287500I-200000J0D01*
G01*
G37*
G36*
G01*
X114337500Y-34587500D02*
X113137500Y-34587500D01*
G75*
G02*
X112937500Y-34387500I0J200000D01*
G01*
X112937500Y-33487500D01*
G75*
G02*
X113137500Y-33287500I200000J0D01*
G01*
X114337500Y-33287500D01*
G75*
G02*
X114537500Y-33487500I0J-200000D01*
G01*
X114537500Y-34387500D01*
G75*
G02*
X114337500Y-34587500I-200000J0D01*
G01*
G37*
%TD*%
%TO.C,D14*%
G36*
G01*
X96081250Y-88437500D02*
X94881250Y-88437500D01*
G75*
G02*
X94681250Y-88237500I0J200000D01*
G01*
X94681250Y-87337500D01*
G75*
G02*
X94881250Y-87137500I200000J0D01*
G01*
X96081250Y-87137500D01*
G75*
G02*
X96281250Y-87337500I0J-200000D01*
G01*
X96281250Y-88237500D01*
G75*
G02*
X96081250Y-88437500I-200000J0D01*
G01*
G37*
G36*
G01*
X96081250Y-91737500D02*
X94881250Y-91737500D01*
G75*
G02*
X94681250Y-91537500I0J200000D01*
G01*
X94681250Y-90637500D01*
G75*
G02*
X94881250Y-90437500I200000J0D01*
G01*
X96081250Y-90437500D01*
G75*
G02*
X96281250Y-90637500I0J-200000D01*
G01*
X96281250Y-91537500D01*
G75*
G02*
X96081250Y-91737500I-200000J0D01*
G01*
G37*
%TD*%
%TO.C,D13*%
G36*
G01*
X96081250Y-69387500D02*
X94881250Y-69387500D01*
G75*
G02*
X94681250Y-69187500I0J200000D01*
G01*
X94681250Y-68287500D01*
G75*
G02*
X94881250Y-68087500I200000J0D01*
G01*
X96081250Y-68087500D01*
G75*
G02*
X96281250Y-68287500I0J-200000D01*
G01*
X96281250Y-69187500D01*
G75*
G02*
X96081250Y-69387500I-200000J0D01*
G01*
G37*
G36*
G01*
X96081250Y-72687500D02*
X94881250Y-72687500D01*
G75*
G02*
X94681250Y-72487500I0J200000D01*
G01*
X94681250Y-71587500D01*
G75*
G02*
X94881250Y-71387500I200000J0D01*
G01*
X96081250Y-71387500D01*
G75*
G02*
X96281250Y-71587500I0J-200000D01*
G01*
X96281250Y-72487500D01*
G75*
G02*
X96081250Y-72687500I-200000J0D01*
G01*
G37*
%TD*%
%TO.C,D12*%
G36*
G01*
X96081250Y-50337500D02*
X94881250Y-50337500D01*
G75*
G02*
X94681250Y-50137500I0J200000D01*
G01*
X94681250Y-49237500D01*
G75*
G02*
X94881250Y-49037500I200000J0D01*
G01*
X96081250Y-49037500D01*
G75*
G02*
X96281250Y-49237500I0J-200000D01*
G01*
X96281250Y-50137500D01*
G75*
G02*
X96081250Y-50337500I-200000J0D01*
G01*
G37*
G36*
G01*
X96081250Y-53637500D02*
X94881250Y-53637500D01*
G75*
G02*
X94681250Y-53437500I0J200000D01*
G01*
X94681250Y-52537500D01*
G75*
G02*
X94881250Y-52337500I200000J0D01*
G01*
X96081250Y-52337500D01*
G75*
G02*
X96281250Y-52537500I0J-200000D01*
G01*
X96281250Y-53437500D01*
G75*
G02*
X96081250Y-53637500I-200000J0D01*
G01*
G37*
%TD*%
%TO.C,D11*%
G36*
G01*
X96081250Y-31287500D02*
X94881250Y-31287500D01*
G75*
G02*
X94681250Y-31087500I0J200000D01*
G01*
X94681250Y-30187500D01*
G75*
G02*
X94881250Y-29987500I200000J0D01*
G01*
X96081250Y-29987500D01*
G75*
G02*
X96281250Y-30187500I0J-200000D01*
G01*
X96281250Y-31087500D01*
G75*
G02*
X96081250Y-31287500I-200000J0D01*
G01*
G37*
G36*
G01*
X96081250Y-34587500D02*
X94881250Y-34587500D01*
G75*
G02*
X94681250Y-34387500I0J200000D01*
G01*
X94681250Y-33487500D01*
G75*
G02*
X94881250Y-33287500I200000J0D01*
G01*
X96081250Y-33287500D01*
G75*
G02*
X96281250Y-33487500I0J-200000D01*
G01*
X96281250Y-34387500D01*
G75*
G02*
X96081250Y-34587500I-200000J0D01*
G01*
G37*
%TD*%
%TO.C,D10*%
G36*
G01*
X77031250Y-88437500D02*
X75831250Y-88437500D01*
G75*
G02*
X75631250Y-88237500I0J200000D01*
G01*
X75631250Y-87337500D01*
G75*
G02*
X75831250Y-87137500I200000J0D01*
G01*
X77031250Y-87137500D01*
G75*
G02*
X77231250Y-87337500I0J-200000D01*
G01*
X77231250Y-88237500D01*
G75*
G02*
X77031250Y-88437500I-200000J0D01*
G01*
G37*
G36*
G01*
X77031250Y-91737500D02*
X75831250Y-91737500D01*
G75*
G02*
X75631250Y-91537500I0J200000D01*
G01*
X75631250Y-90637500D01*
G75*
G02*
X75831250Y-90437500I200000J0D01*
G01*
X77031250Y-90437500D01*
G75*
G02*
X77231250Y-90637500I0J-200000D01*
G01*
X77231250Y-91537500D01*
G75*
G02*
X77031250Y-91737500I-200000J0D01*
G01*
G37*
%TD*%
%TO.C,D9*%
G36*
G01*
X77031250Y-69387500D02*
X75831250Y-69387500D01*
G75*
G02*
X75631250Y-69187500I0J200000D01*
G01*
X75631250Y-68287500D01*
G75*
G02*
X75831250Y-68087500I200000J0D01*
G01*
X77031250Y-68087500D01*
G75*
G02*
X77231250Y-68287500I0J-200000D01*
G01*
X77231250Y-69187500D01*
G75*
G02*
X77031250Y-69387500I-200000J0D01*
G01*
G37*
G36*
G01*
X77031250Y-72687500D02*
X75831250Y-72687500D01*
G75*
G02*
X75631250Y-72487500I0J200000D01*
G01*
X75631250Y-71587500D01*
G75*
G02*
X75831250Y-71387500I200000J0D01*
G01*
X77031250Y-71387500D01*
G75*
G02*
X77231250Y-71587500I0J-200000D01*
G01*
X77231250Y-72487500D01*
G75*
G02*
X77031250Y-72687500I-200000J0D01*
G01*
G37*
%TD*%
%TO.C,D8*%
G36*
G01*
X77031250Y-50337500D02*
X75831250Y-50337500D01*
G75*
G02*
X75631250Y-50137500I0J200000D01*
G01*
X75631250Y-49237500D01*
G75*
G02*
X75831250Y-49037500I200000J0D01*
G01*
X77031250Y-49037500D01*
G75*
G02*
X77231250Y-49237500I0J-200000D01*
G01*
X77231250Y-50137500D01*
G75*
G02*
X77031250Y-50337500I-200000J0D01*
G01*
G37*
G36*
G01*
X77031250Y-53637500D02*
X75831250Y-53637500D01*
G75*
G02*
X75631250Y-53437500I0J200000D01*
G01*
X75631250Y-52537500D01*
G75*
G02*
X75831250Y-52337500I200000J0D01*
G01*
X77031250Y-52337500D01*
G75*
G02*
X77231250Y-52537500I0J-200000D01*
G01*
X77231250Y-53437500D01*
G75*
G02*
X77031250Y-53637500I-200000J0D01*
G01*
G37*
%TD*%
%TO.C,D7*%
G36*
G01*
X77031250Y-31287500D02*
X75831250Y-31287500D01*
G75*
G02*
X75631250Y-31087500I0J200000D01*
G01*
X75631250Y-30187500D01*
G75*
G02*
X75831250Y-29987500I200000J0D01*
G01*
X77031250Y-29987500D01*
G75*
G02*
X77231250Y-30187500I0J-200000D01*
G01*
X77231250Y-31087500D01*
G75*
G02*
X77031250Y-31287500I-200000J0D01*
G01*
G37*
G36*
G01*
X77031250Y-34587500D02*
X75831250Y-34587500D01*
G75*
G02*
X75631250Y-34387500I0J200000D01*
G01*
X75631250Y-33487500D01*
G75*
G02*
X75831250Y-33287500I200000J0D01*
G01*
X77031250Y-33287500D01*
G75*
G02*
X77231250Y-33487500I0J-200000D01*
G01*
X77231250Y-34387500D01*
G75*
G02*
X77031250Y-34587500I-200000J0D01*
G01*
G37*
%TD*%
%TO.C,D6*%
G36*
G01*
X57981250Y-69387500D02*
X56781250Y-69387500D01*
G75*
G02*
X56581250Y-69187500I0J200000D01*
G01*
X56581250Y-68287500D01*
G75*
G02*
X56781250Y-68087500I200000J0D01*
G01*
X57981250Y-68087500D01*
G75*
G02*
X58181250Y-68287500I0J-200000D01*
G01*
X58181250Y-69187500D01*
G75*
G02*
X57981250Y-69387500I-200000J0D01*
G01*
G37*
G36*
G01*
X57981250Y-72687500D02*
X56781250Y-72687500D01*
G75*
G02*
X56581250Y-72487500I0J200000D01*
G01*
X56581250Y-71587500D01*
G75*
G02*
X56781250Y-71387500I200000J0D01*
G01*
X57981250Y-71387500D01*
G75*
G02*
X58181250Y-71587500I0J-200000D01*
G01*
X58181250Y-72487500D01*
G75*
G02*
X57981250Y-72687500I-200000J0D01*
G01*
G37*
%TD*%
%TO.C,D5*%
G36*
G01*
X45681250Y-57493750D02*
X45681250Y-56293750D01*
G75*
G02*
X45881250Y-56093750I200000J0D01*
G01*
X46781250Y-56093750D01*
G75*
G02*
X46981250Y-56293750I0J-200000D01*
G01*
X46981250Y-57493750D01*
G75*
G02*
X46781250Y-57693750I-200000J0D01*
G01*
X45881250Y-57693750D01*
G75*
G02*
X45681250Y-57493750I0J200000D01*
G01*
G37*
G36*
G01*
X42381250Y-57493750D02*
X42381250Y-56293750D01*
G75*
G02*
X42581250Y-56093750I200000J0D01*
G01*
X43481250Y-56093750D01*
G75*
G02*
X43681250Y-56293750I0J-200000D01*
G01*
X43681250Y-57493750D01*
G75*
G02*
X43481250Y-57693750I-200000J0D01*
G01*
X42581250Y-57693750D01*
G75*
G02*
X42381250Y-57493750I0J200000D01*
G01*
G37*
%TD*%
%TO.C,D4*%
G36*
G01*
X57981250Y-31287500D02*
X56781250Y-31287500D01*
G75*
G02*
X56581250Y-31087500I0J200000D01*
G01*
X56581250Y-30187500D01*
G75*
G02*
X56781250Y-29987500I200000J0D01*
G01*
X57981250Y-29987500D01*
G75*
G02*
X58181250Y-30187500I0J-200000D01*
G01*
X58181250Y-31087500D01*
G75*
G02*
X57981250Y-31287500I-200000J0D01*
G01*
G37*
G36*
G01*
X57981250Y-34587500D02*
X56781250Y-34587500D01*
G75*
G02*
X56581250Y-34387500I0J200000D01*
G01*
X56581250Y-33487500D01*
G75*
G02*
X56781250Y-33287500I200000J0D01*
G01*
X57981250Y-33287500D01*
G75*
G02*
X58181250Y-33487500I0J-200000D01*
G01*
X58181250Y-34387500D01*
G75*
G02*
X57981250Y-34587500I-200000J0D01*
G01*
G37*
%TD*%
%TO.C,D3*%
G36*
G01*
X38931250Y-69387500D02*
X37731250Y-69387500D01*
G75*
G02*
X37531250Y-69187500I0J200000D01*
G01*
X37531250Y-68287500D01*
G75*
G02*
X37731250Y-68087500I200000J0D01*
G01*
X38931250Y-68087500D01*
G75*
G02*
X39131250Y-68287500I0J-200000D01*
G01*
X39131250Y-69187500D01*
G75*
G02*
X38931250Y-69387500I-200000J0D01*
G01*
G37*
G36*
G01*
X38931250Y-72687500D02*
X37731250Y-72687500D01*
G75*
G02*
X37531250Y-72487500I0J200000D01*
G01*
X37531250Y-71587500D01*
G75*
G02*
X37731250Y-71387500I200000J0D01*
G01*
X38931250Y-71387500D01*
G75*
G02*
X39131250Y-71587500I0J-200000D01*
G01*
X39131250Y-72487500D01*
G75*
G02*
X38931250Y-72687500I-200000J0D01*
G01*
G37*
%TD*%
%TO.C,D2*%
G36*
G01*
X32568750Y-56293750D02*
X32568750Y-57493750D01*
G75*
G02*
X32368750Y-57693750I-200000J0D01*
G01*
X31468750Y-57693750D01*
G75*
G02*
X31268750Y-57493750I0J200000D01*
G01*
X31268750Y-56293750D01*
G75*
G02*
X31468750Y-56093750I200000J0D01*
G01*
X32368750Y-56093750D01*
G75*
G02*
X32568750Y-56293750I0J-200000D01*
G01*
G37*
G36*
G01*
X35868750Y-56293750D02*
X35868750Y-57493750D01*
G75*
G02*
X35668750Y-57693750I-200000J0D01*
G01*
X34768750Y-57693750D01*
G75*
G02*
X34568750Y-57493750I0J200000D01*
G01*
X34568750Y-56293750D01*
G75*
G02*
X34768750Y-56093750I200000J0D01*
G01*
X35668750Y-56093750D01*
G75*
G02*
X35868750Y-56293750I0J-200000D01*
G01*
G37*
%TD*%
%TO.C,D1*%
G36*
G01*
X38931250Y-31287500D02*
X37731250Y-31287500D01*
G75*
G02*
X37531250Y-31087500I0J200000D01*
G01*
X37531250Y-30187500D01*
G75*
G02*
X37731250Y-29987500I200000J0D01*
G01*
X38931250Y-29987500D01*
G75*
G02*
X39131250Y-30187500I0J-200000D01*
G01*
X39131250Y-31087500D01*
G75*
G02*
X38931250Y-31287500I-200000J0D01*
G01*
G37*
G36*
G01*
X38931250Y-34587500D02*
X37731250Y-34587500D01*
G75*
G02*
X37531250Y-34387500I0J200000D01*
G01*
X37531250Y-33487500D01*
G75*
G02*
X37731250Y-33287500I200000J0D01*
G01*
X38931250Y-33287500D01*
G75*
G02*
X39131250Y-33487500I0J-200000D01*
G01*
X39131250Y-34387500D01*
G75*
G02*
X38931250Y-34587500I-200000J0D01*
G01*
G37*
%TD*%
D14*
%TO.C,U1*%
X25948750Y-37367500D03*
X53888750Y-52607500D03*
X28488750Y-37367500D03*
X31028750Y-37367500D03*
X33568750Y-37367500D03*
X36108750Y-37367500D03*
X38648750Y-37367500D03*
X41188750Y-37367500D03*
X43728750Y-37367500D03*
X46268750Y-37367500D03*
X48808750Y-37367500D03*
X51348750Y-37367500D03*
X53888750Y-37367500D03*
X51348750Y-52607500D03*
X48808750Y-52607500D03*
X46268750Y-52607500D03*
X43728750Y-52607500D03*
X41188750Y-52607500D03*
X38648750Y-52607500D03*
X36108750Y-52607500D03*
X33568750Y-52607500D03*
X31028750Y-52607500D03*
X28488750Y-52607500D03*
G36*
G01*
X24872450Y-53483800D02*
X24872450Y-51731200D01*
G75*
G02*
X25072450Y-51531200I200000J0D01*
G01*
X26825050Y-51531200D01*
G75*
G02*
X27025050Y-51731200I0J-200000D01*
G01*
X27025050Y-53483800D01*
G75*
G02*
X26825050Y-53683800I-200000J0D01*
G01*
X25072450Y-53683800D01*
G75*
G02*
X24872450Y-53483800I0J200000D01*
G01*
G37*
%TD*%
%TO.C,SW10*%
G36*
G01*
X58665000Y-84178750D02*
X58665000Y-81678750D01*
G75*
G02*
X58865000Y-81478750I200000J0D01*
G01*
X61415000Y-81478750D01*
G75*
G02*
X61615000Y-81678750I0J-200000D01*
G01*
X61615000Y-84178750D01*
G75*
G02*
X61415000Y-84378750I-200000J0D01*
G01*
X58865000Y-84378750D01*
G75*
G02*
X58665000Y-84178750I0J200000D01*
G01*
G37*
D11*
X62620000Y-85468750D03*
X72780000Y-85468750D03*
D12*
X67700000Y-85468750D03*
D13*
X63890000Y-82928750D03*
X70240000Y-80388750D03*
G36*
G01*
X72515000Y-81638750D02*
X72515000Y-79138750D01*
G75*
G02*
X72715000Y-78938750I200000J0D01*
G01*
X75265000Y-78938750D01*
G75*
G02*
X75465000Y-79138750I0J-200000D01*
G01*
X75465000Y-81638750D01*
G75*
G02*
X75265000Y-81838750I-200000J0D01*
G01*
X72715000Y-81838750D01*
G75*
G02*
X72515000Y-81638750I0J200000D01*
G01*
G37*
%TD*%
%TO.C,SW9*%
G36*
G01*
X58665000Y-65128750D02*
X58665000Y-62628750D01*
G75*
G02*
X58865000Y-62428750I200000J0D01*
G01*
X61415000Y-62428750D01*
G75*
G02*
X61615000Y-62628750I0J-200000D01*
G01*
X61615000Y-65128750D01*
G75*
G02*
X61415000Y-65328750I-200000J0D01*
G01*
X58865000Y-65328750D01*
G75*
G02*
X58665000Y-65128750I0J200000D01*
G01*
G37*
D11*
X62620000Y-66418750D03*
X72780000Y-66418750D03*
D12*
X67700000Y-66418750D03*
D13*
X63890000Y-63878750D03*
X70240000Y-61338750D03*
G36*
G01*
X72515000Y-62588750D02*
X72515000Y-60088750D01*
G75*
G02*
X72715000Y-59888750I200000J0D01*
G01*
X75265000Y-59888750D01*
G75*
G02*
X75465000Y-60088750I0J-200000D01*
G01*
X75465000Y-62588750D01*
G75*
G02*
X75265000Y-62788750I-200000J0D01*
G01*
X72715000Y-62788750D01*
G75*
G02*
X72515000Y-62588750I0J200000D01*
G01*
G37*
%TD*%
%TO.C,SW8*%
G36*
G01*
X58665000Y-46078750D02*
X58665000Y-43578750D01*
G75*
G02*
X58865000Y-43378750I200000J0D01*
G01*
X61415000Y-43378750D01*
G75*
G02*
X61615000Y-43578750I0J-200000D01*
G01*
X61615000Y-46078750D01*
G75*
G02*
X61415000Y-46278750I-200000J0D01*
G01*
X58865000Y-46278750D01*
G75*
G02*
X58665000Y-46078750I0J200000D01*
G01*
G37*
D11*
X62620000Y-47368750D03*
X72780000Y-47368750D03*
D12*
X67700000Y-47368750D03*
D13*
X63890000Y-44828750D03*
X70240000Y-42288750D03*
G36*
G01*
X72515000Y-43538750D02*
X72515000Y-41038750D01*
G75*
G02*
X72715000Y-40838750I200000J0D01*
G01*
X75265000Y-40838750D01*
G75*
G02*
X75465000Y-41038750I0J-200000D01*
G01*
X75465000Y-43538750D01*
G75*
G02*
X75265000Y-43738750I-200000J0D01*
G01*
X72715000Y-43738750D01*
G75*
G02*
X72515000Y-43538750I0J200000D01*
G01*
G37*
%TD*%
%TO.C,SW7*%
G36*
G01*
X58665000Y-27028750D02*
X58665000Y-24528750D01*
G75*
G02*
X58865000Y-24328750I200000J0D01*
G01*
X61415000Y-24328750D01*
G75*
G02*
X61615000Y-24528750I0J-200000D01*
G01*
X61615000Y-27028750D01*
G75*
G02*
X61415000Y-27228750I-200000J0D01*
G01*
X58865000Y-27228750D01*
G75*
G02*
X58665000Y-27028750I0J200000D01*
G01*
G37*
D11*
X62620000Y-28318750D03*
X72780000Y-28318750D03*
D12*
X67700000Y-28318750D03*
D13*
X63890000Y-25778750D03*
X70240000Y-23238750D03*
G36*
G01*
X72515000Y-24488750D02*
X72515000Y-21988750D01*
G75*
G02*
X72715000Y-21788750I200000J0D01*
G01*
X75265000Y-21788750D01*
G75*
G02*
X75465000Y-21988750I0J-200000D01*
G01*
X75465000Y-24488750D01*
G75*
G02*
X75265000Y-24688750I-200000J0D01*
G01*
X72715000Y-24688750D01*
G75*
G02*
X72515000Y-24488750I0J200000D01*
G01*
G37*
%TD*%
%TO.C,SW6*%
G36*
G01*
X39615000Y-65128750D02*
X39615000Y-62628750D01*
G75*
G02*
X39815000Y-62428750I200000J0D01*
G01*
X42365000Y-62428750D01*
G75*
G02*
X42565000Y-62628750I0J-200000D01*
G01*
X42565000Y-65128750D01*
G75*
G02*
X42365000Y-65328750I-200000J0D01*
G01*
X39815000Y-65328750D01*
G75*
G02*
X39615000Y-65128750I0J200000D01*
G01*
G37*
D11*
X43570000Y-66418750D03*
X53730000Y-66418750D03*
D12*
X48650000Y-66418750D03*
D13*
X44840000Y-63878750D03*
X51190000Y-61338750D03*
G36*
G01*
X53465000Y-62588750D02*
X53465000Y-60088750D01*
G75*
G02*
X53665000Y-59888750I200000J0D01*
G01*
X56215000Y-59888750D01*
G75*
G02*
X56415000Y-60088750I0J-200000D01*
G01*
X56415000Y-62588750D01*
G75*
G02*
X56215000Y-62788750I-200000J0D01*
G01*
X53665000Y-62788750D01*
G75*
G02*
X53465000Y-62588750I0J200000D01*
G01*
G37*
%TD*%
%TO.C,SW5*%
G36*
G01*
X39615000Y-46078750D02*
X39615000Y-43578750D01*
G75*
G02*
X39815000Y-43378750I200000J0D01*
G01*
X42365000Y-43378750D01*
G75*
G02*
X42565000Y-43578750I0J-200000D01*
G01*
X42565000Y-46078750D01*
G75*
G02*
X42365000Y-46278750I-200000J0D01*
G01*
X39815000Y-46278750D01*
G75*
G02*
X39615000Y-46078750I0J200000D01*
G01*
G37*
D11*
X43570000Y-47368750D03*
X53730000Y-47368750D03*
D12*
X48650000Y-47368750D03*
D13*
X44840000Y-44828750D03*
X51190000Y-42288750D03*
G36*
G01*
X53465000Y-43538750D02*
X53465000Y-41038750D01*
G75*
G02*
X53665000Y-40838750I200000J0D01*
G01*
X56215000Y-40838750D01*
G75*
G02*
X56415000Y-41038750I0J-200000D01*
G01*
X56415000Y-43538750D01*
G75*
G02*
X56215000Y-43738750I-200000J0D01*
G01*
X53665000Y-43738750D01*
G75*
G02*
X53465000Y-43538750I0J200000D01*
G01*
G37*
%TD*%
%TO.C,SW4*%
G36*
G01*
X39615000Y-27028750D02*
X39615000Y-24528750D01*
G75*
G02*
X39815000Y-24328750I200000J0D01*
G01*
X42365000Y-24328750D01*
G75*
G02*
X42565000Y-24528750I0J-200000D01*
G01*
X42565000Y-27028750D01*
G75*
G02*
X42365000Y-27228750I-200000J0D01*
G01*
X39815000Y-27228750D01*
G75*
G02*
X39615000Y-27028750I0J200000D01*
G01*
G37*
D11*
X43570000Y-28318750D03*
X53730000Y-28318750D03*
D12*
X48650000Y-28318750D03*
D13*
X44840000Y-25778750D03*
X51190000Y-23238750D03*
G36*
G01*
X53465000Y-24488750D02*
X53465000Y-21988750D01*
G75*
G02*
X53665000Y-21788750I200000J0D01*
G01*
X56215000Y-21788750D01*
G75*
G02*
X56415000Y-21988750I0J-200000D01*
G01*
X56415000Y-24488750D01*
G75*
G02*
X56215000Y-24688750I-200000J0D01*
G01*
X53665000Y-24688750D01*
G75*
G02*
X53465000Y-24488750I0J200000D01*
G01*
G37*
%TD*%
%TO.C,SW3*%
G36*
G01*
X20565000Y-65128750D02*
X20565000Y-62628750D01*
G75*
G02*
X20765000Y-62428750I200000J0D01*
G01*
X23315000Y-62428750D01*
G75*
G02*
X23515000Y-62628750I0J-200000D01*
G01*
X23515000Y-65128750D01*
G75*
G02*
X23315000Y-65328750I-200000J0D01*
G01*
X20765000Y-65328750D01*
G75*
G02*
X20565000Y-65128750I0J200000D01*
G01*
G37*
D11*
X24520000Y-66418750D03*
X34680000Y-66418750D03*
D12*
X29600000Y-66418750D03*
D13*
X25790000Y-63878750D03*
X32140000Y-61338750D03*
G36*
G01*
X34415000Y-62588750D02*
X34415000Y-60088750D01*
G75*
G02*
X34615000Y-59888750I200000J0D01*
G01*
X37165000Y-59888750D01*
G75*
G02*
X37365000Y-60088750I0J-200000D01*
G01*
X37365000Y-62588750D01*
G75*
G02*
X37165000Y-62788750I-200000J0D01*
G01*
X34615000Y-62788750D01*
G75*
G02*
X34415000Y-62588750I0J200000D01*
G01*
G37*
%TD*%
%TO.C,SW2*%
G36*
G01*
X20565000Y-46078750D02*
X20565000Y-43578750D01*
G75*
G02*
X20765000Y-43378750I200000J0D01*
G01*
X23315000Y-43378750D01*
G75*
G02*
X23515000Y-43578750I0J-200000D01*
G01*
X23515000Y-46078750D01*
G75*
G02*
X23315000Y-46278750I-200000J0D01*
G01*
X20765000Y-46278750D01*
G75*
G02*
X20565000Y-46078750I0J200000D01*
G01*
G37*
D11*
X24520000Y-47368750D03*
X34680000Y-47368750D03*
D12*
X29600000Y-47368750D03*
D13*
X25790000Y-44828750D03*
X32140000Y-42288750D03*
G36*
G01*
X34415000Y-43538750D02*
X34415000Y-41038750D01*
G75*
G02*
X34615000Y-40838750I200000J0D01*
G01*
X37165000Y-40838750D01*
G75*
G02*
X37365000Y-41038750I0J-200000D01*
G01*
X37365000Y-43538750D01*
G75*
G02*
X37165000Y-43738750I-200000J0D01*
G01*
X34615000Y-43738750D01*
G75*
G02*
X34415000Y-43538750I0J200000D01*
G01*
G37*
%TD*%
%TO.C,SW1*%
G36*
G01*
X20565000Y-27028750D02*
X20565000Y-24528750D01*
G75*
G02*
X20765000Y-24328750I200000J0D01*
G01*
X23315000Y-24328750D01*
G75*
G02*
X23515000Y-24528750I0J-200000D01*
G01*
X23515000Y-27028750D01*
G75*
G02*
X23315000Y-27228750I-200000J0D01*
G01*
X20765000Y-27228750D01*
G75*
G02*
X20565000Y-27028750I0J200000D01*
G01*
G37*
D11*
X24520000Y-28318750D03*
X34680000Y-28318750D03*
D12*
X29600000Y-28318750D03*
D13*
X25790000Y-25778750D03*
X32140000Y-23238750D03*
G36*
G01*
X34415000Y-24488750D02*
X34415000Y-21988750D01*
G75*
G02*
X34615000Y-21788750I200000J0D01*
G01*
X37165000Y-21788750D01*
G75*
G02*
X37365000Y-21988750I0J-200000D01*
G01*
X37365000Y-24488750D01*
G75*
G02*
X37165000Y-24688750I-200000J0D01*
G01*
X34615000Y-24688750D01*
G75*
G02*
X34415000Y-24488750I0J200000D01*
G01*
G37*
%TD*%
M02*
