%FSLAX45Y45*%
G04 Gerber Fmt 4.5, Leading zero omitted, Abs format (unit mm)*
G04 Created by KiCad (PCBNEW (5.1.12-1-10_14)) date 2022-02-07 22:25:43*
%MOMM*%
%LPD*%
G01*
G04 APERTURE LIST*
%TA.AperFunction,Profile*%
%ADD10C,0.150000*%
%TD*%
%ADD11C,0.200000*%
%ADD12C,0.300000*%
G04 APERTURE END LIST*
D10*
X17303627Y-9476127D02*
X19096373Y-7617623D01*
X19096373Y-7617623D02*
G75*
G02*
X19152500Y-7594375I56127J-56127D01*
G01*
X17303627Y-9476127D02*
G75*
G02*
X17247500Y-9499375I-56127J56127D01*
G01*
X3968627Y-7617623D02*
X5761373Y-9476127D01*
X3968627Y-7617623D02*
G75*
G03*
X3912500Y-7594375I-56127J-56127D01*
G01*
X5761373Y-9476127D02*
G75*
G03*
X5817500Y-9499375I56127J56127D01*
G01*
X20978125Y-7594375D02*
X19152500Y-7594375D01*
X2086875Y-1879375D02*
X20978125Y-1879375D01*
X21057500Y-7515000D02*
X21057500Y-1958750D01*
X21057500Y-7515000D02*
G75*
G02*
X20978125Y-7594375I-79375J0D01*
G01*
X20978125Y-1879375D02*
G75*
G02*
X21057500Y-1958750I0J-79375D01*
G01*
X2007500Y-1958750D02*
X2007500Y-7435625D01*
X2007500Y-7435625D02*
X2007500Y-7515000D01*
X2166250Y-7594375D02*
X2086875Y-7594375D01*
X2086875Y-7594375D02*
G75*
G02*
X2007500Y-7515000I0J79375D01*
G01*
X2007500Y-1958750D02*
G75*
G02*
X2086875Y-1879375I79375J0D01*
G01*
X2166250Y-7594375D02*
X3912500Y-7594375D01*
X5817500Y-9499375D02*
X17247500Y-9499375D01*
D11*
X2366910Y-2746785D02*
X2537090Y-2916965D01*
X2537090Y-2746785D02*
X2366910Y-2916965D01*
X2366910Y-4651785D02*
X2537090Y-4821965D01*
X2537090Y-4651785D02*
X2366910Y-4821965D01*
X2366910Y-6556785D02*
X2537090Y-6726965D01*
X2537090Y-6556785D02*
X2366910Y-6726965D01*
X3382910Y-2746785D02*
X3553090Y-2916965D01*
X3553090Y-2746785D02*
X3382910Y-2916965D01*
X3382910Y-4651785D02*
X3553090Y-4821965D01*
X3553090Y-4651785D02*
X3382910Y-4821965D01*
X3382910Y-6556785D02*
X3553090Y-6726965D01*
X3553090Y-6556785D02*
X3382910Y-6726965D01*
X4271910Y-2746785D02*
X4442090Y-2916965D01*
X4442090Y-2746785D02*
X4271910Y-2916965D01*
X4271910Y-4651785D02*
X4442090Y-4821965D01*
X4442090Y-4651785D02*
X4271910Y-4821965D01*
X4271910Y-6556785D02*
X4442090Y-6726965D01*
X4442090Y-6556785D02*
X4271910Y-6726965D01*
X5287910Y-2746785D02*
X5458090Y-2916965D01*
X5458090Y-2746785D02*
X5287910Y-2916965D01*
X5287910Y-4651785D02*
X5458090Y-4821965D01*
X5458090Y-4651785D02*
X5287910Y-4821965D01*
X5287910Y-6556785D02*
X5458090Y-6726965D01*
X5458090Y-6556785D02*
X5287910Y-6726965D01*
X6176910Y-2746785D02*
X6347090Y-2916965D01*
X6347090Y-2746785D02*
X6176910Y-2916965D01*
X6176910Y-4651785D02*
X6347090Y-4821965D01*
X6347090Y-4651785D02*
X6176910Y-4821965D01*
X6176910Y-6556785D02*
X6347090Y-6726965D01*
X6347090Y-6556785D02*
X6176910Y-6726965D01*
X6176910Y-8461785D02*
X6347090Y-8631965D01*
X6347090Y-8461785D02*
X6176910Y-8631965D01*
X7192910Y-2746785D02*
X7363090Y-2916965D01*
X7363090Y-2746785D02*
X7192910Y-2916965D01*
X7192910Y-4651785D02*
X7363090Y-4821965D01*
X7363090Y-4651785D02*
X7192910Y-4821965D01*
X7192910Y-6556785D02*
X7363090Y-6726965D01*
X7363090Y-6556785D02*
X7192910Y-6726965D01*
X7192910Y-8461785D02*
X7363090Y-8631965D01*
X7363090Y-8461785D02*
X7192910Y-8631965D01*
X8081910Y-2746785D02*
X8252090Y-2916965D01*
X8252090Y-2746785D02*
X8081910Y-2916965D01*
X8081910Y-4651785D02*
X8252090Y-4821965D01*
X8252090Y-4651785D02*
X8081910Y-4821965D01*
X8081910Y-6556785D02*
X8252090Y-6726965D01*
X8252090Y-6556785D02*
X8081910Y-6726965D01*
X8081910Y-8461785D02*
X8252090Y-8631965D01*
X8252090Y-8461785D02*
X8081910Y-8631965D01*
X9097910Y-2746785D02*
X9268090Y-2916965D01*
X9268090Y-2746785D02*
X9097910Y-2916965D01*
X9097910Y-4651785D02*
X9268090Y-4821965D01*
X9268090Y-4651785D02*
X9097910Y-4821965D01*
X9097910Y-6556785D02*
X9268090Y-6726965D01*
X9268090Y-6556785D02*
X9097910Y-6726965D01*
X9097910Y-8461785D02*
X9268090Y-8631965D01*
X9268090Y-8461785D02*
X9097910Y-8631965D01*
X9986910Y-2746785D02*
X10157090Y-2916965D01*
X10157090Y-2746785D02*
X9986910Y-2916965D01*
X9986910Y-4651785D02*
X10157090Y-4821965D01*
X10157090Y-4651785D02*
X9986910Y-4821965D01*
X9986910Y-6556785D02*
X10157090Y-6726965D01*
X10157090Y-6556785D02*
X9986910Y-6726965D01*
X9986910Y-8461785D02*
X10157090Y-8631965D01*
X10157090Y-8461785D02*
X9986910Y-8631965D01*
X11002910Y-2746785D02*
X11173090Y-2916965D01*
X11173090Y-2746785D02*
X11002910Y-2916965D01*
X11002910Y-4651785D02*
X11173090Y-4821965D01*
X11173090Y-4651785D02*
X11002910Y-4821965D01*
X11002910Y-6556785D02*
X11173090Y-6726965D01*
X11173090Y-6556785D02*
X11002910Y-6726965D01*
X11002910Y-8461785D02*
X11173090Y-8631965D01*
X11173090Y-8461785D02*
X11002910Y-8631965D01*
X11891910Y-2746785D02*
X12062090Y-2916965D01*
X12062090Y-2746785D02*
X11891910Y-2916965D01*
X11891910Y-4651785D02*
X12062090Y-4821965D01*
X12062090Y-4651785D02*
X11891910Y-4821965D01*
X11891910Y-6556785D02*
X12062090Y-6726965D01*
X12062090Y-6556785D02*
X11891910Y-6726965D01*
X11891910Y-8461785D02*
X12062090Y-8631965D01*
X12062090Y-8461785D02*
X11891910Y-8631965D01*
X12907910Y-2746785D02*
X13078090Y-2916965D01*
X13078090Y-2746785D02*
X12907910Y-2916965D01*
X12907910Y-4651785D02*
X13078090Y-4821965D01*
X13078090Y-4651785D02*
X12907910Y-4821965D01*
X12907910Y-6556785D02*
X13078090Y-6726965D01*
X13078090Y-6556785D02*
X12907910Y-6726965D01*
X12907910Y-8461785D02*
X13078090Y-8631965D01*
X13078090Y-8461785D02*
X12907910Y-8631965D01*
X13796910Y-2746785D02*
X13967090Y-2916965D01*
X13967090Y-2746785D02*
X13796910Y-2916965D01*
X13796910Y-4651785D02*
X13967090Y-4821965D01*
X13967090Y-4651785D02*
X13796910Y-4821965D01*
X13796910Y-6556785D02*
X13967090Y-6726965D01*
X13967090Y-6556785D02*
X13796910Y-6726965D01*
X13796910Y-8461785D02*
X13967090Y-8631965D01*
X13967090Y-8461785D02*
X13796910Y-8631965D01*
X14812910Y-2746785D02*
X14983090Y-2916965D01*
X14983090Y-2746785D02*
X14812910Y-2916965D01*
X14812910Y-4651785D02*
X14983090Y-4821965D01*
X14983090Y-4651785D02*
X14812910Y-4821965D01*
X14812910Y-6556785D02*
X14983090Y-6726965D01*
X14983090Y-6556785D02*
X14812910Y-6726965D01*
X14812910Y-8461785D02*
X14983090Y-8631965D01*
X14983090Y-8461785D02*
X14812910Y-8631965D01*
X15701910Y-2746785D02*
X15872090Y-2916965D01*
X15872090Y-2746785D02*
X15701910Y-2916965D01*
X15701910Y-4651785D02*
X15872090Y-4821965D01*
X15872090Y-4651785D02*
X15701910Y-4821965D01*
X15701910Y-6556785D02*
X15872090Y-6726965D01*
X15872090Y-6556785D02*
X15701910Y-6726965D01*
X15701910Y-8461785D02*
X15872090Y-8631965D01*
X15872090Y-8461785D02*
X15701910Y-8631965D01*
X16717910Y-2746785D02*
X16888090Y-2916965D01*
X16888090Y-2746785D02*
X16717910Y-2916965D01*
X16717910Y-4651785D02*
X16888090Y-4821965D01*
X16888090Y-4651785D02*
X16717910Y-4821965D01*
X16717910Y-6556785D02*
X16888090Y-6726965D01*
X16888090Y-6556785D02*
X16717910Y-6726965D01*
X16717910Y-8461785D02*
X16888090Y-8631965D01*
X16888090Y-8461785D02*
X16717910Y-8631965D01*
X17606910Y-2746785D02*
X17777090Y-2916965D01*
X17777090Y-2746785D02*
X17606910Y-2916965D01*
X17606910Y-4651785D02*
X17777090Y-4821965D01*
X17777090Y-4651785D02*
X17606910Y-4821965D01*
X17606910Y-6556785D02*
X17777090Y-6726965D01*
X17777090Y-6556785D02*
X17606910Y-6726965D01*
X18622910Y-2746785D02*
X18793090Y-2916965D01*
X18793090Y-2746785D02*
X18622910Y-2916965D01*
X18622910Y-4651785D02*
X18793090Y-4821965D01*
X18793090Y-4651785D02*
X18622910Y-4821965D01*
X18622910Y-6556785D02*
X18793090Y-6726965D01*
X18793090Y-6556785D02*
X18622910Y-6726965D01*
X19511910Y-2746785D02*
X19682090Y-2916965D01*
X19682090Y-2746785D02*
X19511910Y-2916965D01*
X19511910Y-4651785D02*
X19682090Y-4821965D01*
X19682090Y-4651785D02*
X19511910Y-4821965D01*
X19511910Y-6556785D02*
X19682090Y-6726965D01*
X19682090Y-6556785D02*
X19511910Y-6726965D01*
X20527910Y-2746785D02*
X20698090Y-2916965D01*
X20698090Y-2746785D02*
X20527910Y-2916965D01*
X20527910Y-4651785D02*
X20698090Y-4821965D01*
X20698090Y-4651785D02*
X20527910Y-4821965D01*
X20527910Y-6556785D02*
X20698090Y-6726965D01*
X20698090Y-6556785D02*
X20527910Y-6726965D01*
X4022500Y-5689375D02*
G75*
G03*
X4022500Y-5689375I-110000J0D01*
G01*
X5927500Y-3784375D02*
G75*
G03*
X5927500Y-3784375I-110000J0D01*
G01*
X5927500Y-7594375D02*
G75*
G03*
X5927500Y-7594375I-110000J0D01*
G01*
X17357500Y-3784375D02*
G75*
G03*
X17357500Y-3784375I-110000J0D01*
G01*
X17357500Y-7594375D02*
G75*
G03*
X17357500Y-7594375I-110000J0D01*
G01*
X19262500Y-5689375D02*
G75*
G03*
X19262500Y-5689375I-110000J0D01*
G01*
X2579000Y-2427875D02*
X2579000Y-2727875D01*
X2429000Y-2577875D02*
X2729000Y-2577875D01*
X2579000Y-4332875D02*
X2579000Y-4632875D01*
X2429000Y-4482875D02*
X2729000Y-4482875D01*
X2579000Y-6237875D02*
X2579000Y-6537875D01*
X2429000Y-6387875D02*
X2729000Y-6387875D01*
X3214000Y-2173875D02*
X3214000Y-2473875D01*
X3064000Y-2323875D02*
X3364000Y-2323875D01*
X3214000Y-4078875D02*
X3214000Y-4378875D01*
X3064000Y-4228875D02*
X3364000Y-4228875D01*
X3214000Y-5983875D02*
X3214000Y-6283875D01*
X3064000Y-6133875D02*
X3364000Y-6133875D01*
X4484000Y-2427875D02*
X4484000Y-2727875D01*
X4334000Y-2577875D02*
X4634000Y-2577875D01*
X4484000Y-4332875D02*
X4484000Y-4632875D01*
X4334000Y-4482875D02*
X4634000Y-4482875D01*
X4484000Y-6237875D02*
X4484000Y-6537875D01*
X4334000Y-6387875D02*
X4634000Y-6387875D01*
X5119000Y-2173875D02*
X5119000Y-2473875D01*
X4969000Y-2323875D02*
X5269000Y-2323875D01*
X5119000Y-4078875D02*
X5119000Y-4378875D01*
X4969000Y-4228875D02*
X5269000Y-4228875D01*
X5119000Y-5983875D02*
X5119000Y-6283875D01*
X4969000Y-6133875D02*
X5269000Y-6133875D01*
X6389000Y-2427875D02*
X6389000Y-2727875D01*
X6239000Y-2577875D02*
X6539000Y-2577875D01*
X6389000Y-4332875D02*
X6389000Y-4632875D01*
X6239000Y-4482875D02*
X6539000Y-4482875D01*
X6389000Y-6237875D02*
X6389000Y-6537875D01*
X6239000Y-6387875D02*
X6539000Y-6387875D01*
X6389000Y-8142875D02*
X6389000Y-8442875D01*
X6239000Y-8292875D02*
X6539000Y-8292875D01*
X7024000Y-2173875D02*
X7024000Y-2473875D01*
X6874000Y-2323875D02*
X7174000Y-2323875D01*
X7024000Y-4078875D02*
X7024000Y-4378875D01*
X6874000Y-4228875D02*
X7174000Y-4228875D01*
X7024000Y-5983875D02*
X7024000Y-6283875D01*
X6874000Y-6133875D02*
X7174000Y-6133875D01*
X7024000Y-7888875D02*
X7024000Y-8188875D01*
X6874000Y-8038875D02*
X7174000Y-8038875D01*
X8294000Y-2427875D02*
X8294000Y-2727875D01*
X8144000Y-2577875D02*
X8444000Y-2577875D01*
X8294000Y-4332875D02*
X8294000Y-4632875D01*
X8144000Y-4482875D02*
X8444000Y-4482875D01*
X8294000Y-6237875D02*
X8294000Y-6537875D01*
X8144000Y-6387875D02*
X8444000Y-6387875D01*
X8294000Y-8142875D02*
X8294000Y-8442875D01*
X8144000Y-8292875D02*
X8444000Y-8292875D01*
X8929000Y-2173875D02*
X8929000Y-2473875D01*
X8779000Y-2323875D02*
X9079000Y-2323875D01*
X8929000Y-4078875D02*
X8929000Y-4378875D01*
X8779000Y-4228875D02*
X9079000Y-4228875D01*
X8929000Y-5983875D02*
X8929000Y-6283875D01*
X8779000Y-6133875D02*
X9079000Y-6133875D01*
X8929000Y-7888875D02*
X8929000Y-8188875D01*
X8779000Y-8038875D02*
X9079000Y-8038875D01*
X10199000Y-2427875D02*
X10199000Y-2727875D01*
X10049000Y-2577875D02*
X10349000Y-2577875D01*
X10199000Y-4332875D02*
X10199000Y-4632875D01*
X10049000Y-4482875D02*
X10349000Y-4482875D01*
X10199000Y-6237875D02*
X10199000Y-6537875D01*
X10049000Y-6387875D02*
X10349000Y-6387875D01*
X10199000Y-8142875D02*
X10199000Y-8442875D01*
X10049000Y-8292875D02*
X10349000Y-8292875D01*
X10834000Y-2173875D02*
X10834000Y-2473875D01*
X10684000Y-2323875D02*
X10984000Y-2323875D01*
X10834000Y-4078875D02*
X10834000Y-4378875D01*
X10684000Y-4228875D02*
X10984000Y-4228875D01*
X10834000Y-5983875D02*
X10834000Y-6283875D01*
X10684000Y-6133875D02*
X10984000Y-6133875D01*
X10834000Y-7888875D02*
X10834000Y-8188875D01*
X10684000Y-8038875D02*
X10984000Y-8038875D01*
X12104000Y-2427875D02*
X12104000Y-2727875D01*
X11954000Y-2577875D02*
X12254000Y-2577875D01*
X12104000Y-4332875D02*
X12104000Y-4632875D01*
X11954000Y-4482875D02*
X12254000Y-4482875D01*
X12104000Y-6237875D02*
X12104000Y-6537875D01*
X11954000Y-6387875D02*
X12254000Y-6387875D01*
X12104000Y-8142875D02*
X12104000Y-8442875D01*
X11954000Y-8292875D02*
X12254000Y-8292875D01*
X12739000Y-2173875D02*
X12739000Y-2473875D01*
X12589000Y-2323875D02*
X12889000Y-2323875D01*
X12739000Y-4078875D02*
X12739000Y-4378875D01*
X12589000Y-4228875D02*
X12889000Y-4228875D01*
X12739000Y-5983875D02*
X12739000Y-6283875D01*
X12589000Y-6133875D02*
X12889000Y-6133875D01*
X12739000Y-7888875D02*
X12739000Y-8188875D01*
X12589000Y-8038875D02*
X12889000Y-8038875D01*
X14009000Y-2427875D02*
X14009000Y-2727875D01*
X13859000Y-2577875D02*
X14159000Y-2577875D01*
X14009000Y-4332875D02*
X14009000Y-4632875D01*
X13859000Y-4482875D02*
X14159000Y-4482875D01*
X14009000Y-6237875D02*
X14009000Y-6537875D01*
X13859000Y-6387875D02*
X14159000Y-6387875D01*
X14009000Y-8142875D02*
X14009000Y-8442875D01*
X13859000Y-8292875D02*
X14159000Y-8292875D01*
X14644000Y-2173875D02*
X14644000Y-2473875D01*
X14494000Y-2323875D02*
X14794000Y-2323875D01*
X14644000Y-4078875D02*
X14644000Y-4378875D01*
X14494000Y-4228875D02*
X14794000Y-4228875D01*
X14644000Y-5983875D02*
X14644000Y-6283875D01*
X14494000Y-6133875D02*
X14794000Y-6133875D01*
X14644000Y-7888875D02*
X14644000Y-8188875D01*
X14494000Y-8038875D02*
X14794000Y-8038875D01*
X15914000Y-2427875D02*
X15914000Y-2727875D01*
X15764000Y-2577875D02*
X16064000Y-2577875D01*
X15914000Y-4332875D02*
X15914000Y-4632875D01*
X15764000Y-4482875D02*
X16064000Y-4482875D01*
X15914000Y-6237875D02*
X15914000Y-6537875D01*
X15764000Y-6387875D02*
X16064000Y-6387875D01*
X15914000Y-8142875D02*
X15914000Y-8442875D01*
X15764000Y-8292875D02*
X16064000Y-8292875D01*
X16549000Y-2173875D02*
X16549000Y-2473875D01*
X16399000Y-2323875D02*
X16699000Y-2323875D01*
X16549000Y-4078875D02*
X16549000Y-4378875D01*
X16399000Y-4228875D02*
X16699000Y-4228875D01*
X16549000Y-5983875D02*
X16549000Y-6283875D01*
X16399000Y-6133875D02*
X16699000Y-6133875D01*
X16549000Y-7888875D02*
X16549000Y-8188875D01*
X16399000Y-8038875D02*
X16699000Y-8038875D01*
X17819000Y-2427875D02*
X17819000Y-2727875D01*
X17669000Y-2577875D02*
X17969000Y-2577875D01*
X17819000Y-4332875D02*
X17819000Y-4632875D01*
X17669000Y-4482875D02*
X17969000Y-4482875D01*
X17819000Y-6237875D02*
X17819000Y-6537875D01*
X17669000Y-6387875D02*
X17969000Y-6387875D01*
X18454000Y-2173875D02*
X18454000Y-2473875D01*
X18304000Y-2323875D02*
X18604000Y-2323875D01*
X18454000Y-4078875D02*
X18454000Y-4378875D01*
X18304000Y-4228875D02*
X18604000Y-4228875D01*
X18454000Y-5983875D02*
X18454000Y-6283875D01*
X18304000Y-6133875D02*
X18604000Y-6133875D01*
X19724000Y-2427875D02*
X19724000Y-2727875D01*
X19574000Y-2577875D02*
X19874000Y-2577875D01*
X19724000Y-4332875D02*
X19724000Y-4632875D01*
X19574000Y-4482875D02*
X19874000Y-4482875D01*
X19724000Y-6237875D02*
X19724000Y-6537875D01*
X19574000Y-6387875D02*
X19874000Y-6387875D01*
X20359000Y-2173875D02*
X20359000Y-2473875D01*
X20209000Y-2323875D02*
X20509000Y-2323875D01*
X20359000Y-4078875D02*
X20359000Y-4378875D01*
X20209000Y-4228875D02*
X20509000Y-4228875D01*
X20359000Y-5983875D02*
X20359000Y-6283875D01*
X20209000Y-6133875D02*
X20509000Y-6133875D01*
X3100991Y-2972866D02*
X3100991Y-2690884D01*
X2819009Y-2690884D01*
X2819009Y-2972866D01*
X3100991Y-2972866D01*
X3100991Y-4877866D02*
X3100991Y-4595884D01*
X2819009Y-4595884D01*
X2819009Y-4877866D01*
X3100991Y-4877866D01*
X3100991Y-6782866D02*
X3100991Y-6500884D01*
X2819009Y-6500884D01*
X2819009Y-6782866D01*
X3100991Y-6782866D01*
X5005991Y-2972866D02*
X5005991Y-2690884D01*
X4724009Y-2690884D01*
X4724009Y-2972866D01*
X5005991Y-2972866D01*
X5005991Y-4877866D02*
X5005991Y-4595884D01*
X4724009Y-4595884D01*
X4724009Y-4877866D01*
X5005991Y-4877866D01*
X5005991Y-6782866D02*
X5005991Y-6500884D01*
X4724009Y-6500884D01*
X4724009Y-6782866D01*
X5005991Y-6782866D01*
X6910991Y-2972866D02*
X6910991Y-2690884D01*
X6629009Y-2690884D01*
X6629009Y-2972866D01*
X6910991Y-2972866D01*
X6910991Y-4877866D02*
X6910991Y-4595884D01*
X6629009Y-4595884D01*
X6629009Y-4877866D01*
X6910991Y-4877866D01*
X6910991Y-6782866D02*
X6910991Y-6500884D01*
X6629009Y-6500884D01*
X6629009Y-6782866D01*
X6910991Y-6782866D01*
X6910991Y-8687866D02*
X6910991Y-8405884D01*
X6629009Y-8405884D01*
X6629009Y-8687866D01*
X6910991Y-8687866D01*
X8815991Y-2972866D02*
X8815991Y-2690884D01*
X8534009Y-2690884D01*
X8534009Y-2972866D01*
X8815991Y-2972866D01*
X8815991Y-4877866D02*
X8815991Y-4595884D01*
X8534009Y-4595884D01*
X8534009Y-4877866D01*
X8815991Y-4877866D01*
X8815991Y-6782866D02*
X8815991Y-6500884D01*
X8534009Y-6500884D01*
X8534009Y-6782866D01*
X8815991Y-6782866D01*
X8815991Y-8687866D02*
X8815991Y-8405884D01*
X8534009Y-8405884D01*
X8534009Y-8687866D01*
X8815991Y-8687866D01*
X10720991Y-2972866D02*
X10720991Y-2690884D01*
X10439009Y-2690884D01*
X10439009Y-2972866D01*
X10720991Y-2972866D01*
X10720991Y-4877866D02*
X10720991Y-4595884D01*
X10439009Y-4595884D01*
X10439009Y-4877866D01*
X10720991Y-4877866D01*
X10720991Y-6782866D02*
X10720991Y-6500884D01*
X10439009Y-6500884D01*
X10439009Y-6782866D01*
X10720991Y-6782866D01*
X10720991Y-8687866D02*
X10720991Y-8405884D01*
X10439009Y-8405884D01*
X10439009Y-8687866D01*
X10720991Y-8687866D01*
X12625991Y-2972866D02*
X12625991Y-2690884D01*
X12344009Y-2690884D01*
X12344009Y-2972866D01*
X12625991Y-2972866D01*
X12625991Y-4877866D02*
X12625991Y-4595884D01*
X12344009Y-4595884D01*
X12344009Y-4877866D01*
X12625991Y-4877866D01*
X12625991Y-6782866D02*
X12625991Y-6500884D01*
X12344009Y-6500884D01*
X12344009Y-6782866D01*
X12625991Y-6782866D01*
X12625991Y-8687866D02*
X12625991Y-8405884D01*
X12344009Y-8405884D01*
X12344009Y-8687866D01*
X12625991Y-8687866D01*
X14530991Y-2972866D02*
X14530991Y-2690884D01*
X14249009Y-2690884D01*
X14249009Y-2972866D01*
X14530991Y-2972866D01*
X14530991Y-4877866D02*
X14530991Y-4595884D01*
X14249009Y-4595884D01*
X14249009Y-4877866D01*
X14530991Y-4877866D01*
X14530991Y-6782866D02*
X14530991Y-6500884D01*
X14249009Y-6500884D01*
X14249009Y-6782866D01*
X14530991Y-6782866D01*
X14530991Y-8687866D02*
X14530991Y-8405884D01*
X14249009Y-8405884D01*
X14249009Y-8687866D01*
X14530991Y-8687866D01*
X16435991Y-2972866D02*
X16435991Y-2690884D01*
X16154009Y-2690884D01*
X16154009Y-2972866D01*
X16435991Y-2972866D01*
X16435991Y-4877866D02*
X16435991Y-4595884D01*
X16154009Y-4595884D01*
X16154009Y-4877866D01*
X16435991Y-4877866D01*
X16435991Y-6782866D02*
X16435991Y-6500884D01*
X16154009Y-6500884D01*
X16154009Y-6782866D01*
X16435991Y-6782866D01*
X16435991Y-8687866D02*
X16435991Y-8405884D01*
X16154009Y-8405884D01*
X16154009Y-8687866D01*
X16435991Y-8687866D01*
X18340991Y-2972866D02*
X18340991Y-2690884D01*
X18059009Y-2690884D01*
X18059009Y-2972866D01*
X18340991Y-2972866D01*
X18340991Y-4877866D02*
X18340991Y-4595884D01*
X18059009Y-4595884D01*
X18059009Y-4877866D01*
X18340991Y-4877866D01*
X18340991Y-6782866D02*
X18340991Y-6500884D01*
X18059009Y-6500884D01*
X18059009Y-6782866D01*
X18340991Y-6782866D01*
X20245991Y-2972866D02*
X20245991Y-2690884D01*
X19964009Y-2690884D01*
X19964009Y-2972866D01*
X20245991Y-2972866D01*
X20245991Y-4877866D02*
X20245991Y-4595884D01*
X19964009Y-4595884D01*
X19964009Y-4877866D01*
X20245991Y-4877866D01*
X20245991Y-6782866D02*
X20245991Y-6500884D01*
X19964009Y-6500884D01*
X19964009Y-6782866D01*
X20245991Y-6782866D01*
D12*
X2286428Y-9972589D02*
X2286428Y-9672589D01*
X2357857Y-9672589D01*
X2400714Y-9686875D01*
X2429286Y-9715447D01*
X2443571Y-9744018D01*
X2457857Y-9801161D01*
X2457857Y-9844018D01*
X2443571Y-9901161D01*
X2429286Y-9929732D01*
X2400714Y-9958304D01*
X2357857Y-9972589D01*
X2286428Y-9972589D01*
X2586428Y-9972589D02*
X2586428Y-9772589D01*
X2586428Y-9829732D02*
X2600714Y-9801161D01*
X2615000Y-9786875D01*
X2643571Y-9772589D01*
X2672143Y-9772589D01*
X2772143Y-9972589D02*
X2772143Y-9772589D01*
X2772143Y-9672589D02*
X2757857Y-9686875D01*
X2772143Y-9701161D01*
X2786428Y-9686875D01*
X2772143Y-9672589D01*
X2772143Y-9701161D01*
X2957857Y-9972589D02*
X2929286Y-9958304D01*
X2915000Y-9929732D01*
X2915000Y-9672589D01*
X3115000Y-9972589D02*
X3086428Y-9958304D01*
X3072143Y-9929732D01*
X3072143Y-9672589D01*
X3457857Y-9972589D02*
X3457857Y-9672589D01*
X3557857Y-9886875D01*
X3657857Y-9672589D01*
X3657857Y-9972589D01*
X3929286Y-9972589D02*
X3929286Y-9815447D01*
X3915000Y-9786875D01*
X3886428Y-9772589D01*
X3829286Y-9772589D01*
X3800714Y-9786875D01*
X3929286Y-9958304D02*
X3900714Y-9972589D01*
X3829286Y-9972589D01*
X3800714Y-9958304D01*
X3786428Y-9929732D01*
X3786428Y-9901161D01*
X3800714Y-9872589D01*
X3829286Y-9858304D01*
X3900714Y-9858304D01*
X3929286Y-9844018D01*
X4072143Y-9772589D02*
X4072143Y-10072589D01*
X4072143Y-9786875D02*
X4100714Y-9772589D01*
X4157857Y-9772589D01*
X4186428Y-9786875D01*
X4200714Y-9801161D01*
X4215000Y-9829732D01*
X4215000Y-9915447D01*
X4200714Y-9944018D01*
X4186428Y-9958304D01*
X4157857Y-9972589D01*
X4100714Y-9972589D01*
X4072143Y-9958304D01*
X4343571Y-9944018D02*
X4357857Y-9958304D01*
X4343571Y-9972589D01*
X4329286Y-9958304D01*
X4343571Y-9944018D01*
X4343571Y-9972589D01*
X4343571Y-9786875D02*
X4357857Y-9801161D01*
X4343571Y-9815447D01*
X4329286Y-9801161D01*
X4343571Y-9786875D01*
X4343571Y-9815447D01*
X1829820Y-10381785D02*
X2000000Y-10551965D01*
X2000000Y-10381785D02*
X1829820Y-10551965D01*
X2443571Y-10602589D02*
X2272143Y-10602589D01*
X2357857Y-10602589D02*
X2357857Y-10302589D01*
X2329286Y-10345447D01*
X2300714Y-10374018D01*
X2272143Y-10388304D01*
X2572143Y-10574018D02*
X2586428Y-10588304D01*
X2572143Y-10602589D01*
X2557857Y-10588304D01*
X2572143Y-10574018D01*
X2572143Y-10602589D01*
X2686428Y-10302589D02*
X2886428Y-10302589D01*
X2757857Y-10602589D01*
X3057857Y-10302589D02*
X3086428Y-10302589D01*
X3115000Y-10316875D01*
X3129286Y-10331161D01*
X3143571Y-10359732D01*
X3157857Y-10416875D01*
X3157857Y-10488304D01*
X3143571Y-10545447D01*
X3129286Y-10574018D01*
X3115000Y-10588304D01*
X3086428Y-10602589D01*
X3057857Y-10602589D01*
X3029286Y-10588304D01*
X3015000Y-10574018D01*
X3000714Y-10545447D01*
X2986428Y-10488304D01*
X2986428Y-10416875D01*
X3000714Y-10359732D01*
X3015000Y-10331161D01*
X3029286Y-10316875D01*
X3057857Y-10302589D01*
X3272143Y-10331161D02*
X3286428Y-10316875D01*
X3315000Y-10302589D01*
X3386428Y-10302589D01*
X3415000Y-10316875D01*
X3429286Y-10331161D01*
X3443571Y-10359732D01*
X3443571Y-10388304D01*
X3429286Y-10431161D01*
X3257857Y-10602589D01*
X3443571Y-10602589D01*
X3572143Y-10602589D02*
X3572143Y-10402589D01*
X3572143Y-10431161D02*
X3586428Y-10416875D01*
X3615000Y-10402589D01*
X3657857Y-10402589D01*
X3686428Y-10416875D01*
X3700714Y-10445447D01*
X3700714Y-10602589D01*
X3700714Y-10445447D02*
X3715000Y-10416875D01*
X3743571Y-10402589D01*
X3786428Y-10402589D01*
X3815000Y-10416875D01*
X3829286Y-10445447D01*
X3829286Y-10602589D01*
X3972143Y-10602589D02*
X3972143Y-10402589D01*
X3972143Y-10431161D02*
X3986428Y-10416875D01*
X4015000Y-10402589D01*
X4057857Y-10402589D01*
X4086428Y-10416875D01*
X4100714Y-10445447D01*
X4100714Y-10602589D01*
X4100714Y-10445447D02*
X4115000Y-10416875D01*
X4143571Y-10402589D01*
X4186428Y-10402589D01*
X4215000Y-10416875D01*
X4229286Y-10445447D01*
X4229286Y-10602589D01*
X4815000Y-10288304D02*
X4557857Y-10674018D01*
X5200714Y-10302589D02*
X5229286Y-10302589D01*
X5257857Y-10316875D01*
X5272143Y-10331161D01*
X5286428Y-10359732D01*
X5300714Y-10416875D01*
X5300714Y-10488304D01*
X5286428Y-10545447D01*
X5272143Y-10574018D01*
X5257857Y-10588304D01*
X5229286Y-10602589D01*
X5200714Y-10602589D01*
X5172143Y-10588304D01*
X5157857Y-10574018D01*
X5143571Y-10545447D01*
X5129286Y-10488304D01*
X5129286Y-10416875D01*
X5143571Y-10359732D01*
X5157857Y-10331161D01*
X5172143Y-10316875D01*
X5200714Y-10302589D01*
X5429286Y-10574018D02*
X5443571Y-10588304D01*
X5429286Y-10602589D01*
X5415000Y-10588304D01*
X5429286Y-10574018D01*
X5429286Y-10602589D01*
X5629286Y-10302589D02*
X5657857Y-10302589D01*
X5686428Y-10316875D01*
X5700714Y-10331161D01*
X5715000Y-10359732D01*
X5729286Y-10416875D01*
X5729286Y-10488304D01*
X5715000Y-10545447D01*
X5700714Y-10574018D01*
X5686428Y-10588304D01*
X5657857Y-10602589D01*
X5629286Y-10602589D01*
X5600714Y-10588304D01*
X5586428Y-10574018D01*
X5572143Y-10545447D01*
X5557857Y-10488304D01*
X5557857Y-10416875D01*
X5572143Y-10359732D01*
X5586428Y-10331161D01*
X5600714Y-10316875D01*
X5629286Y-10302589D01*
X5986428Y-10302589D02*
X5929286Y-10302589D01*
X5900714Y-10316875D01*
X5886428Y-10331161D01*
X5857857Y-10374018D01*
X5843571Y-10431161D01*
X5843571Y-10545447D01*
X5857857Y-10574018D01*
X5872143Y-10588304D01*
X5900714Y-10602589D01*
X5957857Y-10602589D01*
X5986428Y-10588304D01*
X6000714Y-10574018D01*
X6015000Y-10545447D01*
X6015000Y-10474018D01*
X6000714Y-10445447D01*
X5986428Y-10431161D01*
X5957857Y-10416875D01*
X5900714Y-10416875D01*
X5872143Y-10431161D01*
X5857857Y-10445447D01*
X5843571Y-10474018D01*
X6115000Y-10302589D02*
X6315000Y-10302589D01*
X6186428Y-10602589D01*
X6486428Y-10302589D02*
X6515000Y-10302589D01*
X6543571Y-10316875D01*
X6557857Y-10331161D01*
X6572143Y-10359732D01*
X6586428Y-10416875D01*
X6586428Y-10488304D01*
X6572143Y-10545447D01*
X6557857Y-10574018D01*
X6543571Y-10588304D01*
X6515000Y-10602589D01*
X6486428Y-10602589D01*
X6457857Y-10588304D01*
X6443571Y-10574018D01*
X6429286Y-10545447D01*
X6415000Y-10488304D01*
X6415000Y-10416875D01*
X6429286Y-10359732D01*
X6443571Y-10331161D01*
X6457857Y-10316875D01*
X6486428Y-10302589D01*
X6700714Y-10302589D02*
X6700714Y-10359732D01*
X6815000Y-10302589D02*
X6815000Y-10359732D01*
X7257857Y-10716875D02*
X7243571Y-10702589D01*
X7215000Y-10659732D01*
X7200714Y-10631161D01*
X7186428Y-10588304D01*
X7172143Y-10516875D01*
X7172143Y-10459732D01*
X7186428Y-10388304D01*
X7200714Y-10345447D01*
X7215000Y-10316875D01*
X7243571Y-10274018D01*
X7257857Y-10259732D01*
X7343571Y-10302589D02*
X7543571Y-10302589D01*
X7415000Y-10602589D01*
X7643571Y-10331161D02*
X7657857Y-10316875D01*
X7686428Y-10302589D01*
X7757857Y-10302589D01*
X7786428Y-10316875D01*
X7800714Y-10331161D01*
X7815000Y-10359732D01*
X7815000Y-10388304D01*
X7800714Y-10431161D01*
X7629286Y-10602589D01*
X7815000Y-10602589D01*
X8172143Y-10602589D02*
X8172143Y-10302589D01*
X8300714Y-10602589D02*
X8300714Y-10445447D01*
X8286428Y-10416875D01*
X8257857Y-10402589D01*
X8215000Y-10402589D01*
X8186428Y-10416875D01*
X8172143Y-10431161D01*
X8486428Y-10602589D02*
X8457857Y-10588304D01*
X8443571Y-10574018D01*
X8429286Y-10545447D01*
X8429286Y-10459732D01*
X8443571Y-10431161D01*
X8457857Y-10416875D01*
X8486428Y-10402589D01*
X8529286Y-10402589D01*
X8557857Y-10416875D01*
X8572143Y-10431161D01*
X8586428Y-10459732D01*
X8586428Y-10545447D01*
X8572143Y-10574018D01*
X8557857Y-10588304D01*
X8529286Y-10602589D01*
X8486428Y-10602589D01*
X8757857Y-10602589D02*
X8729286Y-10588304D01*
X8715000Y-10559732D01*
X8715000Y-10302589D01*
X8986428Y-10588304D02*
X8957857Y-10602589D01*
X8900714Y-10602589D01*
X8872143Y-10588304D01*
X8857857Y-10559732D01*
X8857857Y-10445447D01*
X8872143Y-10416875D01*
X8900714Y-10402589D01*
X8957857Y-10402589D01*
X8986428Y-10416875D01*
X9000714Y-10445447D01*
X9000714Y-10474018D01*
X8857857Y-10502589D01*
X9115000Y-10588304D02*
X9143571Y-10602589D01*
X9200714Y-10602589D01*
X9229286Y-10588304D01*
X9243571Y-10559732D01*
X9243571Y-10545447D01*
X9229286Y-10516875D01*
X9200714Y-10502589D01*
X9157857Y-10502589D01*
X9129286Y-10488304D01*
X9115000Y-10459732D01*
X9115000Y-10445447D01*
X9129286Y-10416875D01*
X9157857Y-10402589D01*
X9200714Y-10402589D01*
X9229286Y-10416875D01*
X9343571Y-10716875D02*
X9357857Y-10702589D01*
X9386428Y-10659732D01*
X9400714Y-10631161D01*
X9415000Y-10588304D01*
X9429286Y-10516875D01*
X9429286Y-10459732D01*
X9415000Y-10388304D01*
X9400714Y-10345447D01*
X9386428Y-10316875D01*
X9357857Y-10274018D01*
X9343571Y-10259732D01*
X9886428Y-10716875D02*
X9872143Y-10702589D01*
X9843571Y-10659732D01*
X9829286Y-10631161D01*
X9815000Y-10588304D01*
X9800714Y-10516875D01*
X9800714Y-10459732D01*
X9815000Y-10388304D01*
X9829286Y-10345447D01*
X9843571Y-10316875D01*
X9872143Y-10274018D01*
X9886428Y-10259732D01*
X10000714Y-10402589D02*
X10000714Y-10602589D01*
X10000714Y-10431161D02*
X10015000Y-10416875D01*
X10043571Y-10402589D01*
X10086428Y-10402589D01*
X10115000Y-10416875D01*
X10129286Y-10445447D01*
X10129286Y-10602589D01*
X10315000Y-10602589D02*
X10286428Y-10588304D01*
X10272143Y-10574018D01*
X10257857Y-10545447D01*
X10257857Y-10459732D01*
X10272143Y-10431161D01*
X10286428Y-10416875D01*
X10315000Y-10402589D01*
X10357857Y-10402589D01*
X10386428Y-10416875D01*
X10400714Y-10431161D01*
X10415000Y-10459732D01*
X10415000Y-10545447D01*
X10400714Y-10574018D01*
X10386428Y-10588304D01*
X10357857Y-10602589D01*
X10315000Y-10602589D01*
X10500714Y-10402589D02*
X10615000Y-10402589D01*
X10543571Y-10302589D02*
X10543571Y-10559732D01*
X10557857Y-10588304D01*
X10586428Y-10602589D01*
X10615000Y-10602589D01*
X10943571Y-10402589D02*
X10943571Y-10702589D01*
X10943571Y-10416875D02*
X10972143Y-10402589D01*
X11029286Y-10402589D01*
X11057857Y-10416875D01*
X11072143Y-10431161D01*
X11086428Y-10459732D01*
X11086428Y-10545447D01*
X11072143Y-10574018D01*
X11057857Y-10588304D01*
X11029286Y-10602589D01*
X10972143Y-10602589D01*
X10943571Y-10588304D01*
X11257857Y-10602589D02*
X11229286Y-10588304D01*
X11215000Y-10559732D01*
X11215000Y-10302589D01*
X11500714Y-10602589D02*
X11500714Y-10445447D01*
X11486428Y-10416875D01*
X11457857Y-10402589D01*
X11400714Y-10402589D01*
X11372143Y-10416875D01*
X11500714Y-10588304D02*
X11472143Y-10602589D01*
X11400714Y-10602589D01*
X11372143Y-10588304D01*
X11357857Y-10559732D01*
X11357857Y-10531161D01*
X11372143Y-10502589D01*
X11400714Y-10488304D01*
X11472143Y-10488304D01*
X11500714Y-10474018D01*
X11600714Y-10402589D02*
X11715000Y-10402589D01*
X11643571Y-10302589D02*
X11643571Y-10559732D01*
X11657857Y-10588304D01*
X11686428Y-10602589D01*
X11715000Y-10602589D01*
X11929286Y-10588304D02*
X11900714Y-10602589D01*
X11843571Y-10602589D01*
X11815000Y-10588304D01*
X11800714Y-10559732D01*
X11800714Y-10445447D01*
X11815000Y-10416875D01*
X11843571Y-10402589D01*
X11900714Y-10402589D01*
X11929286Y-10416875D01*
X11943571Y-10445447D01*
X11943571Y-10474018D01*
X11800714Y-10502589D01*
X12200714Y-10602589D02*
X12200714Y-10302589D01*
X12200714Y-10588304D02*
X12172143Y-10602589D01*
X12115000Y-10602589D01*
X12086428Y-10588304D01*
X12072143Y-10574018D01*
X12057857Y-10545447D01*
X12057857Y-10459732D01*
X12072143Y-10431161D01*
X12086428Y-10416875D01*
X12115000Y-10402589D01*
X12172143Y-10402589D01*
X12200714Y-10416875D01*
X12315000Y-10716875D02*
X12329286Y-10702589D01*
X12357857Y-10659732D01*
X12372143Y-10631161D01*
X12386428Y-10588304D01*
X12400714Y-10516875D01*
X12400714Y-10459732D01*
X12386428Y-10388304D01*
X12372143Y-10345447D01*
X12357857Y-10316875D01*
X12329286Y-10274018D01*
X12315000Y-10259732D01*
X2000000Y-10862875D02*
G75*
G03*
X2000000Y-10862875I-110000J0D01*
G01*
X2272143Y-10727161D02*
X2286428Y-10712875D01*
X2315000Y-10698589D01*
X2386428Y-10698589D01*
X2415000Y-10712875D01*
X2429286Y-10727161D01*
X2443571Y-10755732D01*
X2443571Y-10784304D01*
X2429286Y-10827161D01*
X2257857Y-10998589D01*
X2443571Y-10998589D01*
X2572143Y-10970018D02*
X2586428Y-10984304D01*
X2572143Y-10998589D01*
X2557857Y-10984304D01*
X2572143Y-10970018D01*
X2572143Y-10998589D01*
X2700714Y-10727161D02*
X2715000Y-10712875D01*
X2743571Y-10698589D01*
X2815000Y-10698589D01*
X2843571Y-10712875D01*
X2857857Y-10727161D01*
X2872143Y-10755732D01*
X2872143Y-10784304D01*
X2857857Y-10827161D01*
X2686428Y-10998589D01*
X2872143Y-10998589D01*
X3057857Y-10698589D02*
X3086428Y-10698589D01*
X3115000Y-10712875D01*
X3129286Y-10727161D01*
X3143571Y-10755732D01*
X3157857Y-10812875D01*
X3157857Y-10884304D01*
X3143571Y-10941447D01*
X3129286Y-10970018D01*
X3115000Y-10984304D01*
X3086428Y-10998589D01*
X3057857Y-10998589D01*
X3029286Y-10984304D01*
X3015000Y-10970018D01*
X3000714Y-10941447D01*
X2986428Y-10884304D01*
X2986428Y-10812875D01*
X3000714Y-10755732D01*
X3015000Y-10727161D01*
X3029286Y-10712875D01*
X3057857Y-10698589D01*
X3343571Y-10698589D02*
X3372143Y-10698589D01*
X3400714Y-10712875D01*
X3415000Y-10727161D01*
X3429286Y-10755732D01*
X3443571Y-10812875D01*
X3443571Y-10884304D01*
X3429286Y-10941447D01*
X3415000Y-10970018D01*
X3400714Y-10984304D01*
X3372143Y-10998589D01*
X3343571Y-10998589D01*
X3315000Y-10984304D01*
X3300714Y-10970018D01*
X3286428Y-10941447D01*
X3272143Y-10884304D01*
X3272143Y-10812875D01*
X3286428Y-10755732D01*
X3300714Y-10727161D01*
X3315000Y-10712875D01*
X3343571Y-10698589D01*
X3572143Y-10998589D02*
X3572143Y-10798589D01*
X3572143Y-10827161D02*
X3586428Y-10812875D01*
X3615000Y-10798589D01*
X3657857Y-10798589D01*
X3686428Y-10812875D01*
X3700714Y-10841447D01*
X3700714Y-10998589D01*
X3700714Y-10841447D02*
X3715000Y-10812875D01*
X3743571Y-10798589D01*
X3786428Y-10798589D01*
X3815000Y-10812875D01*
X3829286Y-10841447D01*
X3829286Y-10998589D01*
X3972143Y-10998589D02*
X3972143Y-10798589D01*
X3972143Y-10827161D02*
X3986428Y-10812875D01*
X4015000Y-10798589D01*
X4057857Y-10798589D01*
X4086428Y-10812875D01*
X4100714Y-10841447D01*
X4100714Y-10998589D01*
X4100714Y-10841447D02*
X4115000Y-10812875D01*
X4143571Y-10798589D01*
X4186428Y-10798589D01*
X4215000Y-10812875D01*
X4229286Y-10841447D01*
X4229286Y-10998589D01*
X4815000Y-10684304D02*
X4557857Y-11070018D01*
X5200714Y-10698589D02*
X5229286Y-10698589D01*
X5257857Y-10712875D01*
X5272143Y-10727161D01*
X5286428Y-10755732D01*
X5300714Y-10812875D01*
X5300714Y-10884304D01*
X5286428Y-10941447D01*
X5272143Y-10970018D01*
X5257857Y-10984304D01*
X5229286Y-10998589D01*
X5200714Y-10998589D01*
X5172143Y-10984304D01*
X5157857Y-10970018D01*
X5143571Y-10941447D01*
X5129286Y-10884304D01*
X5129286Y-10812875D01*
X5143571Y-10755732D01*
X5157857Y-10727161D01*
X5172143Y-10712875D01*
X5200714Y-10698589D01*
X5429286Y-10970018D02*
X5443571Y-10984304D01*
X5429286Y-10998589D01*
X5415000Y-10984304D01*
X5429286Y-10970018D01*
X5429286Y-10998589D01*
X5629286Y-10698589D02*
X5657857Y-10698589D01*
X5686428Y-10712875D01*
X5700714Y-10727161D01*
X5715000Y-10755732D01*
X5729286Y-10812875D01*
X5729286Y-10884304D01*
X5715000Y-10941447D01*
X5700714Y-10970018D01*
X5686428Y-10984304D01*
X5657857Y-10998589D01*
X5629286Y-10998589D01*
X5600714Y-10984304D01*
X5586428Y-10970018D01*
X5572143Y-10941447D01*
X5557857Y-10884304D01*
X5557857Y-10812875D01*
X5572143Y-10755732D01*
X5586428Y-10727161D01*
X5600714Y-10712875D01*
X5629286Y-10698589D01*
X5900714Y-10827161D02*
X5872143Y-10812875D01*
X5857857Y-10798589D01*
X5843571Y-10770018D01*
X5843571Y-10755732D01*
X5857857Y-10727161D01*
X5872143Y-10712875D01*
X5900714Y-10698589D01*
X5957857Y-10698589D01*
X5986428Y-10712875D01*
X6000714Y-10727161D01*
X6015000Y-10755732D01*
X6015000Y-10770018D01*
X6000714Y-10798589D01*
X5986428Y-10812875D01*
X5957857Y-10827161D01*
X5900714Y-10827161D01*
X5872143Y-10841447D01*
X5857857Y-10855732D01*
X5843571Y-10884304D01*
X5843571Y-10941447D01*
X5857857Y-10970018D01*
X5872143Y-10984304D01*
X5900714Y-10998589D01*
X5957857Y-10998589D01*
X5986428Y-10984304D01*
X6000714Y-10970018D01*
X6015000Y-10941447D01*
X6015000Y-10884304D01*
X6000714Y-10855732D01*
X5986428Y-10841447D01*
X5957857Y-10827161D01*
X6272143Y-10698589D02*
X6215000Y-10698589D01*
X6186428Y-10712875D01*
X6172143Y-10727161D01*
X6143571Y-10770018D01*
X6129286Y-10827161D01*
X6129286Y-10941447D01*
X6143571Y-10970018D01*
X6157857Y-10984304D01*
X6186428Y-10998589D01*
X6243571Y-10998589D01*
X6272143Y-10984304D01*
X6286428Y-10970018D01*
X6300714Y-10941447D01*
X6300714Y-10870018D01*
X6286428Y-10841447D01*
X6272143Y-10827161D01*
X6243571Y-10812875D01*
X6186428Y-10812875D01*
X6157857Y-10827161D01*
X6143571Y-10841447D01*
X6129286Y-10870018D01*
X6557857Y-10698589D02*
X6500714Y-10698589D01*
X6472143Y-10712875D01*
X6457857Y-10727161D01*
X6429286Y-10770018D01*
X6415000Y-10827161D01*
X6415000Y-10941447D01*
X6429286Y-10970018D01*
X6443571Y-10984304D01*
X6472143Y-10998589D01*
X6529286Y-10998589D01*
X6557857Y-10984304D01*
X6572143Y-10970018D01*
X6586428Y-10941447D01*
X6586428Y-10870018D01*
X6572143Y-10841447D01*
X6557857Y-10827161D01*
X6529286Y-10812875D01*
X6472143Y-10812875D01*
X6443571Y-10827161D01*
X6429286Y-10841447D01*
X6415000Y-10870018D01*
X6700714Y-10698589D02*
X6700714Y-10755732D01*
X6815000Y-10698589D02*
X6815000Y-10755732D01*
X7257857Y-11112875D02*
X7243571Y-11098589D01*
X7215000Y-11055732D01*
X7200714Y-11027161D01*
X7186428Y-10984304D01*
X7172143Y-10912875D01*
X7172143Y-10855732D01*
X7186428Y-10784304D01*
X7200714Y-10741447D01*
X7215000Y-10712875D01*
X7243571Y-10670018D01*
X7257857Y-10655732D01*
X7500714Y-10698589D02*
X7443571Y-10698589D01*
X7415000Y-10712875D01*
X7400714Y-10727161D01*
X7372143Y-10770018D01*
X7357857Y-10827161D01*
X7357857Y-10941447D01*
X7372143Y-10970018D01*
X7386428Y-10984304D01*
X7415000Y-10998589D01*
X7472143Y-10998589D01*
X7500714Y-10984304D01*
X7515000Y-10970018D01*
X7529286Y-10941447D01*
X7529286Y-10870018D01*
X7515000Y-10841447D01*
X7500714Y-10827161D01*
X7472143Y-10812875D01*
X7415000Y-10812875D01*
X7386428Y-10827161D01*
X7372143Y-10841447D01*
X7357857Y-10870018D01*
X7886428Y-10998589D02*
X7886428Y-10698589D01*
X8015000Y-10998589D02*
X8015000Y-10841447D01*
X8000714Y-10812875D01*
X7972143Y-10798589D01*
X7929286Y-10798589D01*
X7900714Y-10812875D01*
X7886428Y-10827161D01*
X8200714Y-10998589D02*
X8172143Y-10984304D01*
X8157857Y-10970018D01*
X8143571Y-10941447D01*
X8143571Y-10855732D01*
X8157857Y-10827161D01*
X8172143Y-10812875D01*
X8200714Y-10798589D01*
X8243571Y-10798589D01*
X8272143Y-10812875D01*
X8286428Y-10827161D01*
X8300714Y-10855732D01*
X8300714Y-10941447D01*
X8286428Y-10970018D01*
X8272143Y-10984304D01*
X8243571Y-10998589D01*
X8200714Y-10998589D01*
X8472143Y-10998589D02*
X8443571Y-10984304D01*
X8429286Y-10955732D01*
X8429286Y-10698589D01*
X8700714Y-10984304D02*
X8672143Y-10998589D01*
X8615000Y-10998589D01*
X8586428Y-10984304D01*
X8572143Y-10955732D01*
X8572143Y-10841447D01*
X8586428Y-10812875D01*
X8615000Y-10798589D01*
X8672143Y-10798589D01*
X8700714Y-10812875D01*
X8715000Y-10841447D01*
X8715000Y-10870018D01*
X8572143Y-10898589D01*
X8829286Y-10984304D02*
X8857857Y-10998589D01*
X8915000Y-10998589D01*
X8943571Y-10984304D01*
X8957857Y-10955732D01*
X8957857Y-10941447D01*
X8943571Y-10912875D01*
X8915000Y-10898589D01*
X8872143Y-10898589D01*
X8843571Y-10884304D01*
X8829286Y-10855732D01*
X8829286Y-10841447D01*
X8843571Y-10812875D01*
X8872143Y-10798589D01*
X8915000Y-10798589D01*
X8943571Y-10812875D01*
X9057857Y-11112875D02*
X9072143Y-11098589D01*
X9100714Y-11055732D01*
X9115000Y-11027161D01*
X9129286Y-10984304D01*
X9143571Y-10912875D01*
X9143571Y-10855732D01*
X9129286Y-10784304D01*
X9115000Y-10741447D01*
X9100714Y-10712875D01*
X9072143Y-10670018D01*
X9057857Y-10655732D01*
X9600714Y-11112875D02*
X9586428Y-11098589D01*
X9557857Y-11055732D01*
X9543571Y-11027161D01*
X9529286Y-10984304D01*
X9515000Y-10912875D01*
X9515000Y-10855732D01*
X9529286Y-10784304D01*
X9543571Y-10741447D01*
X9557857Y-10712875D01*
X9586428Y-10670018D01*
X9600714Y-10655732D01*
X9715000Y-10798589D02*
X9715000Y-10998589D01*
X9715000Y-10827161D02*
X9729286Y-10812875D01*
X9757857Y-10798589D01*
X9800714Y-10798589D01*
X9829286Y-10812875D01*
X9843571Y-10841447D01*
X9843571Y-10998589D01*
X10029286Y-10998589D02*
X10000714Y-10984304D01*
X9986428Y-10970018D01*
X9972143Y-10941447D01*
X9972143Y-10855732D01*
X9986428Y-10827161D01*
X10000714Y-10812875D01*
X10029286Y-10798589D01*
X10072143Y-10798589D01*
X10100714Y-10812875D01*
X10115000Y-10827161D01*
X10129286Y-10855732D01*
X10129286Y-10941447D01*
X10115000Y-10970018D01*
X10100714Y-10984304D01*
X10072143Y-10998589D01*
X10029286Y-10998589D01*
X10215000Y-10798589D02*
X10329286Y-10798589D01*
X10257857Y-10698589D02*
X10257857Y-10955732D01*
X10272143Y-10984304D01*
X10300714Y-10998589D01*
X10329286Y-10998589D01*
X10657857Y-10798589D02*
X10657857Y-11098589D01*
X10657857Y-10812875D02*
X10686428Y-10798589D01*
X10743571Y-10798589D01*
X10772143Y-10812875D01*
X10786428Y-10827161D01*
X10800714Y-10855732D01*
X10800714Y-10941447D01*
X10786428Y-10970018D01*
X10772143Y-10984304D01*
X10743571Y-10998589D01*
X10686428Y-10998589D01*
X10657857Y-10984304D01*
X10972143Y-10998589D02*
X10943571Y-10984304D01*
X10929286Y-10955732D01*
X10929286Y-10698589D01*
X11215000Y-10998589D02*
X11215000Y-10841447D01*
X11200714Y-10812875D01*
X11172143Y-10798589D01*
X11115000Y-10798589D01*
X11086428Y-10812875D01*
X11215000Y-10984304D02*
X11186428Y-10998589D01*
X11115000Y-10998589D01*
X11086428Y-10984304D01*
X11072143Y-10955732D01*
X11072143Y-10927161D01*
X11086428Y-10898589D01*
X11115000Y-10884304D01*
X11186428Y-10884304D01*
X11215000Y-10870018D01*
X11315000Y-10798589D02*
X11429286Y-10798589D01*
X11357857Y-10698589D02*
X11357857Y-10955732D01*
X11372143Y-10984304D01*
X11400714Y-10998589D01*
X11429286Y-10998589D01*
X11643571Y-10984304D02*
X11615000Y-10998589D01*
X11557857Y-10998589D01*
X11529286Y-10984304D01*
X11515000Y-10955732D01*
X11515000Y-10841447D01*
X11529286Y-10812875D01*
X11557857Y-10798589D01*
X11615000Y-10798589D01*
X11643571Y-10812875D01*
X11657857Y-10841447D01*
X11657857Y-10870018D01*
X11515000Y-10898589D01*
X11915000Y-10998589D02*
X11915000Y-10698589D01*
X11915000Y-10984304D02*
X11886428Y-10998589D01*
X11829286Y-10998589D01*
X11800714Y-10984304D01*
X11786428Y-10970018D01*
X11772143Y-10941447D01*
X11772143Y-10855732D01*
X11786428Y-10827161D01*
X11800714Y-10812875D01*
X11829286Y-10798589D01*
X11886428Y-10798589D01*
X11915000Y-10812875D01*
X12029286Y-11112875D02*
X12043571Y-11098589D01*
X12072143Y-11055732D01*
X12086428Y-11027161D01*
X12100714Y-10984304D01*
X12115000Y-10912875D01*
X12115000Y-10855732D01*
X12100714Y-10784304D01*
X12086428Y-10741447D01*
X12072143Y-10712875D01*
X12043571Y-10670018D01*
X12029286Y-10655732D01*
X1850000Y-11108875D02*
X1850000Y-11408875D01*
X1700000Y-11258875D02*
X2000000Y-11258875D01*
X2257857Y-11094589D02*
X2443571Y-11094589D01*
X2343571Y-11208875D01*
X2386428Y-11208875D01*
X2415000Y-11223161D01*
X2429286Y-11237446D01*
X2443571Y-11266018D01*
X2443571Y-11337446D01*
X2429286Y-11366018D01*
X2415000Y-11380304D01*
X2386428Y-11394589D01*
X2300714Y-11394589D01*
X2272143Y-11380304D01*
X2257857Y-11366018D01*
X2572143Y-11366018D02*
X2586428Y-11380304D01*
X2572143Y-11394589D01*
X2557857Y-11380304D01*
X2572143Y-11366018D01*
X2572143Y-11394589D01*
X2772143Y-11094589D02*
X2800714Y-11094589D01*
X2829286Y-11108875D01*
X2843571Y-11123161D01*
X2857857Y-11151732D01*
X2872143Y-11208875D01*
X2872143Y-11280304D01*
X2857857Y-11337446D01*
X2843571Y-11366018D01*
X2829286Y-11380304D01*
X2800714Y-11394589D01*
X2772143Y-11394589D01*
X2743571Y-11380304D01*
X2729286Y-11366018D01*
X2715000Y-11337446D01*
X2700714Y-11280304D01*
X2700714Y-11208875D01*
X2715000Y-11151732D01*
X2729286Y-11123161D01*
X2743571Y-11108875D01*
X2772143Y-11094589D01*
X3057857Y-11094589D02*
X3086428Y-11094589D01*
X3115000Y-11108875D01*
X3129286Y-11123161D01*
X3143571Y-11151732D01*
X3157857Y-11208875D01*
X3157857Y-11280304D01*
X3143571Y-11337446D01*
X3129286Y-11366018D01*
X3115000Y-11380304D01*
X3086428Y-11394589D01*
X3057857Y-11394589D01*
X3029286Y-11380304D01*
X3015000Y-11366018D01*
X3000714Y-11337446D01*
X2986428Y-11280304D01*
X2986428Y-11208875D01*
X3000714Y-11151732D01*
X3015000Y-11123161D01*
X3029286Y-11108875D01*
X3057857Y-11094589D01*
X3343571Y-11094589D02*
X3372143Y-11094589D01*
X3400714Y-11108875D01*
X3415000Y-11123161D01*
X3429286Y-11151732D01*
X3443571Y-11208875D01*
X3443571Y-11280304D01*
X3429286Y-11337446D01*
X3415000Y-11366018D01*
X3400714Y-11380304D01*
X3372143Y-11394589D01*
X3343571Y-11394589D01*
X3315000Y-11380304D01*
X3300714Y-11366018D01*
X3286428Y-11337446D01*
X3272143Y-11280304D01*
X3272143Y-11208875D01*
X3286428Y-11151732D01*
X3300714Y-11123161D01*
X3315000Y-11108875D01*
X3343571Y-11094589D01*
X3572143Y-11394589D02*
X3572143Y-11194589D01*
X3572143Y-11223161D02*
X3586428Y-11208875D01*
X3615000Y-11194589D01*
X3657857Y-11194589D01*
X3686428Y-11208875D01*
X3700714Y-11237446D01*
X3700714Y-11394589D01*
X3700714Y-11237446D02*
X3715000Y-11208875D01*
X3743571Y-11194589D01*
X3786428Y-11194589D01*
X3815000Y-11208875D01*
X3829286Y-11237446D01*
X3829286Y-11394589D01*
X3972143Y-11394589D02*
X3972143Y-11194589D01*
X3972143Y-11223161D02*
X3986428Y-11208875D01*
X4015000Y-11194589D01*
X4057857Y-11194589D01*
X4086428Y-11208875D01*
X4100714Y-11237446D01*
X4100714Y-11394589D01*
X4100714Y-11237446D02*
X4115000Y-11208875D01*
X4143571Y-11194589D01*
X4186428Y-11194589D01*
X4215000Y-11208875D01*
X4229286Y-11237446D01*
X4229286Y-11394589D01*
X4815000Y-11080304D02*
X4557857Y-11466018D01*
X5200714Y-11094589D02*
X5229286Y-11094589D01*
X5257857Y-11108875D01*
X5272143Y-11123161D01*
X5286428Y-11151732D01*
X5300714Y-11208875D01*
X5300714Y-11280304D01*
X5286428Y-11337446D01*
X5272143Y-11366018D01*
X5257857Y-11380304D01*
X5229286Y-11394589D01*
X5200714Y-11394589D01*
X5172143Y-11380304D01*
X5157857Y-11366018D01*
X5143571Y-11337446D01*
X5129286Y-11280304D01*
X5129286Y-11208875D01*
X5143571Y-11151732D01*
X5157857Y-11123161D01*
X5172143Y-11108875D01*
X5200714Y-11094589D01*
X5429286Y-11366018D02*
X5443571Y-11380304D01*
X5429286Y-11394589D01*
X5415000Y-11380304D01*
X5429286Y-11366018D01*
X5429286Y-11394589D01*
X5729286Y-11394589D02*
X5557857Y-11394589D01*
X5643571Y-11394589D02*
X5643571Y-11094589D01*
X5615000Y-11137447D01*
X5586428Y-11166018D01*
X5557857Y-11180304D01*
X6015000Y-11394589D02*
X5843571Y-11394589D01*
X5929286Y-11394589D02*
X5929286Y-11094589D01*
X5900714Y-11137447D01*
X5872143Y-11166018D01*
X5843571Y-11180304D01*
X6186428Y-11223161D02*
X6157857Y-11208875D01*
X6143571Y-11194589D01*
X6129286Y-11166018D01*
X6129286Y-11151732D01*
X6143571Y-11123161D01*
X6157857Y-11108875D01*
X6186428Y-11094589D01*
X6243571Y-11094589D01*
X6272143Y-11108875D01*
X6286428Y-11123161D01*
X6300714Y-11151732D01*
X6300714Y-11166018D01*
X6286428Y-11194589D01*
X6272143Y-11208875D01*
X6243571Y-11223161D01*
X6186428Y-11223161D01*
X6157857Y-11237446D01*
X6143571Y-11251732D01*
X6129286Y-11280304D01*
X6129286Y-11337446D01*
X6143571Y-11366018D01*
X6157857Y-11380304D01*
X6186428Y-11394589D01*
X6243571Y-11394589D01*
X6272143Y-11380304D01*
X6286428Y-11366018D01*
X6300714Y-11337446D01*
X6300714Y-11280304D01*
X6286428Y-11251732D01*
X6272143Y-11237446D01*
X6243571Y-11223161D01*
X6586428Y-11394589D02*
X6415000Y-11394589D01*
X6500714Y-11394589D02*
X6500714Y-11094589D01*
X6472143Y-11137447D01*
X6443571Y-11166018D01*
X6415000Y-11180304D01*
X6700714Y-11094589D02*
X6700714Y-11151732D01*
X6815000Y-11094589D02*
X6815000Y-11151732D01*
X7257857Y-11508875D02*
X7243571Y-11494589D01*
X7215000Y-11451732D01*
X7200714Y-11423161D01*
X7186428Y-11380304D01*
X7172143Y-11308875D01*
X7172143Y-11251732D01*
X7186428Y-11180304D01*
X7200714Y-11137447D01*
X7215000Y-11108875D01*
X7243571Y-11066018D01*
X7257857Y-11051732D01*
X7343571Y-11094589D02*
X7543571Y-11094589D01*
X7415000Y-11394589D01*
X7643571Y-11123161D02*
X7657857Y-11108875D01*
X7686428Y-11094589D01*
X7757857Y-11094589D01*
X7786428Y-11108875D01*
X7800714Y-11123161D01*
X7815000Y-11151732D01*
X7815000Y-11180304D01*
X7800714Y-11223161D01*
X7629286Y-11394589D01*
X7815000Y-11394589D01*
X8172143Y-11394589D02*
X8172143Y-11094589D01*
X8300714Y-11394589D02*
X8300714Y-11237446D01*
X8286428Y-11208875D01*
X8257857Y-11194589D01*
X8215000Y-11194589D01*
X8186428Y-11208875D01*
X8172143Y-11223161D01*
X8486428Y-11394589D02*
X8457857Y-11380304D01*
X8443571Y-11366018D01*
X8429286Y-11337446D01*
X8429286Y-11251732D01*
X8443571Y-11223161D01*
X8457857Y-11208875D01*
X8486428Y-11194589D01*
X8529286Y-11194589D01*
X8557857Y-11208875D01*
X8572143Y-11223161D01*
X8586428Y-11251732D01*
X8586428Y-11337446D01*
X8572143Y-11366018D01*
X8557857Y-11380304D01*
X8529286Y-11394589D01*
X8486428Y-11394589D01*
X8757857Y-11394589D02*
X8729286Y-11380304D01*
X8715000Y-11351732D01*
X8715000Y-11094589D01*
X8986428Y-11380304D02*
X8957857Y-11394589D01*
X8900714Y-11394589D01*
X8872143Y-11380304D01*
X8857857Y-11351732D01*
X8857857Y-11237446D01*
X8872143Y-11208875D01*
X8900714Y-11194589D01*
X8957857Y-11194589D01*
X8986428Y-11208875D01*
X9000714Y-11237446D01*
X9000714Y-11266018D01*
X8857857Y-11294589D01*
X9115000Y-11380304D02*
X9143571Y-11394589D01*
X9200714Y-11394589D01*
X9229286Y-11380304D01*
X9243571Y-11351732D01*
X9243571Y-11337446D01*
X9229286Y-11308875D01*
X9200714Y-11294589D01*
X9157857Y-11294589D01*
X9129286Y-11280304D01*
X9115000Y-11251732D01*
X9115000Y-11237446D01*
X9129286Y-11208875D01*
X9157857Y-11194589D01*
X9200714Y-11194589D01*
X9229286Y-11208875D01*
X9343571Y-11508875D02*
X9357857Y-11494589D01*
X9386428Y-11451732D01*
X9400714Y-11423161D01*
X9415000Y-11380304D01*
X9429286Y-11308875D01*
X9429286Y-11251732D01*
X9415000Y-11180304D01*
X9400714Y-11137447D01*
X9386428Y-11108875D01*
X9357857Y-11066018D01*
X9343571Y-11051732D01*
X9886428Y-11508875D02*
X9872143Y-11494589D01*
X9843571Y-11451732D01*
X9829286Y-11423161D01*
X9815000Y-11380304D01*
X9800714Y-11308875D01*
X9800714Y-11251732D01*
X9815000Y-11180304D01*
X9829286Y-11137447D01*
X9843571Y-11108875D01*
X9872143Y-11066018D01*
X9886428Y-11051732D01*
X10000714Y-11194589D02*
X10000714Y-11394589D01*
X10000714Y-11223161D02*
X10015000Y-11208875D01*
X10043571Y-11194589D01*
X10086428Y-11194589D01*
X10115000Y-11208875D01*
X10129286Y-11237446D01*
X10129286Y-11394589D01*
X10315000Y-11394589D02*
X10286428Y-11380304D01*
X10272143Y-11366018D01*
X10257857Y-11337446D01*
X10257857Y-11251732D01*
X10272143Y-11223161D01*
X10286428Y-11208875D01*
X10315000Y-11194589D01*
X10357857Y-11194589D01*
X10386428Y-11208875D01*
X10400714Y-11223161D01*
X10415000Y-11251732D01*
X10415000Y-11337446D01*
X10400714Y-11366018D01*
X10386428Y-11380304D01*
X10357857Y-11394589D01*
X10315000Y-11394589D01*
X10500714Y-11194589D02*
X10615000Y-11194589D01*
X10543571Y-11094589D02*
X10543571Y-11351732D01*
X10557857Y-11380304D01*
X10586428Y-11394589D01*
X10615000Y-11394589D01*
X10943571Y-11194589D02*
X10943571Y-11494589D01*
X10943571Y-11208875D02*
X10972143Y-11194589D01*
X11029286Y-11194589D01*
X11057857Y-11208875D01*
X11072143Y-11223161D01*
X11086428Y-11251732D01*
X11086428Y-11337446D01*
X11072143Y-11366018D01*
X11057857Y-11380304D01*
X11029286Y-11394589D01*
X10972143Y-11394589D01*
X10943571Y-11380304D01*
X11257857Y-11394589D02*
X11229286Y-11380304D01*
X11215000Y-11351732D01*
X11215000Y-11094589D01*
X11500714Y-11394589D02*
X11500714Y-11237446D01*
X11486428Y-11208875D01*
X11457857Y-11194589D01*
X11400714Y-11194589D01*
X11372143Y-11208875D01*
X11500714Y-11380304D02*
X11472143Y-11394589D01*
X11400714Y-11394589D01*
X11372143Y-11380304D01*
X11357857Y-11351732D01*
X11357857Y-11323161D01*
X11372143Y-11294589D01*
X11400714Y-11280304D01*
X11472143Y-11280304D01*
X11500714Y-11266018D01*
X11600714Y-11194589D02*
X11715000Y-11194589D01*
X11643571Y-11094589D02*
X11643571Y-11351732D01*
X11657857Y-11380304D01*
X11686428Y-11394589D01*
X11715000Y-11394589D01*
X11929286Y-11380304D02*
X11900714Y-11394589D01*
X11843571Y-11394589D01*
X11815000Y-11380304D01*
X11800714Y-11351732D01*
X11800714Y-11237446D01*
X11815000Y-11208875D01*
X11843571Y-11194589D01*
X11900714Y-11194589D01*
X11929286Y-11208875D01*
X11943571Y-11237446D01*
X11943571Y-11266018D01*
X11800714Y-11294589D01*
X12200714Y-11394589D02*
X12200714Y-11094589D01*
X12200714Y-11380304D02*
X12172143Y-11394589D01*
X12115000Y-11394589D01*
X12086428Y-11380304D01*
X12072143Y-11366018D01*
X12057857Y-11337446D01*
X12057857Y-11251732D01*
X12072143Y-11223161D01*
X12086428Y-11208875D01*
X12115000Y-11194589D01*
X12172143Y-11194589D01*
X12200714Y-11208875D01*
X12315000Y-11508875D02*
X12329286Y-11494589D01*
X12357857Y-11451732D01*
X12372143Y-11423161D01*
X12386428Y-11380304D01*
X12400714Y-11308875D01*
X12400714Y-11251732D01*
X12386428Y-11180304D01*
X12372143Y-11137447D01*
X12357857Y-11108875D01*
X12329286Y-11066018D01*
X12315000Y-11051732D01*
X1941601Y-11829866D02*
X1941601Y-11547884D01*
X1659618Y-11547884D01*
X1659618Y-11829866D01*
X1941601Y-11829866D01*
X2257857Y-11524589D02*
X2443571Y-11524589D01*
X2343571Y-11638875D01*
X2386428Y-11638875D01*
X2415000Y-11653161D01*
X2429286Y-11667446D01*
X2443571Y-11696018D01*
X2443571Y-11767446D01*
X2429286Y-11796018D01*
X2415000Y-11810304D01*
X2386428Y-11824589D01*
X2300714Y-11824589D01*
X2272143Y-11810304D01*
X2257857Y-11796018D01*
X2572143Y-11796018D02*
X2586428Y-11810304D01*
X2572143Y-11824589D01*
X2557857Y-11810304D01*
X2572143Y-11796018D01*
X2572143Y-11824589D01*
X2729286Y-11824589D02*
X2786428Y-11824589D01*
X2815000Y-11810304D01*
X2829286Y-11796018D01*
X2857857Y-11753161D01*
X2872143Y-11696018D01*
X2872143Y-11581732D01*
X2857857Y-11553161D01*
X2843571Y-11538875D01*
X2815000Y-11524589D01*
X2757857Y-11524589D01*
X2729286Y-11538875D01*
X2715000Y-11553161D01*
X2700714Y-11581732D01*
X2700714Y-11653161D01*
X2715000Y-11681732D01*
X2729286Y-11696018D01*
X2757857Y-11710304D01*
X2815000Y-11710304D01*
X2843571Y-11696018D01*
X2857857Y-11681732D01*
X2872143Y-11653161D01*
X3043571Y-11653161D02*
X3015000Y-11638875D01*
X3000714Y-11624589D01*
X2986428Y-11596018D01*
X2986428Y-11581732D01*
X3000714Y-11553161D01*
X3015000Y-11538875D01*
X3043571Y-11524589D01*
X3100714Y-11524589D01*
X3129286Y-11538875D01*
X3143571Y-11553161D01*
X3157857Y-11581732D01*
X3157857Y-11596018D01*
X3143571Y-11624589D01*
X3129286Y-11638875D01*
X3100714Y-11653161D01*
X3043571Y-11653161D01*
X3015000Y-11667446D01*
X3000714Y-11681732D01*
X2986428Y-11710304D01*
X2986428Y-11767446D01*
X3000714Y-11796018D01*
X3015000Y-11810304D01*
X3043571Y-11824589D01*
X3100714Y-11824589D01*
X3129286Y-11810304D01*
X3143571Y-11796018D01*
X3157857Y-11767446D01*
X3157857Y-11710304D01*
X3143571Y-11681732D01*
X3129286Y-11667446D01*
X3100714Y-11653161D01*
X3329286Y-11653161D02*
X3300714Y-11638875D01*
X3286428Y-11624589D01*
X3272143Y-11596018D01*
X3272143Y-11581732D01*
X3286428Y-11553161D01*
X3300714Y-11538875D01*
X3329286Y-11524589D01*
X3386428Y-11524589D01*
X3415000Y-11538875D01*
X3429286Y-11553161D01*
X3443571Y-11581732D01*
X3443571Y-11596018D01*
X3429286Y-11624589D01*
X3415000Y-11638875D01*
X3386428Y-11653161D01*
X3329286Y-11653161D01*
X3300714Y-11667446D01*
X3286428Y-11681732D01*
X3272143Y-11710304D01*
X3272143Y-11767446D01*
X3286428Y-11796018D01*
X3300714Y-11810304D01*
X3329286Y-11824589D01*
X3386428Y-11824589D01*
X3415000Y-11810304D01*
X3429286Y-11796018D01*
X3443571Y-11767446D01*
X3443571Y-11710304D01*
X3429286Y-11681732D01*
X3415000Y-11667446D01*
X3386428Y-11653161D01*
X3572143Y-11824589D02*
X3572143Y-11624589D01*
X3572143Y-11653161D02*
X3586428Y-11638875D01*
X3615000Y-11624589D01*
X3657857Y-11624589D01*
X3686428Y-11638875D01*
X3700714Y-11667446D01*
X3700714Y-11824589D01*
X3700714Y-11667446D02*
X3715000Y-11638875D01*
X3743571Y-11624589D01*
X3786428Y-11624589D01*
X3815000Y-11638875D01*
X3829286Y-11667446D01*
X3829286Y-11824589D01*
X3972143Y-11824589D02*
X3972143Y-11624589D01*
X3972143Y-11653161D02*
X3986428Y-11638875D01*
X4015000Y-11624589D01*
X4057857Y-11624589D01*
X4086428Y-11638875D01*
X4100714Y-11667446D01*
X4100714Y-11824589D01*
X4100714Y-11667446D02*
X4115000Y-11638875D01*
X4143571Y-11624589D01*
X4186428Y-11624589D01*
X4215000Y-11638875D01*
X4229286Y-11667446D01*
X4229286Y-11824589D01*
X4815000Y-11510304D02*
X4557857Y-11896018D01*
X5200714Y-11524589D02*
X5229286Y-11524589D01*
X5257857Y-11538875D01*
X5272143Y-11553161D01*
X5286428Y-11581732D01*
X5300714Y-11638875D01*
X5300714Y-11710304D01*
X5286428Y-11767446D01*
X5272143Y-11796018D01*
X5257857Y-11810304D01*
X5229286Y-11824589D01*
X5200714Y-11824589D01*
X5172143Y-11810304D01*
X5157857Y-11796018D01*
X5143571Y-11767446D01*
X5129286Y-11710304D01*
X5129286Y-11638875D01*
X5143571Y-11581732D01*
X5157857Y-11553161D01*
X5172143Y-11538875D01*
X5200714Y-11524589D01*
X5429286Y-11796018D02*
X5443571Y-11810304D01*
X5429286Y-11824589D01*
X5415000Y-11810304D01*
X5429286Y-11796018D01*
X5429286Y-11824589D01*
X5729286Y-11824589D02*
X5557857Y-11824589D01*
X5643571Y-11824589D02*
X5643571Y-11524589D01*
X5615000Y-11567446D01*
X5586428Y-11596018D01*
X5557857Y-11610304D01*
X6000714Y-11524589D02*
X5857857Y-11524589D01*
X5843571Y-11667446D01*
X5857857Y-11653161D01*
X5886428Y-11638875D01*
X5957857Y-11638875D01*
X5986428Y-11653161D01*
X6000714Y-11667446D01*
X6015000Y-11696018D01*
X6015000Y-11767446D01*
X6000714Y-11796018D01*
X5986428Y-11810304D01*
X5957857Y-11824589D01*
X5886428Y-11824589D01*
X5857857Y-11810304D01*
X5843571Y-11796018D01*
X6115000Y-11524589D02*
X6315000Y-11524589D01*
X6186428Y-11824589D01*
X6486428Y-11524589D02*
X6515000Y-11524589D01*
X6543571Y-11538875D01*
X6557857Y-11553161D01*
X6572143Y-11581732D01*
X6586428Y-11638875D01*
X6586428Y-11710304D01*
X6572143Y-11767446D01*
X6557857Y-11796018D01*
X6543571Y-11810304D01*
X6515000Y-11824589D01*
X6486428Y-11824589D01*
X6457857Y-11810304D01*
X6443571Y-11796018D01*
X6429286Y-11767446D01*
X6415000Y-11710304D01*
X6415000Y-11638875D01*
X6429286Y-11581732D01*
X6443571Y-11553161D01*
X6457857Y-11538875D01*
X6486428Y-11524589D01*
X6700714Y-11524589D02*
X6700714Y-11581732D01*
X6815000Y-11524589D02*
X6815000Y-11581732D01*
X7257857Y-11938875D02*
X7243571Y-11924589D01*
X7215000Y-11881732D01*
X7200714Y-11853161D01*
X7186428Y-11810304D01*
X7172143Y-11738875D01*
X7172143Y-11681732D01*
X7186428Y-11610304D01*
X7200714Y-11567446D01*
X7215000Y-11538875D01*
X7243571Y-11496018D01*
X7257857Y-11481732D01*
X7343571Y-11524589D02*
X7529286Y-11524589D01*
X7429286Y-11638875D01*
X7472143Y-11638875D01*
X7500714Y-11653161D01*
X7515000Y-11667446D01*
X7529286Y-11696018D01*
X7529286Y-11767446D01*
X7515000Y-11796018D01*
X7500714Y-11810304D01*
X7472143Y-11824589D01*
X7386428Y-11824589D01*
X7357857Y-11810304D01*
X7343571Y-11796018D01*
X7786428Y-11524589D02*
X7729286Y-11524589D01*
X7700714Y-11538875D01*
X7686428Y-11553161D01*
X7657857Y-11596018D01*
X7643571Y-11653161D01*
X7643571Y-11767446D01*
X7657857Y-11796018D01*
X7672143Y-11810304D01*
X7700714Y-11824589D01*
X7757857Y-11824589D01*
X7786428Y-11810304D01*
X7800714Y-11796018D01*
X7815000Y-11767446D01*
X7815000Y-11696018D01*
X7800714Y-11667446D01*
X7786428Y-11653161D01*
X7757857Y-11638875D01*
X7700714Y-11638875D01*
X7672143Y-11653161D01*
X7657857Y-11667446D01*
X7643571Y-11696018D01*
X8172143Y-11824589D02*
X8172143Y-11524589D01*
X8300714Y-11824589D02*
X8300714Y-11667446D01*
X8286428Y-11638875D01*
X8257857Y-11624589D01*
X8215000Y-11624589D01*
X8186428Y-11638875D01*
X8172143Y-11653161D01*
X8486428Y-11824589D02*
X8457857Y-11810304D01*
X8443571Y-11796018D01*
X8429286Y-11767446D01*
X8429286Y-11681732D01*
X8443571Y-11653161D01*
X8457857Y-11638875D01*
X8486428Y-11624589D01*
X8529286Y-11624589D01*
X8557857Y-11638875D01*
X8572143Y-11653161D01*
X8586428Y-11681732D01*
X8586428Y-11767446D01*
X8572143Y-11796018D01*
X8557857Y-11810304D01*
X8529286Y-11824589D01*
X8486428Y-11824589D01*
X8757857Y-11824589D02*
X8729286Y-11810304D01*
X8715000Y-11781732D01*
X8715000Y-11524589D01*
X8986428Y-11810304D02*
X8957857Y-11824589D01*
X8900714Y-11824589D01*
X8872143Y-11810304D01*
X8857857Y-11781732D01*
X8857857Y-11667446D01*
X8872143Y-11638875D01*
X8900714Y-11624589D01*
X8957857Y-11624589D01*
X8986428Y-11638875D01*
X9000714Y-11667446D01*
X9000714Y-11696018D01*
X8857857Y-11724589D01*
X9115000Y-11810304D02*
X9143571Y-11824589D01*
X9200714Y-11824589D01*
X9229286Y-11810304D01*
X9243571Y-11781732D01*
X9243571Y-11767446D01*
X9229286Y-11738875D01*
X9200714Y-11724589D01*
X9157857Y-11724589D01*
X9129286Y-11710304D01*
X9115000Y-11681732D01*
X9115000Y-11667446D01*
X9129286Y-11638875D01*
X9157857Y-11624589D01*
X9200714Y-11624589D01*
X9229286Y-11638875D01*
X9343571Y-11938875D02*
X9357857Y-11924589D01*
X9386428Y-11881732D01*
X9400714Y-11853161D01*
X9415000Y-11810304D01*
X9429286Y-11738875D01*
X9429286Y-11681732D01*
X9415000Y-11610304D01*
X9400714Y-11567446D01*
X9386428Y-11538875D01*
X9357857Y-11496018D01*
X9343571Y-11481732D01*
X9886428Y-11938875D02*
X9872143Y-11924589D01*
X9843571Y-11881732D01*
X9829286Y-11853161D01*
X9815000Y-11810304D01*
X9800714Y-11738875D01*
X9800714Y-11681732D01*
X9815000Y-11610304D01*
X9829286Y-11567446D01*
X9843571Y-11538875D01*
X9872143Y-11496018D01*
X9886428Y-11481732D01*
X10000714Y-11624589D02*
X10000714Y-11824589D01*
X10000714Y-11653161D02*
X10015000Y-11638875D01*
X10043571Y-11624589D01*
X10086428Y-11624589D01*
X10115000Y-11638875D01*
X10129286Y-11667446D01*
X10129286Y-11824589D01*
X10315000Y-11824589D02*
X10286428Y-11810304D01*
X10272143Y-11796018D01*
X10257857Y-11767446D01*
X10257857Y-11681732D01*
X10272143Y-11653161D01*
X10286428Y-11638875D01*
X10315000Y-11624589D01*
X10357857Y-11624589D01*
X10386428Y-11638875D01*
X10400714Y-11653161D01*
X10415000Y-11681732D01*
X10415000Y-11767446D01*
X10400714Y-11796018D01*
X10386428Y-11810304D01*
X10357857Y-11824589D01*
X10315000Y-11824589D01*
X10500714Y-11624589D02*
X10615000Y-11624589D01*
X10543571Y-11524589D02*
X10543571Y-11781732D01*
X10557857Y-11810304D01*
X10586428Y-11824589D01*
X10615000Y-11824589D01*
X10943571Y-11624589D02*
X10943571Y-11924589D01*
X10943571Y-11638875D02*
X10972143Y-11624589D01*
X11029286Y-11624589D01*
X11057857Y-11638875D01*
X11072143Y-11653161D01*
X11086428Y-11681732D01*
X11086428Y-11767446D01*
X11072143Y-11796018D01*
X11057857Y-11810304D01*
X11029286Y-11824589D01*
X10972143Y-11824589D01*
X10943571Y-11810304D01*
X11257857Y-11824589D02*
X11229286Y-11810304D01*
X11215000Y-11781732D01*
X11215000Y-11524589D01*
X11500714Y-11824589D02*
X11500714Y-11667446D01*
X11486428Y-11638875D01*
X11457857Y-11624589D01*
X11400714Y-11624589D01*
X11372143Y-11638875D01*
X11500714Y-11810304D02*
X11472143Y-11824589D01*
X11400714Y-11824589D01*
X11372143Y-11810304D01*
X11357857Y-11781732D01*
X11357857Y-11753161D01*
X11372143Y-11724589D01*
X11400714Y-11710304D01*
X11472143Y-11710304D01*
X11500714Y-11696018D01*
X11600714Y-11624589D02*
X11715000Y-11624589D01*
X11643571Y-11524589D02*
X11643571Y-11781732D01*
X11657857Y-11810304D01*
X11686428Y-11824589D01*
X11715000Y-11824589D01*
X11929286Y-11810304D02*
X11900714Y-11824589D01*
X11843571Y-11824589D01*
X11815000Y-11810304D01*
X11800714Y-11781732D01*
X11800714Y-11667446D01*
X11815000Y-11638875D01*
X11843571Y-11624589D01*
X11900714Y-11624589D01*
X11929286Y-11638875D01*
X11943571Y-11667446D01*
X11943571Y-11696018D01*
X11800714Y-11724589D01*
X12200714Y-11824589D02*
X12200714Y-11524589D01*
X12200714Y-11810304D02*
X12172143Y-11824589D01*
X12115000Y-11824589D01*
X12086428Y-11810304D01*
X12072143Y-11796018D01*
X12057857Y-11767446D01*
X12057857Y-11681732D01*
X12072143Y-11653161D01*
X12086428Y-11638875D01*
X12115000Y-11624589D01*
X12172143Y-11624589D01*
X12200714Y-11638875D01*
X12315000Y-11938875D02*
X12329286Y-11924589D01*
X12357857Y-11881732D01*
X12372143Y-11853161D01*
X12386428Y-11810304D01*
X12400714Y-11738875D01*
X12400714Y-11681732D01*
X12386428Y-11610304D01*
X12372143Y-11567446D01*
X12357857Y-11538875D01*
X12329286Y-11496018D01*
X12315000Y-11481732D01*
M02*
