%TF.GenerationSoftware,KiCad,Pcbnew,(5.1.12-1-10_14)*%
%TF.CreationDate,2022-02-07T22:24:56-07:00*%
%TF.ProjectId,youwu36,796f7577-7533-4362-9e6b-696361645f70,rev?*%
%TF.SameCoordinates,Original*%
%TF.FileFunction,Paste,Bot*%
%TF.FilePolarity,Positive*%
%FSLAX46Y46*%
G04 Gerber Fmt 4.6, Leading zero omitted, Abs format (unit mm)*
G04 Created by KiCad (PCBNEW (5.1.12-1-10_14)) date 2022-02-07 22:24:56*
%MOMM*%
%LPD*%
G01*
G04 APERTURE LIST*
%ADD10R,2.550000X2.500000*%
%ADD11R,2.000000X1.600000*%
%ADD12R,1.200000X0.900000*%
%ADD13R,0.900000X1.200000*%
G04 APERTURE END LIST*
D10*
%TO.C,SW23*%
X136340000Y-25778750D03*
X150190000Y-23238750D03*
%TD*%
%TO.C,SW36*%
X193490000Y-63878750D03*
X207340000Y-61338750D03*
%TD*%
%TO.C,SW35*%
X193490000Y-44828750D03*
X207340000Y-42288750D03*
%TD*%
%TO.C,SW24*%
X136340000Y-44828750D03*
X150190000Y-42288750D03*
%TD*%
%TO.C,SW25*%
X136340000Y-63878750D03*
X150190000Y-61338750D03*
%TD*%
%TO.C,SW26*%
X136340000Y-82928750D03*
X150190000Y-80388750D03*
%TD*%
%TO.C,SW27*%
X155390000Y-25778750D03*
X169240000Y-23238750D03*
%TD*%
%TO.C,SW28*%
X155390000Y-44828750D03*
X169240000Y-42288750D03*
%TD*%
%TO.C,SW29*%
X155390000Y-63878750D03*
X169240000Y-61338750D03*
%TD*%
%TO.C,SW30*%
X155390000Y-82928750D03*
X169240000Y-80388750D03*
%TD*%
%TO.C,SW31*%
X174440000Y-25778750D03*
X188290000Y-23238750D03*
%TD*%
%TO.C,SW32*%
X174440000Y-44828750D03*
X188290000Y-42288750D03*
%TD*%
%TO.C,SW33*%
X174440000Y-63878750D03*
X188290000Y-61338750D03*
%TD*%
%TO.C,SW34*%
X193490000Y-25778750D03*
X207340000Y-23238750D03*
%TD*%
%TO.C,SW22*%
X117290000Y-82928750D03*
X131140000Y-80388750D03*
%TD*%
%TO.C,SW18*%
X98240000Y-82928750D03*
X112090000Y-80388750D03*
%TD*%
%TO.C,SW15*%
X98240000Y-25778750D03*
X112090000Y-23238750D03*
%TD*%
%TO.C,SW13*%
X79190000Y-63878750D03*
X93040000Y-61338750D03*
%TD*%
%TO.C,SW11*%
X79190000Y-25778750D03*
X93040000Y-23238750D03*
%TD*%
%TO.C,SW14*%
X79190000Y-82928750D03*
X93040000Y-80388750D03*
%TD*%
%TO.C,SW17*%
X98240000Y-63878750D03*
X112090000Y-61338750D03*
%TD*%
%TO.C,SW12*%
X79190000Y-44828750D03*
X93040000Y-42288750D03*
%TD*%
%TO.C,SW16*%
X98240000Y-44828750D03*
X112090000Y-42288750D03*
%TD*%
%TO.C,SW19*%
X117290000Y-25778750D03*
X131140000Y-23238750D03*
%TD*%
%TO.C,SW20*%
X117290000Y-44828750D03*
X131140000Y-42288750D03*
%TD*%
%TO.C,SW21*%
X117290000Y-63878750D03*
X131140000Y-61338750D03*
%TD*%
D11*
%TO.C,SW37*%
X23725000Y-56893750D03*
X29125000Y-56893750D03*
%TD*%
D12*
%TO.C,D36*%
X208987500Y-68737500D03*
X208987500Y-72037500D03*
%TD*%
%TO.C,D35*%
X208987500Y-49687500D03*
X208987500Y-52987500D03*
%TD*%
%TO.C,D34*%
X208987500Y-30637500D03*
X208987500Y-33937500D03*
%TD*%
%TO.C,D33*%
X190731250Y-68737500D03*
X190731250Y-72037500D03*
%TD*%
%TO.C,D32*%
X190731250Y-49687500D03*
X190731250Y-52987500D03*
%TD*%
%TO.C,D31*%
X190731250Y-30637500D03*
X190731250Y-33937500D03*
%TD*%
%TO.C,D30*%
X171681250Y-87787500D03*
X171681250Y-91087500D03*
%TD*%
%TO.C,D29*%
X171681250Y-68737500D03*
X171681250Y-72037500D03*
%TD*%
%TO.C,D28*%
X171681250Y-49687500D03*
X171681250Y-52987500D03*
%TD*%
%TO.C,D27*%
X171681250Y-30637500D03*
X171681250Y-33937500D03*
%TD*%
%TO.C,D26*%
X152631250Y-87787500D03*
X152631250Y-91087500D03*
%TD*%
%TO.C,D25*%
X152631250Y-68737500D03*
X152631250Y-72037500D03*
%TD*%
%TO.C,D24*%
X152631250Y-49687500D03*
X152631250Y-52987500D03*
%TD*%
%TO.C,D23*%
X152631250Y-30637500D03*
X152631250Y-33937500D03*
%TD*%
%TO.C,D22*%
X133581250Y-87787500D03*
X133581250Y-91087500D03*
%TD*%
%TO.C,D21*%
X133581250Y-68737500D03*
X133581250Y-72037500D03*
%TD*%
%TO.C,D20*%
X133581250Y-49687500D03*
X133581250Y-52987500D03*
%TD*%
%TO.C,D19*%
X133581250Y-30637500D03*
X133581250Y-33937500D03*
%TD*%
%TO.C,D18*%
X114531250Y-87787500D03*
X114531250Y-91087500D03*
%TD*%
%TO.C,D17*%
X114531250Y-68737500D03*
X114531250Y-72037500D03*
%TD*%
%TO.C,D16*%
X114531250Y-49687500D03*
X114531250Y-52987500D03*
%TD*%
%TO.C,D15*%
X113737500Y-30637500D03*
X113737500Y-33937500D03*
%TD*%
%TO.C,D14*%
X95481250Y-87787500D03*
X95481250Y-91087500D03*
%TD*%
%TO.C,D13*%
X95481250Y-68737500D03*
X95481250Y-72037500D03*
%TD*%
%TO.C,D12*%
X95481250Y-49687500D03*
X95481250Y-52987500D03*
%TD*%
%TO.C,D11*%
X95481250Y-30637500D03*
X95481250Y-33937500D03*
%TD*%
%TO.C,D10*%
X76431250Y-87787500D03*
X76431250Y-91087500D03*
%TD*%
%TO.C,D9*%
X76431250Y-68737500D03*
X76431250Y-72037500D03*
%TD*%
%TO.C,D8*%
X76431250Y-49687500D03*
X76431250Y-52987500D03*
%TD*%
%TO.C,D7*%
X76431250Y-30637500D03*
X76431250Y-33937500D03*
%TD*%
%TO.C,D6*%
X57381250Y-68737500D03*
X57381250Y-72037500D03*
%TD*%
D13*
%TO.C,D5*%
X46331250Y-56893750D03*
X43031250Y-56893750D03*
%TD*%
D12*
%TO.C,D4*%
X57381250Y-30637500D03*
X57381250Y-33937500D03*
%TD*%
%TO.C,D3*%
X38331250Y-68737500D03*
X38331250Y-72037500D03*
%TD*%
D13*
%TO.C,D2*%
X31918750Y-56893750D03*
X35218750Y-56893750D03*
%TD*%
D12*
%TO.C,D1*%
X38331250Y-30637500D03*
X38331250Y-33937500D03*
%TD*%
D10*
%TO.C,SW10*%
X60140000Y-82928750D03*
X73990000Y-80388750D03*
%TD*%
%TO.C,SW9*%
X60140000Y-63878750D03*
X73990000Y-61338750D03*
%TD*%
%TO.C,SW8*%
X60140000Y-44828750D03*
X73990000Y-42288750D03*
%TD*%
%TO.C,SW7*%
X60140000Y-25778750D03*
X73990000Y-23238750D03*
%TD*%
%TO.C,SW6*%
X41090000Y-63878750D03*
X54940000Y-61338750D03*
%TD*%
%TO.C,SW5*%
X41090000Y-44828750D03*
X54940000Y-42288750D03*
%TD*%
%TO.C,SW4*%
X41090000Y-25778750D03*
X54940000Y-23238750D03*
%TD*%
%TO.C,SW3*%
X22040000Y-63878750D03*
X35890000Y-61338750D03*
%TD*%
%TO.C,SW2*%
X22040000Y-44828750D03*
X35890000Y-42288750D03*
%TD*%
%TO.C,SW1*%
X22040000Y-25778750D03*
X35890000Y-23238750D03*
%TD*%
M02*
