%TF.GenerationSoftware,KiCad,Pcbnew,(5.1.12-1-10_14)*%
%TF.CreationDate,2022-02-07T22:24:56-07:00*%
%TF.ProjectId,youwu36,796f7577-7533-4362-9e6b-696361645f70,rev?*%
%TF.SameCoordinates,Original*%
%TF.FileFunction,Copper,L2,Bot*%
%TF.FilePolarity,Positive*%
%FSLAX46Y46*%
G04 Gerber Fmt 4.6, Leading zero omitted, Abs format (unit mm)*
G04 Created by KiCad (PCBNEW (5.1.12-1-10_14)) date 2022-02-07 22:24:56*
%MOMM*%
%LPD*%
G01*
G04 APERTURE LIST*
%TA.AperFunction,SMDPad,CuDef*%
%ADD10R,2.550000X2.500000*%
%TD*%
%TA.AperFunction,SMDPad,CuDef*%
%ADD11R,2.000000X1.600000*%
%TD*%
%TA.AperFunction,SMDPad,CuDef*%
%ADD12R,1.200000X0.900000*%
%TD*%
%TA.AperFunction,SMDPad,CuDef*%
%ADD13R,0.900000X1.200000*%
%TD*%
%TA.AperFunction,ComponentPad*%
%ADD14C,1.752600*%
%TD*%
%TA.AperFunction,ComponentPad*%
%ADD15R,1.752600X1.752600*%
%TD*%
%TA.AperFunction,ViaPad*%
%ADD16C,0.800000*%
%TD*%
%TA.AperFunction,Conductor*%
%ADD17C,0.250000*%
%TD*%
G04 APERTURE END LIST*
D10*
%TO.P,SW23,2*%
%TO.N,col_6*%
X136340000Y-25778750D03*
%TO.P,SW23,1*%
%TO.N,Net-(D23-Pad2)*%
X150190000Y-23238750D03*
%TD*%
%TO.P,SW36,2*%
%TO.N,col_9*%
X193490000Y-63878750D03*
%TO.P,SW36,1*%
%TO.N,Net-(D36-Pad2)*%
X207340000Y-61338750D03*
%TD*%
%TO.P,SW35,2*%
%TO.N,col_9*%
X193490000Y-44828750D03*
%TO.P,SW35,1*%
%TO.N,Net-(D35-Pad2)*%
X207340000Y-42288750D03*
%TD*%
%TO.P,SW24,2*%
%TO.N,col_6*%
X136340000Y-44828750D03*
%TO.P,SW24,1*%
%TO.N,Net-(D24-Pad2)*%
X150190000Y-42288750D03*
%TD*%
%TO.P,SW25,2*%
%TO.N,col_6*%
X136340000Y-63878750D03*
%TO.P,SW25,1*%
%TO.N,Net-(D25-Pad2)*%
X150190000Y-61338750D03*
%TD*%
%TO.P,SW26,2*%
%TO.N,col_6*%
X136340000Y-82928750D03*
%TO.P,SW26,1*%
%TO.N,Net-(D26-Pad2)*%
X150190000Y-80388750D03*
%TD*%
%TO.P,SW27,2*%
%TO.N,col_7*%
X155390000Y-25778750D03*
%TO.P,SW27,1*%
%TO.N,Net-(D27-Pad2)*%
X169240000Y-23238750D03*
%TD*%
%TO.P,SW28,2*%
%TO.N,col_7*%
X155390000Y-44828750D03*
%TO.P,SW28,1*%
%TO.N,Net-(D28-Pad2)*%
X169240000Y-42288750D03*
%TD*%
%TO.P,SW29,2*%
%TO.N,col_7*%
X155390000Y-63878750D03*
%TO.P,SW29,1*%
%TO.N,Net-(D29-Pad2)*%
X169240000Y-61338750D03*
%TD*%
%TO.P,SW30,2*%
%TO.N,col_7*%
X155390000Y-82928750D03*
%TO.P,SW30,1*%
%TO.N,Net-(D30-Pad2)*%
X169240000Y-80388750D03*
%TD*%
%TO.P,SW31,2*%
%TO.N,col_8*%
X174440000Y-25778750D03*
%TO.P,SW31,1*%
%TO.N,Net-(D31-Pad2)*%
X188290000Y-23238750D03*
%TD*%
%TO.P,SW32,2*%
%TO.N,col_8*%
X174440000Y-44828750D03*
%TO.P,SW32,1*%
%TO.N,Net-(D32-Pad2)*%
X188290000Y-42288750D03*
%TD*%
%TO.P,SW33,2*%
%TO.N,col_8*%
X174440000Y-63878750D03*
%TO.P,SW33,1*%
%TO.N,Net-(D33-Pad2)*%
X188290000Y-61338750D03*
%TD*%
%TO.P,SW34,2*%
%TO.N,col_9*%
X193490000Y-25778750D03*
%TO.P,SW34,1*%
%TO.N,Net-(D34-Pad2)*%
X207340000Y-23238750D03*
%TD*%
%TO.P,SW22,2*%
%TO.N,col_5*%
X117290000Y-82928750D03*
%TO.P,SW22,1*%
%TO.N,Net-(D22-Pad2)*%
X131140000Y-80388750D03*
%TD*%
%TO.P,SW18,2*%
%TO.N,col_4*%
X98240000Y-82928750D03*
%TO.P,SW18,1*%
%TO.N,Net-(D18-Pad2)*%
X112090000Y-80388750D03*
%TD*%
%TO.P,SW15,2*%
%TO.N,col_4*%
X98240000Y-25778750D03*
%TO.P,SW15,1*%
%TO.N,Net-(D15-Pad2)*%
X112090000Y-23238750D03*
%TD*%
%TO.P,SW13,2*%
%TO.N,col_3*%
X79190000Y-63878750D03*
%TO.P,SW13,1*%
%TO.N,Net-(D13-Pad2)*%
X93040000Y-61338750D03*
%TD*%
%TO.P,SW11,2*%
%TO.N,col_3*%
X79190000Y-25778750D03*
%TO.P,SW11,1*%
%TO.N,Net-(D11-Pad2)*%
X93040000Y-23238750D03*
%TD*%
%TO.P,SW14,2*%
%TO.N,col_3*%
X79190000Y-82928750D03*
%TO.P,SW14,1*%
%TO.N,Net-(D14-Pad2)*%
X93040000Y-80388750D03*
%TD*%
%TO.P,SW17,2*%
%TO.N,col_4*%
X98240000Y-63878750D03*
%TO.P,SW17,1*%
%TO.N,Net-(D17-Pad2)*%
X112090000Y-61338750D03*
%TD*%
%TO.P,SW12,2*%
%TO.N,col_3*%
X79190000Y-44828750D03*
%TO.P,SW12,1*%
%TO.N,Net-(D12-Pad2)*%
X93040000Y-42288750D03*
%TD*%
%TO.P,SW16,2*%
%TO.N,col_4*%
X98240000Y-44828750D03*
%TO.P,SW16,1*%
%TO.N,Net-(D16-Pad2)*%
X112090000Y-42288750D03*
%TD*%
%TO.P,SW19,2*%
%TO.N,col_5*%
X117290000Y-25778750D03*
%TO.P,SW19,1*%
%TO.N,Net-(D19-Pad2)*%
X131140000Y-23238750D03*
%TD*%
%TO.P,SW20,2*%
%TO.N,col_5*%
X117290000Y-44828750D03*
%TO.P,SW20,1*%
%TO.N,Net-(D20-Pad2)*%
X131140000Y-42288750D03*
%TD*%
%TO.P,SW21,2*%
%TO.N,col_5*%
X117290000Y-63878750D03*
%TO.P,SW21,1*%
%TO.N,Net-(D21-Pad2)*%
X131140000Y-61338750D03*
%TD*%
D11*
%TO.P,SW37,1*%
%TO.N,GND*%
X23725000Y-56893750D03*
%TO.P,SW37,2*%
%TO.N,Net-(SW37-Pad2)*%
X29125000Y-56893750D03*
%TD*%
D12*
%TO.P,D36,2*%
%TO.N,Net-(D36-Pad2)*%
X208987500Y-68737500D03*
%TO.P,D36,1*%
%TO.N,row_2*%
X208987500Y-72037500D03*
%TD*%
%TO.P,D35,2*%
%TO.N,Net-(D35-Pad2)*%
X208987500Y-49687500D03*
%TO.P,D35,1*%
%TO.N,row_1*%
X208987500Y-52987500D03*
%TD*%
%TO.P,D34,2*%
%TO.N,Net-(D34-Pad2)*%
X208987500Y-30637500D03*
%TO.P,D34,1*%
%TO.N,row_0*%
X208987500Y-33937500D03*
%TD*%
%TO.P,D33,2*%
%TO.N,Net-(D33-Pad2)*%
X190731250Y-68737500D03*
%TO.P,D33,1*%
%TO.N,row_2*%
X190731250Y-72037500D03*
%TD*%
%TO.P,D32,2*%
%TO.N,Net-(D32-Pad2)*%
X190731250Y-49687500D03*
%TO.P,D32,1*%
%TO.N,row_1*%
X190731250Y-52987500D03*
%TD*%
%TO.P,D31,2*%
%TO.N,Net-(D31-Pad2)*%
X190731250Y-30637500D03*
%TO.P,D31,1*%
%TO.N,row_0*%
X190731250Y-33937500D03*
%TD*%
%TO.P,D30,2*%
%TO.N,Net-(D30-Pad2)*%
X171681250Y-87787500D03*
%TO.P,D30,1*%
%TO.N,row_3*%
X171681250Y-91087500D03*
%TD*%
%TO.P,D29,2*%
%TO.N,Net-(D29-Pad2)*%
X171681250Y-68737500D03*
%TO.P,D29,1*%
%TO.N,row_2*%
X171681250Y-72037500D03*
%TD*%
%TO.P,D28,2*%
%TO.N,Net-(D28-Pad2)*%
X171681250Y-49687500D03*
%TO.P,D28,1*%
%TO.N,row_1*%
X171681250Y-52987500D03*
%TD*%
%TO.P,D27,2*%
%TO.N,Net-(D27-Pad2)*%
X171681250Y-30637500D03*
%TO.P,D27,1*%
%TO.N,row_0*%
X171681250Y-33937500D03*
%TD*%
%TO.P,D26,2*%
%TO.N,Net-(D26-Pad2)*%
X152631250Y-87787500D03*
%TO.P,D26,1*%
%TO.N,row_3*%
X152631250Y-91087500D03*
%TD*%
%TO.P,D25,2*%
%TO.N,Net-(D25-Pad2)*%
X152631250Y-68737500D03*
%TO.P,D25,1*%
%TO.N,row_2*%
X152631250Y-72037500D03*
%TD*%
%TO.P,D24,2*%
%TO.N,Net-(D24-Pad2)*%
X152631250Y-49687500D03*
%TO.P,D24,1*%
%TO.N,row_1*%
X152631250Y-52987500D03*
%TD*%
%TO.P,D23,2*%
%TO.N,Net-(D23-Pad2)*%
X152631250Y-30637500D03*
%TO.P,D23,1*%
%TO.N,row_0*%
X152631250Y-33937500D03*
%TD*%
%TO.P,D22,2*%
%TO.N,Net-(D22-Pad2)*%
X133581250Y-87787500D03*
%TO.P,D22,1*%
%TO.N,row_3*%
X133581250Y-91087500D03*
%TD*%
%TO.P,D21,2*%
%TO.N,Net-(D21-Pad2)*%
X133581250Y-68737500D03*
%TO.P,D21,1*%
%TO.N,row_2*%
X133581250Y-72037500D03*
%TD*%
%TO.P,D20,2*%
%TO.N,Net-(D20-Pad2)*%
X133581250Y-49687500D03*
%TO.P,D20,1*%
%TO.N,row_1*%
X133581250Y-52987500D03*
%TD*%
%TO.P,D19,2*%
%TO.N,Net-(D19-Pad2)*%
X133581250Y-30637500D03*
%TO.P,D19,1*%
%TO.N,row_0*%
X133581250Y-33937500D03*
%TD*%
%TO.P,D18,2*%
%TO.N,Net-(D18-Pad2)*%
X114531250Y-87787500D03*
%TO.P,D18,1*%
%TO.N,row_3*%
X114531250Y-91087500D03*
%TD*%
%TO.P,D17,2*%
%TO.N,Net-(D17-Pad2)*%
X114531250Y-68737500D03*
%TO.P,D17,1*%
%TO.N,row_2*%
X114531250Y-72037500D03*
%TD*%
%TO.P,D16,2*%
%TO.N,Net-(D16-Pad2)*%
X114531250Y-49687500D03*
%TO.P,D16,1*%
%TO.N,row_1*%
X114531250Y-52987500D03*
%TD*%
%TO.P,D15,2*%
%TO.N,Net-(D15-Pad2)*%
X113737500Y-30637500D03*
%TO.P,D15,1*%
%TO.N,row_0*%
X113737500Y-33937500D03*
%TD*%
%TO.P,D14,2*%
%TO.N,Net-(D14-Pad2)*%
X95481250Y-87787500D03*
%TO.P,D14,1*%
%TO.N,row_3*%
X95481250Y-91087500D03*
%TD*%
%TO.P,D13,2*%
%TO.N,Net-(D13-Pad2)*%
X95481250Y-68737500D03*
%TO.P,D13,1*%
%TO.N,row_2*%
X95481250Y-72037500D03*
%TD*%
%TO.P,D12,2*%
%TO.N,Net-(D12-Pad2)*%
X95481250Y-49687500D03*
%TO.P,D12,1*%
%TO.N,row_1*%
X95481250Y-52987500D03*
%TD*%
%TO.P,D11,2*%
%TO.N,Net-(D11-Pad2)*%
X95481250Y-30637500D03*
%TO.P,D11,1*%
%TO.N,row_0*%
X95481250Y-33937500D03*
%TD*%
%TO.P,D10,2*%
%TO.N,Net-(D10-Pad2)*%
X76431250Y-87787500D03*
%TO.P,D10,1*%
%TO.N,row_3*%
X76431250Y-91087500D03*
%TD*%
%TO.P,D9,2*%
%TO.N,Net-(D9-Pad2)*%
X76431250Y-68737500D03*
%TO.P,D9,1*%
%TO.N,row_2*%
X76431250Y-72037500D03*
%TD*%
%TO.P,D8,2*%
%TO.N,Net-(D8-Pad2)*%
X76431250Y-49687500D03*
%TO.P,D8,1*%
%TO.N,row_1*%
X76431250Y-52987500D03*
%TD*%
%TO.P,D7,2*%
%TO.N,Net-(D7-Pad2)*%
X76431250Y-30637500D03*
%TO.P,D7,1*%
%TO.N,row_0*%
X76431250Y-33937500D03*
%TD*%
%TO.P,D6,2*%
%TO.N,Net-(D6-Pad2)*%
X57381250Y-68737500D03*
%TO.P,D6,1*%
%TO.N,row_2*%
X57381250Y-72037500D03*
%TD*%
D13*
%TO.P,D5,2*%
%TO.N,Net-(D5-Pad2)*%
X46331250Y-56893750D03*
%TO.P,D5,1*%
%TO.N,row_1*%
X43031250Y-56893750D03*
%TD*%
D12*
%TO.P,D4,2*%
%TO.N,Net-(D4-Pad2)*%
X57381250Y-30637500D03*
%TO.P,D4,1*%
%TO.N,row_0*%
X57381250Y-33937500D03*
%TD*%
%TO.P,D3,2*%
%TO.N,Net-(D3-Pad2)*%
X38331250Y-68737500D03*
%TO.P,D3,1*%
%TO.N,row_2*%
X38331250Y-72037500D03*
%TD*%
D13*
%TO.P,D2,2*%
%TO.N,Net-(D2-Pad2)*%
X31918750Y-56893750D03*
%TO.P,D2,1*%
%TO.N,row_1*%
X35218750Y-56893750D03*
%TD*%
D12*
%TO.P,D1,2*%
%TO.N,Net-(D1-Pad2)*%
X38331250Y-30637500D03*
%TO.P,D1,1*%
%TO.N,row_0*%
X38331250Y-33937500D03*
%TD*%
D14*
%TO.P,U1,24*%
%TO.N,Net-(U1-Pad24)*%
X25948750Y-37367500D03*
%TO.P,U1,12*%
%TO.N,col_8*%
X53888750Y-52607500D03*
%TO.P,U1,23*%
%TO.N,GND*%
X28488750Y-37367500D03*
%TO.P,U1,22*%
%TO.N,Net-(SW37-Pad2)*%
X31028750Y-37367500D03*
%TO.P,U1,21*%
%TO.N,VCC*%
X33568750Y-37367500D03*
%TO.P,U1,20*%
%TO.N,col_0*%
X36108750Y-37367500D03*
%TO.P,U1,19*%
%TO.N,col_1*%
X38648750Y-37367500D03*
%TO.P,U1,18*%
%TO.N,col_2*%
X41188750Y-37367500D03*
%TO.P,U1,17*%
%TO.N,col_3*%
X43728750Y-37367500D03*
%TO.P,U1,16*%
%TO.N,col_4*%
X46268750Y-37367500D03*
%TO.P,U1,15*%
%TO.N,col_5*%
X48808750Y-37367500D03*
%TO.P,U1,14*%
%TO.N,col_6*%
X51348750Y-37367500D03*
%TO.P,U1,13*%
%TO.N,col_7*%
X53888750Y-37367500D03*
%TO.P,U1,11*%
%TO.N,col_9*%
X51348750Y-52607500D03*
%TO.P,U1,10*%
%TO.N,row_0*%
X48808750Y-52607500D03*
%TO.P,U1,9*%
%TO.N,row_1*%
X46268750Y-52607500D03*
%TO.P,U1,8*%
%TO.N,row_2*%
X43728750Y-52607500D03*
%TO.P,U1,7*%
%TO.N,row_3*%
X41188750Y-52607500D03*
%TO.P,U1,6*%
%TO.N,Net-(U1-Pad6)*%
X38648750Y-52607500D03*
%TO.P,U1,5*%
%TO.N,Net-(U1-Pad5)*%
X36108750Y-52607500D03*
%TO.P,U1,4*%
%TO.N,GND*%
X33568750Y-52607500D03*
%TO.P,U1,3*%
X31028750Y-52607500D03*
%TO.P,U1,2*%
%TO.N,Net-(U1-Pad2)*%
X28488750Y-52607500D03*
D15*
%TO.P,U1,1*%
%TO.N,Net-(U1-Pad1)*%
X25948750Y-52607500D03*
%TD*%
D10*
%TO.P,SW10,2*%
%TO.N,col_2*%
X60140000Y-82928750D03*
%TO.P,SW10,1*%
%TO.N,Net-(D10-Pad2)*%
X73990000Y-80388750D03*
%TD*%
%TO.P,SW9,2*%
%TO.N,col_2*%
X60140000Y-63878750D03*
%TO.P,SW9,1*%
%TO.N,Net-(D9-Pad2)*%
X73990000Y-61338750D03*
%TD*%
%TO.P,SW8,2*%
%TO.N,col_2*%
X60140000Y-44828750D03*
%TO.P,SW8,1*%
%TO.N,Net-(D8-Pad2)*%
X73990000Y-42288750D03*
%TD*%
%TO.P,SW7,2*%
%TO.N,col_2*%
X60140000Y-25778750D03*
%TO.P,SW7,1*%
%TO.N,Net-(D7-Pad2)*%
X73990000Y-23238750D03*
%TD*%
%TO.P,SW6,2*%
%TO.N,col_1*%
X41090000Y-63878750D03*
%TO.P,SW6,1*%
%TO.N,Net-(D6-Pad2)*%
X54940000Y-61338750D03*
%TD*%
%TO.P,SW5,2*%
%TO.N,col_1*%
X41090000Y-44828750D03*
%TO.P,SW5,1*%
%TO.N,Net-(D5-Pad2)*%
X54940000Y-42288750D03*
%TD*%
%TO.P,SW4,2*%
%TO.N,col_1*%
X41090000Y-25778750D03*
%TO.P,SW4,1*%
%TO.N,Net-(D4-Pad2)*%
X54940000Y-23238750D03*
%TD*%
%TO.P,SW3,2*%
%TO.N,col_0*%
X22040000Y-63878750D03*
%TO.P,SW3,1*%
%TO.N,Net-(D3-Pad2)*%
X35890000Y-61338750D03*
%TD*%
%TO.P,SW2,2*%
%TO.N,col_0*%
X22040000Y-44828750D03*
%TO.P,SW2,1*%
%TO.N,Net-(D2-Pad2)*%
X35890000Y-42288750D03*
%TD*%
%TO.P,SW1,2*%
%TO.N,col_0*%
X22040000Y-25778750D03*
%TO.P,SW1,1*%
%TO.N,Net-(D1-Pad2)*%
X35890000Y-23238750D03*
%TD*%
D16*
%TO.N,row_0*%
X57381250Y-35462500D03*
X38331250Y-35462500D03*
X113737500Y-35462500D03*
X208987500Y-35462500D03*
X76431250Y-35462500D03*
X190731250Y-35462500D03*
X133581250Y-35462500D03*
X95481250Y-35462500D03*
X152631250Y-35462500D03*
X171681250Y-35462500D03*
%TO.N,row_1*%
X39918750Y-59275000D03*
X41506250Y-59275000D03*
X171681250Y-51337500D03*
X114531250Y-51337500D03*
X190731250Y-51337500D03*
X133581250Y-51337500D03*
X95481250Y-51337500D03*
X208987500Y-51337500D03*
X76431250Y-51337500D03*
X152631250Y-51337500D03*
%TO.N,row_2*%
X57381250Y-70387500D03*
X38331250Y-70387500D03*
X208987500Y-70387500D03*
X76431250Y-70387500D03*
X133581250Y-70387500D03*
X190731250Y-70387500D03*
X152631250Y-70387500D03*
X114531250Y-70387500D03*
X171681250Y-70387500D03*
X95481250Y-70387500D03*
%TO.N,row_3*%
X41506250Y-56100000D03*
X39918750Y-60275003D03*
%TO.N,col_3*%
X59415000Y-42978748D03*
X61350000Y-42978748D03*
%TO.N,col_4*%
X60865000Y-40225000D03*
X51028938Y-40194933D03*
X56815002Y-41156253D03*
X59415000Y-41431256D03*
X78465000Y-40050009D03*
X79915000Y-40050009D03*
%TO.N,col_5*%
X60865000Y-39224997D03*
X59415000Y-40431253D03*
X78465000Y-39050006D03*
X79915000Y-39050006D03*
X98965000Y-39431250D03*
X97515000Y-39431250D03*
%TO.N,col_6*%
X60865000Y-38224994D03*
X59415000Y-39431250D03*
X78465000Y-38050003D03*
X118015000Y-38637500D03*
X116565000Y-38637500D03*
X97515000Y-38431247D03*
X98965000Y-38431247D03*
X79915000Y-38050003D03*
%TO.N,col_7*%
X60865000Y-37224991D03*
X59415000Y-36256250D03*
X79915000Y-37050000D03*
X98965000Y-37431244D03*
X118015000Y-37637497D03*
X116565000Y-37637497D03*
X135615000Y-37843750D03*
X97515000Y-37431244D03*
X78465000Y-37050000D03*
X137065000Y-37843750D03*
%TO.N,col_8*%
X59415000Y-54512500D03*
X60865000Y-54512500D03*
X154665000Y-54512500D03*
X79915000Y-54512500D03*
X78465000Y-54512500D03*
X118015000Y-54512500D03*
X135615000Y-54512500D03*
X116565000Y-54512500D03*
X137065000Y-54512500D03*
X97515000Y-54512500D03*
X98965000Y-54512500D03*
X154665000Y-54512500D03*
X156115000Y-54512500D03*
%TO.N,col_9*%
X59415000Y-55512503D03*
X60865000Y-55512503D03*
X156115000Y-55512503D03*
X135615000Y-55512503D03*
X98965000Y-55512503D03*
X173715000Y-55306250D03*
X154665000Y-55512503D03*
X137065000Y-55512503D03*
X78465000Y-55512503D03*
X97515000Y-55512503D03*
X79915000Y-55512503D03*
X116565000Y-55512503D03*
X175165000Y-55306250D03*
X118015000Y-55512503D03*
%TO.N,GND*%
X26425000Y-56893750D03*
%TO.N,Net-(SW37-Pad2)*%
X30351145Y-41188749D03*
X30393750Y-39431250D03*
%TO.N,Net-(D5-Pad2)*%
X57381250Y-42606250D03*
X57381250Y-42606250D03*
X50327500Y-50543750D03*
X48650000Y-50543750D03*
%TO.N,Net-(D8-Pad2)*%
X74050000Y-45781250D03*
X74050000Y-44193750D03*
%TD*%
D17*
%TO.N,row_0*%
X57381250Y-33937500D02*
X57381250Y-35462500D01*
X38331250Y-33937500D02*
X38331250Y-35462500D01*
X208987500Y-33937500D02*
X208987500Y-35462500D01*
X76431250Y-33937500D02*
X76431250Y-35462500D01*
X95481250Y-33937500D02*
X95481250Y-35462500D01*
X113737500Y-33937500D02*
X113737500Y-35462500D01*
X133581250Y-33937500D02*
X133581250Y-35462500D01*
X152631250Y-33937500D02*
X152631250Y-35462500D01*
X171681250Y-33937500D02*
X171681250Y-35462500D01*
X190731250Y-33937500D02*
X190731250Y-35462500D01*
%TO.N,row_1*%
X171681250Y-52987500D02*
X171681250Y-51337500D01*
X190731250Y-52987500D02*
X190731250Y-51337500D01*
X152631250Y-52987500D02*
X152631250Y-51337500D01*
X133581250Y-52987500D02*
X133581250Y-51337500D01*
X114531250Y-52987500D02*
X114531250Y-51337500D01*
X95481250Y-52987500D02*
X95481250Y-51337500D01*
X76431250Y-52987500D02*
X76431250Y-51337500D01*
X208987500Y-52987500D02*
X208987500Y-51337500D01*
X43031250Y-56638750D02*
X43031250Y-56893750D01*
X47062500Y-52607500D02*
X43031250Y-56638750D01*
X38393750Y-59275000D02*
X39918750Y-59275000D01*
X36012500Y-56893750D02*
X38393750Y-59275000D01*
X41506250Y-58418750D02*
X43031250Y-56893750D01*
X41506250Y-59275000D02*
X41506250Y-58418750D01*
X36012500Y-56893750D02*
X35218750Y-56893750D01*
%TO.N,row_2*%
X208987500Y-72037500D02*
X208987500Y-70387500D01*
X190731250Y-70387500D02*
X190731250Y-72037500D01*
X171681250Y-70387500D02*
X171681250Y-72037500D01*
X152631250Y-70387500D02*
X152631250Y-72037500D01*
X133581250Y-70387500D02*
X133581250Y-72037500D01*
X114531250Y-70387500D02*
X114531250Y-72037500D01*
X95481250Y-70387500D02*
X95481250Y-72037500D01*
X76431250Y-70387500D02*
X76431250Y-72037500D01*
X57381250Y-70387500D02*
X57381250Y-72037500D01*
X38331250Y-70387500D02*
X38331250Y-72037500D01*
%TO.N,row_3*%
X41982500Y-52607500D02*
X41982500Y-52448750D01*
X171681250Y-94200000D02*
X171681250Y-91087500D01*
X136693750Y-94200000D02*
X133581250Y-91087500D01*
X152631250Y-94200000D02*
X136693750Y-94200000D01*
X114593750Y-91087500D02*
X117706250Y-94200000D01*
X114593750Y-91087500D02*
X114531250Y-91087500D01*
X95543750Y-91087500D02*
X98656250Y-94200000D01*
X95481250Y-91087500D02*
X95543750Y-91087500D01*
X76431250Y-91087500D02*
X76493750Y-91087500D01*
X76493750Y-91087500D02*
X79606250Y-94200000D01*
X79606250Y-94200000D02*
X98656250Y-94200000D01*
X152693750Y-91087500D02*
X155806250Y-94200000D01*
X152631250Y-91087500D02*
X152693750Y-91087500D01*
X155806250Y-94200000D02*
X171681250Y-94200000D01*
X98656250Y-94200000D02*
X155806250Y-94200000D01*
X68301248Y-94200000D02*
X79606250Y-94200000D01*
X39125000Y-65023752D02*
X68301248Y-94200000D01*
X39918750Y-60275003D02*
X39125000Y-61068753D01*
X39125000Y-61068753D02*
X39125000Y-65023752D01*
X41506250Y-52882541D02*
X41231209Y-52607500D01*
X41506250Y-56100000D02*
X41506250Y-52882541D01*
%TO.N,col_0*%
X33806251Y-40463749D02*
X26405001Y-40463749D01*
X26405001Y-40463749D02*
X22040000Y-44828750D01*
X22040000Y-44828750D02*
X22040000Y-25778750D01*
X22040000Y-44828750D02*
X22040000Y-63878750D01*
X33806251Y-39669999D02*
X36108750Y-37367500D01*
X33806251Y-40463749D02*
X33806251Y-39669999D01*
%TO.N,col_1*%
X41090000Y-31766248D02*
X41090000Y-25778750D01*
X39442500Y-33413748D02*
X41090000Y-31766248D01*
X40781199Y-63569949D02*
X41090000Y-63878750D01*
X39987449Y-45931301D02*
X41090000Y-44828750D01*
X40781199Y-54443801D02*
X39987449Y-53650051D01*
X39987449Y-53650051D02*
X39987449Y-45931301D01*
X40781199Y-54443801D02*
X40781199Y-63569949D01*
X39442500Y-36573750D02*
X38648750Y-37367500D01*
X39442500Y-33413748D02*
X39442500Y-36573750D01*
X38648750Y-42387500D02*
X41090000Y-44828750D01*
X38648750Y-37367500D02*
X38648750Y-42387500D01*
%TO.N,col_2*%
X49443750Y-44828750D02*
X60140000Y-44828750D01*
X60140000Y-44828750D02*
X60140000Y-25778750D01*
X60140000Y-44828750D02*
X60140000Y-63878750D01*
X60140000Y-63878750D02*
X60140000Y-82928750D01*
X48650000Y-44828750D02*
X49443750Y-44828750D01*
X41188750Y-37367500D02*
X48650000Y-44828750D01*
%TO.N,col_3*%
X50313999Y-44113751D02*
X57744997Y-44113751D01*
X57744997Y-44113751D02*
X58880000Y-42978748D01*
X45723801Y-39523553D02*
X50313999Y-44113751D01*
X58880000Y-42978748D02*
X59415000Y-42978748D01*
X68228996Y-42978748D02*
X61350000Y-42978748D01*
X70168999Y-44918751D02*
X68228996Y-42978748D01*
X79099999Y-44918751D02*
X70168999Y-44918751D01*
X79190000Y-44828750D02*
X79099999Y-44918751D01*
X79190000Y-44828750D02*
X79190000Y-25778750D01*
X79190000Y-44828750D02*
X79190000Y-63878750D01*
X79190000Y-63878750D02*
X79190000Y-82928750D01*
X45723801Y-39362551D02*
X45723801Y-39523553D01*
X43728750Y-37367500D02*
X45723801Y-39362551D01*
%TO.N,col_4*%
X98240000Y-44828750D02*
X98240000Y-25778750D01*
X98240000Y-82928750D02*
X98240000Y-63878750D01*
X98240000Y-44828750D02*
X98240000Y-63878750D01*
X78290009Y-40225000D02*
X78465000Y-40050009D01*
X60865000Y-40225000D02*
X78290009Y-40225000D01*
X80314999Y-40450008D02*
X94311260Y-40450008D01*
X79915000Y-40050009D02*
X80314999Y-40450008D01*
X98240000Y-44378748D02*
X98240000Y-44828750D01*
X94311260Y-40450008D02*
X98240000Y-44378748D01*
X50998871Y-40225000D02*
X51028938Y-40194933D01*
X59139997Y-41156253D02*
X59415000Y-41431256D01*
X56815002Y-41156253D02*
X59139997Y-41156253D01*
X49096183Y-40194933D02*
X51028938Y-40194933D01*
X46268750Y-37367500D02*
X49096183Y-40194933D01*
%TO.N,col_5*%
X117290000Y-63878750D02*
X117290000Y-82928750D01*
X97308747Y-39224997D02*
X97515000Y-39431250D01*
X113392500Y-39431250D02*
X117290000Y-43328750D01*
X117290000Y-43328750D02*
X117290000Y-44828750D01*
X98965000Y-39431250D02*
X113392500Y-39431250D01*
X117290000Y-44828750D02*
X117290000Y-25778750D01*
X117290000Y-44828750D02*
X117290000Y-63878750D01*
X78290009Y-39224997D02*
X78465000Y-39050006D01*
X60865000Y-39224997D02*
X78290009Y-39224997D01*
X97133756Y-39050006D02*
X97515000Y-39431250D01*
X79915000Y-39050006D02*
X97133756Y-39050006D01*
X52666253Y-40431253D02*
X59415000Y-40431253D01*
X51459997Y-39224997D02*
X52666253Y-40431253D01*
X50666247Y-39224997D02*
X51459997Y-39224997D01*
X48808750Y-37367500D02*
X50666247Y-39224997D01*
%TO.N,col_6*%
X136340000Y-44828750D02*
X136340000Y-63878750D01*
X136340000Y-63878750D02*
X136340000Y-82928750D01*
X97308747Y-38224994D02*
X97515000Y-38431247D01*
X116358747Y-38431247D02*
X116565000Y-38637500D01*
X98965000Y-38431247D02*
X116358747Y-38431247D01*
X136340000Y-44378748D02*
X136340000Y-44828750D01*
X130598752Y-38637500D02*
X136340000Y-44378748D01*
X118015000Y-38637500D02*
X130598752Y-38637500D01*
X136340000Y-44828750D02*
X136340000Y-25778750D01*
X78290009Y-38224994D02*
X78465000Y-38050003D01*
X60865000Y-38224994D02*
X78290009Y-38224994D01*
X97133756Y-38050003D02*
X97515000Y-38431247D01*
X79915000Y-38050003D02*
X97133756Y-38050003D01*
X54206250Y-39431250D02*
X59415000Y-39431250D01*
X53412500Y-39431250D02*
X54206250Y-39431250D01*
X51348750Y-37367500D02*
X53412500Y-39431250D01*
X53343801Y-38568801D02*
X54206250Y-39431250D01*
X52142500Y-37367500D02*
X53343801Y-38568801D01*
%TO.N,col_7*%
X97308747Y-37224991D02*
X97515000Y-37431244D01*
X116358747Y-37431244D02*
X116565000Y-37637497D01*
X98965000Y-37431244D02*
X116358747Y-37431244D01*
X135408747Y-37637497D02*
X135615000Y-37843750D01*
X118015000Y-37637497D02*
X135408747Y-37637497D01*
X148855002Y-37843750D02*
X155390000Y-44378748D01*
X155390000Y-44378748D02*
X155390000Y-44828750D01*
X137065000Y-37843750D02*
X148855002Y-37843750D01*
X155390000Y-44828750D02*
X155390000Y-25778750D01*
X155390000Y-44828750D02*
X155390000Y-63878750D01*
X155390000Y-63878750D02*
X155390000Y-82928750D01*
X78290009Y-37224991D02*
X78465000Y-37050000D01*
X60865000Y-37224991D02*
X78290009Y-37224991D01*
X96592492Y-37431244D02*
X97515000Y-37431244D01*
X96211248Y-37050000D02*
X96592492Y-37431244D01*
X79915000Y-37050000D02*
X96211248Y-37050000D01*
X55000000Y-36256250D02*
X59415000Y-36256250D01*
X53888750Y-37367500D02*
X55000000Y-36256250D01*
%TO.N,col_8*%
X57510000Y-52607500D02*
X59415000Y-54512500D01*
X54682500Y-52607500D02*
X57510000Y-52607500D01*
X118015000Y-54512500D02*
X135615000Y-54512500D01*
X137065000Y-54512500D02*
X154665000Y-54512500D01*
X174440000Y-51863752D02*
X174440000Y-44828750D01*
X171791252Y-54512500D02*
X174440000Y-51863752D01*
X156115000Y-54512500D02*
X171791252Y-54512500D01*
X174440000Y-44828750D02*
X174440000Y-63878750D01*
X174440000Y-44828750D02*
X174440000Y-25778750D01*
X54682500Y-52607500D02*
X54523750Y-52607500D01*
X60865000Y-54512500D02*
X78465000Y-54512500D01*
X79915000Y-54512500D02*
X97515000Y-54512500D01*
X98965000Y-54512500D02*
X116565000Y-54512500D01*
%TO.N,col_9*%
X55047503Y-55512503D02*
X59415000Y-55512503D01*
X52142500Y-52607500D02*
X55047503Y-55512503D01*
X118015000Y-55512503D02*
X135615000Y-55512503D01*
X137065000Y-55512503D02*
X154665000Y-55512503D01*
X173508747Y-55512503D02*
X173715000Y-55306250D01*
X156115000Y-55512503D02*
X173508747Y-55512503D01*
X193490000Y-51863752D02*
X193490000Y-44828750D01*
X190047502Y-55306250D02*
X193490000Y-51863752D01*
X175165000Y-55306250D02*
X190047502Y-55306250D01*
X193490000Y-44828750D02*
X193490000Y-25778750D01*
X193490000Y-63878750D02*
X193490000Y-44828750D01*
X60865000Y-55512503D02*
X78465000Y-55512503D01*
X79915000Y-55512503D02*
X97515000Y-55512503D01*
X98965000Y-55512503D02*
X116565000Y-55512503D01*
%TO.N,GND*%
X26425000Y-56893750D02*
X23725000Y-56893750D01*
%TO.N,Net-(SW37-Pad2)*%
X30314999Y-43164751D02*
X30314999Y-41224895D01*
X30314999Y-41224895D02*
X30351145Y-41188749D01*
X31918901Y-44768653D02*
X30314999Y-43164751D01*
X31918901Y-48481823D02*
X31918901Y-44768653D01*
X29690051Y-53015051D02*
X29690051Y-50710673D01*
X30712500Y-54037500D02*
X29690051Y-53015051D01*
X29690051Y-50710673D02*
X31918901Y-48481823D01*
X30712500Y-56893750D02*
X30712500Y-54037500D01*
X30393750Y-38002500D02*
X31028750Y-37367500D01*
X30393750Y-39431250D02*
X30393750Y-38002500D01*
X30712500Y-56893750D02*
X29125000Y-56893750D01*
%TO.N,Net-(D1-Pad2)*%
X35890000Y-23238750D02*
X36426250Y-23238750D01*
X35890000Y-28196250D02*
X38331250Y-30637500D01*
X35890000Y-23238750D02*
X35890000Y-28196250D01*
%TO.N,Net-(D2-Pad2)*%
X35540824Y-51397500D02*
X35890000Y-51397500D01*
X34907449Y-52030875D02*
X35540824Y-51397500D01*
X34907449Y-55398801D02*
X34907449Y-52030875D01*
X33412500Y-56893750D02*
X34907449Y-55398801D01*
X32712500Y-56893750D02*
X33412500Y-56893750D01*
X35890000Y-42288750D02*
X35890000Y-51397500D01*
X32712500Y-56893750D02*
X31918750Y-56893750D01*
%TO.N,Net-(D3-Pad2)*%
X35890000Y-66296250D02*
X38331250Y-68737500D01*
X35890000Y-61338750D02*
X35890000Y-66296250D01*
%TO.N,Net-(D4-Pad2)*%
X54940000Y-28196250D02*
X57381250Y-30637500D01*
X54940000Y-23238750D02*
X54940000Y-28196250D01*
%TO.N,Net-(D5-Pad2)*%
X57063750Y-42288750D02*
X57381250Y-42606250D01*
X54940000Y-42288750D02*
X57063750Y-42288750D01*
X50327500Y-50543750D02*
X48650000Y-50543750D01*
X47512509Y-51681241D02*
X48650000Y-50543750D01*
X47512509Y-53543862D02*
X47512509Y-51681241D01*
X48401199Y-54432552D02*
X47512509Y-53543862D01*
X48401199Y-54823801D02*
X46331250Y-56893750D01*
X48401199Y-54432552D02*
X48401199Y-54823801D01*
%TO.N,Net-(D6-Pad2)*%
X54940000Y-66296250D02*
X57381250Y-68737500D01*
X54940000Y-61338750D02*
X54940000Y-66296250D01*
%TO.N,Net-(D7-Pad2)*%
X73990000Y-28196250D02*
X76431250Y-30637500D01*
X73990000Y-23238750D02*
X73990000Y-28196250D01*
%TO.N,Net-(D8-Pad2)*%
X77441252Y-49687500D02*
X76431250Y-49687500D01*
X73990000Y-44133750D02*
X74050000Y-44193750D01*
X73990000Y-42288750D02*
X73990000Y-44133750D01*
X74050000Y-47306250D02*
X76431250Y-49687500D01*
X74050000Y-45781250D02*
X74050000Y-47306250D01*
%TO.N,Net-(D9-Pad2)*%
X73990000Y-66296250D02*
X76431250Y-68737500D01*
X73990000Y-61338750D02*
X73990000Y-66296250D01*
%TO.N,Net-(D10-Pad2)*%
X73990000Y-85346250D02*
X76431250Y-87787500D01*
X73990000Y-80388750D02*
X73990000Y-85346250D01*
%TO.N,Net-(D11-Pad2)*%
X93040000Y-28196250D02*
X95481250Y-30637500D01*
X93040000Y-23238750D02*
X93040000Y-28196250D01*
%TO.N,Net-(D12-Pad2)*%
X93040000Y-47246250D02*
X95481250Y-49687500D01*
X93040000Y-42288750D02*
X93040000Y-47246250D01*
%TO.N,Net-(D13-Pad2)*%
X93040000Y-66296250D02*
X95481250Y-68737500D01*
X93040000Y-61338750D02*
X93040000Y-66296250D01*
%TO.N,Net-(D14-Pad2)*%
X93040000Y-85346250D02*
X95481250Y-87787500D01*
X93040000Y-80388750D02*
X93040000Y-85346250D01*
%TO.N,Net-(D15-Pad2)*%
X112090000Y-28990000D02*
X113737500Y-30637500D01*
X112090000Y-23238750D02*
X112090000Y-28990000D01*
%TO.N,Net-(D16-Pad2)*%
X112090000Y-47246250D02*
X114531250Y-49687500D01*
X112090000Y-42288750D02*
X112090000Y-47246250D01*
%TO.N,Net-(D17-Pad2)*%
X112090000Y-66296250D02*
X114531250Y-68737500D01*
X112090000Y-61338750D02*
X112090000Y-66296250D01*
%TO.N,Net-(D18-Pad2)*%
X112090000Y-85346250D02*
X114531250Y-87787500D01*
X112090000Y-80388750D02*
X112090000Y-85346250D01*
%TO.N,Net-(D19-Pad2)*%
X131140000Y-28196250D02*
X133581250Y-30637500D01*
X131140000Y-23238750D02*
X131140000Y-28196250D01*
%TO.N,Net-(D20-Pad2)*%
X131140000Y-47246250D02*
X133581250Y-49687500D01*
X131140000Y-42288750D02*
X131140000Y-47246250D01*
%TO.N,Net-(D21-Pad2)*%
X131140000Y-66296250D02*
X133581250Y-68737500D01*
X131140000Y-61338750D02*
X131140000Y-66296250D01*
%TO.N,Net-(D22-Pad2)*%
X131140000Y-85346250D02*
X133581250Y-87787500D01*
X131140000Y-80388750D02*
X131140000Y-85346250D01*
%TO.N,Net-(D23-Pad2)*%
X150190000Y-28196250D02*
X152631250Y-30637500D01*
X150190000Y-23238750D02*
X150190000Y-28196250D01*
%TO.N,Net-(D24-Pad2)*%
X150190000Y-47246250D02*
X152631250Y-49687500D01*
X150190000Y-42288750D02*
X150190000Y-47246250D01*
%TO.N,Net-(D25-Pad2)*%
X150190000Y-66296250D02*
X152631250Y-68737500D01*
X150190000Y-61338750D02*
X150190000Y-66296250D01*
%TO.N,Net-(D26-Pad2)*%
X150190000Y-85346250D02*
X152631250Y-87787500D01*
X150190000Y-80388750D02*
X150190000Y-85346250D01*
%TO.N,Net-(D27-Pad2)*%
X169240000Y-28196250D02*
X171681250Y-30637500D01*
X169240000Y-23238750D02*
X169240000Y-28196250D01*
%TO.N,Net-(D28-Pad2)*%
X169240000Y-47246250D02*
X171681250Y-49687500D01*
X169240000Y-42288750D02*
X169240000Y-47246250D01*
%TO.N,Net-(D29-Pad2)*%
X169240000Y-66296250D02*
X171681250Y-68737500D01*
X169240000Y-61338750D02*
X169240000Y-66296250D01*
%TO.N,Net-(D30-Pad2)*%
X169240000Y-85346250D02*
X171681250Y-87787500D01*
X169240000Y-80388750D02*
X169240000Y-85346250D01*
%TO.N,Net-(D31-Pad2)*%
X188290000Y-28196250D02*
X190731250Y-30637500D01*
X188290000Y-23238750D02*
X188290000Y-28196250D01*
%TO.N,Net-(D32-Pad2)*%
X188290000Y-47246250D02*
X190731250Y-49687500D01*
X188290000Y-42288750D02*
X188290000Y-47246250D01*
%TO.N,Net-(D33-Pad2)*%
X188290000Y-66296250D02*
X190731250Y-68737500D01*
X188290000Y-61338750D02*
X188290000Y-66296250D01*
%TO.N,Net-(D34-Pad2)*%
X207340000Y-28990000D02*
X208987500Y-30637500D01*
X207340000Y-23238750D02*
X207340000Y-28990000D01*
%TO.N,Net-(D35-Pad2)*%
X207340000Y-48040000D02*
X208987500Y-49687500D01*
X207340000Y-42288750D02*
X207340000Y-48040000D01*
%TO.N,Net-(D36-Pad2)*%
X207340000Y-61338750D02*
X207717500Y-61338750D01*
X207340000Y-67090000D02*
X208987500Y-68737500D01*
X207340000Y-61338750D02*
X207340000Y-67090000D01*
%TD*%
M02*
