%TF.GenerationSoftware,KiCad,Pcbnew,(5.1.12-1-10_14)*%
%TF.CreationDate,2022-02-07T22:24:56-07:00*%
%TF.ProjectId,youwu36,796f7577-7533-4362-9e6b-696361645f70,rev?*%
%TF.SameCoordinates,Original*%
%TF.FileFunction,Soldermask,Top*%
%TF.FilePolarity,Negative*%
%FSLAX46Y46*%
G04 Gerber Fmt 4.6, Leading zero omitted, Abs format (unit mm)*
G04 Created by KiCad (PCBNEW (5.1.12-1-10_14)) date 2022-02-07 22:24:56*
%MOMM*%
%LPD*%
G01*
G04 APERTURE LIST*
%ADD10C,2.600000*%
%ADD11C,2.101800*%
%ADD12C,4.387800*%
%ADD13C,3.400000*%
%ADD14C,2.152600*%
G04 APERTURE END LIST*
D10*
%TO.C,REF\u002A\u002A*%
X191525000Y-56893750D03*
%TD*%
%TO.C,REF\u002A\u002A*%
X172475000Y-75943750D03*
%TD*%
%TO.C,REF\u002A\u002A*%
X172475000Y-37843750D03*
%TD*%
D11*
%TO.C,SW23*%
X138820000Y-28318750D03*
X148980000Y-28318750D03*
D12*
X143900000Y-28318750D03*
D13*
X140090000Y-25778750D03*
X146440000Y-23238750D03*
%TD*%
D11*
%TO.C,SW36*%
X195970000Y-66418750D03*
X206130000Y-66418750D03*
D12*
X201050000Y-66418750D03*
D13*
X197240000Y-63878750D03*
X203590000Y-61338750D03*
%TD*%
D11*
%TO.C,SW35*%
X195970000Y-47368750D03*
X206130000Y-47368750D03*
D12*
X201050000Y-47368750D03*
D13*
X197240000Y-44828750D03*
X203590000Y-42288750D03*
%TD*%
D11*
%TO.C,SW24*%
X138820000Y-47368750D03*
X148980000Y-47368750D03*
D12*
X143900000Y-47368750D03*
D13*
X140090000Y-44828750D03*
X146440000Y-42288750D03*
%TD*%
D11*
%TO.C,SW25*%
X138820000Y-66418750D03*
X148980000Y-66418750D03*
D12*
X143900000Y-66418750D03*
D13*
X140090000Y-63878750D03*
X146440000Y-61338750D03*
%TD*%
D11*
%TO.C,SW26*%
X138820000Y-85468750D03*
X148980000Y-85468750D03*
D12*
X143900000Y-85468750D03*
D13*
X140090000Y-82928750D03*
X146440000Y-80388750D03*
%TD*%
D11*
%TO.C,SW27*%
X157870000Y-28318750D03*
X168030000Y-28318750D03*
D12*
X162950000Y-28318750D03*
D13*
X159140000Y-25778750D03*
X165490000Y-23238750D03*
%TD*%
D11*
%TO.C,SW28*%
X157870000Y-47368750D03*
X168030000Y-47368750D03*
D12*
X162950000Y-47368750D03*
D13*
X159140000Y-44828750D03*
X165490000Y-42288750D03*
%TD*%
D11*
%TO.C,SW29*%
X157870000Y-66418750D03*
X168030000Y-66418750D03*
D12*
X162950000Y-66418750D03*
D13*
X159140000Y-63878750D03*
X165490000Y-61338750D03*
%TD*%
D11*
%TO.C,SW30*%
X157870000Y-85468750D03*
X168030000Y-85468750D03*
D12*
X162950000Y-85468750D03*
D13*
X159140000Y-82928750D03*
X165490000Y-80388750D03*
%TD*%
D11*
%TO.C,SW31*%
X176920000Y-28318750D03*
X187080000Y-28318750D03*
D12*
X182000000Y-28318750D03*
D13*
X178190000Y-25778750D03*
X184540000Y-23238750D03*
%TD*%
D11*
%TO.C,SW32*%
X176920000Y-47368750D03*
X187080000Y-47368750D03*
D12*
X182000000Y-47368750D03*
D13*
X178190000Y-44828750D03*
X184540000Y-42288750D03*
%TD*%
D11*
%TO.C,SW33*%
X176920000Y-66418750D03*
X187080000Y-66418750D03*
D12*
X182000000Y-66418750D03*
D13*
X178190000Y-63878750D03*
X184540000Y-61338750D03*
%TD*%
D11*
%TO.C,SW34*%
X195970000Y-28318750D03*
X206130000Y-28318750D03*
D12*
X201050000Y-28318750D03*
D13*
X197240000Y-25778750D03*
X203590000Y-23238750D03*
%TD*%
D11*
%TO.C,SW22*%
X119770000Y-85468750D03*
X129930000Y-85468750D03*
D12*
X124850000Y-85468750D03*
D13*
X121040000Y-82928750D03*
X127390000Y-80388750D03*
%TD*%
D11*
%TO.C,SW18*%
X100720000Y-85468750D03*
X110880000Y-85468750D03*
D12*
X105800000Y-85468750D03*
D13*
X101990000Y-82928750D03*
X108340000Y-80388750D03*
%TD*%
D11*
%TO.C,SW15*%
X100720000Y-28318750D03*
X110880000Y-28318750D03*
D12*
X105800000Y-28318750D03*
D13*
X101990000Y-25778750D03*
X108340000Y-23238750D03*
%TD*%
D11*
%TO.C,SW13*%
X81670000Y-66418750D03*
X91830000Y-66418750D03*
D12*
X86750000Y-66418750D03*
D13*
X82940000Y-63878750D03*
X89290000Y-61338750D03*
%TD*%
D11*
%TO.C,SW11*%
X81670000Y-28318750D03*
X91830000Y-28318750D03*
D12*
X86750000Y-28318750D03*
D13*
X82940000Y-25778750D03*
X89290000Y-23238750D03*
%TD*%
D11*
%TO.C,SW14*%
X81670000Y-85468750D03*
X91830000Y-85468750D03*
D12*
X86750000Y-85468750D03*
D13*
X82940000Y-82928750D03*
X89290000Y-80388750D03*
%TD*%
D11*
%TO.C,SW17*%
X100720000Y-66418750D03*
X110880000Y-66418750D03*
D12*
X105800000Y-66418750D03*
D13*
X101990000Y-63878750D03*
X108340000Y-61338750D03*
%TD*%
D11*
%TO.C,SW12*%
X81670000Y-47368750D03*
X91830000Y-47368750D03*
D12*
X86750000Y-47368750D03*
D13*
X82940000Y-44828750D03*
X89290000Y-42288750D03*
%TD*%
D11*
%TO.C,SW16*%
X100720000Y-47368750D03*
X110880000Y-47368750D03*
D12*
X105800000Y-47368750D03*
D13*
X101990000Y-44828750D03*
X108340000Y-42288750D03*
%TD*%
D11*
%TO.C,SW19*%
X119770000Y-28318750D03*
X129930000Y-28318750D03*
D12*
X124850000Y-28318750D03*
D13*
X121040000Y-25778750D03*
X127390000Y-23238750D03*
%TD*%
D11*
%TO.C,SW20*%
X119770000Y-47368750D03*
X129930000Y-47368750D03*
D12*
X124850000Y-47368750D03*
D13*
X121040000Y-44828750D03*
X127390000Y-42288750D03*
%TD*%
D11*
%TO.C,SW21*%
X119770000Y-66418750D03*
X129930000Y-66418750D03*
D12*
X124850000Y-66418750D03*
D13*
X121040000Y-63878750D03*
X127390000Y-61338750D03*
%TD*%
D10*
%TO.C,REF\u002A\u002A*%
X39125000Y-56893750D03*
%TD*%
%TO.C,REF\u002A\u002A*%
X58175000Y-37843750D03*
%TD*%
%TO.C,REF\u002A\u002A*%
X58175000Y-75943750D03*
%TD*%
D14*
%TO.C,U1*%
X25948750Y-37367500D03*
X53888750Y-52607500D03*
X28488750Y-37367500D03*
X31028750Y-37367500D03*
X33568750Y-37367500D03*
X36108750Y-37367500D03*
X38648750Y-37367500D03*
X41188750Y-37367500D03*
X43728750Y-37367500D03*
X46268750Y-37367500D03*
X48808750Y-37367500D03*
X51348750Y-37367500D03*
X53888750Y-37367500D03*
X51348750Y-52607500D03*
X48808750Y-52607500D03*
X46268750Y-52607500D03*
X43728750Y-52607500D03*
X41188750Y-52607500D03*
X38648750Y-52607500D03*
X36108750Y-52607500D03*
X33568750Y-52607500D03*
X31028750Y-52607500D03*
X28488750Y-52607500D03*
G36*
G01*
X24872450Y-53483800D02*
X24872450Y-51731200D01*
G75*
G02*
X25072450Y-51531200I200000J0D01*
G01*
X26825050Y-51531200D01*
G75*
G02*
X27025050Y-51731200I0J-200000D01*
G01*
X27025050Y-53483800D01*
G75*
G02*
X26825050Y-53683800I-200000J0D01*
G01*
X25072450Y-53683800D01*
G75*
G02*
X24872450Y-53483800I0J200000D01*
G01*
G37*
%TD*%
D11*
%TO.C,SW10*%
X62620000Y-85468750D03*
X72780000Y-85468750D03*
D12*
X67700000Y-85468750D03*
D13*
X63890000Y-82928750D03*
X70240000Y-80388750D03*
%TD*%
D11*
%TO.C,SW9*%
X62620000Y-66418750D03*
X72780000Y-66418750D03*
D12*
X67700000Y-66418750D03*
D13*
X63890000Y-63878750D03*
X70240000Y-61338750D03*
%TD*%
D11*
%TO.C,SW8*%
X62620000Y-47368750D03*
X72780000Y-47368750D03*
D12*
X67700000Y-47368750D03*
D13*
X63890000Y-44828750D03*
X70240000Y-42288750D03*
%TD*%
D11*
%TO.C,SW7*%
X62620000Y-28318750D03*
X72780000Y-28318750D03*
D12*
X67700000Y-28318750D03*
D13*
X63890000Y-25778750D03*
X70240000Y-23238750D03*
%TD*%
D11*
%TO.C,SW6*%
X43570000Y-66418750D03*
X53730000Y-66418750D03*
D12*
X48650000Y-66418750D03*
D13*
X44840000Y-63878750D03*
X51190000Y-61338750D03*
%TD*%
D11*
%TO.C,SW5*%
X43570000Y-47368750D03*
X53730000Y-47368750D03*
D12*
X48650000Y-47368750D03*
D13*
X44840000Y-44828750D03*
X51190000Y-42288750D03*
%TD*%
D11*
%TO.C,SW4*%
X43570000Y-28318750D03*
X53730000Y-28318750D03*
D12*
X48650000Y-28318750D03*
D13*
X44840000Y-25778750D03*
X51190000Y-23238750D03*
%TD*%
D11*
%TO.C,SW3*%
X24520000Y-66418750D03*
X34680000Y-66418750D03*
D12*
X29600000Y-66418750D03*
D13*
X25790000Y-63878750D03*
X32140000Y-61338750D03*
%TD*%
D11*
%TO.C,SW2*%
X24520000Y-47368750D03*
X34680000Y-47368750D03*
D12*
X29600000Y-47368750D03*
D13*
X25790000Y-44828750D03*
X32140000Y-42288750D03*
%TD*%
D11*
%TO.C,SW1*%
X24520000Y-28318750D03*
X34680000Y-28318750D03*
D12*
X29600000Y-28318750D03*
D13*
X25790000Y-25778750D03*
X32140000Y-23238750D03*
%TD*%
M02*
