%TF.GenerationSoftware,KiCad,Pcbnew,(5.1.12-1-10_14)*%
%TF.CreationDate,2022-02-07T22:24:56-07:00*%
%TF.ProjectId,youwu36,796f7577-7533-4362-9e6b-696361645f70,rev?*%
%TF.SameCoordinates,Original*%
%TF.FileFunction,Legend,Bot*%
%TF.FilePolarity,Positive*%
%FSLAX46Y46*%
G04 Gerber Fmt 4.6, Leading zero omitted, Abs format (unit mm)*
G04 Created by KiCad (PCBNEW (5.1.12-1-10_14)) date 2022-02-07 22:24:56*
%MOMM*%
%LPD*%
G01*
G04 APERTURE LIST*
%ADD10C,0.225000*%
%ADD11C,0.150000*%
%ADD12C,0.120000*%
%ADD13C,0.381000*%
%ADD14C,2.600000*%
%ADD15C,2.101800*%
%ADD16C,4.387800*%
%ADD17C,3.400000*%
%ADD18C,2.152600*%
G04 APERTURE END LIST*
D10*
X182566325Y-76812145D02*
X182268500Y-76764115D01*
X182837330Y-76944790D02*
X182566325Y-76812145D01*
X182935805Y-77016415D02*
X182884535Y-76983850D01*
X182884535Y-76983850D02*
X182837330Y-76944790D01*
X183286565Y-77495725D02*
X183146585Y-77230435D01*
X183302015Y-77555140D02*
X183286565Y-77495725D01*
X177102470Y-80153620D02*
X177176510Y-80131645D01*
X176842055Y-80404270D02*
X177102470Y-80153620D01*
X176775335Y-80759890D02*
X176842055Y-80404270D01*
X176797280Y-80834770D02*
X176775335Y-80759890D01*
X176806250Y-80863240D02*
X176797280Y-80834770D01*
X176972270Y-81104140D02*
X176806250Y-80863240D01*
X176995865Y-81122035D02*
X176972270Y-81104140D01*
X178332935Y-82073381D02*
X176995865Y-81122035D01*
X178235285Y-79815085D02*
X178235285Y-79815085D01*
X178183205Y-79830535D02*
X178235285Y-79815085D01*
X177972440Y-79983535D02*
X178183205Y-79830535D01*
X177848720Y-80213020D02*
X177972440Y-79983535D01*
X177839765Y-80267545D02*
X177848720Y-80213020D01*
X177839765Y-80271625D02*
X177839765Y-80267545D01*
X177810470Y-80304970D02*
X177839765Y-80271625D01*
X177805595Y-80306605D02*
X177810470Y-80304970D01*
X177801515Y-80307415D02*
X177805595Y-80306605D01*
X177758390Y-80296046D02*
X177801515Y-80307415D01*
X177755135Y-80292775D02*
X177758390Y-80296046D01*
X177718520Y-80252080D02*
X177755135Y-80292775D01*
X177489020Y-80127580D02*
X177718520Y-80252080D01*
X177229430Y-80115370D02*
X177489020Y-80127580D01*
X177176510Y-80131645D02*
X177229430Y-80115370D01*
X183146585Y-77230435D02*
X182935805Y-77016415D01*
X180072035Y-81990370D02*
X179436455Y-81779575D01*
X180688895Y-82085575D02*
X180072035Y-81990370D01*
X180893975Y-82085575D02*
X180688895Y-82085575D01*
X181243910Y-82085575D02*
X180893975Y-82085575D01*
X182292890Y-81802375D02*
X181243910Y-82085575D01*
X183435470Y-81032515D02*
X182292890Y-81802375D01*
X184205330Y-79889935D02*
X183435470Y-81032515D01*
X184487720Y-78840955D02*
X184205330Y-79889935D01*
X184487720Y-78491830D02*
X184487720Y-78840955D01*
X182055260Y-78852355D02*
X182137460Y-78852355D01*
X181806245Y-78714805D02*
X182055260Y-78852355D01*
X181668710Y-78465790D02*
X181806245Y-78714805D01*
X181668710Y-78383605D02*
X181668710Y-78465790D01*
X179436455Y-81779575D02*
X179316830Y-81721810D01*
X180544850Y-74898085D02*
X180893975Y-74898085D01*
X179495870Y-75180475D02*
X180544850Y-74898085D01*
X178353291Y-75950336D02*
X179495870Y-75180475D01*
X177583430Y-77092915D02*
X178353291Y-75950336D01*
X177300230Y-78141895D02*
X177583430Y-77092915D01*
X177300230Y-78491830D02*
X177300230Y-78141895D01*
X177300230Y-78683890D02*
X177300230Y-78491830D01*
X177383225Y-79261690D02*
X177300230Y-78683890D01*
X177398705Y-79329220D02*
X177383225Y-79261690D01*
X179766035Y-77477020D02*
X179875100Y-77538055D01*
X179177660Y-77407045D02*
X179766035Y-77477020D01*
X178629155Y-77633275D02*
X179177660Y-77407045D01*
X178540461Y-77721160D02*
X178629155Y-77633275D01*
X182268500Y-76764115D02*
X182207450Y-76768210D01*
X182292890Y-75180475D02*
X183435470Y-75950336D01*
X181243910Y-74898085D02*
X182292890Y-75180475D01*
X180893975Y-74898085D02*
X181243910Y-74898085D01*
X178926200Y-80554810D02*
X178332935Y-82073381D01*
X178944095Y-80499475D02*
X178926200Y-80554810D01*
X178950620Y-80474245D02*
X178944095Y-80499475D01*
X178946540Y-80219545D02*
X178950620Y-80474245D01*
X178938410Y-80195125D02*
X178946540Y-80219545D01*
X178916436Y-80120246D02*
X178938410Y-80195125D01*
X178665786Y-79859830D02*
X178916436Y-80120246D01*
X178310165Y-79792285D02*
X178665786Y-79859830D01*
X178235285Y-79815085D02*
X178310165Y-79792285D01*
X180710870Y-80902315D02*
X180828875Y-80924290D01*
X180360125Y-80804665D02*
X180710870Y-80902315D01*
X180140390Y-80676895D02*
X180360125Y-80804665D01*
X180111905Y-80549125D02*
X180140390Y-80676895D01*
X180216890Y-80427055D02*
X180111905Y-80549125D01*
X180398375Y-80319625D02*
X180216890Y-80427055D01*
X180599375Y-80234185D02*
X180398375Y-80319625D01*
X180762140Y-80177200D02*
X180599375Y-80234185D01*
X180828875Y-80156876D02*
X180762140Y-80177200D01*
X180828875Y-80156876D02*
X180828875Y-80156876D01*
X180709250Y-80130025D02*
X180828875Y-80156876D01*
X180357680Y-80012830D02*
X180709250Y-80130025D01*
X180135515Y-79864705D02*
X180357680Y-80012830D01*
X180107030Y-79718230D02*
X180135515Y-79864705D01*
X180212825Y-79582330D02*
X180107030Y-79718230D01*
X180395930Y-79464325D02*
X180212825Y-79582330D01*
X180597740Y-79370725D02*
X180395930Y-79464325D01*
X180762140Y-79308895D02*
X180597740Y-79370725D01*
X180828875Y-79286920D02*
X180762140Y-79308895D01*
X180828875Y-79286920D02*
X180828875Y-79286920D01*
X181668710Y-78383605D02*
X181668710Y-78383605D01*
X181668710Y-78300580D02*
X181668710Y-78383605D01*
X181806245Y-78051565D02*
X181668710Y-78300580D01*
X182055260Y-77914855D02*
X181806245Y-78051565D01*
X182137460Y-77914855D02*
X182055260Y-77914855D01*
X182220470Y-77914855D02*
X182137460Y-77914855D01*
X182469500Y-78051565D02*
X182220470Y-77914855D01*
X182606210Y-78300580D02*
X182469500Y-78051565D01*
X182606210Y-78383605D02*
X182606210Y-78300580D01*
X182606210Y-78465790D02*
X182606210Y-78383605D01*
X182469500Y-78714805D02*
X182606210Y-78465790D01*
X182220470Y-78852355D02*
X182469500Y-78714805D01*
X182137460Y-78852355D02*
X182220470Y-78852355D01*
X184487720Y-78141895D02*
X184487720Y-78491830D01*
X184205330Y-77092915D02*
X184487720Y-78141895D01*
X183435470Y-75950336D02*
X184205330Y-77092915D01*
X179575625Y-78325810D02*
X179618750Y-78325000D01*
X179200460Y-78451150D02*
X179575625Y-78325810D01*
X179168705Y-78469855D02*
X179200460Y-78451150D01*
X180075290Y-78428350D02*
X180116795Y-78447085D01*
X179662685Y-78324190D02*
X180075290Y-78428350D01*
X179618750Y-78325000D02*
X179662685Y-78324190D01*
D11*
X56277380Y-81158630D02*
X56277380Y-80158630D01*
X56277380Y-80539583D02*
X56182142Y-80491964D01*
X55991666Y-80491964D01*
X55896428Y-80539583D01*
X55848809Y-80587202D01*
X55801190Y-80682440D01*
X55801190Y-80968154D01*
X55848809Y-81063392D01*
X55896428Y-81111011D01*
X55991666Y-81158630D01*
X56182142Y-81158630D01*
X56277380Y-81111011D01*
X55467857Y-80491964D02*
X55229761Y-81158630D01*
X54991666Y-80491964D02*
X55229761Y-81158630D01*
X55325000Y-81396726D01*
X55372619Y-81444345D01*
X55467857Y-81491964D01*
X53896428Y-81111011D02*
X53801190Y-81158630D01*
X53610714Y-81158630D01*
X53515476Y-81111011D01*
X53467857Y-81015773D01*
X53467857Y-80968154D01*
X53515476Y-80872916D01*
X53610714Y-80825297D01*
X53753571Y-80825297D01*
X53848809Y-80777678D01*
X53896428Y-80682440D01*
X53896428Y-80634821D01*
X53848809Y-80539583D01*
X53753571Y-80491964D01*
X53610714Y-80491964D01*
X53515476Y-80539583D01*
X53039285Y-80491964D02*
X53039285Y-81491964D01*
X53039285Y-80539583D02*
X52944047Y-80491964D01*
X52753571Y-80491964D01*
X52658333Y-80539583D01*
X52610714Y-80587202D01*
X52563095Y-80682440D01*
X52563095Y-80968154D01*
X52610714Y-81063392D01*
X52658333Y-81111011D01*
X52753571Y-81158630D01*
X52944047Y-81158630D01*
X53039285Y-81111011D01*
X51991666Y-81158630D02*
X52086904Y-81111011D01*
X52134523Y-81063392D01*
X52182142Y-80968154D01*
X52182142Y-80682440D01*
X52134523Y-80587202D01*
X52086904Y-80539583D01*
X51991666Y-80491964D01*
X51848809Y-80491964D01*
X51753571Y-80539583D01*
X51705952Y-80587202D01*
X51658333Y-80682440D01*
X51658333Y-80968154D01*
X51705952Y-81063392D01*
X51753571Y-81111011D01*
X51848809Y-81158630D01*
X51991666Y-81158630D01*
X51229761Y-81158630D02*
X51229761Y-80491964D01*
X51229761Y-80682440D02*
X51182142Y-80587202D01*
X51134523Y-80539583D01*
X51039285Y-80491964D01*
X50944047Y-80491964D01*
X50229761Y-81111011D02*
X50325000Y-81158630D01*
X50515476Y-81158630D01*
X50610714Y-81111011D01*
X50658333Y-81015773D01*
X50658333Y-80634821D01*
X50610714Y-80539583D01*
X50515476Y-80491964D01*
X50325000Y-80491964D01*
X50229761Y-80539583D01*
X50182142Y-80634821D01*
X50182142Y-80730059D01*
X50658333Y-80825297D01*
X49848809Y-80491964D02*
X49658333Y-81158630D01*
X49467857Y-80682440D01*
X49277380Y-81158630D01*
X49086904Y-80491964D01*
X48563095Y-81158630D02*
X48658333Y-81111011D01*
X48705952Y-81063392D01*
X48753571Y-80968154D01*
X48753571Y-80682440D01*
X48705952Y-80587202D01*
X48658333Y-80539583D01*
X48563095Y-80491964D01*
X48420238Y-80491964D01*
X48325000Y-80539583D01*
X48277380Y-80587202D01*
X48229761Y-80682440D01*
X48229761Y-80968154D01*
X48277380Y-81063392D01*
X48325000Y-81111011D01*
X48420238Y-81158630D01*
X48563095Y-81158630D01*
X47801190Y-81158630D02*
X47801190Y-80158630D01*
X47372619Y-81158630D02*
X47372619Y-80634821D01*
X47420238Y-80539583D01*
X47515476Y-80491964D01*
X47658333Y-80491964D01*
X47753571Y-80539583D01*
X47801190Y-80587202D01*
X58158333Y-78904464D02*
X57920238Y-79571130D01*
X57682142Y-78904464D02*
X57920238Y-79571130D01*
X58015476Y-79809226D01*
X58063095Y-79856845D01*
X58158333Y-79904464D01*
X57158333Y-79571130D02*
X57253571Y-79523511D01*
X57301190Y-79475892D01*
X57348809Y-79380654D01*
X57348809Y-79094940D01*
X57301190Y-78999702D01*
X57253571Y-78952083D01*
X57158333Y-78904464D01*
X57015476Y-78904464D01*
X56920238Y-78952083D01*
X56872619Y-78999702D01*
X56825000Y-79094940D01*
X56825000Y-79380654D01*
X56872619Y-79475892D01*
X56920238Y-79523511D01*
X57015476Y-79571130D01*
X57158333Y-79571130D01*
X55967857Y-78904464D02*
X55967857Y-79571130D01*
X56396428Y-78904464D02*
X56396428Y-79428273D01*
X56348809Y-79523511D01*
X56253571Y-79571130D01*
X56110714Y-79571130D01*
X56015476Y-79523511D01*
X55967857Y-79475892D01*
X55586904Y-78904464D02*
X55396428Y-79571130D01*
X55205952Y-79094940D01*
X55015476Y-79571130D01*
X54825000Y-78904464D01*
X54015476Y-78904464D02*
X54015476Y-79571130D01*
X54444047Y-78904464D02*
X54444047Y-79428273D01*
X54396428Y-79523511D01*
X54301190Y-79571130D01*
X54158333Y-79571130D01*
X54063095Y-79523511D01*
X54015476Y-79475892D01*
X53634523Y-78571130D02*
X53015476Y-78571130D01*
X53348809Y-78952083D01*
X53205952Y-78952083D01*
X53110714Y-78999702D01*
X53063095Y-79047321D01*
X53015476Y-79142559D01*
X53015476Y-79380654D01*
X53063095Y-79475892D01*
X53110714Y-79523511D01*
X53205952Y-79571130D01*
X53491666Y-79571130D01*
X53586904Y-79523511D01*
X53634523Y-79475892D01*
X52158333Y-78571130D02*
X52348809Y-78571130D01*
X52444047Y-78618750D01*
X52491666Y-78666369D01*
X52586904Y-78809226D01*
X52634523Y-78999702D01*
X52634523Y-79380654D01*
X52586904Y-79475892D01*
X52539285Y-79523511D01*
X52444047Y-79571130D01*
X52253571Y-79571130D01*
X52158333Y-79523511D01*
X52110714Y-79475892D01*
X52063095Y-79380654D01*
X52063095Y-79142559D01*
X52110714Y-79047321D01*
X52158333Y-78999702D01*
X52253571Y-78952083D01*
X52444047Y-78952083D01*
X52539285Y-78999702D01*
X52586904Y-79047321D01*
X52634523Y-79142559D01*
X50301190Y-79571130D02*
X50634523Y-79094940D01*
X50872619Y-79571130D02*
X50872619Y-78571130D01*
X50491666Y-78571130D01*
X50396428Y-78618750D01*
X50348809Y-78666369D01*
X50301190Y-78761607D01*
X50301190Y-78904464D01*
X50348809Y-78999702D01*
X50396428Y-79047321D01*
X50491666Y-79094940D01*
X50872619Y-79094940D01*
X49491666Y-79523511D02*
X49586904Y-79571130D01*
X49777380Y-79571130D01*
X49872619Y-79523511D01*
X49920238Y-79428273D01*
X49920238Y-79047321D01*
X49872619Y-78952083D01*
X49777380Y-78904464D01*
X49586904Y-78904464D01*
X49491666Y-78952083D01*
X49444047Y-79047321D01*
X49444047Y-79142559D01*
X49920238Y-79237797D01*
X49110714Y-78904464D02*
X48872619Y-79571130D01*
X48634523Y-78904464D01*
X47301190Y-78571130D02*
X47205952Y-78571130D01*
X47110714Y-78618750D01*
X47063095Y-78666369D01*
X47015476Y-78761607D01*
X46967857Y-78952083D01*
X46967857Y-79190178D01*
X47015476Y-79380654D01*
X47063095Y-79475892D01*
X47110714Y-79523511D01*
X47205952Y-79571130D01*
X47301190Y-79571130D01*
X47396428Y-79523511D01*
X47444047Y-79475892D01*
X47491666Y-79380654D01*
X47539285Y-79190178D01*
X47539285Y-78952083D01*
X47491666Y-78761607D01*
X47444047Y-78666369D01*
X47396428Y-78618750D01*
X47301190Y-78571130D01*
X46539285Y-79475892D02*
X46491666Y-79523511D01*
X46539285Y-79571130D01*
X46586904Y-79523511D01*
X46539285Y-79475892D01*
X46539285Y-79571130D01*
X45539285Y-79571130D02*
X46110714Y-79571130D01*
X45825000Y-79571130D02*
X45825000Y-78571130D01*
X45920238Y-78713988D01*
X46015476Y-78809226D01*
X46110714Y-78856845D01*
X57237797Y-82539880D02*
X57237797Y-83254166D01*
X57285416Y-83397023D01*
X57380654Y-83492261D01*
X57523511Y-83539880D01*
X57618750Y-83539880D01*
X56285416Y-83539880D02*
X56761607Y-83539880D01*
X56761607Y-82539880D01*
X55380654Y-83444642D02*
X55428273Y-83492261D01*
X55571130Y-83539880D01*
X55666369Y-83539880D01*
X55809226Y-83492261D01*
X55904464Y-83397023D01*
X55952083Y-83301785D01*
X55999702Y-83111309D01*
X55999702Y-82968452D01*
X55952083Y-82777976D01*
X55904464Y-82682738D01*
X55809226Y-82587500D01*
X55666369Y-82539880D01*
X55571130Y-82539880D01*
X55428273Y-82587500D01*
X55380654Y-82635119D01*
X54666369Y-82539880D02*
X54666369Y-83254166D01*
X54713988Y-83397023D01*
X54809226Y-83492261D01*
X54952083Y-83539880D01*
X55047321Y-83539880D01*
X53713988Y-83539880D02*
X54190178Y-83539880D01*
X54190178Y-82539880D01*
X52809226Y-83444642D02*
X52856845Y-83492261D01*
X52999702Y-83539880D01*
X53094940Y-83539880D01*
X53237797Y-83492261D01*
X53333035Y-83397023D01*
X53380654Y-83301785D01*
X53428273Y-83111309D01*
X53428273Y-82968452D01*
X53380654Y-82777976D01*
X53333035Y-82682738D01*
X53237797Y-82587500D01*
X53094940Y-82539880D01*
X52999702Y-82539880D01*
X52856845Y-82587500D01*
X52809226Y-82635119D01*
X52094940Y-82539880D02*
X52094940Y-83254166D01*
X52142559Y-83397023D01*
X52237797Y-83492261D01*
X52380654Y-83539880D01*
X52475892Y-83539880D01*
X51142559Y-83539880D02*
X51618750Y-83539880D01*
X51618750Y-82539880D01*
X50237797Y-83444642D02*
X50285416Y-83492261D01*
X50428273Y-83539880D01*
X50523511Y-83539880D01*
X50666369Y-83492261D01*
X50761607Y-83397023D01*
X50809226Y-83301785D01*
X50856845Y-83111309D01*
X50856845Y-82968452D01*
X50809226Y-82777976D01*
X50761607Y-82682738D01*
X50666369Y-82587500D01*
X50523511Y-82539880D01*
X50428273Y-82539880D01*
X50285416Y-82587500D01*
X50237797Y-82635119D01*
X49523511Y-82539880D02*
X49523511Y-83254166D01*
X49571130Y-83397023D01*
X49666369Y-83492261D01*
X49809226Y-83539880D01*
X49904464Y-83539880D01*
X48571130Y-83539880D02*
X49047321Y-83539880D01*
X49047321Y-82539880D01*
X47666369Y-83444642D02*
X47713988Y-83492261D01*
X47856845Y-83539880D01*
X47952083Y-83539880D01*
X48094940Y-83492261D01*
X48190178Y-83397023D01*
X48237797Y-83301785D01*
X48285416Y-83111309D01*
X48285416Y-82968452D01*
X48237797Y-82777976D01*
X48190178Y-82682738D01*
X48094940Y-82587500D01*
X47952083Y-82539880D01*
X47856845Y-82539880D01*
X47713988Y-82587500D01*
X47666369Y-82635119D01*
%TO.C,SW23*%
X141435838Y-27702710D02*
G75*
G02*
X143900000Y-25778750I2464162J-616040D01*
G01*
X137550000Y-23873750D02*
G75*
G02*
X140090000Y-21333750I2540000J0D01*
G01*
X137550000Y-27302750D02*
X137550000Y-27683750D01*
X148980000Y-24762750D02*
X148980000Y-25778750D01*
X148980000Y-25778750D02*
X143900000Y-25778750D01*
X141435838Y-27683750D02*
X139709000Y-27683750D01*
X137931000Y-27683750D02*
X137550000Y-27683750D01*
X137550000Y-23873750D02*
X137550000Y-24254750D01*
X140090000Y-21333750D02*
X148980000Y-21333750D01*
X148980000Y-21333750D02*
X148980000Y-21714750D01*
%TO.C,SW36*%
X198585838Y-65802710D02*
G75*
G02*
X201050000Y-63878750I2464162J-616040D01*
G01*
X194700000Y-61973750D02*
G75*
G02*
X197240000Y-59433750I2540000J0D01*
G01*
X194700000Y-65402750D02*
X194700000Y-65783750D01*
X206130000Y-62862750D02*
X206130000Y-63878750D01*
X206130000Y-63878750D02*
X201050000Y-63878750D01*
X198585838Y-65783750D02*
X196859000Y-65783750D01*
X195081000Y-65783750D02*
X194700000Y-65783750D01*
X194700000Y-61973750D02*
X194700000Y-62354750D01*
X197240000Y-59433750D02*
X206130000Y-59433750D01*
X206130000Y-59433750D02*
X206130000Y-59814750D01*
%TO.C,SW35*%
X198585838Y-46752710D02*
G75*
G02*
X201050000Y-44828750I2464162J-616040D01*
G01*
X194700000Y-42923750D02*
G75*
G02*
X197240000Y-40383750I2540000J0D01*
G01*
X194700000Y-46352750D02*
X194700000Y-46733750D01*
X206130000Y-43812750D02*
X206130000Y-44828750D01*
X206130000Y-44828750D02*
X201050000Y-44828750D01*
X198585838Y-46733750D02*
X196859000Y-46733750D01*
X195081000Y-46733750D02*
X194700000Y-46733750D01*
X194700000Y-42923750D02*
X194700000Y-43304750D01*
X197240000Y-40383750D02*
X206130000Y-40383750D01*
X206130000Y-40383750D02*
X206130000Y-40764750D01*
%TO.C,SW24*%
X141435838Y-46752710D02*
G75*
G02*
X143900000Y-44828750I2464162J-616040D01*
G01*
X137550000Y-42923750D02*
G75*
G02*
X140090000Y-40383750I2540000J0D01*
G01*
X137550000Y-46352750D02*
X137550000Y-46733750D01*
X148980000Y-43812750D02*
X148980000Y-44828750D01*
X148980000Y-44828750D02*
X143900000Y-44828750D01*
X141435838Y-46733750D02*
X139709000Y-46733750D01*
X137931000Y-46733750D02*
X137550000Y-46733750D01*
X137550000Y-42923750D02*
X137550000Y-43304750D01*
X140090000Y-40383750D02*
X148980000Y-40383750D01*
X148980000Y-40383750D02*
X148980000Y-40764750D01*
%TO.C,SW25*%
X141435838Y-65802710D02*
G75*
G02*
X143900000Y-63878750I2464162J-616040D01*
G01*
X137550000Y-61973750D02*
G75*
G02*
X140090000Y-59433750I2540000J0D01*
G01*
X137550000Y-65402750D02*
X137550000Y-65783750D01*
X148980000Y-62862750D02*
X148980000Y-63878750D01*
X148980000Y-63878750D02*
X143900000Y-63878750D01*
X141435838Y-65783750D02*
X139709000Y-65783750D01*
X137931000Y-65783750D02*
X137550000Y-65783750D01*
X137550000Y-61973750D02*
X137550000Y-62354750D01*
X140090000Y-59433750D02*
X148980000Y-59433750D01*
X148980000Y-59433750D02*
X148980000Y-59814750D01*
%TO.C,SW26*%
X141435838Y-84852710D02*
G75*
G02*
X143900000Y-82928750I2464162J-616040D01*
G01*
X137550000Y-81023750D02*
G75*
G02*
X140090000Y-78483750I2540000J0D01*
G01*
X137550000Y-84452750D02*
X137550000Y-84833750D01*
X148980000Y-81912750D02*
X148980000Y-82928750D01*
X148980000Y-82928750D02*
X143900000Y-82928750D01*
X141435838Y-84833750D02*
X139709000Y-84833750D01*
X137931000Y-84833750D02*
X137550000Y-84833750D01*
X137550000Y-81023750D02*
X137550000Y-81404750D01*
X140090000Y-78483750D02*
X148980000Y-78483750D01*
X148980000Y-78483750D02*
X148980000Y-78864750D01*
%TO.C,SW27*%
X160485838Y-27702710D02*
G75*
G02*
X162950000Y-25778750I2464162J-616040D01*
G01*
X156600000Y-23873750D02*
G75*
G02*
X159140000Y-21333750I2540000J0D01*
G01*
X156600000Y-27302750D02*
X156600000Y-27683750D01*
X168030000Y-24762750D02*
X168030000Y-25778750D01*
X168030000Y-25778750D02*
X162950000Y-25778750D01*
X160485838Y-27683750D02*
X158759000Y-27683750D01*
X156981000Y-27683750D02*
X156600000Y-27683750D01*
X156600000Y-23873750D02*
X156600000Y-24254750D01*
X159140000Y-21333750D02*
X168030000Y-21333750D01*
X168030000Y-21333750D02*
X168030000Y-21714750D01*
%TO.C,SW28*%
X160485838Y-46752710D02*
G75*
G02*
X162950000Y-44828750I2464162J-616040D01*
G01*
X156600000Y-42923750D02*
G75*
G02*
X159140000Y-40383750I2540000J0D01*
G01*
X156600000Y-46352750D02*
X156600000Y-46733750D01*
X168030000Y-43812750D02*
X168030000Y-44828750D01*
X168030000Y-44828750D02*
X162950000Y-44828750D01*
X160485838Y-46733750D02*
X158759000Y-46733750D01*
X156981000Y-46733750D02*
X156600000Y-46733750D01*
X156600000Y-42923750D02*
X156600000Y-43304750D01*
X159140000Y-40383750D02*
X168030000Y-40383750D01*
X168030000Y-40383750D02*
X168030000Y-40764750D01*
%TO.C,SW29*%
X160485838Y-65802710D02*
G75*
G02*
X162950000Y-63878750I2464162J-616040D01*
G01*
X156600000Y-61973750D02*
G75*
G02*
X159140000Y-59433750I2540000J0D01*
G01*
X156600000Y-65402750D02*
X156600000Y-65783750D01*
X168030000Y-62862750D02*
X168030000Y-63878750D01*
X168030000Y-63878750D02*
X162950000Y-63878750D01*
X160485838Y-65783750D02*
X158759000Y-65783750D01*
X156981000Y-65783750D02*
X156600000Y-65783750D01*
X156600000Y-61973750D02*
X156600000Y-62354750D01*
X159140000Y-59433750D02*
X168030000Y-59433750D01*
X168030000Y-59433750D02*
X168030000Y-59814750D01*
%TO.C,SW30*%
X160485838Y-84852710D02*
G75*
G02*
X162950000Y-82928750I2464162J-616040D01*
G01*
X156600000Y-81023750D02*
G75*
G02*
X159140000Y-78483750I2540000J0D01*
G01*
X156600000Y-84452750D02*
X156600000Y-84833750D01*
X168030000Y-81912750D02*
X168030000Y-82928750D01*
X168030000Y-82928750D02*
X162950000Y-82928750D01*
X160485838Y-84833750D02*
X158759000Y-84833750D01*
X156981000Y-84833750D02*
X156600000Y-84833750D01*
X156600000Y-81023750D02*
X156600000Y-81404750D01*
X159140000Y-78483750D02*
X168030000Y-78483750D01*
X168030000Y-78483750D02*
X168030000Y-78864750D01*
%TO.C,SW31*%
X179535838Y-27702710D02*
G75*
G02*
X182000000Y-25778750I2464162J-616040D01*
G01*
X175650000Y-23873750D02*
G75*
G02*
X178190000Y-21333750I2540000J0D01*
G01*
X175650000Y-27302750D02*
X175650000Y-27683750D01*
X187080000Y-24762750D02*
X187080000Y-25778750D01*
X187080000Y-25778750D02*
X182000000Y-25778750D01*
X179535838Y-27683750D02*
X177809000Y-27683750D01*
X176031000Y-27683750D02*
X175650000Y-27683750D01*
X175650000Y-23873750D02*
X175650000Y-24254750D01*
X178190000Y-21333750D02*
X187080000Y-21333750D01*
X187080000Y-21333750D02*
X187080000Y-21714750D01*
%TO.C,SW32*%
X179535838Y-46752710D02*
G75*
G02*
X182000000Y-44828750I2464162J-616040D01*
G01*
X175650000Y-42923750D02*
G75*
G02*
X178190000Y-40383750I2540000J0D01*
G01*
X175650000Y-46352750D02*
X175650000Y-46733750D01*
X187080000Y-43812750D02*
X187080000Y-44828750D01*
X187080000Y-44828750D02*
X182000000Y-44828750D01*
X179535838Y-46733750D02*
X177809000Y-46733750D01*
X176031000Y-46733750D02*
X175650000Y-46733750D01*
X175650000Y-42923750D02*
X175650000Y-43304750D01*
X178190000Y-40383750D02*
X187080000Y-40383750D01*
X187080000Y-40383750D02*
X187080000Y-40764750D01*
%TO.C,SW33*%
X179535838Y-65802710D02*
G75*
G02*
X182000000Y-63878750I2464162J-616040D01*
G01*
X175650000Y-61973750D02*
G75*
G02*
X178190000Y-59433750I2540000J0D01*
G01*
X175650000Y-65402750D02*
X175650000Y-65783750D01*
X187080000Y-62862750D02*
X187080000Y-63878750D01*
X187080000Y-63878750D02*
X182000000Y-63878750D01*
X179535838Y-65783750D02*
X177809000Y-65783750D01*
X176031000Y-65783750D02*
X175650000Y-65783750D01*
X175650000Y-61973750D02*
X175650000Y-62354750D01*
X178190000Y-59433750D02*
X187080000Y-59433750D01*
X187080000Y-59433750D02*
X187080000Y-59814750D01*
%TO.C,SW34*%
X198585838Y-27702710D02*
G75*
G02*
X201050000Y-25778750I2464162J-616040D01*
G01*
X194700000Y-23873750D02*
G75*
G02*
X197240000Y-21333750I2540000J0D01*
G01*
X194700000Y-27302750D02*
X194700000Y-27683750D01*
X206130000Y-24762750D02*
X206130000Y-25778750D01*
X206130000Y-25778750D02*
X201050000Y-25778750D01*
X198585838Y-27683750D02*
X196859000Y-27683750D01*
X195081000Y-27683750D02*
X194700000Y-27683750D01*
X194700000Y-23873750D02*
X194700000Y-24254750D01*
X197240000Y-21333750D02*
X206130000Y-21333750D01*
X206130000Y-21333750D02*
X206130000Y-21714750D01*
%TO.C,SW22*%
X122385838Y-84852710D02*
G75*
G02*
X124850000Y-82928750I2464162J-616040D01*
G01*
X118500000Y-81023750D02*
G75*
G02*
X121040000Y-78483750I2540000J0D01*
G01*
X118500000Y-84452750D02*
X118500000Y-84833750D01*
X129930000Y-81912750D02*
X129930000Y-82928750D01*
X129930000Y-82928750D02*
X124850000Y-82928750D01*
X122385838Y-84833750D02*
X120659000Y-84833750D01*
X118881000Y-84833750D02*
X118500000Y-84833750D01*
X118500000Y-81023750D02*
X118500000Y-81404750D01*
X121040000Y-78483750D02*
X129930000Y-78483750D01*
X129930000Y-78483750D02*
X129930000Y-78864750D01*
%TO.C,SW18*%
X103335838Y-84852710D02*
G75*
G02*
X105800000Y-82928750I2464162J-616040D01*
G01*
X99450000Y-81023750D02*
G75*
G02*
X101990000Y-78483750I2540000J0D01*
G01*
X99450000Y-84452750D02*
X99450000Y-84833750D01*
X110880000Y-81912750D02*
X110880000Y-82928750D01*
X110880000Y-82928750D02*
X105800000Y-82928750D01*
X103335838Y-84833750D02*
X101609000Y-84833750D01*
X99831000Y-84833750D02*
X99450000Y-84833750D01*
X99450000Y-81023750D02*
X99450000Y-81404750D01*
X101990000Y-78483750D02*
X110880000Y-78483750D01*
X110880000Y-78483750D02*
X110880000Y-78864750D01*
%TO.C,SW15*%
X103335838Y-27702710D02*
G75*
G02*
X105800000Y-25778750I2464162J-616040D01*
G01*
X99450000Y-23873750D02*
G75*
G02*
X101990000Y-21333750I2540000J0D01*
G01*
X99450000Y-27302750D02*
X99450000Y-27683750D01*
X110880000Y-24762750D02*
X110880000Y-25778750D01*
X110880000Y-25778750D02*
X105800000Y-25778750D01*
X103335838Y-27683750D02*
X101609000Y-27683750D01*
X99831000Y-27683750D02*
X99450000Y-27683750D01*
X99450000Y-23873750D02*
X99450000Y-24254750D01*
X101990000Y-21333750D02*
X110880000Y-21333750D01*
X110880000Y-21333750D02*
X110880000Y-21714750D01*
%TO.C,SW13*%
X84285838Y-65802710D02*
G75*
G02*
X86750000Y-63878750I2464162J-616040D01*
G01*
X80400000Y-61973750D02*
G75*
G02*
X82940000Y-59433750I2540000J0D01*
G01*
X80400000Y-65402750D02*
X80400000Y-65783750D01*
X91830000Y-62862750D02*
X91830000Y-63878750D01*
X91830000Y-63878750D02*
X86750000Y-63878750D01*
X84285838Y-65783750D02*
X82559000Y-65783750D01*
X80781000Y-65783750D02*
X80400000Y-65783750D01*
X80400000Y-61973750D02*
X80400000Y-62354750D01*
X82940000Y-59433750D02*
X91830000Y-59433750D01*
X91830000Y-59433750D02*
X91830000Y-59814750D01*
%TO.C,SW11*%
X84285838Y-27702710D02*
G75*
G02*
X86750000Y-25778750I2464162J-616040D01*
G01*
X80400000Y-23873750D02*
G75*
G02*
X82940000Y-21333750I2540000J0D01*
G01*
X80400000Y-27302750D02*
X80400000Y-27683750D01*
X91830000Y-24762750D02*
X91830000Y-25778750D01*
X91830000Y-25778750D02*
X86750000Y-25778750D01*
X84285838Y-27683750D02*
X82559000Y-27683750D01*
X80781000Y-27683750D02*
X80400000Y-27683750D01*
X80400000Y-23873750D02*
X80400000Y-24254750D01*
X82940000Y-21333750D02*
X91830000Y-21333750D01*
X91830000Y-21333750D02*
X91830000Y-21714750D01*
%TO.C,SW14*%
X84285838Y-84852710D02*
G75*
G02*
X86750000Y-82928750I2464162J-616040D01*
G01*
X80400000Y-81023750D02*
G75*
G02*
X82940000Y-78483750I2540000J0D01*
G01*
X80400000Y-84452750D02*
X80400000Y-84833750D01*
X91830000Y-81912750D02*
X91830000Y-82928750D01*
X91830000Y-82928750D02*
X86750000Y-82928750D01*
X84285838Y-84833750D02*
X82559000Y-84833750D01*
X80781000Y-84833750D02*
X80400000Y-84833750D01*
X80400000Y-81023750D02*
X80400000Y-81404750D01*
X82940000Y-78483750D02*
X91830000Y-78483750D01*
X91830000Y-78483750D02*
X91830000Y-78864750D01*
%TO.C,SW17*%
X103335838Y-65802710D02*
G75*
G02*
X105800000Y-63878750I2464162J-616040D01*
G01*
X99450000Y-61973750D02*
G75*
G02*
X101990000Y-59433750I2540000J0D01*
G01*
X99450000Y-65402750D02*
X99450000Y-65783750D01*
X110880000Y-62862750D02*
X110880000Y-63878750D01*
X110880000Y-63878750D02*
X105800000Y-63878750D01*
X103335838Y-65783750D02*
X101609000Y-65783750D01*
X99831000Y-65783750D02*
X99450000Y-65783750D01*
X99450000Y-61973750D02*
X99450000Y-62354750D01*
X101990000Y-59433750D02*
X110880000Y-59433750D01*
X110880000Y-59433750D02*
X110880000Y-59814750D01*
%TO.C,SW12*%
X84285838Y-46752710D02*
G75*
G02*
X86750000Y-44828750I2464162J-616040D01*
G01*
X80400000Y-42923750D02*
G75*
G02*
X82940000Y-40383750I2540000J0D01*
G01*
X80400000Y-46352750D02*
X80400000Y-46733750D01*
X91830000Y-43812750D02*
X91830000Y-44828750D01*
X91830000Y-44828750D02*
X86750000Y-44828750D01*
X84285838Y-46733750D02*
X82559000Y-46733750D01*
X80781000Y-46733750D02*
X80400000Y-46733750D01*
X80400000Y-42923750D02*
X80400000Y-43304750D01*
X82940000Y-40383750D02*
X91830000Y-40383750D01*
X91830000Y-40383750D02*
X91830000Y-40764750D01*
%TO.C,SW16*%
X103335838Y-46752710D02*
G75*
G02*
X105800000Y-44828750I2464162J-616040D01*
G01*
X99450000Y-42923750D02*
G75*
G02*
X101990000Y-40383750I2540000J0D01*
G01*
X99450000Y-46352750D02*
X99450000Y-46733750D01*
X110880000Y-43812750D02*
X110880000Y-44828750D01*
X110880000Y-44828750D02*
X105800000Y-44828750D01*
X103335838Y-46733750D02*
X101609000Y-46733750D01*
X99831000Y-46733750D02*
X99450000Y-46733750D01*
X99450000Y-42923750D02*
X99450000Y-43304750D01*
X101990000Y-40383750D02*
X110880000Y-40383750D01*
X110880000Y-40383750D02*
X110880000Y-40764750D01*
%TO.C,SW19*%
X122385838Y-27702710D02*
G75*
G02*
X124850000Y-25778750I2464162J-616040D01*
G01*
X118500000Y-23873750D02*
G75*
G02*
X121040000Y-21333750I2540000J0D01*
G01*
X118500000Y-27302750D02*
X118500000Y-27683750D01*
X129930000Y-24762750D02*
X129930000Y-25778750D01*
X129930000Y-25778750D02*
X124850000Y-25778750D01*
X122385838Y-27683750D02*
X120659000Y-27683750D01*
X118881000Y-27683750D02*
X118500000Y-27683750D01*
X118500000Y-23873750D02*
X118500000Y-24254750D01*
X121040000Y-21333750D02*
X129930000Y-21333750D01*
X129930000Y-21333750D02*
X129930000Y-21714750D01*
%TO.C,SW20*%
X122385838Y-46752710D02*
G75*
G02*
X124850000Y-44828750I2464162J-616040D01*
G01*
X118500000Y-42923750D02*
G75*
G02*
X121040000Y-40383750I2540000J0D01*
G01*
X118500000Y-46352750D02*
X118500000Y-46733750D01*
X129930000Y-43812750D02*
X129930000Y-44828750D01*
X129930000Y-44828750D02*
X124850000Y-44828750D01*
X122385838Y-46733750D02*
X120659000Y-46733750D01*
X118881000Y-46733750D02*
X118500000Y-46733750D01*
X118500000Y-42923750D02*
X118500000Y-43304750D01*
X121040000Y-40383750D02*
X129930000Y-40383750D01*
X129930000Y-40383750D02*
X129930000Y-40764750D01*
%TO.C,SW21*%
X122385838Y-65802710D02*
G75*
G02*
X124850000Y-63878750I2464162J-616040D01*
G01*
X118500000Y-61973750D02*
G75*
G02*
X121040000Y-59433750I2540000J0D01*
G01*
X118500000Y-65402750D02*
X118500000Y-65783750D01*
X129930000Y-62862750D02*
X129930000Y-63878750D01*
X129930000Y-63878750D02*
X124850000Y-63878750D01*
X122385838Y-65783750D02*
X120659000Y-65783750D01*
X118881000Y-65783750D02*
X118500000Y-65783750D01*
X118500000Y-61973750D02*
X118500000Y-62354750D01*
X121040000Y-59433750D02*
X129930000Y-59433750D01*
X129930000Y-59433750D02*
X129930000Y-59814750D01*
D12*
%TO.C,SW37*%
X29525000Y-58743750D02*
X29525000Y-58093750D01*
X29525000Y-55043750D02*
X29525000Y-55693750D01*
X23325000Y-55693750D02*
X23325000Y-55043750D01*
X23325000Y-58743750D02*
X23325000Y-58093750D01*
X29525000Y-58743750D02*
X23325000Y-58743750D01*
X23325000Y-55043750D02*
X29525000Y-55043750D01*
%TO.C,D36*%
X209987500Y-72637500D02*
X207987500Y-72637500D01*
X207987500Y-72637500D02*
X207987500Y-68737500D01*
X209987500Y-72637500D02*
X209987500Y-68737500D01*
%TO.C,D35*%
X209987500Y-53587500D02*
X207987500Y-53587500D01*
X207987500Y-53587500D02*
X207987500Y-49687500D01*
X209987500Y-53587500D02*
X209987500Y-49687500D01*
%TO.C,D34*%
X209987500Y-34537500D02*
X207987500Y-34537500D01*
X207987500Y-34537500D02*
X207987500Y-30637500D01*
X209987500Y-34537500D02*
X209987500Y-30637500D01*
%TO.C,D33*%
X191731250Y-72637500D02*
X189731250Y-72637500D01*
X189731250Y-72637500D02*
X189731250Y-68737500D01*
X191731250Y-72637500D02*
X191731250Y-68737500D01*
%TO.C,D32*%
X191731250Y-53587500D02*
X189731250Y-53587500D01*
X189731250Y-53587500D02*
X189731250Y-49687500D01*
X191731250Y-53587500D02*
X191731250Y-49687500D01*
%TO.C,D31*%
X191731250Y-34537500D02*
X189731250Y-34537500D01*
X189731250Y-34537500D02*
X189731250Y-30637500D01*
X191731250Y-34537500D02*
X191731250Y-30637500D01*
%TO.C,D30*%
X172681250Y-91687500D02*
X170681250Y-91687500D01*
X170681250Y-91687500D02*
X170681250Y-87787500D01*
X172681250Y-91687500D02*
X172681250Y-87787500D01*
%TO.C,D29*%
X172681250Y-72637500D02*
X170681250Y-72637500D01*
X170681250Y-72637500D02*
X170681250Y-68737500D01*
X172681250Y-72637500D02*
X172681250Y-68737500D01*
%TO.C,D28*%
X172681250Y-53587500D02*
X170681250Y-53587500D01*
X170681250Y-53587500D02*
X170681250Y-49687500D01*
X172681250Y-53587500D02*
X172681250Y-49687500D01*
%TO.C,D27*%
X172681250Y-34537500D02*
X170681250Y-34537500D01*
X170681250Y-34537500D02*
X170681250Y-30637500D01*
X172681250Y-34537500D02*
X172681250Y-30637500D01*
%TO.C,D26*%
X153631250Y-91687500D02*
X151631250Y-91687500D01*
X151631250Y-91687500D02*
X151631250Y-87787500D01*
X153631250Y-91687500D02*
X153631250Y-87787500D01*
%TO.C,D25*%
X153631250Y-72637500D02*
X151631250Y-72637500D01*
X151631250Y-72637500D02*
X151631250Y-68737500D01*
X153631250Y-72637500D02*
X153631250Y-68737500D01*
%TO.C,D24*%
X153631250Y-53587500D02*
X151631250Y-53587500D01*
X151631250Y-53587500D02*
X151631250Y-49687500D01*
X153631250Y-53587500D02*
X153631250Y-49687500D01*
%TO.C,D23*%
X153631250Y-34537500D02*
X151631250Y-34537500D01*
X151631250Y-34537500D02*
X151631250Y-30637500D01*
X153631250Y-34537500D02*
X153631250Y-30637500D01*
%TO.C,D22*%
X134581250Y-91687500D02*
X132581250Y-91687500D01*
X132581250Y-91687500D02*
X132581250Y-87787500D01*
X134581250Y-91687500D02*
X134581250Y-87787500D01*
%TO.C,D21*%
X134581250Y-72637500D02*
X132581250Y-72637500D01*
X132581250Y-72637500D02*
X132581250Y-68737500D01*
X134581250Y-72637500D02*
X134581250Y-68737500D01*
%TO.C,D20*%
X134581250Y-53587500D02*
X132581250Y-53587500D01*
X132581250Y-53587500D02*
X132581250Y-49687500D01*
X134581250Y-53587500D02*
X134581250Y-49687500D01*
%TO.C,D19*%
X134581250Y-34537500D02*
X132581250Y-34537500D01*
X132581250Y-34537500D02*
X132581250Y-30637500D01*
X134581250Y-34537500D02*
X134581250Y-30637500D01*
%TO.C,D18*%
X115531250Y-91687500D02*
X113531250Y-91687500D01*
X113531250Y-91687500D02*
X113531250Y-87787500D01*
X115531250Y-91687500D02*
X115531250Y-87787500D01*
%TO.C,D17*%
X115531250Y-72637500D02*
X113531250Y-72637500D01*
X113531250Y-72637500D02*
X113531250Y-68737500D01*
X115531250Y-72637500D02*
X115531250Y-68737500D01*
%TO.C,D16*%
X115531250Y-53587500D02*
X113531250Y-53587500D01*
X113531250Y-53587500D02*
X113531250Y-49687500D01*
X115531250Y-53587500D02*
X115531250Y-49687500D01*
%TO.C,D15*%
X114737500Y-34537500D02*
X112737500Y-34537500D01*
X112737500Y-34537500D02*
X112737500Y-30637500D01*
X114737500Y-34537500D02*
X114737500Y-30637500D01*
%TO.C,D14*%
X96481250Y-91687500D02*
X94481250Y-91687500D01*
X94481250Y-91687500D02*
X94481250Y-87787500D01*
X96481250Y-91687500D02*
X96481250Y-87787500D01*
%TO.C,D13*%
X96481250Y-72637500D02*
X94481250Y-72637500D01*
X94481250Y-72637500D02*
X94481250Y-68737500D01*
X96481250Y-72637500D02*
X96481250Y-68737500D01*
%TO.C,D12*%
X96481250Y-53587500D02*
X94481250Y-53587500D01*
X94481250Y-53587500D02*
X94481250Y-49687500D01*
X96481250Y-53587500D02*
X96481250Y-49687500D01*
%TO.C,D11*%
X96481250Y-34537500D02*
X94481250Y-34537500D01*
X94481250Y-34537500D02*
X94481250Y-30637500D01*
X96481250Y-34537500D02*
X96481250Y-30637500D01*
%TO.C,D10*%
X77431250Y-91687500D02*
X75431250Y-91687500D01*
X75431250Y-91687500D02*
X75431250Y-87787500D01*
X77431250Y-91687500D02*
X77431250Y-87787500D01*
%TO.C,D9*%
X77431250Y-72637500D02*
X75431250Y-72637500D01*
X75431250Y-72637500D02*
X75431250Y-68737500D01*
X77431250Y-72637500D02*
X77431250Y-68737500D01*
%TO.C,D8*%
X77431250Y-53587500D02*
X75431250Y-53587500D01*
X75431250Y-53587500D02*
X75431250Y-49687500D01*
X77431250Y-53587500D02*
X77431250Y-49687500D01*
%TO.C,D7*%
X77431250Y-34537500D02*
X75431250Y-34537500D01*
X75431250Y-34537500D02*
X75431250Y-30637500D01*
X77431250Y-34537500D02*
X77431250Y-30637500D01*
%TO.C,D6*%
X58381250Y-72637500D02*
X56381250Y-72637500D01*
X56381250Y-72637500D02*
X56381250Y-68737500D01*
X58381250Y-72637500D02*
X58381250Y-68737500D01*
%TO.C,D5*%
X42431250Y-57893750D02*
X42431250Y-55893750D01*
X42431250Y-55893750D02*
X46331250Y-55893750D01*
X42431250Y-57893750D02*
X46331250Y-57893750D01*
%TO.C,D4*%
X58381250Y-34537500D02*
X56381250Y-34537500D01*
X56381250Y-34537500D02*
X56381250Y-30637500D01*
X58381250Y-34537500D02*
X58381250Y-30637500D01*
%TO.C,D3*%
X39331250Y-72637500D02*
X37331250Y-72637500D01*
X37331250Y-72637500D02*
X37331250Y-68737500D01*
X39331250Y-72637500D02*
X39331250Y-68737500D01*
%TO.C,D2*%
X35818750Y-55893750D02*
X35818750Y-57893750D01*
X35818750Y-57893750D02*
X31918750Y-57893750D01*
X35818750Y-55893750D02*
X31918750Y-55893750D01*
%TO.C,D1*%
X39331250Y-34537500D02*
X37331250Y-34537500D01*
X37331250Y-34537500D02*
X37331250Y-30637500D01*
X39331250Y-34537500D02*
X39331250Y-30637500D01*
D13*
%TO.C,U1*%
X27218750Y-51337500D02*
X27218750Y-53877500D01*
X24678750Y-51337500D02*
X27218750Y-51337500D01*
D11*
G36*
X30967780Y-38942865D02*
G01*
X31067780Y-38942865D01*
X31067780Y-38842865D01*
X30967780Y-38842865D01*
X30967780Y-38942865D01*
G37*
X30967780Y-38942865D02*
X31067780Y-38942865D01*
X31067780Y-38842865D01*
X30967780Y-38842865D01*
X30967780Y-38942865D01*
G36*
X30567780Y-38742865D02*
G01*
X31367780Y-38742865D01*
X31367780Y-38642865D01*
X30567780Y-38642865D01*
X30567780Y-38742865D01*
G37*
X30567780Y-38742865D02*
X31367780Y-38742865D01*
X31367780Y-38642865D01*
X30567780Y-38642865D01*
X30567780Y-38742865D01*
G36*
X31167780Y-39142865D02*
G01*
X31367780Y-39142865D01*
X31367780Y-39042865D01*
X31167780Y-39042865D01*
X31167780Y-39142865D01*
G37*
X31167780Y-39142865D02*
X31367780Y-39142865D01*
X31367780Y-39042865D01*
X31167780Y-39042865D01*
X31167780Y-39142865D01*
G36*
X30567780Y-39142865D02*
G01*
X30867780Y-39142865D01*
X30867780Y-39042865D01*
X30567780Y-39042865D01*
X30567780Y-39142865D01*
G37*
X30567780Y-39142865D02*
X30867780Y-39142865D01*
X30867780Y-39042865D01*
X30567780Y-39042865D01*
X30567780Y-39142865D01*
G36*
X30567780Y-39142865D02*
G01*
X30667780Y-39142865D01*
X30667780Y-38642865D01*
X30567780Y-38642865D01*
X30567780Y-39142865D01*
G37*
X30567780Y-39142865D02*
X30667780Y-39142865D01*
X30667780Y-38642865D01*
X30567780Y-38642865D01*
X30567780Y-39142865D01*
D13*
X55158750Y-36097500D02*
X22138750Y-36097500D01*
X55158750Y-53877500D02*
X55158750Y-36097500D01*
X22138750Y-53877500D02*
X55158750Y-53877500D01*
X22138750Y-36097500D02*
X22138750Y-53877500D01*
X24678750Y-51337500D02*
X24678750Y-53877500D01*
D11*
%TO.C,SW10*%
X65235838Y-84852710D02*
G75*
G02*
X67700000Y-82928750I2464162J-616040D01*
G01*
X61350000Y-81023750D02*
G75*
G02*
X63890000Y-78483750I2540000J0D01*
G01*
X61350000Y-84452750D02*
X61350000Y-84833750D01*
X72780000Y-81912750D02*
X72780000Y-82928750D01*
X72780000Y-82928750D02*
X67700000Y-82928750D01*
X65235838Y-84833750D02*
X63509000Y-84833750D01*
X61731000Y-84833750D02*
X61350000Y-84833750D01*
X61350000Y-81023750D02*
X61350000Y-81404750D01*
X63890000Y-78483750D02*
X72780000Y-78483750D01*
X72780000Y-78483750D02*
X72780000Y-78864750D01*
%TO.C,SW9*%
X65235838Y-65802710D02*
G75*
G02*
X67700000Y-63878750I2464162J-616040D01*
G01*
X61350000Y-61973750D02*
G75*
G02*
X63890000Y-59433750I2540000J0D01*
G01*
X61350000Y-65402750D02*
X61350000Y-65783750D01*
X72780000Y-62862750D02*
X72780000Y-63878750D01*
X72780000Y-63878750D02*
X67700000Y-63878750D01*
X65235838Y-65783750D02*
X63509000Y-65783750D01*
X61731000Y-65783750D02*
X61350000Y-65783750D01*
X61350000Y-61973750D02*
X61350000Y-62354750D01*
X63890000Y-59433750D02*
X72780000Y-59433750D01*
X72780000Y-59433750D02*
X72780000Y-59814750D01*
%TO.C,SW8*%
X65235838Y-46752710D02*
G75*
G02*
X67700000Y-44828750I2464162J-616040D01*
G01*
X61350000Y-42923750D02*
G75*
G02*
X63890000Y-40383750I2540000J0D01*
G01*
X61350000Y-46352750D02*
X61350000Y-46733750D01*
X72780000Y-43812750D02*
X72780000Y-44828750D01*
X72780000Y-44828750D02*
X67700000Y-44828750D01*
X65235838Y-46733750D02*
X63509000Y-46733750D01*
X61731000Y-46733750D02*
X61350000Y-46733750D01*
X61350000Y-42923750D02*
X61350000Y-43304750D01*
X63890000Y-40383750D02*
X72780000Y-40383750D01*
X72780000Y-40383750D02*
X72780000Y-40764750D01*
%TO.C,SW7*%
X65235838Y-27702710D02*
G75*
G02*
X67700000Y-25778750I2464162J-616040D01*
G01*
X61350000Y-23873750D02*
G75*
G02*
X63890000Y-21333750I2540000J0D01*
G01*
X61350000Y-27302750D02*
X61350000Y-27683750D01*
X72780000Y-24762750D02*
X72780000Y-25778750D01*
X72780000Y-25778750D02*
X67700000Y-25778750D01*
X65235838Y-27683750D02*
X63509000Y-27683750D01*
X61731000Y-27683750D02*
X61350000Y-27683750D01*
X61350000Y-23873750D02*
X61350000Y-24254750D01*
X63890000Y-21333750D02*
X72780000Y-21333750D01*
X72780000Y-21333750D02*
X72780000Y-21714750D01*
%TO.C,SW6*%
X46185838Y-65802710D02*
G75*
G02*
X48650000Y-63878750I2464162J-616040D01*
G01*
X42300000Y-61973750D02*
G75*
G02*
X44840000Y-59433750I2540000J0D01*
G01*
X42300000Y-65402750D02*
X42300000Y-65783750D01*
X53730000Y-62862750D02*
X53730000Y-63878750D01*
X53730000Y-63878750D02*
X48650000Y-63878750D01*
X46185838Y-65783750D02*
X44459000Y-65783750D01*
X42681000Y-65783750D02*
X42300000Y-65783750D01*
X42300000Y-61973750D02*
X42300000Y-62354750D01*
X44840000Y-59433750D02*
X53730000Y-59433750D01*
X53730000Y-59433750D02*
X53730000Y-59814750D01*
%TO.C,SW5*%
X46185838Y-46752710D02*
G75*
G02*
X48650000Y-44828750I2464162J-616040D01*
G01*
X42300000Y-42923750D02*
G75*
G02*
X44840000Y-40383750I2540000J0D01*
G01*
X42300000Y-46352750D02*
X42300000Y-46733750D01*
X53730000Y-43812750D02*
X53730000Y-44828750D01*
X53730000Y-44828750D02*
X48650000Y-44828750D01*
X46185838Y-46733750D02*
X44459000Y-46733750D01*
X42681000Y-46733750D02*
X42300000Y-46733750D01*
X42300000Y-42923750D02*
X42300000Y-43304750D01*
X44840000Y-40383750D02*
X53730000Y-40383750D01*
X53730000Y-40383750D02*
X53730000Y-40764750D01*
%TO.C,SW4*%
X46185838Y-27702710D02*
G75*
G02*
X48650000Y-25778750I2464162J-616040D01*
G01*
X42300000Y-23873750D02*
G75*
G02*
X44840000Y-21333750I2540000J0D01*
G01*
X42300000Y-27302750D02*
X42300000Y-27683750D01*
X53730000Y-24762750D02*
X53730000Y-25778750D01*
X53730000Y-25778750D02*
X48650000Y-25778750D01*
X46185838Y-27683750D02*
X44459000Y-27683750D01*
X42681000Y-27683750D02*
X42300000Y-27683750D01*
X42300000Y-23873750D02*
X42300000Y-24254750D01*
X44840000Y-21333750D02*
X53730000Y-21333750D01*
X53730000Y-21333750D02*
X53730000Y-21714750D01*
%TO.C,SW3*%
X27135838Y-65802710D02*
G75*
G02*
X29600000Y-63878750I2464162J-616040D01*
G01*
X23250000Y-61973750D02*
G75*
G02*
X25790000Y-59433750I2540000J0D01*
G01*
X23250000Y-65402750D02*
X23250000Y-65783750D01*
X34680000Y-62862750D02*
X34680000Y-63878750D01*
X34680000Y-63878750D02*
X29600000Y-63878750D01*
X27135838Y-65783750D02*
X25409000Y-65783750D01*
X23631000Y-65783750D02*
X23250000Y-65783750D01*
X23250000Y-61973750D02*
X23250000Y-62354750D01*
X25790000Y-59433750D02*
X34680000Y-59433750D01*
X34680000Y-59433750D02*
X34680000Y-59814750D01*
%TO.C,SW2*%
X27135838Y-46752710D02*
G75*
G02*
X29600000Y-44828750I2464162J-616040D01*
G01*
X23250000Y-42923750D02*
G75*
G02*
X25790000Y-40383750I2540000J0D01*
G01*
X23250000Y-46352750D02*
X23250000Y-46733750D01*
X34680000Y-43812750D02*
X34680000Y-44828750D01*
X34680000Y-44828750D02*
X29600000Y-44828750D01*
X27135838Y-46733750D02*
X25409000Y-46733750D01*
X23631000Y-46733750D02*
X23250000Y-46733750D01*
X23250000Y-42923750D02*
X23250000Y-43304750D01*
X25790000Y-40383750D02*
X34680000Y-40383750D01*
X34680000Y-40383750D02*
X34680000Y-40764750D01*
%TO.C,SW1*%
X27135838Y-27702710D02*
G75*
G02*
X29600000Y-25778750I2464162J-616040D01*
G01*
X23250000Y-23873750D02*
G75*
G02*
X25790000Y-21333750I2540000J0D01*
G01*
X23250000Y-27302750D02*
X23250000Y-27683750D01*
X34680000Y-24762750D02*
X34680000Y-25778750D01*
X34680000Y-25778750D02*
X29600000Y-25778750D01*
X27135838Y-27683750D02*
X25409000Y-27683750D01*
X23631000Y-27683750D02*
X23250000Y-27683750D01*
X23250000Y-23873750D02*
X23250000Y-24254750D01*
X25790000Y-21333750D02*
X34680000Y-21333750D01*
X34680000Y-21333750D02*
X34680000Y-21714750D01*
%TO.C,SW23*%
X145709523Y-20468511D02*
X145566666Y-20516130D01*
X145328571Y-20516130D01*
X145233333Y-20468511D01*
X145185714Y-20420892D01*
X145138095Y-20325654D01*
X145138095Y-20230416D01*
X145185714Y-20135178D01*
X145233333Y-20087559D01*
X145328571Y-20039940D01*
X145519047Y-19992321D01*
X145614285Y-19944702D01*
X145661904Y-19897083D01*
X145709523Y-19801845D01*
X145709523Y-19706607D01*
X145661904Y-19611369D01*
X145614285Y-19563750D01*
X145519047Y-19516130D01*
X145280952Y-19516130D01*
X145138095Y-19563750D01*
X144804761Y-19516130D02*
X144566666Y-20516130D01*
X144376190Y-19801845D01*
X144185714Y-20516130D01*
X143947619Y-19516130D01*
X143614285Y-19611369D02*
X143566666Y-19563750D01*
X143471428Y-19516130D01*
X143233333Y-19516130D01*
X143138095Y-19563750D01*
X143090476Y-19611369D01*
X143042857Y-19706607D01*
X143042857Y-19801845D01*
X143090476Y-19944702D01*
X143661904Y-20516130D01*
X143042857Y-20516130D01*
X142709523Y-19516130D02*
X142090476Y-19516130D01*
X142423809Y-19897083D01*
X142280952Y-19897083D01*
X142185714Y-19944702D01*
X142138095Y-19992321D01*
X142090476Y-20087559D01*
X142090476Y-20325654D01*
X142138095Y-20420892D01*
X142185714Y-20468511D01*
X142280952Y-20516130D01*
X142566666Y-20516130D01*
X142661904Y-20468511D01*
X142709523Y-20420892D01*
%TO.C,SW36*%
X202859523Y-58568511D02*
X202716666Y-58616130D01*
X202478571Y-58616130D01*
X202383333Y-58568511D01*
X202335714Y-58520892D01*
X202288095Y-58425654D01*
X202288095Y-58330416D01*
X202335714Y-58235178D01*
X202383333Y-58187559D01*
X202478571Y-58139940D01*
X202669047Y-58092321D01*
X202764285Y-58044702D01*
X202811904Y-57997083D01*
X202859523Y-57901845D01*
X202859523Y-57806607D01*
X202811904Y-57711369D01*
X202764285Y-57663750D01*
X202669047Y-57616130D01*
X202430952Y-57616130D01*
X202288095Y-57663750D01*
X201954761Y-57616130D02*
X201716666Y-58616130D01*
X201526190Y-57901845D01*
X201335714Y-58616130D01*
X201097619Y-57616130D01*
X200811904Y-57616130D02*
X200192857Y-57616130D01*
X200526190Y-57997083D01*
X200383333Y-57997083D01*
X200288095Y-58044702D01*
X200240476Y-58092321D01*
X200192857Y-58187559D01*
X200192857Y-58425654D01*
X200240476Y-58520892D01*
X200288095Y-58568511D01*
X200383333Y-58616130D01*
X200669047Y-58616130D01*
X200764285Y-58568511D01*
X200811904Y-58520892D01*
X199335714Y-57616130D02*
X199526190Y-57616130D01*
X199621428Y-57663750D01*
X199669047Y-57711369D01*
X199764285Y-57854226D01*
X199811904Y-58044702D01*
X199811904Y-58425654D01*
X199764285Y-58520892D01*
X199716666Y-58568511D01*
X199621428Y-58616130D01*
X199430952Y-58616130D01*
X199335714Y-58568511D01*
X199288095Y-58520892D01*
X199240476Y-58425654D01*
X199240476Y-58187559D01*
X199288095Y-58092321D01*
X199335714Y-58044702D01*
X199430952Y-57997083D01*
X199621428Y-57997083D01*
X199716666Y-58044702D01*
X199764285Y-58092321D01*
X199811904Y-58187559D01*
%TO.C,SW35*%
X202859523Y-39518511D02*
X202716666Y-39566130D01*
X202478571Y-39566130D01*
X202383333Y-39518511D01*
X202335714Y-39470892D01*
X202288095Y-39375654D01*
X202288095Y-39280416D01*
X202335714Y-39185178D01*
X202383333Y-39137559D01*
X202478571Y-39089940D01*
X202669047Y-39042321D01*
X202764285Y-38994702D01*
X202811904Y-38947083D01*
X202859523Y-38851845D01*
X202859523Y-38756607D01*
X202811904Y-38661369D01*
X202764285Y-38613750D01*
X202669047Y-38566130D01*
X202430952Y-38566130D01*
X202288095Y-38613750D01*
X201954761Y-38566130D02*
X201716666Y-39566130D01*
X201526190Y-38851845D01*
X201335714Y-39566130D01*
X201097619Y-38566130D01*
X200811904Y-38566130D02*
X200192857Y-38566130D01*
X200526190Y-38947083D01*
X200383333Y-38947083D01*
X200288095Y-38994702D01*
X200240476Y-39042321D01*
X200192857Y-39137559D01*
X200192857Y-39375654D01*
X200240476Y-39470892D01*
X200288095Y-39518511D01*
X200383333Y-39566130D01*
X200669047Y-39566130D01*
X200764285Y-39518511D01*
X200811904Y-39470892D01*
X199288095Y-38566130D02*
X199764285Y-38566130D01*
X199811904Y-39042321D01*
X199764285Y-38994702D01*
X199669047Y-38947083D01*
X199430952Y-38947083D01*
X199335714Y-38994702D01*
X199288095Y-39042321D01*
X199240476Y-39137559D01*
X199240476Y-39375654D01*
X199288095Y-39470892D01*
X199335714Y-39518511D01*
X199430952Y-39566130D01*
X199669047Y-39566130D01*
X199764285Y-39518511D01*
X199811904Y-39470892D01*
%TO.C,SW24*%
X145709523Y-39518511D02*
X145566666Y-39566130D01*
X145328571Y-39566130D01*
X145233333Y-39518511D01*
X145185714Y-39470892D01*
X145138095Y-39375654D01*
X145138095Y-39280416D01*
X145185714Y-39185178D01*
X145233333Y-39137559D01*
X145328571Y-39089940D01*
X145519047Y-39042321D01*
X145614285Y-38994702D01*
X145661904Y-38947083D01*
X145709523Y-38851845D01*
X145709523Y-38756607D01*
X145661904Y-38661369D01*
X145614285Y-38613750D01*
X145519047Y-38566130D01*
X145280952Y-38566130D01*
X145138095Y-38613750D01*
X144804761Y-38566130D02*
X144566666Y-39566130D01*
X144376190Y-38851845D01*
X144185714Y-39566130D01*
X143947619Y-38566130D01*
X143614285Y-38661369D02*
X143566666Y-38613750D01*
X143471428Y-38566130D01*
X143233333Y-38566130D01*
X143138095Y-38613750D01*
X143090476Y-38661369D01*
X143042857Y-38756607D01*
X143042857Y-38851845D01*
X143090476Y-38994702D01*
X143661904Y-39566130D01*
X143042857Y-39566130D01*
X142185714Y-38899464D02*
X142185714Y-39566130D01*
X142423809Y-38518511D02*
X142661904Y-39232797D01*
X142042857Y-39232797D01*
%TO.C,SW25*%
X145709523Y-58568511D02*
X145566666Y-58616130D01*
X145328571Y-58616130D01*
X145233333Y-58568511D01*
X145185714Y-58520892D01*
X145138095Y-58425654D01*
X145138095Y-58330416D01*
X145185714Y-58235178D01*
X145233333Y-58187559D01*
X145328571Y-58139940D01*
X145519047Y-58092321D01*
X145614285Y-58044702D01*
X145661904Y-57997083D01*
X145709523Y-57901845D01*
X145709523Y-57806607D01*
X145661904Y-57711369D01*
X145614285Y-57663750D01*
X145519047Y-57616130D01*
X145280952Y-57616130D01*
X145138095Y-57663750D01*
X144804761Y-57616130D02*
X144566666Y-58616130D01*
X144376190Y-57901845D01*
X144185714Y-58616130D01*
X143947619Y-57616130D01*
X143614285Y-57711369D02*
X143566666Y-57663750D01*
X143471428Y-57616130D01*
X143233333Y-57616130D01*
X143138095Y-57663750D01*
X143090476Y-57711369D01*
X143042857Y-57806607D01*
X143042857Y-57901845D01*
X143090476Y-58044702D01*
X143661904Y-58616130D01*
X143042857Y-58616130D01*
X142138095Y-57616130D02*
X142614285Y-57616130D01*
X142661904Y-58092321D01*
X142614285Y-58044702D01*
X142519047Y-57997083D01*
X142280952Y-57997083D01*
X142185714Y-58044702D01*
X142138095Y-58092321D01*
X142090476Y-58187559D01*
X142090476Y-58425654D01*
X142138095Y-58520892D01*
X142185714Y-58568511D01*
X142280952Y-58616130D01*
X142519047Y-58616130D01*
X142614285Y-58568511D01*
X142661904Y-58520892D01*
%TO.C,SW26*%
X145709523Y-77618511D02*
X145566666Y-77666130D01*
X145328571Y-77666130D01*
X145233333Y-77618511D01*
X145185714Y-77570892D01*
X145138095Y-77475654D01*
X145138095Y-77380416D01*
X145185714Y-77285178D01*
X145233333Y-77237559D01*
X145328571Y-77189940D01*
X145519047Y-77142321D01*
X145614285Y-77094702D01*
X145661904Y-77047083D01*
X145709523Y-76951845D01*
X145709523Y-76856607D01*
X145661904Y-76761369D01*
X145614285Y-76713750D01*
X145519047Y-76666130D01*
X145280952Y-76666130D01*
X145138095Y-76713750D01*
X144804761Y-76666130D02*
X144566666Y-77666130D01*
X144376190Y-76951845D01*
X144185714Y-77666130D01*
X143947619Y-76666130D01*
X143614285Y-76761369D02*
X143566666Y-76713750D01*
X143471428Y-76666130D01*
X143233333Y-76666130D01*
X143138095Y-76713750D01*
X143090476Y-76761369D01*
X143042857Y-76856607D01*
X143042857Y-76951845D01*
X143090476Y-77094702D01*
X143661904Y-77666130D01*
X143042857Y-77666130D01*
X142185714Y-76666130D02*
X142376190Y-76666130D01*
X142471428Y-76713750D01*
X142519047Y-76761369D01*
X142614285Y-76904226D01*
X142661904Y-77094702D01*
X142661904Y-77475654D01*
X142614285Y-77570892D01*
X142566666Y-77618511D01*
X142471428Y-77666130D01*
X142280952Y-77666130D01*
X142185714Y-77618511D01*
X142138095Y-77570892D01*
X142090476Y-77475654D01*
X142090476Y-77237559D01*
X142138095Y-77142321D01*
X142185714Y-77094702D01*
X142280952Y-77047083D01*
X142471428Y-77047083D01*
X142566666Y-77094702D01*
X142614285Y-77142321D01*
X142661904Y-77237559D01*
%TO.C,SW27*%
X164759523Y-20468511D02*
X164616666Y-20516130D01*
X164378571Y-20516130D01*
X164283333Y-20468511D01*
X164235714Y-20420892D01*
X164188095Y-20325654D01*
X164188095Y-20230416D01*
X164235714Y-20135178D01*
X164283333Y-20087559D01*
X164378571Y-20039940D01*
X164569047Y-19992321D01*
X164664285Y-19944702D01*
X164711904Y-19897083D01*
X164759523Y-19801845D01*
X164759523Y-19706607D01*
X164711904Y-19611369D01*
X164664285Y-19563750D01*
X164569047Y-19516130D01*
X164330952Y-19516130D01*
X164188095Y-19563750D01*
X163854761Y-19516130D02*
X163616666Y-20516130D01*
X163426190Y-19801845D01*
X163235714Y-20516130D01*
X162997619Y-19516130D01*
X162664285Y-19611369D02*
X162616666Y-19563750D01*
X162521428Y-19516130D01*
X162283333Y-19516130D01*
X162188095Y-19563750D01*
X162140476Y-19611369D01*
X162092857Y-19706607D01*
X162092857Y-19801845D01*
X162140476Y-19944702D01*
X162711904Y-20516130D01*
X162092857Y-20516130D01*
X161759523Y-19516130D02*
X161092857Y-19516130D01*
X161521428Y-20516130D01*
%TO.C,SW28*%
X164759523Y-39518511D02*
X164616666Y-39566130D01*
X164378571Y-39566130D01*
X164283333Y-39518511D01*
X164235714Y-39470892D01*
X164188095Y-39375654D01*
X164188095Y-39280416D01*
X164235714Y-39185178D01*
X164283333Y-39137559D01*
X164378571Y-39089940D01*
X164569047Y-39042321D01*
X164664285Y-38994702D01*
X164711904Y-38947083D01*
X164759523Y-38851845D01*
X164759523Y-38756607D01*
X164711904Y-38661369D01*
X164664285Y-38613750D01*
X164569047Y-38566130D01*
X164330952Y-38566130D01*
X164188095Y-38613750D01*
X163854761Y-38566130D02*
X163616666Y-39566130D01*
X163426190Y-38851845D01*
X163235714Y-39566130D01*
X162997619Y-38566130D01*
X162664285Y-38661369D02*
X162616666Y-38613750D01*
X162521428Y-38566130D01*
X162283333Y-38566130D01*
X162188095Y-38613750D01*
X162140476Y-38661369D01*
X162092857Y-38756607D01*
X162092857Y-38851845D01*
X162140476Y-38994702D01*
X162711904Y-39566130D01*
X162092857Y-39566130D01*
X161521428Y-38994702D02*
X161616666Y-38947083D01*
X161664285Y-38899464D01*
X161711904Y-38804226D01*
X161711904Y-38756607D01*
X161664285Y-38661369D01*
X161616666Y-38613750D01*
X161521428Y-38566130D01*
X161330952Y-38566130D01*
X161235714Y-38613750D01*
X161188095Y-38661369D01*
X161140476Y-38756607D01*
X161140476Y-38804226D01*
X161188095Y-38899464D01*
X161235714Y-38947083D01*
X161330952Y-38994702D01*
X161521428Y-38994702D01*
X161616666Y-39042321D01*
X161664285Y-39089940D01*
X161711904Y-39185178D01*
X161711904Y-39375654D01*
X161664285Y-39470892D01*
X161616666Y-39518511D01*
X161521428Y-39566130D01*
X161330952Y-39566130D01*
X161235714Y-39518511D01*
X161188095Y-39470892D01*
X161140476Y-39375654D01*
X161140476Y-39185178D01*
X161188095Y-39089940D01*
X161235714Y-39042321D01*
X161330952Y-38994702D01*
%TO.C,SW29*%
X164759523Y-58568511D02*
X164616666Y-58616130D01*
X164378571Y-58616130D01*
X164283333Y-58568511D01*
X164235714Y-58520892D01*
X164188095Y-58425654D01*
X164188095Y-58330416D01*
X164235714Y-58235178D01*
X164283333Y-58187559D01*
X164378571Y-58139940D01*
X164569047Y-58092321D01*
X164664285Y-58044702D01*
X164711904Y-57997083D01*
X164759523Y-57901845D01*
X164759523Y-57806607D01*
X164711904Y-57711369D01*
X164664285Y-57663750D01*
X164569047Y-57616130D01*
X164330952Y-57616130D01*
X164188095Y-57663750D01*
X163854761Y-57616130D02*
X163616666Y-58616130D01*
X163426190Y-57901845D01*
X163235714Y-58616130D01*
X162997619Y-57616130D01*
X162664285Y-57711369D02*
X162616666Y-57663750D01*
X162521428Y-57616130D01*
X162283333Y-57616130D01*
X162188095Y-57663750D01*
X162140476Y-57711369D01*
X162092857Y-57806607D01*
X162092857Y-57901845D01*
X162140476Y-58044702D01*
X162711904Y-58616130D01*
X162092857Y-58616130D01*
X161616666Y-58616130D02*
X161426190Y-58616130D01*
X161330952Y-58568511D01*
X161283333Y-58520892D01*
X161188095Y-58378035D01*
X161140476Y-58187559D01*
X161140476Y-57806607D01*
X161188095Y-57711369D01*
X161235714Y-57663750D01*
X161330952Y-57616130D01*
X161521428Y-57616130D01*
X161616666Y-57663750D01*
X161664285Y-57711369D01*
X161711904Y-57806607D01*
X161711904Y-58044702D01*
X161664285Y-58139940D01*
X161616666Y-58187559D01*
X161521428Y-58235178D01*
X161330952Y-58235178D01*
X161235714Y-58187559D01*
X161188095Y-58139940D01*
X161140476Y-58044702D01*
%TO.C,SW30*%
X164759523Y-77618511D02*
X164616666Y-77666130D01*
X164378571Y-77666130D01*
X164283333Y-77618511D01*
X164235714Y-77570892D01*
X164188095Y-77475654D01*
X164188095Y-77380416D01*
X164235714Y-77285178D01*
X164283333Y-77237559D01*
X164378571Y-77189940D01*
X164569047Y-77142321D01*
X164664285Y-77094702D01*
X164711904Y-77047083D01*
X164759523Y-76951845D01*
X164759523Y-76856607D01*
X164711904Y-76761369D01*
X164664285Y-76713750D01*
X164569047Y-76666130D01*
X164330952Y-76666130D01*
X164188095Y-76713750D01*
X163854761Y-76666130D02*
X163616666Y-77666130D01*
X163426190Y-76951845D01*
X163235714Y-77666130D01*
X162997619Y-76666130D01*
X162711904Y-76666130D02*
X162092857Y-76666130D01*
X162426190Y-77047083D01*
X162283333Y-77047083D01*
X162188095Y-77094702D01*
X162140476Y-77142321D01*
X162092857Y-77237559D01*
X162092857Y-77475654D01*
X162140476Y-77570892D01*
X162188095Y-77618511D01*
X162283333Y-77666130D01*
X162569047Y-77666130D01*
X162664285Y-77618511D01*
X162711904Y-77570892D01*
X161473809Y-76666130D02*
X161378571Y-76666130D01*
X161283333Y-76713750D01*
X161235714Y-76761369D01*
X161188095Y-76856607D01*
X161140476Y-77047083D01*
X161140476Y-77285178D01*
X161188095Y-77475654D01*
X161235714Y-77570892D01*
X161283333Y-77618511D01*
X161378571Y-77666130D01*
X161473809Y-77666130D01*
X161569047Y-77618511D01*
X161616666Y-77570892D01*
X161664285Y-77475654D01*
X161711904Y-77285178D01*
X161711904Y-77047083D01*
X161664285Y-76856607D01*
X161616666Y-76761369D01*
X161569047Y-76713750D01*
X161473809Y-76666130D01*
%TO.C,SW31*%
X183809523Y-20468511D02*
X183666666Y-20516130D01*
X183428571Y-20516130D01*
X183333333Y-20468511D01*
X183285714Y-20420892D01*
X183238095Y-20325654D01*
X183238095Y-20230416D01*
X183285714Y-20135178D01*
X183333333Y-20087559D01*
X183428571Y-20039940D01*
X183619047Y-19992321D01*
X183714285Y-19944702D01*
X183761904Y-19897083D01*
X183809523Y-19801845D01*
X183809523Y-19706607D01*
X183761904Y-19611369D01*
X183714285Y-19563750D01*
X183619047Y-19516130D01*
X183380952Y-19516130D01*
X183238095Y-19563750D01*
X182904761Y-19516130D02*
X182666666Y-20516130D01*
X182476190Y-19801845D01*
X182285714Y-20516130D01*
X182047619Y-19516130D01*
X181761904Y-19516130D02*
X181142857Y-19516130D01*
X181476190Y-19897083D01*
X181333333Y-19897083D01*
X181238095Y-19944702D01*
X181190476Y-19992321D01*
X181142857Y-20087559D01*
X181142857Y-20325654D01*
X181190476Y-20420892D01*
X181238095Y-20468511D01*
X181333333Y-20516130D01*
X181619047Y-20516130D01*
X181714285Y-20468511D01*
X181761904Y-20420892D01*
X180190476Y-20516130D02*
X180761904Y-20516130D01*
X180476190Y-20516130D02*
X180476190Y-19516130D01*
X180571428Y-19658988D01*
X180666666Y-19754226D01*
X180761904Y-19801845D01*
%TO.C,SW32*%
X183809523Y-39518511D02*
X183666666Y-39566130D01*
X183428571Y-39566130D01*
X183333333Y-39518511D01*
X183285714Y-39470892D01*
X183238095Y-39375654D01*
X183238095Y-39280416D01*
X183285714Y-39185178D01*
X183333333Y-39137559D01*
X183428571Y-39089940D01*
X183619047Y-39042321D01*
X183714285Y-38994702D01*
X183761904Y-38947083D01*
X183809523Y-38851845D01*
X183809523Y-38756607D01*
X183761904Y-38661369D01*
X183714285Y-38613750D01*
X183619047Y-38566130D01*
X183380952Y-38566130D01*
X183238095Y-38613750D01*
X182904761Y-38566130D02*
X182666666Y-39566130D01*
X182476190Y-38851845D01*
X182285714Y-39566130D01*
X182047619Y-38566130D01*
X181761904Y-38566130D02*
X181142857Y-38566130D01*
X181476190Y-38947083D01*
X181333333Y-38947083D01*
X181238095Y-38994702D01*
X181190476Y-39042321D01*
X181142857Y-39137559D01*
X181142857Y-39375654D01*
X181190476Y-39470892D01*
X181238095Y-39518511D01*
X181333333Y-39566130D01*
X181619047Y-39566130D01*
X181714285Y-39518511D01*
X181761904Y-39470892D01*
X180761904Y-38661369D02*
X180714285Y-38613750D01*
X180619047Y-38566130D01*
X180380952Y-38566130D01*
X180285714Y-38613750D01*
X180238095Y-38661369D01*
X180190476Y-38756607D01*
X180190476Y-38851845D01*
X180238095Y-38994702D01*
X180809523Y-39566130D01*
X180190476Y-39566130D01*
%TO.C,SW33*%
X183809523Y-58568511D02*
X183666666Y-58616130D01*
X183428571Y-58616130D01*
X183333333Y-58568511D01*
X183285714Y-58520892D01*
X183238095Y-58425654D01*
X183238095Y-58330416D01*
X183285714Y-58235178D01*
X183333333Y-58187559D01*
X183428571Y-58139940D01*
X183619047Y-58092321D01*
X183714285Y-58044702D01*
X183761904Y-57997083D01*
X183809523Y-57901845D01*
X183809523Y-57806607D01*
X183761904Y-57711369D01*
X183714285Y-57663750D01*
X183619047Y-57616130D01*
X183380952Y-57616130D01*
X183238095Y-57663750D01*
X182904761Y-57616130D02*
X182666666Y-58616130D01*
X182476190Y-57901845D01*
X182285714Y-58616130D01*
X182047619Y-57616130D01*
X181761904Y-57616130D02*
X181142857Y-57616130D01*
X181476190Y-57997083D01*
X181333333Y-57997083D01*
X181238095Y-58044702D01*
X181190476Y-58092321D01*
X181142857Y-58187559D01*
X181142857Y-58425654D01*
X181190476Y-58520892D01*
X181238095Y-58568511D01*
X181333333Y-58616130D01*
X181619047Y-58616130D01*
X181714285Y-58568511D01*
X181761904Y-58520892D01*
X180809523Y-57616130D02*
X180190476Y-57616130D01*
X180523809Y-57997083D01*
X180380952Y-57997083D01*
X180285714Y-58044702D01*
X180238095Y-58092321D01*
X180190476Y-58187559D01*
X180190476Y-58425654D01*
X180238095Y-58520892D01*
X180285714Y-58568511D01*
X180380952Y-58616130D01*
X180666666Y-58616130D01*
X180761904Y-58568511D01*
X180809523Y-58520892D01*
%TO.C,SW34*%
X202859523Y-20468511D02*
X202716666Y-20516130D01*
X202478571Y-20516130D01*
X202383333Y-20468511D01*
X202335714Y-20420892D01*
X202288095Y-20325654D01*
X202288095Y-20230416D01*
X202335714Y-20135178D01*
X202383333Y-20087559D01*
X202478571Y-20039940D01*
X202669047Y-19992321D01*
X202764285Y-19944702D01*
X202811904Y-19897083D01*
X202859523Y-19801845D01*
X202859523Y-19706607D01*
X202811904Y-19611369D01*
X202764285Y-19563750D01*
X202669047Y-19516130D01*
X202430952Y-19516130D01*
X202288095Y-19563750D01*
X201954761Y-19516130D02*
X201716666Y-20516130D01*
X201526190Y-19801845D01*
X201335714Y-20516130D01*
X201097619Y-19516130D01*
X200811904Y-19516130D02*
X200192857Y-19516130D01*
X200526190Y-19897083D01*
X200383333Y-19897083D01*
X200288095Y-19944702D01*
X200240476Y-19992321D01*
X200192857Y-20087559D01*
X200192857Y-20325654D01*
X200240476Y-20420892D01*
X200288095Y-20468511D01*
X200383333Y-20516130D01*
X200669047Y-20516130D01*
X200764285Y-20468511D01*
X200811904Y-20420892D01*
X199335714Y-19849464D02*
X199335714Y-20516130D01*
X199573809Y-19468511D02*
X199811904Y-20182797D01*
X199192857Y-20182797D01*
%TO.C,SW22*%
X126659523Y-77618511D02*
X126516666Y-77666130D01*
X126278571Y-77666130D01*
X126183333Y-77618511D01*
X126135714Y-77570892D01*
X126088095Y-77475654D01*
X126088095Y-77380416D01*
X126135714Y-77285178D01*
X126183333Y-77237559D01*
X126278571Y-77189940D01*
X126469047Y-77142321D01*
X126564285Y-77094702D01*
X126611904Y-77047083D01*
X126659523Y-76951845D01*
X126659523Y-76856607D01*
X126611904Y-76761369D01*
X126564285Y-76713750D01*
X126469047Y-76666130D01*
X126230952Y-76666130D01*
X126088095Y-76713750D01*
X125754761Y-76666130D02*
X125516666Y-77666130D01*
X125326190Y-76951845D01*
X125135714Y-77666130D01*
X124897619Y-76666130D01*
X124564285Y-76761369D02*
X124516666Y-76713750D01*
X124421428Y-76666130D01*
X124183333Y-76666130D01*
X124088095Y-76713750D01*
X124040476Y-76761369D01*
X123992857Y-76856607D01*
X123992857Y-76951845D01*
X124040476Y-77094702D01*
X124611904Y-77666130D01*
X123992857Y-77666130D01*
X123611904Y-76761369D02*
X123564285Y-76713750D01*
X123469047Y-76666130D01*
X123230952Y-76666130D01*
X123135714Y-76713750D01*
X123088095Y-76761369D01*
X123040476Y-76856607D01*
X123040476Y-76951845D01*
X123088095Y-77094702D01*
X123659523Y-77666130D01*
X123040476Y-77666130D01*
%TO.C,SW18*%
X107609523Y-77618511D02*
X107466666Y-77666130D01*
X107228571Y-77666130D01*
X107133333Y-77618511D01*
X107085714Y-77570892D01*
X107038095Y-77475654D01*
X107038095Y-77380416D01*
X107085714Y-77285178D01*
X107133333Y-77237559D01*
X107228571Y-77189940D01*
X107419047Y-77142321D01*
X107514285Y-77094702D01*
X107561904Y-77047083D01*
X107609523Y-76951845D01*
X107609523Y-76856607D01*
X107561904Y-76761369D01*
X107514285Y-76713750D01*
X107419047Y-76666130D01*
X107180952Y-76666130D01*
X107038095Y-76713750D01*
X106704761Y-76666130D02*
X106466666Y-77666130D01*
X106276190Y-76951845D01*
X106085714Y-77666130D01*
X105847619Y-76666130D01*
X104942857Y-77666130D02*
X105514285Y-77666130D01*
X105228571Y-77666130D02*
X105228571Y-76666130D01*
X105323809Y-76808988D01*
X105419047Y-76904226D01*
X105514285Y-76951845D01*
X104371428Y-77094702D02*
X104466666Y-77047083D01*
X104514285Y-76999464D01*
X104561904Y-76904226D01*
X104561904Y-76856607D01*
X104514285Y-76761369D01*
X104466666Y-76713750D01*
X104371428Y-76666130D01*
X104180952Y-76666130D01*
X104085714Y-76713750D01*
X104038095Y-76761369D01*
X103990476Y-76856607D01*
X103990476Y-76904226D01*
X104038095Y-76999464D01*
X104085714Y-77047083D01*
X104180952Y-77094702D01*
X104371428Y-77094702D01*
X104466666Y-77142321D01*
X104514285Y-77189940D01*
X104561904Y-77285178D01*
X104561904Y-77475654D01*
X104514285Y-77570892D01*
X104466666Y-77618511D01*
X104371428Y-77666130D01*
X104180952Y-77666130D01*
X104085714Y-77618511D01*
X104038095Y-77570892D01*
X103990476Y-77475654D01*
X103990476Y-77285178D01*
X104038095Y-77189940D01*
X104085714Y-77142321D01*
X104180952Y-77094702D01*
%TO.C,SW15*%
X107609523Y-20468511D02*
X107466666Y-20516130D01*
X107228571Y-20516130D01*
X107133333Y-20468511D01*
X107085714Y-20420892D01*
X107038095Y-20325654D01*
X107038095Y-20230416D01*
X107085714Y-20135178D01*
X107133333Y-20087559D01*
X107228571Y-20039940D01*
X107419047Y-19992321D01*
X107514285Y-19944702D01*
X107561904Y-19897083D01*
X107609523Y-19801845D01*
X107609523Y-19706607D01*
X107561904Y-19611369D01*
X107514285Y-19563750D01*
X107419047Y-19516130D01*
X107180952Y-19516130D01*
X107038095Y-19563750D01*
X106704761Y-19516130D02*
X106466666Y-20516130D01*
X106276190Y-19801845D01*
X106085714Y-20516130D01*
X105847619Y-19516130D01*
X104942857Y-20516130D02*
X105514285Y-20516130D01*
X105228571Y-20516130D02*
X105228571Y-19516130D01*
X105323809Y-19658988D01*
X105419047Y-19754226D01*
X105514285Y-19801845D01*
X104038095Y-19516130D02*
X104514285Y-19516130D01*
X104561904Y-19992321D01*
X104514285Y-19944702D01*
X104419047Y-19897083D01*
X104180952Y-19897083D01*
X104085714Y-19944702D01*
X104038095Y-19992321D01*
X103990476Y-20087559D01*
X103990476Y-20325654D01*
X104038095Y-20420892D01*
X104085714Y-20468511D01*
X104180952Y-20516130D01*
X104419047Y-20516130D01*
X104514285Y-20468511D01*
X104561904Y-20420892D01*
%TO.C,SW13*%
X88559523Y-58568511D02*
X88416666Y-58616130D01*
X88178571Y-58616130D01*
X88083333Y-58568511D01*
X88035714Y-58520892D01*
X87988095Y-58425654D01*
X87988095Y-58330416D01*
X88035714Y-58235178D01*
X88083333Y-58187559D01*
X88178571Y-58139940D01*
X88369047Y-58092321D01*
X88464285Y-58044702D01*
X88511904Y-57997083D01*
X88559523Y-57901845D01*
X88559523Y-57806607D01*
X88511904Y-57711369D01*
X88464285Y-57663750D01*
X88369047Y-57616130D01*
X88130952Y-57616130D01*
X87988095Y-57663750D01*
X87654761Y-57616130D02*
X87416666Y-58616130D01*
X87226190Y-57901845D01*
X87035714Y-58616130D01*
X86797619Y-57616130D01*
X85892857Y-58616130D02*
X86464285Y-58616130D01*
X86178571Y-58616130D02*
X86178571Y-57616130D01*
X86273809Y-57758988D01*
X86369047Y-57854226D01*
X86464285Y-57901845D01*
X85559523Y-57616130D02*
X84940476Y-57616130D01*
X85273809Y-57997083D01*
X85130952Y-57997083D01*
X85035714Y-58044702D01*
X84988095Y-58092321D01*
X84940476Y-58187559D01*
X84940476Y-58425654D01*
X84988095Y-58520892D01*
X85035714Y-58568511D01*
X85130952Y-58616130D01*
X85416666Y-58616130D01*
X85511904Y-58568511D01*
X85559523Y-58520892D01*
%TO.C,SW11*%
X88559523Y-20468511D02*
X88416666Y-20516130D01*
X88178571Y-20516130D01*
X88083333Y-20468511D01*
X88035714Y-20420892D01*
X87988095Y-20325654D01*
X87988095Y-20230416D01*
X88035714Y-20135178D01*
X88083333Y-20087559D01*
X88178571Y-20039940D01*
X88369047Y-19992321D01*
X88464285Y-19944702D01*
X88511904Y-19897083D01*
X88559523Y-19801845D01*
X88559523Y-19706607D01*
X88511904Y-19611369D01*
X88464285Y-19563750D01*
X88369047Y-19516130D01*
X88130952Y-19516130D01*
X87988095Y-19563750D01*
X87654761Y-19516130D02*
X87416666Y-20516130D01*
X87226190Y-19801845D01*
X87035714Y-20516130D01*
X86797619Y-19516130D01*
X85892857Y-20516130D02*
X86464285Y-20516130D01*
X86178571Y-20516130D02*
X86178571Y-19516130D01*
X86273809Y-19658988D01*
X86369047Y-19754226D01*
X86464285Y-19801845D01*
X84940476Y-20516130D02*
X85511904Y-20516130D01*
X85226190Y-20516130D02*
X85226190Y-19516130D01*
X85321428Y-19658988D01*
X85416666Y-19754226D01*
X85511904Y-19801845D01*
%TO.C,SW14*%
X88559523Y-77618511D02*
X88416666Y-77666130D01*
X88178571Y-77666130D01*
X88083333Y-77618511D01*
X88035714Y-77570892D01*
X87988095Y-77475654D01*
X87988095Y-77380416D01*
X88035714Y-77285178D01*
X88083333Y-77237559D01*
X88178571Y-77189940D01*
X88369047Y-77142321D01*
X88464285Y-77094702D01*
X88511904Y-77047083D01*
X88559523Y-76951845D01*
X88559523Y-76856607D01*
X88511904Y-76761369D01*
X88464285Y-76713750D01*
X88369047Y-76666130D01*
X88130952Y-76666130D01*
X87988095Y-76713750D01*
X87654761Y-76666130D02*
X87416666Y-77666130D01*
X87226190Y-76951845D01*
X87035714Y-77666130D01*
X86797619Y-76666130D01*
X85892857Y-77666130D02*
X86464285Y-77666130D01*
X86178571Y-77666130D02*
X86178571Y-76666130D01*
X86273809Y-76808988D01*
X86369047Y-76904226D01*
X86464285Y-76951845D01*
X85035714Y-76999464D02*
X85035714Y-77666130D01*
X85273809Y-76618511D02*
X85511904Y-77332797D01*
X84892857Y-77332797D01*
%TO.C,SW17*%
X107609523Y-58568511D02*
X107466666Y-58616130D01*
X107228571Y-58616130D01*
X107133333Y-58568511D01*
X107085714Y-58520892D01*
X107038095Y-58425654D01*
X107038095Y-58330416D01*
X107085714Y-58235178D01*
X107133333Y-58187559D01*
X107228571Y-58139940D01*
X107419047Y-58092321D01*
X107514285Y-58044702D01*
X107561904Y-57997083D01*
X107609523Y-57901845D01*
X107609523Y-57806607D01*
X107561904Y-57711369D01*
X107514285Y-57663750D01*
X107419047Y-57616130D01*
X107180952Y-57616130D01*
X107038095Y-57663750D01*
X106704761Y-57616130D02*
X106466666Y-58616130D01*
X106276190Y-57901845D01*
X106085714Y-58616130D01*
X105847619Y-57616130D01*
X104942857Y-58616130D02*
X105514285Y-58616130D01*
X105228571Y-58616130D02*
X105228571Y-57616130D01*
X105323809Y-57758988D01*
X105419047Y-57854226D01*
X105514285Y-57901845D01*
X104609523Y-57616130D02*
X103942857Y-57616130D01*
X104371428Y-58616130D01*
%TO.C,SW12*%
X88559523Y-39518511D02*
X88416666Y-39566130D01*
X88178571Y-39566130D01*
X88083333Y-39518511D01*
X88035714Y-39470892D01*
X87988095Y-39375654D01*
X87988095Y-39280416D01*
X88035714Y-39185178D01*
X88083333Y-39137559D01*
X88178571Y-39089940D01*
X88369047Y-39042321D01*
X88464285Y-38994702D01*
X88511904Y-38947083D01*
X88559523Y-38851845D01*
X88559523Y-38756607D01*
X88511904Y-38661369D01*
X88464285Y-38613750D01*
X88369047Y-38566130D01*
X88130952Y-38566130D01*
X87988095Y-38613750D01*
X87654761Y-38566130D02*
X87416666Y-39566130D01*
X87226190Y-38851845D01*
X87035714Y-39566130D01*
X86797619Y-38566130D01*
X85892857Y-39566130D02*
X86464285Y-39566130D01*
X86178571Y-39566130D02*
X86178571Y-38566130D01*
X86273809Y-38708988D01*
X86369047Y-38804226D01*
X86464285Y-38851845D01*
X85511904Y-38661369D02*
X85464285Y-38613750D01*
X85369047Y-38566130D01*
X85130952Y-38566130D01*
X85035714Y-38613750D01*
X84988095Y-38661369D01*
X84940476Y-38756607D01*
X84940476Y-38851845D01*
X84988095Y-38994702D01*
X85559523Y-39566130D01*
X84940476Y-39566130D01*
%TO.C,SW16*%
X107609523Y-39518511D02*
X107466666Y-39566130D01*
X107228571Y-39566130D01*
X107133333Y-39518511D01*
X107085714Y-39470892D01*
X107038095Y-39375654D01*
X107038095Y-39280416D01*
X107085714Y-39185178D01*
X107133333Y-39137559D01*
X107228571Y-39089940D01*
X107419047Y-39042321D01*
X107514285Y-38994702D01*
X107561904Y-38947083D01*
X107609523Y-38851845D01*
X107609523Y-38756607D01*
X107561904Y-38661369D01*
X107514285Y-38613750D01*
X107419047Y-38566130D01*
X107180952Y-38566130D01*
X107038095Y-38613750D01*
X106704761Y-38566130D02*
X106466666Y-39566130D01*
X106276190Y-38851845D01*
X106085714Y-39566130D01*
X105847619Y-38566130D01*
X104942857Y-39566130D02*
X105514285Y-39566130D01*
X105228571Y-39566130D02*
X105228571Y-38566130D01*
X105323809Y-38708988D01*
X105419047Y-38804226D01*
X105514285Y-38851845D01*
X104085714Y-38566130D02*
X104276190Y-38566130D01*
X104371428Y-38613750D01*
X104419047Y-38661369D01*
X104514285Y-38804226D01*
X104561904Y-38994702D01*
X104561904Y-39375654D01*
X104514285Y-39470892D01*
X104466666Y-39518511D01*
X104371428Y-39566130D01*
X104180952Y-39566130D01*
X104085714Y-39518511D01*
X104038095Y-39470892D01*
X103990476Y-39375654D01*
X103990476Y-39137559D01*
X104038095Y-39042321D01*
X104085714Y-38994702D01*
X104180952Y-38947083D01*
X104371428Y-38947083D01*
X104466666Y-38994702D01*
X104514285Y-39042321D01*
X104561904Y-39137559D01*
%TO.C,SW19*%
X126659523Y-20468511D02*
X126516666Y-20516130D01*
X126278571Y-20516130D01*
X126183333Y-20468511D01*
X126135714Y-20420892D01*
X126088095Y-20325654D01*
X126088095Y-20230416D01*
X126135714Y-20135178D01*
X126183333Y-20087559D01*
X126278571Y-20039940D01*
X126469047Y-19992321D01*
X126564285Y-19944702D01*
X126611904Y-19897083D01*
X126659523Y-19801845D01*
X126659523Y-19706607D01*
X126611904Y-19611369D01*
X126564285Y-19563750D01*
X126469047Y-19516130D01*
X126230952Y-19516130D01*
X126088095Y-19563750D01*
X125754761Y-19516130D02*
X125516666Y-20516130D01*
X125326190Y-19801845D01*
X125135714Y-20516130D01*
X124897619Y-19516130D01*
X123992857Y-20516130D02*
X124564285Y-20516130D01*
X124278571Y-20516130D02*
X124278571Y-19516130D01*
X124373809Y-19658988D01*
X124469047Y-19754226D01*
X124564285Y-19801845D01*
X123516666Y-20516130D02*
X123326190Y-20516130D01*
X123230952Y-20468511D01*
X123183333Y-20420892D01*
X123088095Y-20278035D01*
X123040476Y-20087559D01*
X123040476Y-19706607D01*
X123088095Y-19611369D01*
X123135714Y-19563750D01*
X123230952Y-19516130D01*
X123421428Y-19516130D01*
X123516666Y-19563750D01*
X123564285Y-19611369D01*
X123611904Y-19706607D01*
X123611904Y-19944702D01*
X123564285Y-20039940D01*
X123516666Y-20087559D01*
X123421428Y-20135178D01*
X123230952Y-20135178D01*
X123135714Y-20087559D01*
X123088095Y-20039940D01*
X123040476Y-19944702D01*
%TO.C,SW20*%
X126659523Y-39518511D02*
X126516666Y-39566130D01*
X126278571Y-39566130D01*
X126183333Y-39518511D01*
X126135714Y-39470892D01*
X126088095Y-39375654D01*
X126088095Y-39280416D01*
X126135714Y-39185178D01*
X126183333Y-39137559D01*
X126278571Y-39089940D01*
X126469047Y-39042321D01*
X126564285Y-38994702D01*
X126611904Y-38947083D01*
X126659523Y-38851845D01*
X126659523Y-38756607D01*
X126611904Y-38661369D01*
X126564285Y-38613750D01*
X126469047Y-38566130D01*
X126230952Y-38566130D01*
X126088095Y-38613750D01*
X125754761Y-38566130D02*
X125516666Y-39566130D01*
X125326190Y-38851845D01*
X125135714Y-39566130D01*
X124897619Y-38566130D01*
X124564285Y-38661369D02*
X124516666Y-38613750D01*
X124421428Y-38566130D01*
X124183333Y-38566130D01*
X124088095Y-38613750D01*
X124040476Y-38661369D01*
X123992857Y-38756607D01*
X123992857Y-38851845D01*
X124040476Y-38994702D01*
X124611904Y-39566130D01*
X123992857Y-39566130D01*
X123373809Y-38566130D02*
X123278571Y-38566130D01*
X123183333Y-38613750D01*
X123135714Y-38661369D01*
X123088095Y-38756607D01*
X123040476Y-38947083D01*
X123040476Y-39185178D01*
X123088095Y-39375654D01*
X123135714Y-39470892D01*
X123183333Y-39518511D01*
X123278571Y-39566130D01*
X123373809Y-39566130D01*
X123469047Y-39518511D01*
X123516666Y-39470892D01*
X123564285Y-39375654D01*
X123611904Y-39185178D01*
X123611904Y-38947083D01*
X123564285Y-38756607D01*
X123516666Y-38661369D01*
X123469047Y-38613750D01*
X123373809Y-38566130D01*
%TO.C,SW21*%
X126659523Y-58568511D02*
X126516666Y-58616130D01*
X126278571Y-58616130D01*
X126183333Y-58568511D01*
X126135714Y-58520892D01*
X126088095Y-58425654D01*
X126088095Y-58330416D01*
X126135714Y-58235178D01*
X126183333Y-58187559D01*
X126278571Y-58139940D01*
X126469047Y-58092321D01*
X126564285Y-58044702D01*
X126611904Y-57997083D01*
X126659523Y-57901845D01*
X126659523Y-57806607D01*
X126611904Y-57711369D01*
X126564285Y-57663750D01*
X126469047Y-57616130D01*
X126230952Y-57616130D01*
X126088095Y-57663750D01*
X125754761Y-57616130D02*
X125516666Y-58616130D01*
X125326190Y-57901845D01*
X125135714Y-58616130D01*
X124897619Y-57616130D01*
X124564285Y-57711369D02*
X124516666Y-57663750D01*
X124421428Y-57616130D01*
X124183333Y-57616130D01*
X124088095Y-57663750D01*
X124040476Y-57711369D01*
X123992857Y-57806607D01*
X123992857Y-57901845D01*
X124040476Y-58044702D01*
X124611904Y-58616130D01*
X123992857Y-58616130D01*
X123040476Y-58616130D02*
X123611904Y-58616130D01*
X123326190Y-58616130D02*
X123326190Y-57616130D01*
X123421428Y-57758988D01*
X123516666Y-57854226D01*
X123611904Y-57901845D01*
%TO.C,SW37*%
X28234523Y-59948511D02*
X28091666Y-59996130D01*
X27853571Y-59996130D01*
X27758333Y-59948511D01*
X27710714Y-59900892D01*
X27663095Y-59805654D01*
X27663095Y-59710416D01*
X27710714Y-59615178D01*
X27758333Y-59567559D01*
X27853571Y-59519940D01*
X28044047Y-59472321D01*
X28139285Y-59424702D01*
X28186904Y-59377083D01*
X28234523Y-59281845D01*
X28234523Y-59186607D01*
X28186904Y-59091369D01*
X28139285Y-59043750D01*
X28044047Y-58996130D01*
X27805952Y-58996130D01*
X27663095Y-59043750D01*
X27329761Y-58996130D02*
X27091666Y-59996130D01*
X26901190Y-59281845D01*
X26710714Y-59996130D01*
X26472619Y-58996130D01*
X26186904Y-58996130D02*
X25567857Y-58996130D01*
X25901190Y-59377083D01*
X25758333Y-59377083D01*
X25663095Y-59424702D01*
X25615476Y-59472321D01*
X25567857Y-59567559D01*
X25567857Y-59805654D01*
X25615476Y-59900892D01*
X25663095Y-59948511D01*
X25758333Y-59996130D01*
X26044047Y-59996130D01*
X26139285Y-59948511D01*
X26186904Y-59900892D01*
X25234523Y-58996130D02*
X24567857Y-58996130D01*
X24996428Y-59996130D01*
%TO.C,D36*%
X207058630Y-69173214D02*
X206058630Y-69173214D01*
X206058630Y-69411309D01*
X206106250Y-69554166D01*
X206201488Y-69649404D01*
X206296726Y-69697023D01*
X206487202Y-69744642D01*
X206630059Y-69744642D01*
X206820535Y-69697023D01*
X206915773Y-69649404D01*
X207011011Y-69554166D01*
X207058630Y-69411309D01*
X207058630Y-69173214D01*
X206058630Y-70077976D02*
X206058630Y-70697023D01*
X206439583Y-70363690D01*
X206439583Y-70506547D01*
X206487202Y-70601785D01*
X206534821Y-70649404D01*
X206630059Y-70697023D01*
X206868154Y-70697023D01*
X206963392Y-70649404D01*
X207011011Y-70601785D01*
X207058630Y-70506547D01*
X207058630Y-70220833D01*
X207011011Y-70125595D01*
X206963392Y-70077976D01*
X206058630Y-71554166D02*
X206058630Y-71363690D01*
X206106250Y-71268452D01*
X206153869Y-71220833D01*
X206296726Y-71125595D01*
X206487202Y-71077976D01*
X206868154Y-71077976D01*
X206963392Y-71125595D01*
X207011011Y-71173214D01*
X207058630Y-71268452D01*
X207058630Y-71458928D01*
X207011011Y-71554166D01*
X206963392Y-71601785D01*
X206868154Y-71649404D01*
X206630059Y-71649404D01*
X206534821Y-71601785D01*
X206487202Y-71554166D01*
X206439583Y-71458928D01*
X206439583Y-71268452D01*
X206487202Y-71173214D01*
X206534821Y-71125595D01*
X206630059Y-71077976D01*
%TO.C,D35*%
X207058630Y-50123214D02*
X206058630Y-50123214D01*
X206058630Y-50361309D01*
X206106250Y-50504166D01*
X206201488Y-50599404D01*
X206296726Y-50647023D01*
X206487202Y-50694642D01*
X206630059Y-50694642D01*
X206820535Y-50647023D01*
X206915773Y-50599404D01*
X207011011Y-50504166D01*
X207058630Y-50361309D01*
X207058630Y-50123214D01*
X206058630Y-51027976D02*
X206058630Y-51647023D01*
X206439583Y-51313690D01*
X206439583Y-51456547D01*
X206487202Y-51551785D01*
X206534821Y-51599404D01*
X206630059Y-51647023D01*
X206868154Y-51647023D01*
X206963392Y-51599404D01*
X207011011Y-51551785D01*
X207058630Y-51456547D01*
X207058630Y-51170833D01*
X207011011Y-51075595D01*
X206963392Y-51027976D01*
X206058630Y-52551785D02*
X206058630Y-52075595D01*
X206534821Y-52027976D01*
X206487202Y-52075595D01*
X206439583Y-52170833D01*
X206439583Y-52408928D01*
X206487202Y-52504166D01*
X206534821Y-52551785D01*
X206630059Y-52599404D01*
X206868154Y-52599404D01*
X206963392Y-52551785D01*
X207011011Y-52504166D01*
X207058630Y-52408928D01*
X207058630Y-52170833D01*
X207011011Y-52075595D01*
X206963392Y-52027976D01*
%TO.C,D34*%
X207058630Y-31073214D02*
X206058630Y-31073214D01*
X206058630Y-31311309D01*
X206106250Y-31454166D01*
X206201488Y-31549404D01*
X206296726Y-31597023D01*
X206487202Y-31644642D01*
X206630059Y-31644642D01*
X206820535Y-31597023D01*
X206915773Y-31549404D01*
X207011011Y-31454166D01*
X207058630Y-31311309D01*
X207058630Y-31073214D01*
X206058630Y-31977976D02*
X206058630Y-32597023D01*
X206439583Y-32263690D01*
X206439583Y-32406547D01*
X206487202Y-32501785D01*
X206534821Y-32549404D01*
X206630059Y-32597023D01*
X206868154Y-32597023D01*
X206963392Y-32549404D01*
X207011011Y-32501785D01*
X207058630Y-32406547D01*
X207058630Y-32120833D01*
X207011011Y-32025595D01*
X206963392Y-31977976D01*
X206391964Y-33454166D02*
X207058630Y-33454166D01*
X206011011Y-33216071D02*
X206725297Y-32977976D01*
X206725297Y-33597023D01*
%TO.C,D33*%
X193183630Y-69173214D02*
X192183630Y-69173214D01*
X192183630Y-69411309D01*
X192231250Y-69554166D01*
X192326488Y-69649404D01*
X192421726Y-69697023D01*
X192612202Y-69744642D01*
X192755059Y-69744642D01*
X192945535Y-69697023D01*
X193040773Y-69649404D01*
X193136011Y-69554166D01*
X193183630Y-69411309D01*
X193183630Y-69173214D01*
X192183630Y-70077976D02*
X192183630Y-70697023D01*
X192564583Y-70363690D01*
X192564583Y-70506547D01*
X192612202Y-70601785D01*
X192659821Y-70649404D01*
X192755059Y-70697023D01*
X192993154Y-70697023D01*
X193088392Y-70649404D01*
X193136011Y-70601785D01*
X193183630Y-70506547D01*
X193183630Y-70220833D01*
X193136011Y-70125595D01*
X193088392Y-70077976D01*
X192183630Y-71030357D02*
X192183630Y-71649404D01*
X192564583Y-71316071D01*
X192564583Y-71458928D01*
X192612202Y-71554166D01*
X192659821Y-71601785D01*
X192755059Y-71649404D01*
X192993154Y-71649404D01*
X193088392Y-71601785D01*
X193136011Y-71554166D01*
X193183630Y-71458928D01*
X193183630Y-71173214D01*
X193136011Y-71077976D01*
X193088392Y-71030357D01*
%TO.C,D32*%
X193183630Y-50123214D02*
X192183630Y-50123214D01*
X192183630Y-50361309D01*
X192231250Y-50504166D01*
X192326488Y-50599404D01*
X192421726Y-50647023D01*
X192612202Y-50694642D01*
X192755059Y-50694642D01*
X192945535Y-50647023D01*
X193040773Y-50599404D01*
X193136011Y-50504166D01*
X193183630Y-50361309D01*
X193183630Y-50123214D01*
X192183630Y-51027976D02*
X192183630Y-51647023D01*
X192564583Y-51313690D01*
X192564583Y-51456547D01*
X192612202Y-51551785D01*
X192659821Y-51599404D01*
X192755059Y-51647023D01*
X192993154Y-51647023D01*
X193088392Y-51599404D01*
X193136011Y-51551785D01*
X193183630Y-51456547D01*
X193183630Y-51170833D01*
X193136011Y-51075595D01*
X193088392Y-51027976D01*
X192278869Y-52027976D02*
X192231250Y-52075595D01*
X192183630Y-52170833D01*
X192183630Y-52408928D01*
X192231250Y-52504166D01*
X192278869Y-52551785D01*
X192374107Y-52599404D01*
X192469345Y-52599404D01*
X192612202Y-52551785D01*
X193183630Y-51980357D01*
X193183630Y-52599404D01*
%TO.C,D31*%
X193183630Y-31073214D02*
X192183630Y-31073214D01*
X192183630Y-31311309D01*
X192231250Y-31454166D01*
X192326488Y-31549404D01*
X192421726Y-31597023D01*
X192612202Y-31644642D01*
X192755059Y-31644642D01*
X192945535Y-31597023D01*
X193040773Y-31549404D01*
X193136011Y-31454166D01*
X193183630Y-31311309D01*
X193183630Y-31073214D01*
X192183630Y-31977976D02*
X192183630Y-32597023D01*
X192564583Y-32263690D01*
X192564583Y-32406547D01*
X192612202Y-32501785D01*
X192659821Y-32549404D01*
X192755059Y-32597023D01*
X192993154Y-32597023D01*
X193088392Y-32549404D01*
X193136011Y-32501785D01*
X193183630Y-32406547D01*
X193183630Y-32120833D01*
X193136011Y-32025595D01*
X193088392Y-31977976D01*
X193183630Y-33549404D02*
X193183630Y-32977976D01*
X193183630Y-33263690D02*
X192183630Y-33263690D01*
X192326488Y-33168452D01*
X192421726Y-33073214D01*
X192469345Y-32977976D01*
%TO.C,D30*%
X174133630Y-88223214D02*
X173133630Y-88223214D01*
X173133630Y-88461309D01*
X173181250Y-88604166D01*
X173276488Y-88699404D01*
X173371726Y-88747023D01*
X173562202Y-88794642D01*
X173705059Y-88794642D01*
X173895535Y-88747023D01*
X173990773Y-88699404D01*
X174086011Y-88604166D01*
X174133630Y-88461309D01*
X174133630Y-88223214D01*
X173133630Y-89127976D02*
X173133630Y-89747023D01*
X173514583Y-89413690D01*
X173514583Y-89556547D01*
X173562202Y-89651785D01*
X173609821Y-89699404D01*
X173705059Y-89747023D01*
X173943154Y-89747023D01*
X174038392Y-89699404D01*
X174086011Y-89651785D01*
X174133630Y-89556547D01*
X174133630Y-89270833D01*
X174086011Y-89175595D01*
X174038392Y-89127976D01*
X173133630Y-90366071D02*
X173133630Y-90461309D01*
X173181250Y-90556547D01*
X173228869Y-90604166D01*
X173324107Y-90651785D01*
X173514583Y-90699404D01*
X173752678Y-90699404D01*
X173943154Y-90651785D01*
X174038392Y-90604166D01*
X174086011Y-90556547D01*
X174133630Y-90461309D01*
X174133630Y-90366071D01*
X174086011Y-90270833D01*
X174038392Y-90223214D01*
X173943154Y-90175595D01*
X173752678Y-90127976D01*
X173514583Y-90127976D01*
X173324107Y-90175595D01*
X173228869Y-90223214D01*
X173181250Y-90270833D01*
X173133630Y-90366071D01*
%TO.C,D29*%
X174133630Y-69173214D02*
X173133630Y-69173214D01*
X173133630Y-69411309D01*
X173181250Y-69554166D01*
X173276488Y-69649404D01*
X173371726Y-69697023D01*
X173562202Y-69744642D01*
X173705059Y-69744642D01*
X173895535Y-69697023D01*
X173990773Y-69649404D01*
X174086011Y-69554166D01*
X174133630Y-69411309D01*
X174133630Y-69173214D01*
X173228869Y-70125595D02*
X173181250Y-70173214D01*
X173133630Y-70268452D01*
X173133630Y-70506547D01*
X173181250Y-70601785D01*
X173228869Y-70649404D01*
X173324107Y-70697023D01*
X173419345Y-70697023D01*
X173562202Y-70649404D01*
X174133630Y-70077976D01*
X174133630Y-70697023D01*
X174133630Y-71173214D02*
X174133630Y-71363690D01*
X174086011Y-71458928D01*
X174038392Y-71506547D01*
X173895535Y-71601785D01*
X173705059Y-71649404D01*
X173324107Y-71649404D01*
X173228869Y-71601785D01*
X173181250Y-71554166D01*
X173133630Y-71458928D01*
X173133630Y-71268452D01*
X173181250Y-71173214D01*
X173228869Y-71125595D01*
X173324107Y-71077976D01*
X173562202Y-71077976D01*
X173657440Y-71125595D01*
X173705059Y-71173214D01*
X173752678Y-71268452D01*
X173752678Y-71458928D01*
X173705059Y-71554166D01*
X173657440Y-71601785D01*
X173562202Y-71649404D01*
%TO.C,D28*%
X174133630Y-50123214D02*
X173133630Y-50123214D01*
X173133630Y-50361309D01*
X173181250Y-50504166D01*
X173276488Y-50599404D01*
X173371726Y-50647023D01*
X173562202Y-50694642D01*
X173705059Y-50694642D01*
X173895535Y-50647023D01*
X173990773Y-50599404D01*
X174086011Y-50504166D01*
X174133630Y-50361309D01*
X174133630Y-50123214D01*
X173228869Y-51075595D02*
X173181250Y-51123214D01*
X173133630Y-51218452D01*
X173133630Y-51456547D01*
X173181250Y-51551785D01*
X173228869Y-51599404D01*
X173324107Y-51647023D01*
X173419345Y-51647023D01*
X173562202Y-51599404D01*
X174133630Y-51027976D01*
X174133630Y-51647023D01*
X173562202Y-52218452D02*
X173514583Y-52123214D01*
X173466964Y-52075595D01*
X173371726Y-52027976D01*
X173324107Y-52027976D01*
X173228869Y-52075595D01*
X173181250Y-52123214D01*
X173133630Y-52218452D01*
X173133630Y-52408928D01*
X173181250Y-52504166D01*
X173228869Y-52551785D01*
X173324107Y-52599404D01*
X173371726Y-52599404D01*
X173466964Y-52551785D01*
X173514583Y-52504166D01*
X173562202Y-52408928D01*
X173562202Y-52218452D01*
X173609821Y-52123214D01*
X173657440Y-52075595D01*
X173752678Y-52027976D01*
X173943154Y-52027976D01*
X174038392Y-52075595D01*
X174086011Y-52123214D01*
X174133630Y-52218452D01*
X174133630Y-52408928D01*
X174086011Y-52504166D01*
X174038392Y-52551785D01*
X173943154Y-52599404D01*
X173752678Y-52599404D01*
X173657440Y-52551785D01*
X173609821Y-52504166D01*
X173562202Y-52408928D01*
%TO.C,D27*%
X174133630Y-31073214D02*
X173133630Y-31073214D01*
X173133630Y-31311309D01*
X173181250Y-31454166D01*
X173276488Y-31549404D01*
X173371726Y-31597023D01*
X173562202Y-31644642D01*
X173705059Y-31644642D01*
X173895535Y-31597023D01*
X173990773Y-31549404D01*
X174086011Y-31454166D01*
X174133630Y-31311309D01*
X174133630Y-31073214D01*
X173228869Y-32025595D02*
X173181250Y-32073214D01*
X173133630Y-32168452D01*
X173133630Y-32406547D01*
X173181250Y-32501785D01*
X173228869Y-32549404D01*
X173324107Y-32597023D01*
X173419345Y-32597023D01*
X173562202Y-32549404D01*
X174133630Y-31977976D01*
X174133630Y-32597023D01*
X173133630Y-32930357D02*
X173133630Y-33597023D01*
X174133630Y-33168452D01*
%TO.C,D26*%
X155083630Y-88223214D02*
X154083630Y-88223214D01*
X154083630Y-88461309D01*
X154131250Y-88604166D01*
X154226488Y-88699404D01*
X154321726Y-88747023D01*
X154512202Y-88794642D01*
X154655059Y-88794642D01*
X154845535Y-88747023D01*
X154940773Y-88699404D01*
X155036011Y-88604166D01*
X155083630Y-88461309D01*
X155083630Y-88223214D01*
X154178869Y-89175595D02*
X154131250Y-89223214D01*
X154083630Y-89318452D01*
X154083630Y-89556547D01*
X154131250Y-89651785D01*
X154178869Y-89699404D01*
X154274107Y-89747023D01*
X154369345Y-89747023D01*
X154512202Y-89699404D01*
X155083630Y-89127976D01*
X155083630Y-89747023D01*
X154083630Y-90604166D02*
X154083630Y-90413690D01*
X154131250Y-90318452D01*
X154178869Y-90270833D01*
X154321726Y-90175595D01*
X154512202Y-90127976D01*
X154893154Y-90127976D01*
X154988392Y-90175595D01*
X155036011Y-90223214D01*
X155083630Y-90318452D01*
X155083630Y-90508928D01*
X155036011Y-90604166D01*
X154988392Y-90651785D01*
X154893154Y-90699404D01*
X154655059Y-90699404D01*
X154559821Y-90651785D01*
X154512202Y-90604166D01*
X154464583Y-90508928D01*
X154464583Y-90318452D01*
X154512202Y-90223214D01*
X154559821Y-90175595D01*
X154655059Y-90127976D01*
%TO.C,D25*%
X155083630Y-69173214D02*
X154083630Y-69173214D01*
X154083630Y-69411309D01*
X154131250Y-69554166D01*
X154226488Y-69649404D01*
X154321726Y-69697023D01*
X154512202Y-69744642D01*
X154655059Y-69744642D01*
X154845535Y-69697023D01*
X154940773Y-69649404D01*
X155036011Y-69554166D01*
X155083630Y-69411309D01*
X155083630Y-69173214D01*
X154178869Y-70125595D02*
X154131250Y-70173214D01*
X154083630Y-70268452D01*
X154083630Y-70506547D01*
X154131250Y-70601785D01*
X154178869Y-70649404D01*
X154274107Y-70697023D01*
X154369345Y-70697023D01*
X154512202Y-70649404D01*
X155083630Y-70077976D01*
X155083630Y-70697023D01*
X154083630Y-71601785D02*
X154083630Y-71125595D01*
X154559821Y-71077976D01*
X154512202Y-71125595D01*
X154464583Y-71220833D01*
X154464583Y-71458928D01*
X154512202Y-71554166D01*
X154559821Y-71601785D01*
X154655059Y-71649404D01*
X154893154Y-71649404D01*
X154988392Y-71601785D01*
X155036011Y-71554166D01*
X155083630Y-71458928D01*
X155083630Y-71220833D01*
X155036011Y-71125595D01*
X154988392Y-71077976D01*
%TO.C,D24*%
X155083630Y-50123214D02*
X154083630Y-50123214D01*
X154083630Y-50361309D01*
X154131250Y-50504166D01*
X154226488Y-50599404D01*
X154321726Y-50647023D01*
X154512202Y-50694642D01*
X154655059Y-50694642D01*
X154845535Y-50647023D01*
X154940773Y-50599404D01*
X155036011Y-50504166D01*
X155083630Y-50361309D01*
X155083630Y-50123214D01*
X154178869Y-51075595D02*
X154131250Y-51123214D01*
X154083630Y-51218452D01*
X154083630Y-51456547D01*
X154131250Y-51551785D01*
X154178869Y-51599404D01*
X154274107Y-51647023D01*
X154369345Y-51647023D01*
X154512202Y-51599404D01*
X155083630Y-51027976D01*
X155083630Y-51647023D01*
X154416964Y-52504166D02*
X155083630Y-52504166D01*
X154036011Y-52266071D02*
X154750297Y-52027976D01*
X154750297Y-52647023D01*
%TO.C,D23*%
X155083630Y-31073214D02*
X154083630Y-31073214D01*
X154083630Y-31311309D01*
X154131250Y-31454166D01*
X154226488Y-31549404D01*
X154321726Y-31597023D01*
X154512202Y-31644642D01*
X154655059Y-31644642D01*
X154845535Y-31597023D01*
X154940773Y-31549404D01*
X155036011Y-31454166D01*
X155083630Y-31311309D01*
X155083630Y-31073214D01*
X154178869Y-32025595D02*
X154131250Y-32073214D01*
X154083630Y-32168452D01*
X154083630Y-32406547D01*
X154131250Y-32501785D01*
X154178869Y-32549404D01*
X154274107Y-32597023D01*
X154369345Y-32597023D01*
X154512202Y-32549404D01*
X155083630Y-31977976D01*
X155083630Y-32597023D01*
X154083630Y-32930357D02*
X154083630Y-33549404D01*
X154464583Y-33216071D01*
X154464583Y-33358928D01*
X154512202Y-33454166D01*
X154559821Y-33501785D01*
X154655059Y-33549404D01*
X154893154Y-33549404D01*
X154988392Y-33501785D01*
X155036011Y-33454166D01*
X155083630Y-33358928D01*
X155083630Y-33073214D01*
X155036011Y-32977976D01*
X154988392Y-32930357D01*
%TO.C,D22*%
X136033630Y-88223214D02*
X135033630Y-88223214D01*
X135033630Y-88461309D01*
X135081250Y-88604166D01*
X135176488Y-88699404D01*
X135271726Y-88747023D01*
X135462202Y-88794642D01*
X135605059Y-88794642D01*
X135795535Y-88747023D01*
X135890773Y-88699404D01*
X135986011Y-88604166D01*
X136033630Y-88461309D01*
X136033630Y-88223214D01*
X135128869Y-89175595D02*
X135081250Y-89223214D01*
X135033630Y-89318452D01*
X135033630Y-89556547D01*
X135081250Y-89651785D01*
X135128869Y-89699404D01*
X135224107Y-89747023D01*
X135319345Y-89747023D01*
X135462202Y-89699404D01*
X136033630Y-89127976D01*
X136033630Y-89747023D01*
X135128869Y-90127976D02*
X135081250Y-90175595D01*
X135033630Y-90270833D01*
X135033630Y-90508928D01*
X135081250Y-90604166D01*
X135128869Y-90651785D01*
X135224107Y-90699404D01*
X135319345Y-90699404D01*
X135462202Y-90651785D01*
X136033630Y-90080357D01*
X136033630Y-90699404D01*
%TO.C,D21*%
X136033630Y-69173214D02*
X135033630Y-69173214D01*
X135033630Y-69411309D01*
X135081250Y-69554166D01*
X135176488Y-69649404D01*
X135271726Y-69697023D01*
X135462202Y-69744642D01*
X135605059Y-69744642D01*
X135795535Y-69697023D01*
X135890773Y-69649404D01*
X135986011Y-69554166D01*
X136033630Y-69411309D01*
X136033630Y-69173214D01*
X135128869Y-70125595D02*
X135081250Y-70173214D01*
X135033630Y-70268452D01*
X135033630Y-70506547D01*
X135081250Y-70601785D01*
X135128869Y-70649404D01*
X135224107Y-70697023D01*
X135319345Y-70697023D01*
X135462202Y-70649404D01*
X136033630Y-70077976D01*
X136033630Y-70697023D01*
X136033630Y-71649404D02*
X136033630Y-71077976D01*
X136033630Y-71363690D02*
X135033630Y-71363690D01*
X135176488Y-71268452D01*
X135271726Y-71173214D01*
X135319345Y-71077976D01*
%TO.C,D20*%
X136033630Y-50123214D02*
X135033630Y-50123214D01*
X135033630Y-50361309D01*
X135081250Y-50504166D01*
X135176488Y-50599404D01*
X135271726Y-50647023D01*
X135462202Y-50694642D01*
X135605059Y-50694642D01*
X135795535Y-50647023D01*
X135890773Y-50599404D01*
X135986011Y-50504166D01*
X136033630Y-50361309D01*
X136033630Y-50123214D01*
X135128869Y-51075595D02*
X135081250Y-51123214D01*
X135033630Y-51218452D01*
X135033630Y-51456547D01*
X135081250Y-51551785D01*
X135128869Y-51599404D01*
X135224107Y-51647023D01*
X135319345Y-51647023D01*
X135462202Y-51599404D01*
X136033630Y-51027976D01*
X136033630Y-51647023D01*
X135033630Y-52266071D02*
X135033630Y-52361309D01*
X135081250Y-52456547D01*
X135128869Y-52504166D01*
X135224107Y-52551785D01*
X135414583Y-52599404D01*
X135652678Y-52599404D01*
X135843154Y-52551785D01*
X135938392Y-52504166D01*
X135986011Y-52456547D01*
X136033630Y-52361309D01*
X136033630Y-52266071D01*
X135986011Y-52170833D01*
X135938392Y-52123214D01*
X135843154Y-52075595D01*
X135652678Y-52027976D01*
X135414583Y-52027976D01*
X135224107Y-52075595D01*
X135128869Y-52123214D01*
X135081250Y-52170833D01*
X135033630Y-52266071D01*
%TO.C,D19*%
X136033630Y-31073214D02*
X135033630Y-31073214D01*
X135033630Y-31311309D01*
X135081250Y-31454166D01*
X135176488Y-31549404D01*
X135271726Y-31597023D01*
X135462202Y-31644642D01*
X135605059Y-31644642D01*
X135795535Y-31597023D01*
X135890773Y-31549404D01*
X135986011Y-31454166D01*
X136033630Y-31311309D01*
X136033630Y-31073214D01*
X136033630Y-32597023D02*
X136033630Y-32025595D01*
X136033630Y-32311309D02*
X135033630Y-32311309D01*
X135176488Y-32216071D01*
X135271726Y-32120833D01*
X135319345Y-32025595D01*
X136033630Y-33073214D02*
X136033630Y-33263690D01*
X135986011Y-33358928D01*
X135938392Y-33406547D01*
X135795535Y-33501785D01*
X135605059Y-33549404D01*
X135224107Y-33549404D01*
X135128869Y-33501785D01*
X135081250Y-33454166D01*
X135033630Y-33358928D01*
X135033630Y-33168452D01*
X135081250Y-33073214D01*
X135128869Y-33025595D01*
X135224107Y-32977976D01*
X135462202Y-32977976D01*
X135557440Y-33025595D01*
X135605059Y-33073214D01*
X135652678Y-33168452D01*
X135652678Y-33358928D01*
X135605059Y-33454166D01*
X135557440Y-33501785D01*
X135462202Y-33549404D01*
%TO.C,D18*%
X116983630Y-88223214D02*
X115983630Y-88223214D01*
X115983630Y-88461309D01*
X116031250Y-88604166D01*
X116126488Y-88699404D01*
X116221726Y-88747023D01*
X116412202Y-88794642D01*
X116555059Y-88794642D01*
X116745535Y-88747023D01*
X116840773Y-88699404D01*
X116936011Y-88604166D01*
X116983630Y-88461309D01*
X116983630Y-88223214D01*
X116983630Y-89747023D02*
X116983630Y-89175595D01*
X116983630Y-89461309D02*
X115983630Y-89461309D01*
X116126488Y-89366071D01*
X116221726Y-89270833D01*
X116269345Y-89175595D01*
X116412202Y-90318452D02*
X116364583Y-90223214D01*
X116316964Y-90175595D01*
X116221726Y-90127976D01*
X116174107Y-90127976D01*
X116078869Y-90175595D01*
X116031250Y-90223214D01*
X115983630Y-90318452D01*
X115983630Y-90508928D01*
X116031250Y-90604166D01*
X116078869Y-90651785D01*
X116174107Y-90699404D01*
X116221726Y-90699404D01*
X116316964Y-90651785D01*
X116364583Y-90604166D01*
X116412202Y-90508928D01*
X116412202Y-90318452D01*
X116459821Y-90223214D01*
X116507440Y-90175595D01*
X116602678Y-90127976D01*
X116793154Y-90127976D01*
X116888392Y-90175595D01*
X116936011Y-90223214D01*
X116983630Y-90318452D01*
X116983630Y-90508928D01*
X116936011Y-90604166D01*
X116888392Y-90651785D01*
X116793154Y-90699404D01*
X116602678Y-90699404D01*
X116507440Y-90651785D01*
X116459821Y-90604166D01*
X116412202Y-90508928D01*
%TO.C,D17*%
X116983630Y-69173214D02*
X115983630Y-69173214D01*
X115983630Y-69411309D01*
X116031250Y-69554166D01*
X116126488Y-69649404D01*
X116221726Y-69697023D01*
X116412202Y-69744642D01*
X116555059Y-69744642D01*
X116745535Y-69697023D01*
X116840773Y-69649404D01*
X116936011Y-69554166D01*
X116983630Y-69411309D01*
X116983630Y-69173214D01*
X116983630Y-70697023D02*
X116983630Y-70125595D01*
X116983630Y-70411309D02*
X115983630Y-70411309D01*
X116126488Y-70316071D01*
X116221726Y-70220833D01*
X116269345Y-70125595D01*
X115983630Y-71030357D02*
X115983630Y-71697023D01*
X116983630Y-71268452D01*
%TO.C,D16*%
X116983630Y-50123214D02*
X115983630Y-50123214D01*
X115983630Y-50361309D01*
X116031250Y-50504166D01*
X116126488Y-50599404D01*
X116221726Y-50647023D01*
X116412202Y-50694642D01*
X116555059Y-50694642D01*
X116745535Y-50647023D01*
X116840773Y-50599404D01*
X116936011Y-50504166D01*
X116983630Y-50361309D01*
X116983630Y-50123214D01*
X116983630Y-51647023D02*
X116983630Y-51075595D01*
X116983630Y-51361309D02*
X115983630Y-51361309D01*
X116126488Y-51266071D01*
X116221726Y-51170833D01*
X116269345Y-51075595D01*
X115983630Y-52504166D02*
X115983630Y-52313690D01*
X116031250Y-52218452D01*
X116078869Y-52170833D01*
X116221726Y-52075595D01*
X116412202Y-52027976D01*
X116793154Y-52027976D01*
X116888392Y-52075595D01*
X116936011Y-52123214D01*
X116983630Y-52218452D01*
X116983630Y-52408928D01*
X116936011Y-52504166D01*
X116888392Y-52551785D01*
X116793154Y-52599404D01*
X116555059Y-52599404D01*
X116459821Y-52551785D01*
X116412202Y-52504166D01*
X116364583Y-52408928D01*
X116364583Y-52218452D01*
X116412202Y-52123214D01*
X116459821Y-52075595D01*
X116555059Y-52027976D01*
%TO.C,D15*%
X116189880Y-31073214D02*
X115189880Y-31073214D01*
X115189880Y-31311309D01*
X115237500Y-31454166D01*
X115332738Y-31549404D01*
X115427976Y-31597023D01*
X115618452Y-31644642D01*
X115761309Y-31644642D01*
X115951785Y-31597023D01*
X116047023Y-31549404D01*
X116142261Y-31454166D01*
X116189880Y-31311309D01*
X116189880Y-31073214D01*
X116189880Y-32597023D02*
X116189880Y-32025595D01*
X116189880Y-32311309D02*
X115189880Y-32311309D01*
X115332738Y-32216071D01*
X115427976Y-32120833D01*
X115475595Y-32025595D01*
X115189880Y-33501785D02*
X115189880Y-33025595D01*
X115666071Y-32977976D01*
X115618452Y-33025595D01*
X115570833Y-33120833D01*
X115570833Y-33358928D01*
X115618452Y-33454166D01*
X115666071Y-33501785D01*
X115761309Y-33549404D01*
X115999404Y-33549404D01*
X116094642Y-33501785D01*
X116142261Y-33454166D01*
X116189880Y-33358928D01*
X116189880Y-33120833D01*
X116142261Y-33025595D01*
X116094642Y-32977976D01*
%TO.C,D14*%
X97933630Y-88223214D02*
X96933630Y-88223214D01*
X96933630Y-88461309D01*
X96981250Y-88604166D01*
X97076488Y-88699404D01*
X97171726Y-88747023D01*
X97362202Y-88794642D01*
X97505059Y-88794642D01*
X97695535Y-88747023D01*
X97790773Y-88699404D01*
X97886011Y-88604166D01*
X97933630Y-88461309D01*
X97933630Y-88223214D01*
X97933630Y-89747023D02*
X97933630Y-89175595D01*
X97933630Y-89461309D02*
X96933630Y-89461309D01*
X97076488Y-89366071D01*
X97171726Y-89270833D01*
X97219345Y-89175595D01*
X97266964Y-90604166D02*
X97933630Y-90604166D01*
X96886011Y-90366071D02*
X97600297Y-90127976D01*
X97600297Y-90747023D01*
%TO.C,D13*%
X97933630Y-69173214D02*
X96933630Y-69173214D01*
X96933630Y-69411309D01*
X96981250Y-69554166D01*
X97076488Y-69649404D01*
X97171726Y-69697023D01*
X97362202Y-69744642D01*
X97505059Y-69744642D01*
X97695535Y-69697023D01*
X97790773Y-69649404D01*
X97886011Y-69554166D01*
X97933630Y-69411309D01*
X97933630Y-69173214D01*
X97933630Y-70697023D02*
X97933630Y-70125595D01*
X97933630Y-70411309D02*
X96933630Y-70411309D01*
X97076488Y-70316071D01*
X97171726Y-70220833D01*
X97219345Y-70125595D01*
X96933630Y-71030357D02*
X96933630Y-71649404D01*
X97314583Y-71316071D01*
X97314583Y-71458928D01*
X97362202Y-71554166D01*
X97409821Y-71601785D01*
X97505059Y-71649404D01*
X97743154Y-71649404D01*
X97838392Y-71601785D01*
X97886011Y-71554166D01*
X97933630Y-71458928D01*
X97933630Y-71173214D01*
X97886011Y-71077976D01*
X97838392Y-71030357D01*
%TO.C,D12*%
X97933630Y-50123214D02*
X96933630Y-50123214D01*
X96933630Y-50361309D01*
X96981250Y-50504166D01*
X97076488Y-50599404D01*
X97171726Y-50647023D01*
X97362202Y-50694642D01*
X97505059Y-50694642D01*
X97695535Y-50647023D01*
X97790773Y-50599404D01*
X97886011Y-50504166D01*
X97933630Y-50361309D01*
X97933630Y-50123214D01*
X97933630Y-51647023D02*
X97933630Y-51075595D01*
X97933630Y-51361309D02*
X96933630Y-51361309D01*
X97076488Y-51266071D01*
X97171726Y-51170833D01*
X97219345Y-51075595D01*
X97028869Y-52027976D02*
X96981250Y-52075595D01*
X96933630Y-52170833D01*
X96933630Y-52408928D01*
X96981250Y-52504166D01*
X97028869Y-52551785D01*
X97124107Y-52599404D01*
X97219345Y-52599404D01*
X97362202Y-52551785D01*
X97933630Y-51980357D01*
X97933630Y-52599404D01*
%TO.C,D11*%
X97933630Y-31073214D02*
X96933630Y-31073214D01*
X96933630Y-31311309D01*
X96981250Y-31454166D01*
X97076488Y-31549404D01*
X97171726Y-31597023D01*
X97362202Y-31644642D01*
X97505059Y-31644642D01*
X97695535Y-31597023D01*
X97790773Y-31549404D01*
X97886011Y-31454166D01*
X97933630Y-31311309D01*
X97933630Y-31073214D01*
X97933630Y-32597023D02*
X97933630Y-32025595D01*
X97933630Y-32311309D02*
X96933630Y-32311309D01*
X97076488Y-32216071D01*
X97171726Y-32120833D01*
X97219345Y-32025595D01*
X97933630Y-33549404D02*
X97933630Y-32977976D01*
X97933630Y-33263690D02*
X96933630Y-33263690D01*
X97076488Y-33168452D01*
X97171726Y-33073214D01*
X97219345Y-32977976D01*
%TO.C,D10*%
X78883630Y-88223214D02*
X77883630Y-88223214D01*
X77883630Y-88461309D01*
X77931250Y-88604166D01*
X78026488Y-88699404D01*
X78121726Y-88747023D01*
X78312202Y-88794642D01*
X78455059Y-88794642D01*
X78645535Y-88747023D01*
X78740773Y-88699404D01*
X78836011Y-88604166D01*
X78883630Y-88461309D01*
X78883630Y-88223214D01*
X78883630Y-89747023D02*
X78883630Y-89175595D01*
X78883630Y-89461309D02*
X77883630Y-89461309D01*
X78026488Y-89366071D01*
X78121726Y-89270833D01*
X78169345Y-89175595D01*
X77883630Y-90366071D02*
X77883630Y-90461309D01*
X77931250Y-90556547D01*
X77978869Y-90604166D01*
X78074107Y-90651785D01*
X78264583Y-90699404D01*
X78502678Y-90699404D01*
X78693154Y-90651785D01*
X78788392Y-90604166D01*
X78836011Y-90556547D01*
X78883630Y-90461309D01*
X78883630Y-90366071D01*
X78836011Y-90270833D01*
X78788392Y-90223214D01*
X78693154Y-90175595D01*
X78502678Y-90127976D01*
X78264583Y-90127976D01*
X78074107Y-90175595D01*
X77978869Y-90223214D01*
X77931250Y-90270833D01*
X77883630Y-90366071D01*
%TO.C,D9*%
X78883630Y-69649404D02*
X77883630Y-69649404D01*
X77883630Y-69887500D01*
X77931250Y-70030357D01*
X78026488Y-70125595D01*
X78121726Y-70173214D01*
X78312202Y-70220833D01*
X78455059Y-70220833D01*
X78645535Y-70173214D01*
X78740773Y-70125595D01*
X78836011Y-70030357D01*
X78883630Y-69887500D01*
X78883630Y-69649404D01*
X78883630Y-70697023D02*
X78883630Y-70887500D01*
X78836011Y-70982738D01*
X78788392Y-71030357D01*
X78645535Y-71125595D01*
X78455059Y-71173214D01*
X78074107Y-71173214D01*
X77978869Y-71125595D01*
X77931250Y-71077976D01*
X77883630Y-70982738D01*
X77883630Y-70792261D01*
X77931250Y-70697023D01*
X77978869Y-70649404D01*
X78074107Y-70601785D01*
X78312202Y-70601785D01*
X78407440Y-70649404D01*
X78455059Y-70697023D01*
X78502678Y-70792261D01*
X78502678Y-70982738D01*
X78455059Y-71077976D01*
X78407440Y-71125595D01*
X78312202Y-71173214D01*
%TO.C,D8*%
X78883630Y-50599404D02*
X77883630Y-50599404D01*
X77883630Y-50837500D01*
X77931250Y-50980357D01*
X78026488Y-51075595D01*
X78121726Y-51123214D01*
X78312202Y-51170833D01*
X78455059Y-51170833D01*
X78645535Y-51123214D01*
X78740773Y-51075595D01*
X78836011Y-50980357D01*
X78883630Y-50837500D01*
X78883630Y-50599404D01*
X78312202Y-51742261D02*
X78264583Y-51647023D01*
X78216964Y-51599404D01*
X78121726Y-51551785D01*
X78074107Y-51551785D01*
X77978869Y-51599404D01*
X77931250Y-51647023D01*
X77883630Y-51742261D01*
X77883630Y-51932738D01*
X77931250Y-52027976D01*
X77978869Y-52075595D01*
X78074107Y-52123214D01*
X78121726Y-52123214D01*
X78216964Y-52075595D01*
X78264583Y-52027976D01*
X78312202Y-51932738D01*
X78312202Y-51742261D01*
X78359821Y-51647023D01*
X78407440Y-51599404D01*
X78502678Y-51551785D01*
X78693154Y-51551785D01*
X78788392Y-51599404D01*
X78836011Y-51647023D01*
X78883630Y-51742261D01*
X78883630Y-51932738D01*
X78836011Y-52027976D01*
X78788392Y-52075595D01*
X78693154Y-52123214D01*
X78502678Y-52123214D01*
X78407440Y-52075595D01*
X78359821Y-52027976D01*
X78312202Y-51932738D01*
%TO.C,D7*%
X78883630Y-31549404D02*
X77883630Y-31549404D01*
X77883630Y-31787500D01*
X77931250Y-31930357D01*
X78026488Y-32025595D01*
X78121726Y-32073214D01*
X78312202Y-32120833D01*
X78455059Y-32120833D01*
X78645535Y-32073214D01*
X78740773Y-32025595D01*
X78836011Y-31930357D01*
X78883630Y-31787500D01*
X78883630Y-31549404D01*
X77883630Y-32454166D02*
X77883630Y-33120833D01*
X78883630Y-32692261D01*
%TO.C,D6*%
X59833630Y-69649404D02*
X58833630Y-69649404D01*
X58833630Y-69887500D01*
X58881250Y-70030357D01*
X58976488Y-70125595D01*
X59071726Y-70173214D01*
X59262202Y-70220833D01*
X59405059Y-70220833D01*
X59595535Y-70173214D01*
X59690773Y-70125595D01*
X59786011Y-70030357D01*
X59833630Y-69887500D01*
X59833630Y-69649404D01*
X58833630Y-71077976D02*
X58833630Y-70887500D01*
X58881250Y-70792261D01*
X58928869Y-70744642D01*
X59071726Y-70649404D01*
X59262202Y-70601785D01*
X59643154Y-70601785D01*
X59738392Y-70649404D01*
X59786011Y-70697023D01*
X59833630Y-70792261D01*
X59833630Y-70982738D01*
X59786011Y-71077976D01*
X59738392Y-71125595D01*
X59643154Y-71173214D01*
X59405059Y-71173214D01*
X59309821Y-71125595D01*
X59262202Y-71077976D01*
X59214583Y-70982738D01*
X59214583Y-70792261D01*
X59262202Y-70697023D01*
X59309821Y-70649404D01*
X59405059Y-70601785D01*
%TO.C,D5*%
X45419345Y-59346130D02*
X45419345Y-58346130D01*
X45181250Y-58346130D01*
X45038392Y-58393750D01*
X44943154Y-58488988D01*
X44895535Y-58584226D01*
X44847916Y-58774702D01*
X44847916Y-58917559D01*
X44895535Y-59108035D01*
X44943154Y-59203273D01*
X45038392Y-59298511D01*
X45181250Y-59346130D01*
X45419345Y-59346130D01*
X43943154Y-58346130D02*
X44419345Y-58346130D01*
X44466964Y-58822321D01*
X44419345Y-58774702D01*
X44324107Y-58727083D01*
X44086011Y-58727083D01*
X43990773Y-58774702D01*
X43943154Y-58822321D01*
X43895535Y-58917559D01*
X43895535Y-59155654D01*
X43943154Y-59250892D01*
X43990773Y-59298511D01*
X44086011Y-59346130D01*
X44324107Y-59346130D01*
X44419345Y-59298511D01*
X44466964Y-59250892D01*
%TO.C,D4*%
X59833630Y-31549404D02*
X58833630Y-31549404D01*
X58833630Y-31787500D01*
X58881250Y-31930357D01*
X58976488Y-32025595D01*
X59071726Y-32073214D01*
X59262202Y-32120833D01*
X59405059Y-32120833D01*
X59595535Y-32073214D01*
X59690773Y-32025595D01*
X59786011Y-31930357D01*
X59833630Y-31787500D01*
X59833630Y-31549404D01*
X59166964Y-32977976D02*
X59833630Y-32977976D01*
X58786011Y-32739880D02*
X59500297Y-32501785D01*
X59500297Y-33120833D01*
%TO.C,D3*%
X40783630Y-69649404D02*
X39783630Y-69649404D01*
X39783630Y-69887500D01*
X39831250Y-70030357D01*
X39926488Y-70125595D01*
X40021726Y-70173214D01*
X40212202Y-70220833D01*
X40355059Y-70220833D01*
X40545535Y-70173214D01*
X40640773Y-70125595D01*
X40736011Y-70030357D01*
X40783630Y-69887500D01*
X40783630Y-69649404D01*
X39783630Y-70554166D02*
X39783630Y-71173214D01*
X40164583Y-70839880D01*
X40164583Y-70982738D01*
X40212202Y-71077976D01*
X40259821Y-71125595D01*
X40355059Y-71173214D01*
X40593154Y-71173214D01*
X40688392Y-71125595D01*
X40736011Y-71077976D01*
X40783630Y-70982738D01*
X40783630Y-70697023D01*
X40736011Y-70601785D01*
X40688392Y-70554166D01*
%TO.C,D2*%
X34306845Y-55346130D02*
X34306845Y-54346130D01*
X34068750Y-54346130D01*
X33925892Y-54393750D01*
X33830654Y-54488988D01*
X33783035Y-54584226D01*
X33735416Y-54774702D01*
X33735416Y-54917559D01*
X33783035Y-55108035D01*
X33830654Y-55203273D01*
X33925892Y-55298511D01*
X34068750Y-55346130D01*
X34306845Y-55346130D01*
X33354464Y-54441369D02*
X33306845Y-54393750D01*
X33211607Y-54346130D01*
X32973511Y-54346130D01*
X32878273Y-54393750D01*
X32830654Y-54441369D01*
X32783035Y-54536607D01*
X32783035Y-54631845D01*
X32830654Y-54774702D01*
X33402083Y-55346130D01*
X32783035Y-55346130D01*
%TO.C,D1*%
X40783630Y-31549404D02*
X39783630Y-31549404D01*
X39783630Y-31787500D01*
X39831250Y-31930357D01*
X39926488Y-32025595D01*
X40021726Y-32073214D01*
X40212202Y-32120833D01*
X40355059Y-32120833D01*
X40545535Y-32073214D01*
X40640773Y-32025595D01*
X40736011Y-31930357D01*
X40783630Y-31787500D01*
X40783630Y-31549404D01*
X40783630Y-33073214D02*
X40783630Y-32501785D01*
X40783630Y-32787500D02*
X39783630Y-32787500D01*
X39926488Y-32692261D01*
X40021726Y-32597023D01*
X40069345Y-32501785D01*
%TO.C,U1*%
X31332559Y-39414166D02*
X31370654Y-39528452D01*
X31370654Y-39718928D01*
X31332559Y-39795119D01*
X31294464Y-39833214D01*
X31218273Y-39871309D01*
X31142083Y-39871309D01*
X31065892Y-39833214D01*
X31027797Y-39795119D01*
X30989702Y-39718928D01*
X30951607Y-39566547D01*
X30913511Y-39490357D01*
X30875416Y-39452261D01*
X30799226Y-39414166D01*
X30723035Y-39414166D01*
X30646845Y-39452261D01*
X30608750Y-39490357D01*
X30570654Y-39566547D01*
X30570654Y-39757023D01*
X30608750Y-39871309D01*
X30570654Y-40099880D02*
X30570654Y-40557023D01*
X31370654Y-40328452D02*
X30570654Y-40328452D01*
X25510654Y-46368895D02*
X25510654Y-46826038D01*
X26310654Y-46597467D02*
X25510654Y-46597467D01*
X25510654Y-47016514D02*
X26310654Y-47549848D01*
X25510654Y-47549848D02*
X26310654Y-47016514D01*
X25510654Y-48006991D02*
X25510654Y-48083181D01*
X25548750Y-48159372D01*
X25586845Y-48197467D01*
X25663035Y-48235562D01*
X25815416Y-48273657D01*
X26005892Y-48273657D01*
X26158273Y-48235562D01*
X26234464Y-48197467D01*
X26272559Y-48159372D01*
X26310654Y-48083181D01*
X26310654Y-48006991D01*
X26272559Y-47930800D01*
X26234464Y-47892705D01*
X26158273Y-47854610D01*
X26005892Y-47816514D01*
X25815416Y-47816514D01*
X25663035Y-47854610D01*
X25586845Y-47892705D01*
X25548750Y-47930800D01*
X25510654Y-48006991D01*
X25472559Y-49187943D02*
X26501130Y-48502229D01*
X26310654Y-49454610D02*
X25510654Y-49454610D01*
X25510654Y-49645086D01*
X25548750Y-49759372D01*
X25624940Y-49835562D01*
X25701130Y-49873657D01*
X25853511Y-49911752D01*
X25967797Y-49911752D01*
X26120178Y-49873657D01*
X26196369Y-49835562D01*
X26272559Y-49759372D01*
X26310654Y-49645086D01*
X26310654Y-49454610D01*
X25510654Y-50178419D02*
X25510654Y-50673657D01*
X25815416Y-50406991D01*
X25815416Y-50521276D01*
X25853511Y-50597467D01*
X25891607Y-50635562D01*
X25967797Y-50673657D01*
X26158273Y-50673657D01*
X26234464Y-50635562D01*
X26272559Y-50597467D01*
X26310654Y-50521276D01*
X26310654Y-50292705D01*
X26272559Y-50216514D01*
X26234464Y-50178419D01*
X51291607Y-39202690D02*
X51329702Y-39316976D01*
X51367797Y-39355071D01*
X51443988Y-39393166D01*
X51558273Y-39393166D01*
X51634464Y-39355071D01*
X51672559Y-39316976D01*
X51710654Y-39240785D01*
X51710654Y-38936023D01*
X50910654Y-38936023D01*
X50910654Y-39202690D01*
X50948750Y-39278880D01*
X50986845Y-39316976D01*
X51063035Y-39355071D01*
X51139226Y-39355071D01*
X51215416Y-39316976D01*
X51253511Y-39278880D01*
X51291607Y-39202690D01*
X51291607Y-38936023D01*
X50986845Y-39697928D02*
X50948750Y-39736023D01*
X50910654Y-39812214D01*
X50910654Y-40002690D01*
X50948750Y-40078880D01*
X50986845Y-40116976D01*
X51063035Y-40155071D01*
X51139226Y-40155071D01*
X51253511Y-40116976D01*
X51710654Y-39659833D01*
X51710654Y-40155071D01*
X43671607Y-39259833D02*
X43671607Y-38993166D01*
X44090654Y-38993166D02*
X43290654Y-38993166D01*
X43290654Y-39374119D01*
X43290654Y-39602690D02*
X43290654Y-40136023D01*
X44090654Y-39793166D01*
X41131607Y-39259833D02*
X41131607Y-38993166D01*
X41550654Y-38993166D02*
X40750654Y-38993166D01*
X40750654Y-39374119D01*
X40750654Y-40021738D02*
X40750654Y-39869357D01*
X40788750Y-39793166D01*
X40826845Y-39755071D01*
X40941130Y-39678880D01*
X41093511Y-39640785D01*
X41398273Y-39640785D01*
X41474464Y-39678880D01*
X41512559Y-39716976D01*
X41550654Y-39793166D01*
X41550654Y-39945547D01*
X41512559Y-40021738D01*
X41474464Y-40059833D01*
X41398273Y-40097928D01*
X41207797Y-40097928D01*
X41131607Y-40059833D01*
X41093511Y-40021738D01*
X41055416Y-39945547D01*
X41055416Y-39793166D01*
X41093511Y-39716976D01*
X41131607Y-39678880D01*
X41207797Y-39640785D01*
X38591607Y-39259833D02*
X38591607Y-38993166D01*
X39010654Y-38993166D02*
X38210654Y-38993166D01*
X38210654Y-39374119D01*
X38210654Y-40059833D02*
X38210654Y-39678880D01*
X38591607Y-39640785D01*
X38553511Y-39678880D01*
X38515416Y-39755071D01*
X38515416Y-39945547D01*
X38553511Y-40021738D01*
X38591607Y-40059833D01*
X38667797Y-40097928D01*
X38858273Y-40097928D01*
X38934464Y-40059833D01*
X38972559Y-40021738D01*
X39010654Y-39945547D01*
X39010654Y-39755071D01*
X38972559Y-39678880D01*
X38934464Y-39640785D01*
X26310654Y-38974119D02*
X25929702Y-38707452D01*
X26310654Y-38516976D02*
X25510654Y-38516976D01*
X25510654Y-38821738D01*
X25548750Y-38897928D01*
X25586845Y-38936023D01*
X25663035Y-38974119D01*
X25777321Y-38974119D01*
X25853511Y-38936023D01*
X25891607Y-38897928D01*
X25929702Y-38821738D01*
X25929702Y-38516976D01*
X26082083Y-39278880D02*
X26082083Y-39659833D01*
X26310654Y-39202690D02*
X25510654Y-39469357D01*
X26310654Y-39736023D01*
X25510654Y-39926500D02*
X26310654Y-40116976D01*
X25739226Y-40269357D01*
X26310654Y-40421738D01*
X25510654Y-40612214D01*
X28088750Y-38916976D02*
X28050654Y-38840785D01*
X28050654Y-38726500D01*
X28088750Y-38612214D01*
X28164940Y-38536023D01*
X28241130Y-38497928D01*
X28393511Y-38459833D01*
X28507797Y-38459833D01*
X28660178Y-38497928D01*
X28736369Y-38536023D01*
X28812559Y-38612214D01*
X28850654Y-38726500D01*
X28850654Y-38802690D01*
X28812559Y-38916976D01*
X28774464Y-38955071D01*
X28507797Y-38955071D01*
X28507797Y-38802690D01*
X28850654Y-39297928D02*
X28050654Y-39297928D01*
X28850654Y-39755071D01*
X28050654Y-39755071D01*
X28850654Y-40136023D02*
X28050654Y-40136023D01*
X28050654Y-40326500D01*
X28088750Y-40440785D01*
X28164940Y-40516976D01*
X28241130Y-40555071D01*
X28393511Y-40593166D01*
X28507797Y-40593166D01*
X28660178Y-40555071D01*
X28736369Y-40516976D01*
X28812559Y-40440785D01*
X28850654Y-40326500D01*
X28850654Y-40136023D01*
X33130654Y-38459833D02*
X33930654Y-38726500D01*
X33130654Y-38993166D01*
X33854464Y-39716976D02*
X33892559Y-39678880D01*
X33930654Y-39564595D01*
X33930654Y-39488404D01*
X33892559Y-39374119D01*
X33816369Y-39297928D01*
X33740178Y-39259833D01*
X33587797Y-39221738D01*
X33473511Y-39221738D01*
X33321130Y-39259833D01*
X33244940Y-39297928D01*
X33168750Y-39374119D01*
X33130654Y-39488404D01*
X33130654Y-39564595D01*
X33168750Y-39678880D01*
X33206845Y-39716976D01*
X33854464Y-40516976D02*
X33892559Y-40478880D01*
X33930654Y-40364595D01*
X33930654Y-40288404D01*
X33892559Y-40174119D01*
X33816369Y-40097928D01*
X33740178Y-40059833D01*
X33587797Y-40021738D01*
X33473511Y-40021738D01*
X33321130Y-40059833D01*
X33244940Y-40097928D01*
X33168750Y-40174119D01*
X33130654Y-40288404D01*
X33130654Y-40364595D01*
X33168750Y-40478880D01*
X33206845Y-40516976D01*
X36051607Y-39259833D02*
X36051607Y-38993166D01*
X36470654Y-38993166D02*
X35670654Y-38993166D01*
X35670654Y-39374119D01*
X35937321Y-40021738D02*
X36470654Y-40021738D01*
X35632559Y-39831261D02*
X36203988Y-39640785D01*
X36203988Y-40136023D01*
X46211607Y-39202690D02*
X46249702Y-39316976D01*
X46287797Y-39355071D01*
X46363988Y-39393166D01*
X46478273Y-39393166D01*
X46554464Y-39355071D01*
X46592559Y-39316976D01*
X46630654Y-39240785D01*
X46630654Y-38936023D01*
X45830654Y-38936023D01*
X45830654Y-39202690D01*
X45868750Y-39278880D01*
X45906845Y-39316976D01*
X45983035Y-39355071D01*
X46059226Y-39355071D01*
X46135416Y-39316976D01*
X46173511Y-39278880D01*
X46211607Y-39202690D01*
X46211607Y-38936023D01*
X46630654Y-40155071D02*
X46630654Y-39697928D01*
X46630654Y-39926500D02*
X45830654Y-39926500D01*
X45944940Y-39850309D01*
X46021130Y-39774119D01*
X46059226Y-39697928D01*
X48751607Y-39202690D02*
X48789702Y-39316976D01*
X48827797Y-39355071D01*
X48903988Y-39393166D01*
X49018273Y-39393166D01*
X49094464Y-39355071D01*
X49132559Y-39316976D01*
X49170654Y-39240785D01*
X49170654Y-38936023D01*
X48370654Y-38936023D01*
X48370654Y-39202690D01*
X48408750Y-39278880D01*
X48446845Y-39316976D01*
X48523035Y-39355071D01*
X48599226Y-39355071D01*
X48675416Y-39316976D01*
X48713511Y-39278880D01*
X48751607Y-39202690D01*
X48751607Y-38936023D01*
X48370654Y-39659833D02*
X48370654Y-40155071D01*
X48675416Y-39888404D01*
X48675416Y-40002690D01*
X48713511Y-40078880D01*
X48751607Y-40116976D01*
X48827797Y-40155071D01*
X49018273Y-40155071D01*
X49094464Y-40116976D01*
X49132559Y-40078880D01*
X49170654Y-40002690D01*
X49170654Y-39774119D01*
X49132559Y-39697928D01*
X49094464Y-39659833D01*
X53831607Y-39202690D02*
X53869702Y-39316976D01*
X53907797Y-39355071D01*
X53983988Y-39393166D01*
X54098273Y-39393166D01*
X54174464Y-39355071D01*
X54212559Y-39316976D01*
X54250654Y-39240785D01*
X54250654Y-38936023D01*
X53450654Y-38936023D01*
X53450654Y-39202690D01*
X53488750Y-39278880D01*
X53526845Y-39316976D01*
X53603035Y-39355071D01*
X53679226Y-39355071D01*
X53755416Y-39316976D01*
X53793511Y-39278880D01*
X53831607Y-39202690D01*
X53831607Y-38936023D01*
X53450654Y-40078880D02*
X53450654Y-39926500D01*
X53488750Y-39850309D01*
X53526845Y-39812214D01*
X53641130Y-39736023D01*
X53793511Y-39697928D01*
X54098273Y-39697928D01*
X54174464Y-39736023D01*
X54212559Y-39774119D01*
X54250654Y-39850309D01*
X54250654Y-40002690D01*
X54212559Y-40078880D01*
X54174464Y-40116976D01*
X54098273Y-40155071D01*
X53907797Y-40155071D01*
X53831607Y-40116976D01*
X53793511Y-40078880D01*
X53755416Y-40002690D01*
X53755416Y-39850309D01*
X53793511Y-39774119D01*
X53831607Y-39736023D01*
X53907797Y-39697928D01*
X53831607Y-50124690D02*
X53869702Y-50238976D01*
X53907797Y-50277071D01*
X53983988Y-50315166D01*
X54098273Y-50315166D01*
X54174464Y-50277071D01*
X54212559Y-50238976D01*
X54250654Y-50162785D01*
X54250654Y-49858023D01*
X53450654Y-49858023D01*
X53450654Y-50124690D01*
X53488750Y-50200880D01*
X53526845Y-50238976D01*
X53603035Y-50277071D01*
X53679226Y-50277071D01*
X53755416Y-50238976D01*
X53793511Y-50200880D01*
X53831607Y-50124690D01*
X53831607Y-49858023D01*
X53450654Y-51038976D02*
X53450654Y-50658023D01*
X53831607Y-50619928D01*
X53793511Y-50658023D01*
X53755416Y-50734214D01*
X53755416Y-50924690D01*
X53793511Y-51000880D01*
X53831607Y-51038976D01*
X53907797Y-51077071D01*
X54098273Y-51077071D01*
X54174464Y-51038976D01*
X54212559Y-51000880D01*
X54250654Y-50924690D01*
X54250654Y-50734214D01*
X54212559Y-50658023D01*
X54174464Y-50619928D01*
X51291607Y-50124690D02*
X51329702Y-50238976D01*
X51367797Y-50277071D01*
X51443988Y-50315166D01*
X51558273Y-50315166D01*
X51634464Y-50277071D01*
X51672559Y-50238976D01*
X51710654Y-50162785D01*
X51710654Y-49858023D01*
X50910654Y-49858023D01*
X50910654Y-50124690D01*
X50948750Y-50200880D01*
X50986845Y-50238976D01*
X51063035Y-50277071D01*
X51139226Y-50277071D01*
X51215416Y-50238976D01*
X51253511Y-50200880D01*
X51291607Y-50124690D01*
X51291607Y-49858023D01*
X51177321Y-51000880D02*
X51710654Y-51000880D01*
X50872559Y-50810404D02*
X51443988Y-50619928D01*
X51443988Y-51115166D01*
X48751607Y-49896119D02*
X48751607Y-50162785D01*
X49170654Y-50277071D02*
X49170654Y-49896119D01*
X48370654Y-49896119D01*
X48370654Y-50277071D01*
X48370654Y-50962785D02*
X48370654Y-50810404D01*
X48408750Y-50734214D01*
X48446845Y-50696119D01*
X48561130Y-50619928D01*
X48713511Y-50581833D01*
X49018273Y-50581833D01*
X49094464Y-50619928D01*
X49132559Y-50658023D01*
X49170654Y-50734214D01*
X49170654Y-50886595D01*
X49132559Y-50962785D01*
X49094464Y-51000880D01*
X49018273Y-51038976D01*
X48827797Y-51038976D01*
X48751607Y-51000880D01*
X48713511Y-50962785D01*
X48675416Y-50886595D01*
X48675416Y-50734214D01*
X48713511Y-50658023D01*
X48751607Y-50619928D01*
X48827797Y-50581833D01*
X46630654Y-49858023D02*
X45830654Y-49858023D01*
X45830654Y-50048500D01*
X45868750Y-50162785D01*
X45944940Y-50238976D01*
X46021130Y-50277071D01*
X46173511Y-50315166D01*
X46287797Y-50315166D01*
X46440178Y-50277071D01*
X46516369Y-50238976D01*
X46592559Y-50162785D01*
X46630654Y-50048500D01*
X46630654Y-49858023D01*
X45830654Y-50581833D02*
X45830654Y-51115166D01*
X46630654Y-50772309D01*
X44014464Y-50315166D02*
X44052559Y-50277071D01*
X44090654Y-50162785D01*
X44090654Y-50086595D01*
X44052559Y-49972309D01*
X43976369Y-49896119D01*
X43900178Y-49858023D01*
X43747797Y-49819928D01*
X43633511Y-49819928D01*
X43481130Y-49858023D01*
X43404940Y-49896119D01*
X43328750Y-49972309D01*
X43290654Y-50086595D01*
X43290654Y-50162785D01*
X43328750Y-50277071D01*
X43366845Y-50315166D01*
X43290654Y-51000880D02*
X43290654Y-50848500D01*
X43328750Y-50772309D01*
X43366845Y-50734214D01*
X43481130Y-50658023D01*
X43633511Y-50619928D01*
X43938273Y-50619928D01*
X44014464Y-50658023D01*
X44052559Y-50696119D01*
X44090654Y-50772309D01*
X44090654Y-50924690D01*
X44052559Y-51000880D01*
X44014464Y-51038976D01*
X43938273Y-51077071D01*
X43747797Y-51077071D01*
X43671607Y-51038976D01*
X43633511Y-51000880D01*
X43595416Y-50924690D01*
X43595416Y-50772309D01*
X43633511Y-50696119D01*
X43671607Y-50658023D01*
X43747797Y-50619928D01*
X41550654Y-49858023D02*
X40750654Y-49858023D01*
X40750654Y-50048500D01*
X40788750Y-50162785D01*
X40864940Y-50238976D01*
X40941130Y-50277071D01*
X41093511Y-50315166D01*
X41207797Y-50315166D01*
X41360178Y-50277071D01*
X41436369Y-50238976D01*
X41512559Y-50162785D01*
X41550654Y-50048500D01*
X41550654Y-49858023D01*
X41017321Y-51000880D02*
X41550654Y-51000880D01*
X40712559Y-50810404D02*
X41283988Y-50619928D01*
X41283988Y-51115166D01*
X30628750Y-49838976D02*
X30590654Y-49762785D01*
X30590654Y-49648500D01*
X30628750Y-49534214D01*
X30704940Y-49458023D01*
X30781130Y-49419928D01*
X30933511Y-49381833D01*
X31047797Y-49381833D01*
X31200178Y-49419928D01*
X31276369Y-49458023D01*
X31352559Y-49534214D01*
X31390654Y-49648500D01*
X31390654Y-49724690D01*
X31352559Y-49838976D01*
X31314464Y-49877071D01*
X31047797Y-49877071D01*
X31047797Y-49724690D01*
X31390654Y-50219928D02*
X30590654Y-50219928D01*
X31390654Y-50677071D01*
X30590654Y-50677071D01*
X31390654Y-51058023D02*
X30590654Y-51058023D01*
X30590654Y-51248500D01*
X30628750Y-51362785D01*
X30704940Y-51438976D01*
X30781130Y-51477071D01*
X30933511Y-51515166D01*
X31047797Y-51515166D01*
X31200178Y-51477071D01*
X31276369Y-51438976D01*
X31352559Y-51362785D01*
X31390654Y-51248500D01*
X31390654Y-51058023D01*
X33168750Y-49838976D02*
X33130654Y-49762785D01*
X33130654Y-49648500D01*
X33168750Y-49534214D01*
X33244940Y-49458023D01*
X33321130Y-49419928D01*
X33473511Y-49381833D01*
X33587797Y-49381833D01*
X33740178Y-49419928D01*
X33816369Y-49458023D01*
X33892559Y-49534214D01*
X33930654Y-49648500D01*
X33930654Y-49724690D01*
X33892559Y-49838976D01*
X33854464Y-49877071D01*
X33587797Y-49877071D01*
X33587797Y-49724690D01*
X33930654Y-50219928D02*
X33130654Y-50219928D01*
X33930654Y-50677071D01*
X33130654Y-50677071D01*
X33930654Y-51058023D02*
X33130654Y-51058023D01*
X33130654Y-51248500D01*
X33168750Y-51362785D01*
X33244940Y-51438976D01*
X33321130Y-51477071D01*
X33473511Y-51515166D01*
X33587797Y-51515166D01*
X33740178Y-51477071D01*
X33816369Y-51438976D01*
X33892559Y-51362785D01*
X33930654Y-51248500D01*
X33930654Y-51058023D01*
X36470654Y-49858023D02*
X35670654Y-49858023D01*
X35670654Y-50048500D01*
X35708750Y-50162785D01*
X35784940Y-50238976D01*
X35861130Y-50277071D01*
X36013511Y-50315166D01*
X36127797Y-50315166D01*
X36280178Y-50277071D01*
X36356369Y-50238976D01*
X36432559Y-50162785D01*
X36470654Y-50048500D01*
X36470654Y-49858023D01*
X36470654Y-51077071D02*
X36470654Y-50619928D01*
X36470654Y-50848500D02*
X35670654Y-50848500D01*
X35784940Y-50772309D01*
X35861130Y-50696119D01*
X35899226Y-50619928D01*
X39010654Y-49858023D02*
X38210654Y-49858023D01*
X38210654Y-50048500D01*
X38248750Y-50162785D01*
X38324940Y-50238976D01*
X38401130Y-50277071D01*
X38553511Y-50315166D01*
X38667797Y-50315166D01*
X38820178Y-50277071D01*
X38896369Y-50238976D01*
X38972559Y-50162785D01*
X39010654Y-50048500D01*
X39010654Y-49858023D01*
X38210654Y-50810404D02*
X38210654Y-50886595D01*
X38248750Y-50962785D01*
X38286845Y-51000880D01*
X38363035Y-51038976D01*
X38515416Y-51077071D01*
X38705892Y-51077071D01*
X38858273Y-51038976D01*
X38934464Y-51000880D01*
X38972559Y-50962785D01*
X39010654Y-50886595D01*
X39010654Y-50810404D01*
X38972559Y-50734214D01*
X38934464Y-50696119D01*
X38858273Y-50658023D01*
X38705892Y-50619928D01*
X38515416Y-50619928D01*
X38363035Y-50658023D01*
X38286845Y-50696119D01*
X38248750Y-50734214D01*
X38210654Y-50810404D01*
X28850654Y-49858023D02*
X28050654Y-49858023D01*
X28050654Y-50048500D01*
X28088750Y-50162785D01*
X28164940Y-50238976D01*
X28241130Y-50277071D01*
X28393511Y-50315166D01*
X28507797Y-50315166D01*
X28660178Y-50277071D01*
X28736369Y-50238976D01*
X28812559Y-50162785D01*
X28850654Y-50048500D01*
X28850654Y-49858023D01*
X28126845Y-50619928D02*
X28088750Y-50658023D01*
X28050654Y-50734214D01*
X28050654Y-50924690D01*
X28088750Y-51000880D01*
X28126845Y-51038976D01*
X28203035Y-51077071D01*
X28279226Y-51077071D01*
X28393511Y-51038976D01*
X28850654Y-50581833D01*
X28850654Y-51077071D01*
%TO.C,SW10*%
X69509523Y-77618511D02*
X69366666Y-77666130D01*
X69128571Y-77666130D01*
X69033333Y-77618511D01*
X68985714Y-77570892D01*
X68938095Y-77475654D01*
X68938095Y-77380416D01*
X68985714Y-77285178D01*
X69033333Y-77237559D01*
X69128571Y-77189940D01*
X69319047Y-77142321D01*
X69414285Y-77094702D01*
X69461904Y-77047083D01*
X69509523Y-76951845D01*
X69509523Y-76856607D01*
X69461904Y-76761369D01*
X69414285Y-76713750D01*
X69319047Y-76666130D01*
X69080952Y-76666130D01*
X68938095Y-76713750D01*
X68604761Y-76666130D02*
X68366666Y-77666130D01*
X68176190Y-76951845D01*
X67985714Y-77666130D01*
X67747619Y-76666130D01*
X66842857Y-77666130D02*
X67414285Y-77666130D01*
X67128571Y-77666130D02*
X67128571Y-76666130D01*
X67223809Y-76808988D01*
X67319047Y-76904226D01*
X67414285Y-76951845D01*
X66223809Y-76666130D02*
X66128571Y-76666130D01*
X66033333Y-76713750D01*
X65985714Y-76761369D01*
X65938095Y-76856607D01*
X65890476Y-77047083D01*
X65890476Y-77285178D01*
X65938095Y-77475654D01*
X65985714Y-77570892D01*
X66033333Y-77618511D01*
X66128571Y-77666130D01*
X66223809Y-77666130D01*
X66319047Y-77618511D01*
X66366666Y-77570892D01*
X66414285Y-77475654D01*
X66461904Y-77285178D01*
X66461904Y-77047083D01*
X66414285Y-76856607D01*
X66366666Y-76761369D01*
X66319047Y-76713750D01*
X66223809Y-76666130D01*
%TO.C,SW9*%
X69033333Y-58568511D02*
X68890476Y-58616130D01*
X68652380Y-58616130D01*
X68557142Y-58568511D01*
X68509523Y-58520892D01*
X68461904Y-58425654D01*
X68461904Y-58330416D01*
X68509523Y-58235178D01*
X68557142Y-58187559D01*
X68652380Y-58139940D01*
X68842857Y-58092321D01*
X68938095Y-58044702D01*
X68985714Y-57997083D01*
X69033333Y-57901845D01*
X69033333Y-57806607D01*
X68985714Y-57711369D01*
X68938095Y-57663750D01*
X68842857Y-57616130D01*
X68604761Y-57616130D01*
X68461904Y-57663750D01*
X68128571Y-57616130D02*
X67890476Y-58616130D01*
X67700000Y-57901845D01*
X67509523Y-58616130D01*
X67271428Y-57616130D01*
X66842857Y-58616130D02*
X66652380Y-58616130D01*
X66557142Y-58568511D01*
X66509523Y-58520892D01*
X66414285Y-58378035D01*
X66366666Y-58187559D01*
X66366666Y-57806607D01*
X66414285Y-57711369D01*
X66461904Y-57663750D01*
X66557142Y-57616130D01*
X66747619Y-57616130D01*
X66842857Y-57663750D01*
X66890476Y-57711369D01*
X66938095Y-57806607D01*
X66938095Y-58044702D01*
X66890476Y-58139940D01*
X66842857Y-58187559D01*
X66747619Y-58235178D01*
X66557142Y-58235178D01*
X66461904Y-58187559D01*
X66414285Y-58139940D01*
X66366666Y-58044702D01*
%TO.C,SW8*%
X69033333Y-39518511D02*
X68890476Y-39566130D01*
X68652380Y-39566130D01*
X68557142Y-39518511D01*
X68509523Y-39470892D01*
X68461904Y-39375654D01*
X68461904Y-39280416D01*
X68509523Y-39185178D01*
X68557142Y-39137559D01*
X68652380Y-39089940D01*
X68842857Y-39042321D01*
X68938095Y-38994702D01*
X68985714Y-38947083D01*
X69033333Y-38851845D01*
X69033333Y-38756607D01*
X68985714Y-38661369D01*
X68938095Y-38613750D01*
X68842857Y-38566130D01*
X68604761Y-38566130D01*
X68461904Y-38613750D01*
X68128571Y-38566130D02*
X67890476Y-39566130D01*
X67700000Y-38851845D01*
X67509523Y-39566130D01*
X67271428Y-38566130D01*
X66747619Y-38994702D02*
X66842857Y-38947083D01*
X66890476Y-38899464D01*
X66938095Y-38804226D01*
X66938095Y-38756607D01*
X66890476Y-38661369D01*
X66842857Y-38613750D01*
X66747619Y-38566130D01*
X66557142Y-38566130D01*
X66461904Y-38613750D01*
X66414285Y-38661369D01*
X66366666Y-38756607D01*
X66366666Y-38804226D01*
X66414285Y-38899464D01*
X66461904Y-38947083D01*
X66557142Y-38994702D01*
X66747619Y-38994702D01*
X66842857Y-39042321D01*
X66890476Y-39089940D01*
X66938095Y-39185178D01*
X66938095Y-39375654D01*
X66890476Y-39470892D01*
X66842857Y-39518511D01*
X66747619Y-39566130D01*
X66557142Y-39566130D01*
X66461904Y-39518511D01*
X66414285Y-39470892D01*
X66366666Y-39375654D01*
X66366666Y-39185178D01*
X66414285Y-39089940D01*
X66461904Y-39042321D01*
X66557142Y-38994702D01*
%TO.C,SW7*%
X69033333Y-20468511D02*
X68890476Y-20516130D01*
X68652380Y-20516130D01*
X68557142Y-20468511D01*
X68509523Y-20420892D01*
X68461904Y-20325654D01*
X68461904Y-20230416D01*
X68509523Y-20135178D01*
X68557142Y-20087559D01*
X68652380Y-20039940D01*
X68842857Y-19992321D01*
X68938095Y-19944702D01*
X68985714Y-19897083D01*
X69033333Y-19801845D01*
X69033333Y-19706607D01*
X68985714Y-19611369D01*
X68938095Y-19563750D01*
X68842857Y-19516130D01*
X68604761Y-19516130D01*
X68461904Y-19563750D01*
X68128571Y-19516130D02*
X67890476Y-20516130D01*
X67700000Y-19801845D01*
X67509523Y-20516130D01*
X67271428Y-19516130D01*
X66985714Y-19516130D02*
X66319047Y-19516130D01*
X66747619Y-20516130D01*
%TO.C,SW6*%
X49983333Y-58568511D02*
X49840476Y-58616130D01*
X49602380Y-58616130D01*
X49507142Y-58568511D01*
X49459523Y-58520892D01*
X49411904Y-58425654D01*
X49411904Y-58330416D01*
X49459523Y-58235178D01*
X49507142Y-58187559D01*
X49602380Y-58139940D01*
X49792857Y-58092321D01*
X49888095Y-58044702D01*
X49935714Y-57997083D01*
X49983333Y-57901845D01*
X49983333Y-57806607D01*
X49935714Y-57711369D01*
X49888095Y-57663750D01*
X49792857Y-57616130D01*
X49554761Y-57616130D01*
X49411904Y-57663750D01*
X49078571Y-57616130D02*
X48840476Y-58616130D01*
X48650000Y-57901845D01*
X48459523Y-58616130D01*
X48221428Y-57616130D01*
X47411904Y-57616130D02*
X47602380Y-57616130D01*
X47697619Y-57663750D01*
X47745238Y-57711369D01*
X47840476Y-57854226D01*
X47888095Y-58044702D01*
X47888095Y-58425654D01*
X47840476Y-58520892D01*
X47792857Y-58568511D01*
X47697619Y-58616130D01*
X47507142Y-58616130D01*
X47411904Y-58568511D01*
X47364285Y-58520892D01*
X47316666Y-58425654D01*
X47316666Y-58187559D01*
X47364285Y-58092321D01*
X47411904Y-58044702D01*
X47507142Y-57997083D01*
X47697619Y-57997083D01*
X47792857Y-58044702D01*
X47840476Y-58092321D01*
X47888095Y-58187559D01*
%TO.C,SW5*%
X49983333Y-39518511D02*
X49840476Y-39566130D01*
X49602380Y-39566130D01*
X49507142Y-39518511D01*
X49459523Y-39470892D01*
X49411904Y-39375654D01*
X49411904Y-39280416D01*
X49459523Y-39185178D01*
X49507142Y-39137559D01*
X49602380Y-39089940D01*
X49792857Y-39042321D01*
X49888095Y-38994702D01*
X49935714Y-38947083D01*
X49983333Y-38851845D01*
X49983333Y-38756607D01*
X49935714Y-38661369D01*
X49888095Y-38613750D01*
X49792857Y-38566130D01*
X49554761Y-38566130D01*
X49411904Y-38613750D01*
X49078571Y-38566130D02*
X48840476Y-39566130D01*
X48650000Y-38851845D01*
X48459523Y-39566130D01*
X48221428Y-38566130D01*
X47364285Y-38566130D02*
X47840476Y-38566130D01*
X47888095Y-39042321D01*
X47840476Y-38994702D01*
X47745238Y-38947083D01*
X47507142Y-38947083D01*
X47411904Y-38994702D01*
X47364285Y-39042321D01*
X47316666Y-39137559D01*
X47316666Y-39375654D01*
X47364285Y-39470892D01*
X47411904Y-39518511D01*
X47507142Y-39566130D01*
X47745238Y-39566130D01*
X47840476Y-39518511D01*
X47888095Y-39470892D01*
%TO.C,SW4*%
X49983333Y-20468511D02*
X49840476Y-20516130D01*
X49602380Y-20516130D01*
X49507142Y-20468511D01*
X49459523Y-20420892D01*
X49411904Y-20325654D01*
X49411904Y-20230416D01*
X49459523Y-20135178D01*
X49507142Y-20087559D01*
X49602380Y-20039940D01*
X49792857Y-19992321D01*
X49888095Y-19944702D01*
X49935714Y-19897083D01*
X49983333Y-19801845D01*
X49983333Y-19706607D01*
X49935714Y-19611369D01*
X49888095Y-19563750D01*
X49792857Y-19516130D01*
X49554761Y-19516130D01*
X49411904Y-19563750D01*
X49078571Y-19516130D02*
X48840476Y-20516130D01*
X48650000Y-19801845D01*
X48459523Y-20516130D01*
X48221428Y-19516130D01*
X47411904Y-19849464D02*
X47411904Y-20516130D01*
X47650000Y-19468511D02*
X47888095Y-20182797D01*
X47269047Y-20182797D01*
%TO.C,SW3*%
X30933333Y-58568511D02*
X30790476Y-58616130D01*
X30552380Y-58616130D01*
X30457142Y-58568511D01*
X30409523Y-58520892D01*
X30361904Y-58425654D01*
X30361904Y-58330416D01*
X30409523Y-58235178D01*
X30457142Y-58187559D01*
X30552380Y-58139940D01*
X30742857Y-58092321D01*
X30838095Y-58044702D01*
X30885714Y-57997083D01*
X30933333Y-57901845D01*
X30933333Y-57806607D01*
X30885714Y-57711369D01*
X30838095Y-57663750D01*
X30742857Y-57616130D01*
X30504761Y-57616130D01*
X30361904Y-57663750D01*
X30028571Y-57616130D02*
X29790476Y-58616130D01*
X29600000Y-57901845D01*
X29409523Y-58616130D01*
X29171428Y-57616130D01*
X28885714Y-57616130D02*
X28266666Y-57616130D01*
X28600000Y-57997083D01*
X28457142Y-57997083D01*
X28361904Y-58044702D01*
X28314285Y-58092321D01*
X28266666Y-58187559D01*
X28266666Y-58425654D01*
X28314285Y-58520892D01*
X28361904Y-58568511D01*
X28457142Y-58616130D01*
X28742857Y-58616130D01*
X28838095Y-58568511D01*
X28885714Y-58520892D01*
%TO.C,SW2*%
X30933333Y-39518511D02*
X30790476Y-39566130D01*
X30552380Y-39566130D01*
X30457142Y-39518511D01*
X30409523Y-39470892D01*
X30361904Y-39375654D01*
X30361904Y-39280416D01*
X30409523Y-39185178D01*
X30457142Y-39137559D01*
X30552380Y-39089940D01*
X30742857Y-39042321D01*
X30838095Y-38994702D01*
X30885714Y-38947083D01*
X30933333Y-38851845D01*
X30933333Y-38756607D01*
X30885714Y-38661369D01*
X30838095Y-38613750D01*
X30742857Y-38566130D01*
X30504761Y-38566130D01*
X30361904Y-38613750D01*
X30028571Y-38566130D02*
X29790476Y-39566130D01*
X29600000Y-38851845D01*
X29409523Y-39566130D01*
X29171428Y-38566130D01*
X28838095Y-38661369D02*
X28790476Y-38613750D01*
X28695238Y-38566130D01*
X28457142Y-38566130D01*
X28361904Y-38613750D01*
X28314285Y-38661369D01*
X28266666Y-38756607D01*
X28266666Y-38851845D01*
X28314285Y-38994702D01*
X28885714Y-39566130D01*
X28266666Y-39566130D01*
%TO.C,SW1*%
X30933333Y-20468511D02*
X30790476Y-20516130D01*
X30552380Y-20516130D01*
X30457142Y-20468511D01*
X30409523Y-20420892D01*
X30361904Y-20325654D01*
X30361904Y-20230416D01*
X30409523Y-20135178D01*
X30457142Y-20087559D01*
X30552380Y-20039940D01*
X30742857Y-19992321D01*
X30838095Y-19944702D01*
X30885714Y-19897083D01*
X30933333Y-19801845D01*
X30933333Y-19706607D01*
X30885714Y-19611369D01*
X30838095Y-19563750D01*
X30742857Y-19516130D01*
X30504761Y-19516130D01*
X30361904Y-19563750D01*
X30028571Y-19516130D02*
X29790476Y-20516130D01*
X29600000Y-19801845D01*
X29409523Y-20516130D01*
X29171428Y-19516130D01*
X28266666Y-20516130D02*
X28838095Y-20516130D01*
X28552380Y-20516130D02*
X28552380Y-19516130D01*
X28647619Y-19658988D01*
X28742857Y-19754226D01*
X28838095Y-19801845D01*
%TD*%
%LPC*%
D14*
%TO.C,REF\u002A\u002A*%
X191525000Y-56893750D03*
%TD*%
%TO.C,REF\u002A\u002A*%
X172475000Y-75943750D03*
%TD*%
%TO.C,REF\u002A\u002A*%
X172475000Y-37843750D03*
%TD*%
%TO.C,SW23*%
G36*
G01*
X134865000Y-27028750D02*
X134865000Y-24528750D01*
G75*
G02*
X135065000Y-24328750I200000J0D01*
G01*
X137615000Y-24328750D01*
G75*
G02*
X137815000Y-24528750I0J-200000D01*
G01*
X137815000Y-27028750D01*
G75*
G02*
X137615000Y-27228750I-200000J0D01*
G01*
X135065000Y-27228750D01*
G75*
G02*
X134865000Y-27028750I0J200000D01*
G01*
G37*
D15*
X138820000Y-28318750D03*
X148980000Y-28318750D03*
D16*
X143900000Y-28318750D03*
D17*
X140090000Y-25778750D03*
X146440000Y-23238750D03*
G36*
G01*
X148715000Y-24488750D02*
X148715000Y-21988750D01*
G75*
G02*
X148915000Y-21788750I200000J0D01*
G01*
X151465000Y-21788750D01*
G75*
G02*
X151665000Y-21988750I0J-200000D01*
G01*
X151665000Y-24488750D01*
G75*
G02*
X151465000Y-24688750I-200000J0D01*
G01*
X148915000Y-24688750D01*
G75*
G02*
X148715000Y-24488750I0J200000D01*
G01*
G37*
%TD*%
%TO.C,SW36*%
G36*
G01*
X192015000Y-65128750D02*
X192015000Y-62628750D01*
G75*
G02*
X192215000Y-62428750I200000J0D01*
G01*
X194765000Y-62428750D01*
G75*
G02*
X194965000Y-62628750I0J-200000D01*
G01*
X194965000Y-65128750D01*
G75*
G02*
X194765000Y-65328750I-200000J0D01*
G01*
X192215000Y-65328750D01*
G75*
G02*
X192015000Y-65128750I0J200000D01*
G01*
G37*
D15*
X195970000Y-66418750D03*
X206130000Y-66418750D03*
D16*
X201050000Y-66418750D03*
D17*
X197240000Y-63878750D03*
X203590000Y-61338750D03*
G36*
G01*
X205865000Y-62588750D02*
X205865000Y-60088750D01*
G75*
G02*
X206065000Y-59888750I200000J0D01*
G01*
X208615000Y-59888750D01*
G75*
G02*
X208815000Y-60088750I0J-200000D01*
G01*
X208815000Y-62588750D01*
G75*
G02*
X208615000Y-62788750I-200000J0D01*
G01*
X206065000Y-62788750D01*
G75*
G02*
X205865000Y-62588750I0J200000D01*
G01*
G37*
%TD*%
%TO.C,SW35*%
G36*
G01*
X192015000Y-46078750D02*
X192015000Y-43578750D01*
G75*
G02*
X192215000Y-43378750I200000J0D01*
G01*
X194765000Y-43378750D01*
G75*
G02*
X194965000Y-43578750I0J-200000D01*
G01*
X194965000Y-46078750D01*
G75*
G02*
X194765000Y-46278750I-200000J0D01*
G01*
X192215000Y-46278750D01*
G75*
G02*
X192015000Y-46078750I0J200000D01*
G01*
G37*
D15*
X195970000Y-47368750D03*
X206130000Y-47368750D03*
D16*
X201050000Y-47368750D03*
D17*
X197240000Y-44828750D03*
X203590000Y-42288750D03*
G36*
G01*
X205865000Y-43538750D02*
X205865000Y-41038750D01*
G75*
G02*
X206065000Y-40838750I200000J0D01*
G01*
X208615000Y-40838750D01*
G75*
G02*
X208815000Y-41038750I0J-200000D01*
G01*
X208815000Y-43538750D01*
G75*
G02*
X208615000Y-43738750I-200000J0D01*
G01*
X206065000Y-43738750D01*
G75*
G02*
X205865000Y-43538750I0J200000D01*
G01*
G37*
%TD*%
%TO.C,SW24*%
G36*
G01*
X134865000Y-46078750D02*
X134865000Y-43578750D01*
G75*
G02*
X135065000Y-43378750I200000J0D01*
G01*
X137615000Y-43378750D01*
G75*
G02*
X137815000Y-43578750I0J-200000D01*
G01*
X137815000Y-46078750D01*
G75*
G02*
X137615000Y-46278750I-200000J0D01*
G01*
X135065000Y-46278750D01*
G75*
G02*
X134865000Y-46078750I0J200000D01*
G01*
G37*
D15*
X138820000Y-47368750D03*
X148980000Y-47368750D03*
D16*
X143900000Y-47368750D03*
D17*
X140090000Y-44828750D03*
X146440000Y-42288750D03*
G36*
G01*
X148715000Y-43538750D02*
X148715000Y-41038750D01*
G75*
G02*
X148915000Y-40838750I200000J0D01*
G01*
X151465000Y-40838750D01*
G75*
G02*
X151665000Y-41038750I0J-200000D01*
G01*
X151665000Y-43538750D01*
G75*
G02*
X151465000Y-43738750I-200000J0D01*
G01*
X148915000Y-43738750D01*
G75*
G02*
X148715000Y-43538750I0J200000D01*
G01*
G37*
%TD*%
%TO.C,SW25*%
G36*
G01*
X134865000Y-65128750D02*
X134865000Y-62628750D01*
G75*
G02*
X135065000Y-62428750I200000J0D01*
G01*
X137615000Y-62428750D01*
G75*
G02*
X137815000Y-62628750I0J-200000D01*
G01*
X137815000Y-65128750D01*
G75*
G02*
X137615000Y-65328750I-200000J0D01*
G01*
X135065000Y-65328750D01*
G75*
G02*
X134865000Y-65128750I0J200000D01*
G01*
G37*
D15*
X138820000Y-66418750D03*
X148980000Y-66418750D03*
D16*
X143900000Y-66418750D03*
D17*
X140090000Y-63878750D03*
X146440000Y-61338750D03*
G36*
G01*
X148715000Y-62588750D02*
X148715000Y-60088750D01*
G75*
G02*
X148915000Y-59888750I200000J0D01*
G01*
X151465000Y-59888750D01*
G75*
G02*
X151665000Y-60088750I0J-200000D01*
G01*
X151665000Y-62588750D01*
G75*
G02*
X151465000Y-62788750I-200000J0D01*
G01*
X148915000Y-62788750D01*
G75*
G02*
X148715000Y-62588750I0J200000D01*
G01*
G37*
%TD*%
%TO.C,SW26*%
G36*
G01*
X134865000Y-84178750D02*
X134865000Y-81678750D01*
G75*
G02*
X135065000Y-81478750I200000J0D01*
G01*
X137615000Y-81478750D01*
G75*
G02*
X137815000Y-81678750I0J-200000D01*
G01*
X137815000Y-84178750D01*
G75*
G02*
X137615000Y-84378750I-200000J0D01*
G01*
X135065000Y-84378750D01*
G75*
G02*
X134865000Y-84178750I0J200000D01*
G01*
G37*
D15*
X138820000Y-85468750D03*
X148980000Y-85468750D03*
D16*
X143900000Y-85468750D03*
D17*
X140090000Y-82928750D03*
X146440000Y-80388750D03*
G36*
G01*
X148715000Y-81638750D02*
X148715000Y-79138750D01*
G75*
G02*
X148915000Y-78938750I200000J0D01*
G01*
X151465000Y-78938750D01*
G75*
G02*
X151665000Y-79138750I0J-200000D01*
G01*
X151665000Y-81638750D01*
G75*
G02*
X151465000Y-81838750I-200000J0D01*
G01*
X148915000Y-81838750D01*
G75*
G02*
X148715000Y-81638750I0J200000D01*
G01*
G37*
%TD*%
%TO.C,SW27*%
G36*
G01*
X153915000Y-27028750D02*
X153915000Y-24528750D01*
G75*
G02*
X154115000Y-24328750I200000J0D01*
G01*
X156665000Y-24328750D01*
G75*
G02*
X156865000Y-24528750I0J-200000D01*
G01*
X156865000Y-27028750D01*
G75*
G02*
X156665000Y-27228750I-200000J0D01*
G01*
X154115000Y-27228750D01*
G75*
G02*
X153915000Y-27028750I0J200000D01*
G01*
G37*
D15*
X157870000Y-28318750D03*
X168030000Y-28318750D03*
D16*
X162950000Y-28318750D03*
D17*
X159140000Y-25778750D03*
X165490000Y-23238750D03*
G36*
G01*
X167765000Y-24488750D02*
X167765000Y-21988750D01*
G75*
G02*
X167965000Y-21788750I200000J0D01*
G01*
X170515000Y-21788750D01*
G75*
G02*
X170715000Y-21988750I0J-200000D01*
G01*
X170715000Y-24488750D01*
G75*
G02*
X170515000Y-24688750I-200000J0D01*
G01*
X167965000Y-24688750D01*
G75*
G02*
X167765000Y-24488750I0J200000D01*
G01*
G37*
%TD*%
%TO.C,SW28*%
G36*
G01*
X153915000Y-46078750D02*
X153915000Y-43578750D01*
G75*
G02*
X154115000Y-43378750I200000J0D01*
G01*
X156665000Y-43378750D01*
G75*
G02*
X156865000Y-43578750I0J-200000D01*
G01*
X156865000Y-46078750D01*
G75*
G02*
X156665000Y-46278750I-200000J0D01*
G01*
X154115000Y-46278750D01*
G75*
G02*
X153915000Y-46078750I0J200000D01*
G01*
G37*
D15*
X157870000Y-47368750D03*
X168030000Y-47368750D03*
D16*
X162950000Y-47368750D03*
D17*
X159140000Y-44828750D03*
X165490000Y-42288750D03*
G36*
G01*
X167765000Y-43538750D02*
X167765000Y-41038750D01*
G75*
G02*
X167965000Y-40838750I200000J0D01*
G01*
X170515000Y-40838750D01*
G75*
G02*
X170715000Y-41038750I0J-200000D01*
G01*
X170715000Y-43538750D01*
G75*
G02*
X170515000Y-43738750I-200000J0D01*
G01*
X167965000Y-43738750D01*
G75*
G02*
X167765000Y-43538750I0J200000D01*
G01*
G37*
%TD*%
%TO.C,SW29*%
G36*
G01*
X153915000Y-65128750D02*
X153915000Y-62628750D01*
G75*
G02*
X154115000Y-62428750I200000J0D01*
G01*
X156665000Y-62428750D01*
G75*
G02*
X156865000Y-62628750I0J-200000D01*
G01*
X156865000Y-65128750D01*
G75*
G02*
X156665000Y-65328750I-200000J0D01*
G01*
X154115000Y-65328750D01*
G75*
G02*
X153915000Y-65128750I0J200000D01*
G01*
G37*
D15*
X157870000Y-66418750D03*
X168030000Y-66418750D03*
D16*
X162950000Y-66418750D03*
D17*
X159140000Y-63878750D03*
X165490000Y-61338750D03*
G36*
G01*
X167765000Y-62588750D02*
X167765000Y-60088750D01*
G75*
G02*
X167965000Y-59888750I200000J0D01*
G01*
X170515000Y-59888750D01*
G75*
G02*
X170715000Y-60088750I0J-200000D01*
G01*
X170715000Y-62588750D01*
G75*
G02*
X170515000Y-62788750I-200000J0D01*
G01*
X167965000Y-62788750D01*
G75*
G02*
X167765000Y-62588750I0J200000D01*
G01*
G37*
%TD*%
%TO.C,SW30*%
G36*
G01*
X153915000Y-84178750D02*
X153915000Y-81678750D01*
G75*
G02*
X154115000Y-81478750I200000J0D01*
G01*
X156665000Y-81478750D01*
G75*
G02*
X156865000Y-81678750I0J-200000D01*
G01*
X156865000Y-84178750D01*
G75*
G02*
X156665000Y-84378750I-200000J0D01*
G01*
X154115000Y-84378750D01*
G75*
G02*
X153915000Y-84178750I0J200000D01*
G01*
G37*
D15*
X157870000Y-85468750D03*
X168030000Y-85468750D03*
D16*
X162950000Y-85468750D03*
D17*
X159140000Y-82928750D03*
X165490000Y-80388750D03*
G36*
G01*
X167765000Y-81638750D02*
X167765000Y-79138750D01*
G75*
G02*
X167965000Y-78938750I200000J0D01*
G01*
X170515000Y-78938750D01*
G75*
G02*
X170715000Y-79138750I0J-200000D01*
G01*
X170715000Y-81638750D01*
G75*
G02*
X170515000Y-81838750I-200000J0D01*
G01*
X167965000Y-81838750D01*
G75*
G02*
X167765000Y-81638750I0J200000D01*
G01*
G37*
%TD*%
%TO.C,SW31*%
G36*
G01*
X172965000Y-27028750D02*
X172965000Y-24528750D01*
G75*
G02*
X173165000Y-24328750I200000J0D01*
G01*
X175715000Y-24328750D01*
G75*
G02*
X175915000Y-24528750I0J-200000D01*
G01*
X175915000Y-27028750D01*
G75*
G02*
X175715000Y-27228750I-200000J0D01*
G01*
X173165000Y-27228750D01*
G75*
G02*
X172965000Y-27028750I0J200000D01*
G01*
G37*
D15*
X176920000Y-28318750D03*
X187080000Y-28318750D03*
D16*
X182000000Y-28318750D03*
D17*
X178190000Y-25778750D03*
X184540000Y-23238750D03*
G36*
G01*
X186815000Y-24488750D02*
X186815000Y-21988750D01*
G75*
G02*
X187015000Y-21788750I200000J0D01*
G01*
X189565000Y-21788750D01*
G75*
G02*
X189765000Y-21988750I0J-200000D01*
G01*
X189765000Y-24488750D01*
G75*
G02*
X189565000Y-24688750I-200000J0D01*
G01*
X187015000Y-24688750D01*
G75*
G02*
X186815000Y-24488750I0J200000D01*
G01*
G37*
%TD*%
%TO.C,SW32*%
G36*
G01*
X172965000Y-46078750D02*
X172965000Y-43578750D01*
G75*
G02*
X173165000Y-43378750I200000J0D01*
G01*
X175715000Y-43378750D01*
G75*
G02*
X175915000Y-43578750I0J-200000D01*
G01*
X175915000Y-46078750D01*
G75*
G02*
X175715000Y-46278750I-200000J0D01*
G01*
X173165000Y-46278750D01*
G75*
G02*
X172965000Y-46078750I0J200000D01*
G01*
G37*
D15*
X176920000Y-47368750D03*
X187080000Y-47368750D03*
D16*
X182000000Y-47368750D03*
D17*
X178190000Y-44828750D03*
X184540000Y-42288750D03*
G36*
G01*
X186815000Y-43538750D02*
X186815000Y-41038750D01*
G75*
G02*
X187015000Y-40838750I200000J0D01*
G01*
X189565000Y-40838750D01*
G75*
G02*
X189765000Y-41038750I0J-200000D01*
G01*
X189765000Y-43538750D01*
G75*
G02*
X189565000Y-43738750I-200000J0D01*
G01*
X187015000Y-43738750D01*
G75*
G02*
X186815000Y-43538750I0J200000D01*
G01*
G37*
%TD*%
%TO.C,SW33*%
G36*
G01*
X172965000Y-65128750D02*
X172965000Y-62628750D01*
G75*
G02*
X173165000Y-62428750I200000J0D01*
G01*
X175715000Y-62428750D01*
G75*
G02*
X175915000Y-62628750I0J-200000D01*
G01*
X175915000Y-65128750D01*
G75*
G02*
X175715000Y-65328750I-200000J0D01*
G01*
X173165000Y-65328750D01*
G75*
G02*
X172965000Y-65128750I0J200000D01*
G01*
G37*
D15*
X176920000Y-66418750D03*
X187080000Y-66418750D03*
D16*
X182000000Y-66418750D03*
D17*
X178190000Y-63878750D03*
X184540000Y-61338750D03*
G36*
G01*
X186815000Y-62588750D02*
X186815000Y-60088750D01*
G75*
G02*
X187015000Y-59888750I200000J0D01*
G01*
X189565000Y-59888750D01*
G75*
G02*
X189765000Y-60088750I0J-200000D01*
G01*
X189765000Y-62588750D01*
G75*
G02*
X189565000Y-62788750I-200000J0D01*
G01*
X187015000Y-62788750D01*
G75*
G02*
X186815000Y-62588750I0J200000D01*
G01*
G37*
%TD*%
%TO.C,SW34*%
G36*
G01*
X192015000Y-27028750D02*
X192015000Y-24528750D01*
G75*
G02*
X192215000Y-24328750I200000J0D01*
G01*
X194765000Y-24328750D01*
G75*
G02*
X194965000Y-24528750I0J-200000D01*
G01*
X194965000Y-27028750D01*
G75*
G02*
X194765000Y-27228750I-200000J0D01*
G01*
X192215000Y-27228750D01*
G75*
G02*
X192015000Y-27028750I0J200000D01*
G01*
G37*
D15*
X195970000Y-28318750D03*
X206130000Y-28318750D03*
D16*
X201050000Y-28318750D03*
D17*
X197240000Y-25778750D03*
X203590000Y-23238750D03*
G36*
G01*
X205865000Y-24488750D02*
X205865000Y-21988750D01*
G75*
G02*
X206065000Y-21788750I200000J0D01*
G01*
X208615000Y-21788750D01*
G75*
G02*
X208815000Y-21988750I0J-200000D01*
G01*
X208815000Y-24488750D01*
G75*
G02*
X208615000Y-24688750I-200000J0D01*
G01*
X206065000Y-24688750D01*
G75*
G02*
X205865000Y-24488750I0J200000D01*
G01*
G37*
%TD*%
%TO.C,SW22*%
G36*
G01*
X115815000Y-84178750D02*
X115815000Y-81678750D01*
G75*
G02*
X116015000Y-81478750I200000J0D01*
G01*
X118565000Y-81478750D01*
G75*
G02*
X118765000Y-81678750I0J-200000D01*
G01*
X118765000Y-84178750D01*
G75*
G02*
X118565000Y-84378750I-200000J0D01*
G01*
X116015000Y-84378750D01*
G75*
G02*
X115815000Y-84178750I0J200000D01*
G01*
G37*
D15*
X119770000Y-85468750D03*
X129930000Y-85468750D03*
D16*
X124850000Y-85468750D03*
D17*
X121040000Y-82928750D03*
X127390000Y-80388750D03*
G36*
G01*
X129665000Y-81638750D02*
X129665000Y-79138750D01*
G75*
G02*
X129865000Y-78938750I200000J0D01*
G01*
X132415000Y-78938750D01*
G75*
G02*
X132615000Y-79138750I0J-200000D01*
G01*
X132615000Y-81638750D01*
G75*
G02*
X132415000Y-81838750I-200000J0D01*
G01*
X129865000Y-81838750D01*
G75*
G02*
X129665000Y-81638750I0J200000D01*
G01*
G37*
%TD*%
%TO.C,SW18*%
G36*
G01*
X96765000Y-84178750D02*
X96765000Y-81678750D01*
G75*
G02*
X96965000Y-81478750I200000J0D01*
G01*
X99515000Y-81478750D01*
G75*
G02*
X99715000Y-81678750I0J-200000D01*
G01*
X99715000Y-84178750D01*
G75*
G02*
X99515000Y-84378750I-200000J0D01*
G01*
X96965000Y-84378750D01*
G75*
G02*
X96765000Y-84178750I0J200000D01*
G01*
G37*
D15*
X100720000Y-85468750D03*
X110880000Y-85468750D03*
D16*
X105800000Y-85468750D03*
D17*
X101990000Y-82928750D03*
X108340000Y-80388750D03*
G36*
G01*
X110615000Y-81638750D02*
X110615000Y-79138750D01*
G75*
G02*
X110815000Y-78938750I200000J0D01*
G01*
X113365000Y-78938750D01*
G75*
G02*
X113565000Y-79138750I0J-200000D01*
G01*
X113565000Y-81638750D01*
G75*
G02*
X113365000Y-81838750I-200000J0D01*
G01*
X110815000Y-81838750D01*
G75*
G02*
X110615000Y-81638750I0J200000D01*
G01*
G37*
%TD*%
%TO.C,SW15*%
G36*
G01*
X96765000Y-27028750D02*
X96765000Y-24528750D01*
G75*
G02*
X96965000Y-24328750I200000J0D01*
G01*
X99515000Y-24328750D01*
G75*
G02*
X99715000Y-24528750I0J-200000D01*
G01*
X99715000Y-27028750D01*
G75*
G02*
X99515000Y-27228750I-200000J0D01*
G01*
X96965000Y-27228750D01*
G75*
G02*
X96765000Y-27028750I0J200000D01*
G01*
G37*
D15*
X100720000Y-28318750D03*
X110880000Y-28318750D03*
D16*
X105800000Y-28318750D03*
D17*
X101990000Y-25778750D03*
X108340000Y-23238750D03*
G36*
G01*
X110615000Y-24488750D02*
X110615000Y-21988750D01*
G75*
G02*
X110815000Y-21788750I200000J0D01*
G01*
X113365000Y-21788750D01*
G75*
G02*
X113565000Y-21988750I0J-200000D01*
G01*
X113565000Y-24488750D01*
G75*
G02*
X113365000Y-24688750I-200000J0D01*
G01*
X110815000Y-24688750D01*
G75*
G02*
X110615000Y-24488750I0J200000D01*
G01*
G37*
%TD*%
%TO.C,SW13*%
G36*
G01*
X77715000Y-65128750D02*
X77715000Y-62628750D01*
G75*
G02*
X77915000Y-62428750I200000J0D01*
G01*
X80465000Y-62428750D01*
G75*
G02*
X80665000Y-62628750I0J-200000D01*
G01*
X80665000Y-65128750D01*
G75*
G02*
X80465000Y-65328750I-200000J0D01*
G01*
X77915000Y-65328750D01*
G75*
G02*
X77715000Y-65128750I0J200000D01*
G01*
G37*
D15*
X81670000Y-66418750D03*
X91830000Y-66418750D03*
D16*
X86750000Y-66418750D03*
D17*
X82940000Y-63878750D03*
X89290000Y-61338750D03*
G36*
G01*
X91565000Y-62588750D02*
X91565000Y-60088750D01*
G75*
G02*
X91765000Y-59888750I200000J0D01*
G01*
X94315000Y-59888750D01*
G75*
G02*
X94515000Y-60088750I0J-200000D01*
G01*
X94515000Y-62588750D01*
G75*
G02*
X94315000Y-62788750I-200000J0D01*
G01*
X91765000Y-62788750D01*
G75*
G02*
X91565000Y-62588750I0J200000D01*
G01*
G37*
%TD*%
%TO.C,SW11*%
G36*
G01*
X77715000Y-27028750D02*
X77715000Y-24528750D01*
G75*
G02*
X77915000Y-24328750I200000J0D01*
G01*
X80465000Y-24328750D01*
G75*
G02*
X80665000Y-24528750I0J-200000D01*
G01*
X80665000Y-27028750D01*
G75*
G02*
X80465000Y-27228750I-200000J0D01*
G01*
X77915000Y-27228750D01*
G75*
G02*
X77715000Y-27028750I0J200000D01*
G01*
G37*
D15*
X81670000Y-28318750D03*
X91830000Y-28318750D03*
D16*
X86750000Y-28318750D03*
D17*
X82940000Y-25778750D03*
X89290000Y-23238750D03*
G36*
G01*
X91565000Y-24488750D02*
X91565000Y-21988750D01*
G75*
G02*
X91765000Y-21788750I200000J0D01*
G01*
X94315000Y-21788750D01*
G75*
G02*
X94515000Y-21988750I0J-200000D01*
G01*
X94515000Y-24488750D01*
G75*
G02*
X94315000Y-24688750I-200000J0D01*
G01*
X91765000Y-24688750D01*
G75*
G02*
X91565000Y-24488750I0J200000D01*
G01*
G37*
%TD*%
%TO.C,SW14*%
G36*
G01*
X77715000Y-84178750D02*
X77715000Y-81678750D01*
G75*
G02*
X77915000Y-81478750I200000J0D01*
G01*
X80465000Y-81478750D01*
G75*
G02*
X80665000Y-81678750I0J-200000D01*
G01*
X80665000Y-84178750D01*
G75*
G02*
X80465000Y-84378750I-200000J0D01*
G01*
X77915000Y-84378750D01*
G75*
G02*
X77715000Y-84178750I0J200000D01*
G01*
G37*
D15*
X81670000Y-85468750D03*
X91830000Y-85468750D03*
D16*
X86750000Y-85468750D03*
D17*
X82940000Y-82928750D03*
X89290000Y-80388750D03*
G36*
G01*
X91565000Y-81638750D02*
X91565000Y-79138750D01*
G75*
G02*
X91765000Y-78938750I200000J0D01*
G01*
X94315000Y-78938750D01*
G75*
G02*
X94515000Y-79138750I0J-200000D01*
G01*
X94515000Y-81638750D01*
G75*
G02*
X94315000Y-81838750I-200000J0D01*
G01*
X91765000Y-81838750D01*
G75*
G02*
X91565000Y-81638750I0J200000D01*
G01*
G37*
%TD*%
%TO.C,SW17*%
G36*
G01*
X96765000Y-65128750D02*
X96765000Y-62628750D01*
G75*
G02*
X96965000Y-62428750I200000J0D01*
G01*
X99515000Y-62428750D01*
G75*
G02*
X99715000Y-62628750I0J-200000D01*
G01*
X99715000Y-65128750D01*
G75*
G02*
X99515000Y-65328750I-200000J0D01*
G01*
X96965000Y-65328750D01*
G75*
G02*
X96765000Y-65128750I0J200000D01*
G01*
G37*
D15*
X100720000Y-66418750D03*
X110880000Y-66418750D03*
D16*
X105800000Y-66418750D03*
D17*
X101990000Y-63878750D03*
X108340000Y-61338750D03*
G36*
G01*
X110615000Y-62588750D02*
X110615000Y-60088750D01*
G75*
G02*
X110815000Y-59888750I200000J0D01*
G01*
X113365000Y-59888750D01*
G75*
G02*
X113565000Y-60088750I0J-200000D01*
G01*
X113565000Y-62588750D01*
G75*
G02*
X113365000Y-62788750I-200000J0D01*
G01*
X110815000Y-62788750D01*
G75*
G02*
X110615000Y-62588750I0J200000D01*
G01*
G37*
%TD*%
%TO.C,SW12*%
G36*
G01*
X77715000Y-46078750D02*
X77715000Y-43578750D01*
G75*
G02*
X77915000Y-43378750I200000J0D01*
G01*
X80465000Y-43378750D01*
G75*
G02*
X80665000Y-43578750I0J-200000D01*
G01*
X80665000Y-46078750D01*
G75*
G02*
X80465000Y-46278750I-200000J0D01*
G01*
X77915000Y-46278750D01*
G75*
G02*
X77715000Y-46078750I0J200000D01*
G01*
G37*
D15*
X81670000Y-47368750D03*
X91830000Y-47368750D03*
D16*
X86750000Y-47368750D03*
D17*
X82940000Y-44828750D03*
X89290000Y-42288750D03*
G36*
G01*
X91565000Y-43538750D02*
X91565000Y-41038750D01*
G75*
G02*
X91765000Y-40838750I200000J0D01*
G01*
X94315000Y-40838750D01*
G75*
G02*
X94515000Y-41038750I0J-200000D01*
G01*
X94515000Y-43538750D01*
G75*
G02*
X94315000Y-43738750I-200000J0D01*
G01*
X91765000Y-43738750D01*
G75*
G02*
X91565000Y-43538750I0J200000D01*
G01*
G37*
%TD*%
%TO.C,SW16*%
G36*
G01*
X96765000Y-46078750D02*
X96765000Y-43578750D01*
G75*
G02*
X96965000Y-43378750I200000J0D01*
G01*
X99515000Y-43378750D01*
G75*
G02*
X99715000Y-43578750I0J-200000D01*
G01*
X99715000Y-46078750D01*
G75*
G02*
X99515000Y-46278750I-200000J0D01*
G01*
X96965000Y-46278750D01*
G75*
G02*
X96765000Y-46078750I0J200000D01*
G01*
G37*
D15*
X100720000Y-47368750D03*
X110880000Y-47368750D03*
D16*
X105800000Y-47368750D03*
D17*
X101990000Y-44828750D03*
X108340000Y-42288750D03*
G36*
G01*
X110615000Y-43538750D02*
X110615000Y-41038750D01*
G75*
G02*
X110815000Y-40838750I200000J0D01*
G01*
X113365000Y-40838750D01*
G75*
G02*
X113565000Y-41038750I0J-200000D01*
G01*
X113565000Y-43538750D01*
G75*
G02*
X113365000Y-43738750I-200000J0D01*
G01*
X110815000Y-43738750D01*
G75*
G02*
X110615000Y-43538750I0J200000D01*
G01*
G37*
%TD*%
%TO.C,SW19*%
G36*
G01*
X115815000Y-27028750D02*
X115815000Y-24528750D01*
G75*
G02*
X116015000Y-24328750I200000J0D01*
G01*
X118565000Y-24328750D01*
G75*
G02*
X118765000Y-24528750I0J-200000D01*
G01*
X118765000Y-27028750D01*
G75*
G02*
X118565000Y-27228750I-200000J0D01*
G01*
X116015000Y-27228750D01*
G75*
G02*
X115815000Y-27028750I0J200000D01*
G01*
G37*
D15*
X119770000Y-28318750D03*
X129930000Y-28318750D03*
D16*
X124850000Y-28318750D03*
D17*
X121040000Y-25778750D03*
X127390000Y-23238750D03*
G36*
G01*
X129665000Y-24488750D02*
X129665000Y-21988750D01*
G75*
G02*
X129865000Y-21788750I200000J0D01*
G01*
X132415000Y-21788750D01*
G75*
G02*
X132615000Y-21988750I0J-200000D01*
G01*
X132615000Y-24488750D01*
G75*
G02*
X132415000Y-24688750I-200000J0D01*
G01*
X129865000Y-24688750D01*
G75*
G02*
X129665000Y-24488750I0J200000D01*
G01*
G37*
%TD*%
%TO.C,SW20*%
G36*
G01*
X115815000Y-46078750D02*
X115815000Y-43578750D01*
G75*
G02*
X116015000Y-43378750I200000J0D01*
G01*
X118565000Y-43378750D01*
G75*
G02*
X118765000Y-43578750I0J-200000D01*
G01*
X118765000Y-46078750D01*
G75*
G02*
X118565000Y-46278750I-200000J0D01*
G01*
X116015000Y-46278750D01*
G75*
G02*
X115815000Y-46078750I0J200000D01*
G01*
G37*
D15*
X119770000Y-47368750D03*
X129930000Y-47368750D03*
D16*
X124850000Y-47368750D03*
D17*
X121040000Y-44828750D03*
X127390000Y-42288750D03*
G36*
G01*
X129665000Y-43538750D02*
X129665000Y-41038750D01*
G75*
G02*
X129865000Y-40838750I200000J0D01*
G01*
X132415000Y-40838750D01*
G75*
G02*
X132615000Y-41038750I0J-200000D01*
G01*
X132615000Y-43538750D01*
G75*
G02*
X132415000Y-43738750I-200000J0D01*
G01*
X129865000Y-43738750D01*
G75*
G02*
X129665000Y-43538750I0J200000D01*
G01*
G37*
%TD*%
%TO.C,SW21*%
G36*
G01*
X115815000Y-65128750D02*
X115815000Y-62628750D01*
G75*
G02*
X116015000Y-62428750I200000J0D01*
G01*
X118565000Y-62428750D01*
G75*
G02*
X118765000Y-62628750I0J-200000D01*
G01*
X118765000Y-65128750D01*
G75*
G02*
X118565000Y-65328750I-200000J0D01*
G01*
X116015000Y-65328750D01*
G75*
G02*
X115815000Y-65128750I0J200000D01*
G01*
G37*
D15*
X119770000Y-66418750D03*
X129930000Y-66418750D03*
D16*
X124850000Y-66418750D03*
D17*
X121040000Y-63878750D03*
X127390000Y-61338750D03*
G36*
G01*
X129665000Y-62588750D02*
X129665000Y-60088750D01*
G75*
G02*
X129865000Y-59888750I200000J0D01*
G01*
X132415000Y-59888750D01*
G75*
G02*
X132615000Y-60088750I0J-200000D01*
G01*
X132615000Y-62588750D01*
G75*
G02*
X132415000Y-62788750I-200000J0D01*
G01*
X129865000Y-62788750D01*
G75*
G02*
X129665000Y-62588750I0J200000D01*
G01*
G37*
%TD*%
D14*
%TO.C,REF\u002A\u002A*%
X39125000Y-56893750D03*
%TD*%
%TO.C,REF\u002A\u002A*%
X58175000Y-37843750D03*
%TD*%
%TO.C,REF\u002A\u002A*%
X58175000Y-75943750D03*
%TD*%
%TO.C,SW37*%
G36*
G01*
X22525000Y-57693750D02*
X22525000Y-56093750D01*
G75*
G02*
X22725000Y-55893750I200000J0D01*
G01*
X24725000Y-55893750D01*
G75*
G02*
X24925000Y-56093750I0J-200000D01*
G01*
X24925000Y-57693750D01*
G75*
G02*
X24725000Y-57893750I-200000J0D01*
G01*
X22725000Y-57893750D01*
G75*
G02*
X22525000Y-57693750I0J200000D01*
G01*
G37*
G36*
G01*
X27925000Y-57693750D02*
X27925000Y-56093750D01*
G75*
G02*
X28125000Y-55893750I200000J0D01*
G01*
X30125000Y-55893750D01*
G75*
G02*
X30325000Y-56093750I0J-200000D01*
G01*
X30325000Y-57693750D01*
G75*
G02*
X30125000Y-57893750I-200000J0D01*
G01*
X28125000Y-57893750D01*
G75*
G02*
X27925000Y-57693750I0J200000D01*
G01*
G37*
%TD*%
%TO.C,D36*%
G36*
G01*
X209587500Y-69387500D02*
X208387500Y-69387500D01*
G75*
G02*
X208187500Y-69187500I0J200000D01*
G01*
X208187500Y-68287500D01*
G75*
G02*
X208387500Y-68087500I200000J0D01*
G01*
X209587500Y-68087500D01*
G75*
G02*
X209787500Y-68287500I0J-200000D01*
G01*
X209787500Y-69187500D01*
G75*
G02*
X209587500Y-69387500I-200000J0D01*
G01*
G37*
G36*
G01*
X209587500Y-72687500D02*
X208387500Y-72687500D01*
G75*
G02*
X208187500Y-72487500I0J200000D01*
G01*
X208187500Y-71587500D01*
G75*
G02*
X208387500Y-71387500I200000J0D01*
G01*
X209587500Y-71387500D01*
G75*
G02*
X209787500Y-71587500I0J-200000D01*
G01*
X209787500Y-72487500D01*
G75*
G02*
X209587500Y-72687500I-200000J0D01*
G01*
G37*
%TD*%
%TO.C,D35*%
G36*
G01*
X209587500Y-50337500D02*
X208387500Y-50337500D01*
G75*
G02*
X208187500Y-50137500I0J200000D01*
G01*
X208187500Y-49237500D01*
G75*
G02*
X208387500Y-49037500I200000J0D01*
G01*
X209587500Y-49037500D01*
G75*
G02*
X209787500Y-49237500I0J-200000D01*
G01*
X209787500Y-50137500D01*
G75*
G02*
X209587500Y-50337500I-200000J0D01*
G01*
G37*
G36*
G01*
X209587500Y-53637500D02*
X208387500Y-53637500D01*
G75*
G02*
X208187500Y-53437500I0J200000D01*
G01*
X208187500Y-52537500D01*
G75*
G02*
X208387500Y-52337500I200000J0D01*
G01*
X209587500Y-52337500D01*
G75*
G02*
X209787500Y-52537500I0J-200000D01*
G01*
X209787500Y-53437500D01*
G75*
G02*
X209587500Y-53637500I-200000J0D01*
G01*
G37*
%TD*%
%TO.C,D34*%
G36*
G01*
X209587500Y-31287500D02*
X208387500Y-31287500D01*
G75*
G02*
X208187500Y-31087500I0J200000D01*
G01*
X208187500Y-30187500D01*
G75*
G02*
X208387500Y-29987500I200000J0D01*
G01*
X209587500Y-29987500D01*
G75*
G02*
X209787500Y-30187500I0J-200000D01*
G01*
X209787500Y-31087500D01*
G75*
G02*
X209587500Y-31287500I-200000J0D01*
G01*
G37*
G36*
G01*
X209587500Y-34587500D02*
X208387500Y-34587500D01*
G75*
G02*
X208187500Y-34387500I0J200000D01*
G01*
X208187500Y-33487500D01*
G75*
G02*
X208387500Y-33287500I200000J0D01*
G01*
X209587500Y-33287500D01*
G75*
G02*
X209787500Y-33487500I0J-200000D01*
G01*
X209787500Y-34387500D01*
G75*
G02*
X209587500Y-34587500I-200000J0D01*
G01*
G37*
%TD*%
%TO.C,D33*%
G36*
G01*
X191331250Y-69387500D02*
X190131250Y-69387500D01*
G75*
G02*
X189931250Y-69187500I0J200000D01*
G01*
X189931250Y-68287500D01*
G75*
G02*
X190131250Y-68087500I200000J0D01*
G01*
X191331250Y-68087500D01*
G75*
G02*
X191531250Y-68287500I0J-200000D01*
G01*
X191531250Y-69187500D01*
G75*
G02*
X191331250Y-69387500I-200000J0D01*
G01*
G37*
G36*
G01*
X191331250Y-72687500D02*
X190131250Y-72687500D01*
G75*
G02*
X189931250Y-72487500I0J200000D01*
G01*
X189931250Y-71587500D01*
G75*
G02*
X190131250Y-71387500I200000J0D01*
G01*
X191331250Y-71387500D01*
G75*
G02*
X191531250Y-71587500I0J-200000D01*
G01*
X191531250Y-72487500D01*
G75*
G02*
X191331250Y-72687500I-200000J0D01*
G01*
G37*
%TD*%
%TO.C,D32*%
G36*
G01*
X191331250Y-50337500D02*
X190131250Y-50337500D01*
G75*
G02*
X189931250Y-50137500I0J200000D01*
G01*
X189931250Y-49237500D01*
G75*
G02*
X190131250Y-49037500I200000J0D01*
G01*
X191331250Y-49037500D01*
G75*
G02*
X191531250Y-49237500I0J-200000D01*
G01*
X191531250Y-50137500D01*
G75*
G02*
X191331250Y-50337500I-200000J0D01*
G01*
G37*
G36*
G01*
X191331250Y-53637500D02*
X190131250Y-53637500D01*
G75*
G02*
X189931250Y-53437500I0J200000D01*
G01*
X189931250Y-52537500D01*
G75*
G02*
X190131250Y-52337500I200000J0D01*
G01*
X191331250Y-52337500D01*
G75*
G02*
X191531250Y-52537500I0J-200000D01*
G01*
X191531250Y-53437500D01*
G75*
G02*
X191331250Y-53637500I-200000J0D01*
G01*
G37*
%TD*%
%TO.C,D31*%
G36*
G01*
X191331250Y-31287500D02*
X190131250Y-31287500D01*
G75*
G02*
X189931250Y-31087500I0J200000D01*
G01*
X189931250Y-30187500D01*
G75*
G02*
X190131250Y-29987500I200000J0D01*
G01*
X191331250Y-29987500D01*
G75*
G02*
X191531250Y-30187500I0J-200000D01*
G01*
X191531250Y-31087500D01*
G75*
G02*
X191331250Y-31287500I-200000J0D01*
G01*
G37*
G36*
G01*
X191331250Y-34587500D02*
X190131250Y-34587500D01*
G75*
G02*
X189931250Y-34387500I0J200000D01*
G01*
X189931250Y-33487500D01*
G75*
G02*
X190131250Y-33287500I200000J0D01*
G01*
X191331250Y-33287500D01*
G75*
G02*
X191531250Y-33487500I0J-200000D01*
G01*
X191531250Y-34387500D01*
G75*
G02*
X191331250Y-34587500I-200000J0D01*
G01*
G37*
%TD*%
%TO.C,D30*%
G36*
G01*
X172281250Y-88437500D02*
X171081250Y-88437500D01*
G75*
G02*
X170881250Y-88237500I0J200000D01*
G01*
X170881250Y-87337500D01*
G75*
G02*
X171081250Y-87137500I200000J0D01*
G01*
X172281250Y-87137500D01*
G75*
G02*
X172481250Y-87337500I0J-200000D01*
G01*
X172481250Y-88237500D01*
G75*
G02*
X172281250Y-88437500I-200000J0D01*
G01*
G37*
G36*
G01*
X172281250Y-91737500D02*
X171081250Y-91737500D01*
G75*
G02*
X170881250Y-91537500I0J200000D01*
G01*
X170881250Y-90637500D01*
G75*
G02*
X171081250Y-90437500I200000J0D01*
G01*
X172281250Y-90437500D01*
G75*
G02*
X172481250Y-90637500I0J-200000D01*
G01*
X172481250Y-91537500D01*
G75*
G02*
X172281250Y-91737500I-200000J0D01*
G01*
G37*
%TD*%
%TO.C,D29*%
G36*
G01*
X172281250Y-69387500D02*
X171081250Y-69387500D01*
G75*
G02*
X170881250Y-69187500I0J200000D01*
G01*
X170881250Y-68287500D01*
G75*
G02*
X171081250Y-68087500I200000J0D01*
G01*
X172281250Y-68087500D01*
G75*
G02*
X172481250Y-68287500I0J-200000D01*
G01*
X172481250Y-69187500D01*
G75*
G02*
X172281250Y-69387500I-200000J0D01*
G01*
G37*
G36*
G01*
X172281250Y-72687500D02*
X171081250Y-72687500D01*
G75*
G02*
X170881250Y-72487500I0J200000D01*
G01*
X170881250Y-71587500D01*
G75*
G02*
X171081250Y-71387500I200000J0D01*
G01*
X172281250Y-71387500D01*
G75*
G02*
X172481250Y-71587500I0J-200000D01*
G01*
X172481250Y-72487500D01*
G75*
G02*
X172281250Y-72687500I-200000J0D01*
G01*
G37*
%TD*%
%TO.C,D28*%
G36*
G01*
X172281250Y-50337500D02*
X171081250Y-50337500D01*
G75*
G02*
X170881250Y-50137500I0J200000D01*
G01*
X170881250Y-49237500D01*
G75*
G02*
X171081250Y-49037500I200000J0D01*
G01*
X172281250Y-49037500D01*
G75*
G02*
X172481250Y-49237500I0J-200000D01*
G01*
X172481250Y-50137500D01*
G75*
G02*
X172281250Y-50337500I-200000J0D01*
G01*
G37*
G36*
G01*
X172281250Y-53637500D02*
X171081250Y-53637500D01*
G75*
G02*
X170881250Y-53437500I0J200000D01*
G01*
X170881250Y-52537500D01*
G75*
G02*
X171081250Y-52337500I200000J0D01*
G01*
X172281250Y-52337500D01*
G75*
G02*
X172481250Y-52537500I0J-200000D01*
G01*
X172481250Y-53437500D01*
G75*
G02*
X172281250Y-53637500I-200000J0D01*
G01*
G37*
%TD*%
%TO.C,D27*%
G36*
G01*
X172281250Y-31287500D02*
X171081250Y-31287500D01*
G75*
G02*
X170881250Y-31087500I0J200000D01*
G01*
X170881250Y-30187500D01*
G75*
G02*
X171081250Y-29987500I200000J0D01*
G01*
X172281250Y-29987500D01*
G75*
G02*
X172481250Y-30187500I0J-200000D01*
G01*
X172481250Y-31087500D01*
G75*
G02*
X172281250Y-31287500I-200000J0D01*
G01*
G37*
G36*
G01*
X172281250Y-34587500D02*
X171081250Y-34587500D01*
G75*
G02*
X170881250Y-34387500I0J200000D01*
G01*
X170881250Y-33487500D01*
G75*
G02*
X171081250Y-33287500I200000J0D01*
G01*
X172281250Y-33287500D01*
G75*
G02*
X172481250Y-33487500I0J-200000D01*
G01*
X172481250Y-34387500D01*
G75*
G02*
X172281250Y-34587500I-200000J0D01*
G01*
G37*
%TD*%
%TO.C,D26*%
G36*
G01*
X153231250Y-88437500D02*
X152031250Y-88437500D01*
G75*
G02*
X151831250Y-88237500I0J200000D01*
G01*
X151831250Y-87337500D01*
G75*
G02*
X152031250Y-87137500I200000J0D01*
G01*
X153231250Y-87137500D01*
G75*
G02*
X153431250Y-87337500I0J-200000D01*
G01*
X153431250Y-88237500D01*
G75*
G02*
X153231250Y-88437500I-200000J0D01*
G01*
G37*
G36*
G01*
X153231250Y-91737500D02*
X152031250Y-91737500D01*
G75*
G02*
X151831250Y-91537500I0J200000D01*
G01*
X151831250Y-90637500D01*
G75*
G02*
X152031250Y-90437500I200000J0D01*
G01*
X153231250Y-90437500D01*
G75*
G02*
X153431250Y-90637500I0J-200000D01*
G01*
X153431250Y-91537500D01*
G75*
G02*
X153231250Y-91737500I-200000J0D01*
G01*
G37*
%TD*%
%TO.C,D25*%
G36*
G01*
X153231250Y-69387500D02*
X152031250Y-69387500D01*
G75*
G02*
X151831250Y-69187500I0J200000D01*
G01*
X151831250Y-68287500D01*
G75*
G02*
X152031250Y-68087500I200000J0D01*
G01*
X153231250Y-68087500D01*
G75*
G02*
X153431250Y-68287500I0J-200000D01*
G01*
X153431250Y-69187500D01*
G75*
G02*
X153231250Y-69387500I-200000J0D01*
G01*
G37*
G36*
G01*
X153231250Y-72687500D02*
X152031250Y-72687500D01*
G75*
G02*
X151831250Y-72487500I0J200000D01*
G01*
X151831250Y-71587500D01*
G75*
G02*
X152031250Y-71387500I200000J0D01*
G01*
X153231250Y-71387500D01*
G75*
G02*
X153431250Y-71587500I0J-200000D01*
G01*
X153431250Y-72487500D01*
G75*
G02*
X153231250Y-72687500I-200000J0D01*
G01*
G37*
%TD*%
%TO.C,D24*%
G36*
G01*
X153231250Y-50337500D02*
X152031250Y-50337500D01*
G75*
G02*
X151831250Y-50137500I0J200000D01*
G01*
X151831250Y-49237500D01*
G75*
G02*
X152031250Y-49037500I200000J0D01*
G01*
X153231250Y-49037500D01*
G75*
G02*
X153431250Y-49237500I0J-200000D01*
G01*
X153431250Y-50137500D01*
G75*
G02*
X153231250Y-50337500I-200000J0D01*
G01*
G37*
G36*
G01*
X153231250Y-53637500D02*
X152031250Y-53637500D01*
G75*
G02*
X151831250Y-53437500I0J200000D01*
G01*
X151831250Y-52537500D01*
G75*
G02*
X152031250Y-52337500I200000J0D01*
G01*
X153231250Y-52337500D01*
G75*
G02*
X153431250Y-52537500I0J-200000D01*
G01*
X153431250Y-53437500D01*
G75*
G02*
X153231250Y-53637500I-200000J0D01*
G01*
G37*
%TD*%
%TO.C,D23*%
G36*
G01*
X153231250Y-31287500D02*
X152031250Y-31287500D01*
G75*
G02*
X151831250Y-31087500I0J200000D01*
G01*
X151831250Y-30187500D01*
G75*
G02*
X152031250Y-29987500I200000J0D01*
G01*
X153231250Y-29987500D01*
G75*
G02*
X153431250Y-30187500I0J-200000D01*
G01*
X153431250Y-31087500D01*
G75*
G02*
X153231250Y-31287500I-200000J0D01*
G01*
G37*
G36*
G01*
X153231250Y-34587500D02*
X152031250Y-34587500D01*
G75*
G02*
X151831250Y-34387500I0J200000D01*
G01*
X151831250Y-33487500D01*
G75*
G02*
X152031250Y-33287500I200000J0D01*
G01*
X153231250Y-33287500D01*
G75*
G02*
X153431250Y-33487500I0J-200000D01*
G01*
X153431250Y-34387500D01*
G75*
G02*
X153231250Y-34587500I-200000J0D01*
G01*
G37*
%TD*%
%TO.C,D22*%
G36*
G01*
X134181250Y-88437500D02*
X132981250Y-88437500D01*
G75*
G02*
X132781250Y-88237500I0J200000D01*
G01*
X132781250Y-87337500D01*
G75*
G02*
X132981250Y-87137500I200000J0D01*
G01*
X134181250Y-87137500D01*
G75*
G02*
X134381250Y-87337500I0J-200000D01*
G01*
X134381250Y-88237500D01*
G75*
G02*
X134181250Y-88437500I-200000J0D01*
G01*
G37*
G36*
G01*
X134181250Y-91737500D02*
X132981250Y-91737500D01*
G75*
G02*
X132781250Y-91537500I0J200000D01*
G01*
X132781250Y-90637500D01*
G75*
G02*
X132981250Y-90437500I200000J0D01*
G01*
X134181250Y-90437500D01*
G75*
G02*
X134381250Y-90637500I0J-200000D01*
G01*
X134381250Y-91537500D01*
G75*
G02*
X134181250Y-91737500I-200000J0D01*
G01*
G37*
%TD*%
%TO.C,D21*%
G36*
G01*
X134181250Y-69387500D02*
X132981250Y-69387500D01*
G75*
G02*
X132781250Y-69187500I0J200000D01*
G01*
X132781250Y-68287500D01*
G75*
G02*
X132981250Y-68087500I200000J0D01*
G01*
X134181250Y-68087500D01*
G75*
G02*
X134381250Y-68287500I0J-200000D01*
G01*
X134381250Y-69187500D01*
G75*
G02*
X134181250Y-69387500I-200000J0D01*
G01*
G37*
G36*
G01*
X134181250Y-72687500D02*
X132981250Y-72687500D01*
G75*
G02*
X132781250Y-72487500I0J200000D01*
G01*
X132781250Y-71587500D01*
G75*
G02*
X132981250Y-71387500I200000J0D01*
G01*
X134181250Y-71387500D01*
G75*
G02*
X134381250Y-71587500I0J-200000D01*
G01*
X134381250Y-72487500D01*
G75*
G02*
X134181250Y-72687500I-200000J0D01*
G01*
G37*
%TD*%
%TO.C,D20*%
G36*
G01*
X134181250Y-50337500D02*
X132981250Y-50337500D01*
G75*
G02*
X132781250Y-50137500I0J200000D01*
G01*
X132781250Y-49237500D01*
G75*
G02*
X132981250Y-49037500I200000J0D01*
G01*
X134181250Y-49037500D01*
G75*
G02*
X134381250Y-49237500I0J-200000D01*
G01*
X134381250Y-50137500D01*
G75*
G02*
X134181250Y-50337500I-200000J0D01*
G01*
G37*
G36*
G01*
X134181250Y-53637500D02*
X132981250Y-53637500D01*
G75*
G02*
X132781250Y-53437500I0J200000D01*
G01*
X132781250Y-52537500D01*
G75*
G02*
X132981250Y-52337500I200000J0D01*
G01*
X134181250Y-52337500D01*
G75*
G02*
X134381250Y-52537500I0J-200000D01*
G01*
X134381250Y-53437500D01*
G75*
G02*
X134181250Y-53637500I-200000J0D01*
G01*
G37*
%TD*%
%TO.C,D19*%
G36*
G01*
X134181250Y-31287500D02*
X132981250Y-31287500D01*
G75*
G02*
X132781250Y-31087500I0J200000D01*
G01*
X132781250Y-30187500D01*
G75*
G02*
X132981250Y-29987500I200000J0D01*
G01*
X134181250Y-29987500D01*
G75*
G02*
X134381250Y-30187500I0J-200000D01*
G01*
X134381250Y-31087500D01*
G75*
G02*
X134181250Y-31287500I-200000J0D01*
G01*
G37*
G36*
G01*
X134181250Y-34587500D02*
X132981250Y-34587500D01*
G75*
G02*
X132781250Y-34387500I0J200000D01*
G01*
X132781250Y-33487500D01*
G75*
G02*
X132981250Y-33287500I200000J0D01*
G01*
X134181250Y-33287500D01*
G75*
G02*
X134381250Y-33487500I0J-200000D01*
G01*
X134381250Y-34387500D01*
G75*
G02*
X134181250Y-34587500I-200000J0D01*
G01*
G37*
%TD*%
%TO.C,D18*%
G36*
G01*
X115131250Y-88437500D02*
X113931250Y-88437500D01*
G75*
G02*
X113731250Y-88237500I0J200000D01*
G01*
X113731250Y-87337500D01*
G75*
G02*
X113931250Y-87137500I200000J0D01*
G01*
X115131250Y-87137500D01*
G75*
G02*
X115331250Y-87337500I0J-200000D01*
G01*
X115331250Y-88237500D01*
G75*
G02*
X115131250Y-88437500I-200000J0D01*
G01*
G37*
G36*
G01*
X115131250Y-91737500D02*
X113931250Y-91737500D01*
G75*
G02*
X113731250Y-91537500I0J200000D01*
G01*
X113731250Y-90637500D01*
G75*
G02*
X113931250Y-90437500I200000J0D01*
G01*
X115131250Y-90437500D01*
G75*
G02*
X115331250Y-90637500I0J-200000D01*
G01*
X115331250Y-91537500D01*
G75*
G02*
X115131250Y-91737500I-200000J0D01*
G01*
G37*
%TD*%
%TO.C,D17*%
G36*
G01*
X115131250Y-69387500D02*
X113931250Y-69387500D01*
G75*
G02*
X113731250Y-69187500I0J200000D01*
G01*
X113731250Y-68287500D01*
G75*
G02*
X113931250Y-68087500I200000J0D01*
G01*
X115131250Y-68087500D01*
G75*
G02*
X115331250Y-68287500I0J-200000D01*
G01*
X115331250Y-69187500D01*
G75*
G02*
X115131250Y-69387500I-200000J0D01*
G01*
G37*
G36*
G01*
X115131250Y-72687500D02*
X113931250Y-72687500D01*
G75*
G02*
X113731250Y-72487500I0J200000D01*
G01*
X113731250Y-71587500D01*
G75*
G02*
X113931250Y-71387500I200000J0D01*
G01*
X115131250Y-71387500D01*
G75*
G02*
X115331250Y-71587500I0J-200000D01*
G01*
X115331250Y-72487500D01*
G75*
G02*
X115131250Y-72687500I-200000J0D01*
G01*
G37*
%TD*%
%TO.C,D16*%
G36*
G01*
X115131250Y-50337500D02*
X113931250Y-50337500D01*
G75*
G02*
X113731250Y-50137500I0J200000D01*
G01*
X113731250Y-49237500D01*
G75*
G02*
X113931250Y-49037500I200000J0D01*
G01*
X115131250Y-49037500D01*
G75*
G02*
X115331250Y-49237500I0J-200000D01*
G01*
X115331250Y-50137500D01*
G75*
G02*
X115131250Y-50337500I-200000J0D01*
G01*
G37*
G36*
G01*
X115131250Y-53637500D02*
X113931250Y-53637500D01*
G75*
G02*
X113731250Y-53437500I0J200000D01*
G01*
X113731250Y-52537500D01*
G75*
G02*
X113931250Y-52337500I200000J0D01*
G01*
X115131250Y-52337500D01*
G75*
G02*
X115331250Y-52537500I0J-200000D01*
G01*
X115331250Y-53437500D01*
G75*
G02*
X115131250Y-53637500I-200000J0D01*
G01*
G37*
%TD*%
%TO.C,D15*%
G36*
G01*
X114337500Y-31287500D02*
X113137500Y-31287500D01*
G75*
G02*
X112937500Y-31087500I0J200000D01*
G01*
X112937500Y-30187500D01*
G75*
G02*
X113137500Y-29987500I200000J0D01*
G01*
X114337500Y-29987500D01*
G75*
G02*
X114537500Y-30187500I0J-200000D01*
G01*
X114537500Y-31087500D01*
G75*
G02*
X114337500Y-31287500I-200000J0D01*
G01*
G37*
G36*
G01*
X114337500Y-34587500D02*
X113137500Y-34587500D01*
G75*
G02*
X112937500Y-34387500I0J200000D01*
G01*
X112937500Y-33487500D01*
G75*
G02*
X113137500Y-33287500I200000J0D01*
G01*
X114337500Y-33287500D01*
G75*
G02*
X114537500Y-33487500I0J-200000D01*
G01*
X114537500Y-34387500D01*
G75*
G02*
X114337500Y-34587500I-200000J0D01*
G01*
G37*
%TD*%
%TO.C,D14*%
G36*
G01*
X96081250Y-88437500D02*
X94881250Y-88437500D01*
G75*
G02*
X94681250Y-88237500I0J200000D01*
G01*
X94681250Y-87337500D01*
G75*
G02*
X94881250Y-87137500I200000J0D01*
G01*
X96081250Y-87137500D01*
G75*
G02*
X96281250Y-87337500I0J-200000D01*
G01*
X96281250Y-88237500D01*
G75*
G02*
X96081250Y-88437500I-200000J0D01*
G01*
G37*
G36*
G01*
X96081250Y-91737500D02*
X94881250Y-91737500D01*
G75*
G02*
X94681250Y-91537500I0J200000D01*
G01*
X94681250Y-90637500D01*
G75*
G02*
X94881250Y-90437500I200000J0D01*
G01*
X96081250Y-90437500D01*
G75*
G02*
X96281250Y-90637500I0J-200000D01*
G01*
X96281250Y-91537500D01*
G75*
G02*
X96081250Y-91737500I-200000J0D01*
G01*
G37*
%TD*%
%TO.C,D13*%
G36*
G01*
X96081250Y-69387500D02*
X94881250Y-69387500D01*
G75*
G02*
X94681250Y-69187500I0J200000D01*
G01*
X94681250Y-68287500D01*
G75*
G02*
X94881250Y-68087500I200000J0D01*
G01*
X96081250Y-68087500D01*
G75*
G02*
X96281250Y-68287500I0J-200000D01*
G01*
X96281250Y-69187500D01*
G75*
G02*
X96081250Y-69387500I-200000J0D01*
G01*
G37*
G36*
G01*
X96081250Y-72687500D02*
X94881250Y-72687500D01*
G75*
G02*
X94681250Y-72487500I0J200000D01*
G01*
X94681250Y-71587500D01*
G75*
G02*
X94881250Y-71387500I200000J0D01*
G01*
X96081250Y-71387500D01*
G75*
G02*
X96281250Y-71587500I0J-200000D01*
G01*
X96281250Y-72487500D01*
G75*
G02*
X96081250Y-72687500I-200000J0D01*
G01*
G37*
%TD*%
%TO.C,D12*%
G36*
G01*
X96081250Y-50337500D02*
X94881250Y-50337500D01*
G75*
G02*
X94681250Y-50137500I0J200000D01*
G01*
X94681250Y-49237500D01*
G75*
G02*
X94881250Y-49037500I200000J0D01*
G01*
X96081250Y-49037500D01*
G75*
G02*
X96281250Y-49237500I0J-200000D01*
G01*
X96281250Y-50137500D01*
G75*
G02*
X96081250Y-50337500I-200000J0D01*
G01*
G37*
G36*
G01*
X96081250Y-53637500D02*
X94881250Y-53637500D01*
G75*
G02*
X94681250Y-53437500I0J200000D01*
G01*
X94681250Y-52537500D01*
G75*
G02*
X94881250Y-52337500I200000J0D01*
G01*
X96081250Y-52337500D01*
G75*
G02*
X96281250Y-52537500I0J-200000D01*
G01*
X96281250Y-53437500D01*
G75*
G02*
X96081250Y-53637500I-200000J0D01*
G01*
G37*
%TD*%
%TO.C,D11*%
G36*
G01*
X96081250Y-31287500D02*
X94881250Y-31287500D01*
G75*
G02*
X94681250Y-31087500I0J200000D01*
G01*
X94681250Y-30187500D01*
G75*
G02*
X94881250Y-29987500I200000J0D01*
G01*
X96081250Y-29987500D01*
G75*
G02*
X96281250Y-30187500I0J-200000D01*
G01*
X96281250Y-31087500D01*
G75*
G02*
X96081250Y-31287500I-200000J0D01*
G01*
G37*
G36*
G01*
X96081250Y-34587500D02*
X94881250Y-34587500D01*
G75*
G02*
X94681250Y-34387500I0J200000D01*
G01*
X94681250Y-33487500D01*
G75*
G02*
X94881250Y-33287500I200000J0D01*
G01*
X96081250Y-33287500D01*
G75*
G02*
X96281250Y-33487500I0J-200000D01*
G01*
X96281250Y-34387500D01*
G75*
G02*
X96081250Y-34587500I-200000J0D01*
G01*
G37*
%TD*%
%TO.C,D10*%
G36*
G01*
X77031250Y-88437500D02*
X75831250Y-88437500D01*
G75*
G02*
X75631250Y-88237500I0J200000D01*
G01*
X75631250Y-87337500D01*
G75*
G02*
X75831250Y-87137500I200000J0D01*
G01*
X77031250Y-87137500D01*
G75*
G02*
X77231250Y-87337500I0J-200000D01*
G01*
X77231250Y-88237500D01*
G75*
G02*
X77031250Y-88437500I-200000J0D01*
G01*
G37*
G36*
G01*
X77031250Y-91737500D02*
X75831250Y-91737500D01*
G75*
G02*
X75631250Y-91537500I0J200000D01*
G01*
X75631250Y-90637500D01*
G75*
G02*
X75831250Y-90437500I200000J0D01*
G01*
X77031250Y-90437500D01*
G75*
G02*
X77231250Y-90637500I0J-200000D01*
G01*
X77231250Y-91537500D01*
G75*
G02*
X77031250Y-91737500I-200000J0D01*
G01*
G37*
%TD*%
%TO.C,D9*%
G36*
G01*
X77031250Y-69387500D02*
X75831250Y-69387500D01*
G75*
G02*
X75631250Y-69187500I0J200000D01*
G01*
X75631250Y-68287500D01*
G75*
G02*
X75831250Y-68087500I200000J0D01*
G01*
X77031250Y-68087500D01*
G75*
G02*
X77231250Y-68287500I0J-200000D01*
G01*
X77231250Y-69187500D01*
G75*
G02*
X77031250Y-69387500I-200000J0D01*
G01*
G37*
G36*
G01*
X77031250Y-72687500D02*
X75831250Y-72687500D01*
G75*
G02*
X75631250Y-72487500I0J200000D01*
G01*
X75631250Y-71587500D01*
G75*
G02*
X75831250Y-71387500I200000J0D01*
G01*
X77031250Y-71387500D01*
G75*
G02*
X77231250Y-71587500I0J-200000D01*
G01*
X77231250Y-72487500D01*
G75*
G02*
X77031250Y-72687500I-200000J0D01*
G01*
G37*
%TD*%
%TO.C,D8*%
G36*
G01*
X77031250Y-50337500D02*
X75831250Y-50337500D01*
G75*
G02*
X75631250Y-50137500I0J200000D01*
G01*
X75631250Y-49237500D01*
G75*
G02*
X75831250Y-49037500I200000J0D01*
G01*
X77031250Y-49037500D01*
G75*
G02*
X77231250Y-49237500I0J-200000D01*
G01*
X77231250Y-50137500D01*
G75*
G02*
X77031250Y-50337500I-200000J0D01*
G01*
G37*
G36*
G01*
X77031250Y-53637500D02*
X75831250Y-53637500D01*
G75*
G02*
X75631250Y-53437500I0J200000D01*
G01*
X75631250Y-52537500D01*
G75*
G02*
X75831250Y-52337500I200000J0D01*
G01*
X77031250Y-52337500D01*
G75*
G02*
X77231250Y-52537500I0J-200000D01*
G01*
X77231250Y-53437500D01*
G75*
G02*
X77031250Y-53637500I-200000J0D01*
G01*
G37*
%TD*%
%TO.C,D7*%
G36*
G01*
X77031250Y-31287500D02*
X75831250Y-31287500D01*
G75*
G02*
X75631250Y-31087500I0J200000D01*
G01*
X75631250Y-30187500D01*
G75*
G02*
X75831250Y-29987500I200000J0D01*
G01*
X77031250Y-29987500D01*
G75*
G02*
X77231250Y-30187500I0J-200000D01*
G01*
X77231250Y-31087500D01*
G75*
G02*
X77031250Y-31287500I-200000J0D01*
G01*
G37*
G36*
G01*
X77031250Y-34587500D02*
X75831250Y-34587500D01*
G75*
G02*
X75631250Y-34387500I0J200000D01*
G01*
X75631250Y-33487500D01*
G75*
G02*
X75831250Y-33287500I200000J0D01*
G01*
X77031250Y-33287500D01*
G75*
G02*
X77231250Y-33487500I0J-200000D01*
G01*
X77231250Y-34387500D01*
G75*
G02*
X77031250Y-34587500I-200000J0D01*
G01*
G37*
%TD*%
%TO.C,D6*%
G36*
G01*
X57981250Y-69387500D02*
X56781250Y-69387500D01*
G75*
G02*
X56581250Y-69187500I0J200000D01*
G01*
X56581250Y-68287500D01*
G75*
G02*
X56781250Y-68087500I200000J0D01*
G01*
X57981250Y-68087500D01*
G75*
G02*
X58181250Y-68287500I0J-200000D01*
G01*
X58181250Y-69187500D01*
G75*
G02*
X57981250Y-69387500I-200000J0D01*
G01*
G37*
G36*
G01*
X57981250Y-72687500D02*
X56781250Y-72687500D01*
G75*
G02*
X56581250Y-72487500I0J200000D01*
G01*
X56581250Y-71587500D01*
G75*
G02*
X56781250Y-71387500I200000J0D01*
G01*
X57981250Y-71387500D01*
G75*
G02*
X58181250Y-71587500I0J-200000D01*
G01*
X58181250Y-72487500D01*
G75*
G02*
X57981250Y-72687500I-200000J0D01*
G01*
G37*
%TD*%
%TO.C,D5*%
G36*
G01*
X45681250Y-57493750D02*
X45681250Y-56293750D01*
G75*
G02*
X45881250Y-56093750I200000J0D01*
G01*
X46781250Y-56093750D01*
G75*
G02*
X46981250Y-56293750I0J-200000D01*
G01*
X46981250Y-57493750D01*
G75*
G02*
X46781250Y-57693750I-200000J0D01*
G01*
X45881250Y-57693750D01*
G75*
G02*
X45681250Y-57493750I0J200000D01*
G01*
G37*
G36*
G01*
X42381250Y-57493750D02*
X42381250Y-56293750D01*
G75*
G02*
X42581250Y-56093750I200000J0D01*
G01*
X43481250Y-56093750D01*
G75*
G02*
X43681250Y-56293750I0J-200000D01*
G01*
X43681250Y-57493750D01*
G75*
G02*
X43481250Y-57693750I-200000J0D01*
G01*
X42581250Y-57693750D01*
G75*
G02*
X42381250Y-57493750I0J200000D01*
G01*
G37*
%TD*%
%TO.C,D4*%
G36*
G01*
X57981250Y-31287500D02*
X56781250Y-31287500D01*
G75*
G02*
X56581250Y-31087500I0J200000D01*
G01*
X56581250Y-30187500D01*
G75*
G02*
X56781250Y-29987500I200000J0D01*
G01*
X57981250Y-29987500D01*
G75*
G02*
X58181250Y-30187500I0J-200000D01*
G01*
X58181250Y-31087500D01*
G75*
G02*
X57981250Y-31287500I-200000J0D01*
G01*
G37*
G36*
G01*
X57981250Y-34587500D02*
X56781250Y-34587500D01*
G75*
G02*
X56581250Y-34387500I0J200000D01*
G01*
X56581250Y-33487500D01*
G75*
G02*
X56781250Y-33287500I200000J0D01*
G01*
X57981250Y-33287500D01*
G75*
G02*
X58181250Y-33487500I0J-200000D01*
G01*
X58181250Y-34387500D01*
G75*
G02*
X57981250Y-34587500I-200000J0D01*
G01*
G37*
%TD*%
%TO.C,D3*%
G36*
G01*
X38931250Y-69387500D02*
X37731250Y-69387500D01*
G75*
G02*
X37531250Y-69187500I0J200000D01*
G01*
X37531250Y-68287500D01*
G75*
G02*
X37731250Y-68087500I200000J0D01*
G01*
X38931250Y-68087500D01*
G75*
G02*
X39131250Y-68287500I0J-200000D01*
G01*
X39131250Y-69187500D01*
G75*
G02*
X38931250Y-69387500I-200000J0D01*
G01*
G37*
G36*
G01*
X38931250Y-72687500D02*
X37731250Y-72687500D01*
G75*
G02*
X37531250Y-72487500I0J200000D01*
G01*
X37531250Y-71587500D01*
G75*
G02*
X37731250Y-71387500I200000J0D01*
G01*
X38931250Y-71387500D01*
G75*
G02*
X39131250Y-71587500I0J-200000D01*
G01*
X39131250Y-72487500D01*
G75*
G02*
X38931250Y-72687500I-200000J0D01*
G01*
G37*
%TD*%
%TO.C,D2*%
G36*
G01*
X32568750Y-56293750D02*
X32568750Y-57493750D01*
G75*
G02*
X32368750Y-57693750I-200000J0D01*
G01*
X31468750Y-57693750D01*
G75*
G02*
X31268750Y-57493750I0J200000D01*
G01*
X31268750Y-56293750D01*
G75*
G02*
X31468750Y-56093750I200000J0D01*
G01*
X32368750Y-56093750D01*
G75*
G02*
X32568750Y-56293750I0J-200000D01*
G01*
G37*
G36*
G01*
X35868750Y-56293750D02*
X35868750Y-57493750D01*
G75*
G02*
X35668750Y-57693750I-200000J0D01*
G01*
X34768750Y-57693750D01*
G75*
G02*
X34568750Y-57493750I0J200000D01*
G01*
X34568750Y-56293750D01*
G75*
G02*
X34768750Y-56093750I200000J0D01*
G01*
X35668750Y-56093750D01*
G75*
G02*
X35868750Y-56293750I0J-200000D01*
G01*
G37*
%TD*%
%TO.C,D1*%
G36*
G01*
X38931250Y-31287500D02*
X37731250Y-31287500D01*
G75*
G02*
X37531250Y-31087500I0J200000D01*
G01*
X37531250Y-30187500D01*
G75*
G02*
X37731250Y-29987500I200000J0D01*
G01*
X38931250Y-29987500D01*
G75*
G02*
X39131250Y-30187500I0J-200000D01*
G01*
X39131250Y-31087500D01*
G75*
G02*
X38931250Y-31287500I-200000J0D01*
G01*
G37*
G36*
G01*
X38931250Y-34587500D02*
X37731250Y-34587500D01*
G75*
G02*
X37531250Y-34387500I0J200000D01*
G01*
X37531250Y-33487500D01*
G75*
G02*
X37731250Y-33287500I200000J0D01*
G01*
X38931250Y-33287500D01*
G75*
G02*
X39131250Y-33487500I0J-200000D01*
G01*
X39131250Y-34387500D01*
G75*
G02*
X38931250Y-34587500I-200000J0D01*
G01*
G37*
%TD*%
D18*
%TO.C,U1*%
X25948750Y-37367500D03*
X53888750Y-52607500D03*
X28488750Y-37367500D03*
X31028750Y-37367500D03*
X33568750Y-37367500D03*
X36108750Y-37367500D03*
X38648750Y-37367500D03*
X41188750Y-37367500D03*
X43728750Y-37367500D03*
X46268750Y-37367500D03*
X48808750Y-37367500D03*
X51348750Y-37367500D03*
X53888750Y-37367500D03*
X51348750Y-52607500D03*
X48808750Y-52607500D03*
X46268750Y-52607500D03*
X43728750Y-52607500D03*
X41188750Y-52607500D03*
X38648750Y-52607500D03*
X36108750Y-52607500D03*
X33568750Y-52607500D03*
X31028750Y-52607500D03*
X28488750Y-52607500D03*
G36*
G01*
X24872450Y-53483800D02*
X24872450Y-51731200D01*
G75*
G02*
X25072450Y-51531200I200000J0D01*
G01*
X26825050Y-51531200D01*
G75*
G02*
X27025050Y-51731200I0J-200000D01*
G01*
X27025050Y-53483800D01*
G75*
G02*
X26825050Y-53683800I-200000J0D01*
G01*
X25072450Y-53683800D01*
G75*
G02*
X24872450Y-53483800I0J200000D01*
G01*
G37*
%TD*%
%TO.C,SW10*%
G36*
G01*
X58665000Y-84178750D02*
X58665000Y-81678750D01*
G75*
G02*
X58865000Y-81478750I200000J0D01*
G01*
X61415000Y-81478750D01*
G75*
G02*
X61615000Y-81678750I0J-200000D01*
G01*
X61615000Y-84178750D01*
G75*
G02*
X61415000Y-84378750I-200000J0D01*
G01*
X58865000Y-84378750D01*
G75*
G02*
X58665000Y-84178750I0J200000D01*
G01*
G37*
D15*
X62620000Y-85468750D03*
X72780000Y-85468750D03*
D16*
X67700000Y-85468750D03*
D17*
X63890000Y-82928750D03*
X70240000Y-80388750D03*
G36*
G01*
X72515000Y-81638750D02*
X72515000Y-79138750D01*
G75*
G02*
X72715000Y-78938750I200000J0D01*
G01*
X75265000Y-78938750D01*
G75*
G02*
X75465000Y-79138750I0J-200000D01*
G01*
X75465000Y-81638750D01*
G75*
G02*
X75265000Y-81838750I-200000J0D01*
G01*
X72715000Y-81838750D01*
G75*
G02*
X72515000Y-81638750I0J200000D01*
G01*
G37*
%TD*%
%TO.C,SW9*%
G36*
G01*
X58665000Y-65128750D02*
X58665000Y-62628750D01*
G75*
G02*
X58865000Y-62428750I200000J0D01*
G01*
X61415000Y-62428750D01*
G75*
G02*
X61615000Y-62628750I0J-200000D01*
G01*
X61615000Y-65128750D01*
G75*
G02*
X61415000Y-65328750I-200000J0D01*
G01*
X58865000Y-65328750D01*
G75*
G02*
X58665000Y-65128750I0J200000D01*
G01*
G37*
D15*
X62620000Y-66418750D03*
X72780000Y-66418750D03*
D16*
X67700000Y-66418750D03*
D17*
X63890000Y-63878750D03*
X70240000Y-61338750D03*
G36*
G01*
X72515000Y-62588750D02*
X72515000Y-60088750D01*
G75*
G02*
X72715000Y-59888750I200000J0D01*
G01*
X75265000Y-59888750D01*
G75*
G02*
X75465000Y-60088750I0J-200000D01*
G01*
X75465000Y-62588750D01*
G75*
G02*
X75265000Y-62788750I-200000J0D01*
G01*
X72715000Y-62788750D01*
G75*
G02*
X72515000Y-62588750I0J200000D01*
G01*
G37*
%TD*%
%TO.C,SW8*%
G36*
G01*
X58665000Y-46078750D02*
X58665000Y-43578750D01*
G75*
G02*
X58865000Y-43378750I200000J0D01*
G01*
X61415000Y-43378750D01*
G75*
G02*
X61615000Y-43578750I0J-200000D01*
G01*
X61615000Y-46078750D01*
G75*
G02*
X61415000Y-46278750I-200000J0D01*
G01*
X58865000Y-46278750D01*
G75*
G02*
X58665000Y-46078750I0J200000D01*
G01*
G37*
D15*
X62620000Y-47368750D03*
X72780000Y-47368750D03*
D16*
X67700000Y-47368750D03*
D17*
X63890000Y-44828750D03*
X70240000Y-42288750D03*
G36*
G01*
X72515000Y-43538750D02*
X72515000Y-41038750D01*
G75*
G02*
X72715000Y-40838750I200000J0D01*
G01*
X75265000Y-40838750D01*
G75*
G02*
X75465000Y-41038750I0J-200000D01*
G01*
X75465000Y-43538750D01*
G75*
G02*
X75265000Y-43738750I-200000J0D01*
G01*
X72715000Y-43738750D01*
G75*
G02*
X72515000Y-43538750I0J200000D01*
G01*
G37*
%TD*%
%TO.C,SW7*%
G36*
G01*
X58665000Y-27028750D02*
X58665000Y-24528750D01*
G75*
G02*
X58865000Y-24328750I200000J0D01*
G01*
X61415000Y-24328750D01*
G75*
G02*
X61615000Y-24528750I0J-200000D01*
G01*
X61615000Y-27028750D01*
G75*
G02*
X61415000Y-27228750I-200000J0D01*
G01*
X58865000Y-27228750D01*
G75*
G02*
X58665000Y-27028750I0J200000D01*
G01*
G37*
D15*
X62620000Y-28318750D03*
X72780000Y-28318750D03*
D16*
X67700000Y-28318750D03*
D17*
X63890000Y-25778750D03*
X70240000Y-23238750D03*
G36*
G01*
X72515000Y-24488750D02*
X72515000Y-21988750D01*
G75*
G02*
X72715000Y-21788750I200000J0D01*
G01*
X75265000Y-21788750D01*
G75*
G02*
X75465000Y-21988750I0J-200000D01*
G01*
X75465000Y-24488750D01*
G75*
G02*
X75265000Y-24688750I-200000J0D01*
G01*
X72715000Y-24688750D01*
G75*
G02*
X72515000Y-24488750I0J200000D01*
G01*
G37*
%TD*%
%TO.C,SW6*%
G36*
G01*
X39615000Y-65128750D02*
X39615000Y-62628750D01*
G75*
G02*
X39815000Y-62428750I200000J0D01*
G01*
X42365000Y-62428750D01*
G75*
G02*
X42565000Y-62628750I0J-200000D01*
G01*
X42565000Y-65128750D01*
G75*
G02*
X42365000Y-65328750I-200000J0D01*
G01*
X39815000Y-65328750D01*
G75*
G02*
X39615000Y-65128750I0J200000D01*
G01*
G37*
D15*
X43570000Y-66418750D03*
X53730000Y-66418750D03*
D16*
X48650000Y-66418750D03*
D17*
X44840000Y-63878750D03*
X51190000Y-61338750D03*
G36*
G01*
X53465000Y-62588750D02*
X53465000Y-60088750D01*
G75*
G02*
X53665000Y-59888750I200000J0D01*
G01*
X56215000Y-59888750D01*
G75*
G02*
X56415000Y-60088750I0J-200000D01*
G01*
X56415000Y-62588750D01*
G75*
G02*
X56215000Y-62788750I-200000J0D01*
G01*
X53665000Y-62788750D01*
G75*
G02*
X53465000Y-62588750I0J200000D01*
G01*
G37*
%TD*%
%TO.C,SW5*%
G36*
G01*
X39615000Y-46078750D02*
X39615000Y-43578750D01*
G75*
G02*
X39815000Y-43378750I200000J0D01*
G01*
X42365000Y-43378750D01*
G75*
G02*
X42565000Y-43578750I0J-200000D01*
G01*
X42565000Y-46078750D01*
G75*
G02*
X42365000Y-46278750I-200000J0D01*
G01*
X39815000Y-46278750D01*
G75*
G02*
X39615000Y-46078750I0J200000D01*
G01*
G37*
D15*
X43570000Y-47368750D03*
X53730000Y-47368750D03*
D16*
X48650000Y-47368750D03*
D17*
X44840000Y-44828750D03*
X51190000Y-42288750D03*
G36*
G01*
X53465000Y-43538750D02*
X53465000Y-41038750D01*
G75*
G02*
X53665000Y-40838750I200000J0D01*
G01*
X56215000Y-40838750D01*
G75*
G02*
X56415000Y-41038750I0J-200000D01*
G01*
X56415000Y-43538750D01*
G75*
G02*
X56215000Y-43738750I-200000J0D01*
G01*
X53665000Y-43738750D01*
G75*
G02*
X53465000Y-43538750I0J200000D01*
G01*
G37*
%TD*%
%TO.C,SW4*%
G36*
G01*
X39615000Y-27028750D02*
X39615000Y-24528750D01*
G75*
G02*
X39815000Y-24328750I200000J0D01*
G01*
X42365000Y-24328750D01*
G75*
G02*
X42565000Y-24528750I0J-200000D01*
G01*
X42565000Y-27028750D01*
G75*
G02*
X42365000Y-27228750I-200000J0D01*
G01*
X39815000Y-27228750D01*
G75*
G02*
X39615000Y-27028750I0J200000D01*
G01*
G37*
D15*
X43570000Y-28318750D03*
X53730000Y-28318750D03*
D16*
X48650000Y-28318750D03*
D17*
X44840000Y-25778750D03*
X51190000Y-23238750D03*
G36*
G01*
X53465000Y-24488750D02*
X53465000Y-21988750D01*
G75*
G02*
X53665000Y-21788750I200000J0D01*
G01*
X56215000Y-21788750D01*
G75*
G02*
X56415000Y-21988750I0J-200000D01*
G01*
X56415000Y-24488750D01*
G75*
G02*
X56215000Y-24688750I-200000J0D01*
G01*
X53665000Y-24688750D01*
G75*
G02*
X53465000Y-24488750I0J200000D01*
G01*
G37*
%TD*%
%TO.C,SW3*%
G36*
G01*
X20565000Y-65128750D02*
X20565000Y-62628750D01*
G75*
G02*
X20765000Y-62428750I200000J0D01*
G01*
X23315000Y-62428750D01*
G75*
G02*
X23515000Y-62628750I0J-200000D01*
G01*
X23515000Y-65128750D01*
G75*
G02*
X23315000Y-65328750I-200000J0D01*
G01*
X20765000Y-65328750D01*
G75*
G02*
X20565000Y-65128750I0J200000D01*
G01*
G37*
D15*
X24520000Y-66418750D03*
X34680000Y-66418750D03*
D16*
X29600000Y-66418750D03*
D17*
X25790000Y-63878750D03*
X32140000Y-61338750D03*
G36*
G01*
X34415000Y-62588750D02*
X34415000Y-60088750D01*
G75*
G02*
X34615000Y-59888750I200000J0D01*
G01*
X37165000Y-59888750D01*
G75*
G02*
X37365000Y-60088750I0J-200000D01*
G01*
X37365000Y-62588750D01*
G75*
G02*
X37165000Y-62788750I-200000J0D01*
G01*
X34615000Y-62788750D01*
G75*
G02*
X34415000Y-62588750I0J200000D01*
G01*
G37*
%TD*%
%TO.C,SW2*%
G36*
G01*
X20565000Y-46078750D02*
X20565000Y-43578750D01*
G75*
G02*
X20765000Y-43378750I200000J0D01*
G01*
X23315000Y-43378750D01*
G75*
G02*
X23515000Y-43578750I0J-200000D01*
G01*
X23515000Y-46078750D01*
G75*
G02*
X23315000Y-46278750I-200000J0D01*
G01*
X20765000Y-46278750D01*
G75*
G02*
X20565000Y-46078750I0J200000D01*
G01*
G37*
D15*
X24520000Y-47368750D03*
X34680000Y-47368750D03*
D16*
X29600000Y-47368750D03*
D17*
X25790000Y-44828750D03*
X32140000Y-42288750D03*
G36*
G01*
X34415000Y-43538750D02*
X34415000Y-41038750D01*
G75*
G02*
X34615000Y-40838750I200000J0D01*
G01*
X37165000Y-40838750D01*
G75*
G02*
X37365000Y-41038750I0J-200000D01*
G01*
X37365000Y-43538750D01*
G75*
G02*
X37165000Y-43738750I-200000J0D01*
G01*
X34615000Y-43738750D01*
G75*
G02*
X34415000Y-43538750I0J200000D01*
G01*
G37*
%TD*%
%TO.C,SW1*%
G36*
G01*
X20565000Y-27028750D02*
X20565000Y-24528750D01*
G75*
G02*
X20765000Y-24328750I200000J0D01*
G01*
X23315000Y-24328750D01*
G75*
G02*
X23515000Y-24528750I0J-200000D01*
G01*
X23515000Y-27028750D01*
G75*
G02*
X23315000Y-27228750I-200000J0D01*
G01*
X20765000Y-27228750D01*
G75*
G02*
X20565000Y-27028750I0J200000D01*
G01*
G37*
D15*
X24520000Y-28318750D03*
X34680000Y-28318750D03*
D16*
X29600000Y-28318750D03*
D17*
X25790000Y-25778750D03*
X32140000Y-23238750D03*
G36*
G01*
X34415000Y-24488750D02*
X34415000Y-21988750D01*
G75*
G02*
X34615000Y-21788750I200000J0D01*
G01*
X37165000Y-21788750D01*
G75*
G02*
X37365000Y-21988750I0J-200000D01*
G01*
X37365000Y-24488750D01*
G75*
G02*
X37165000Y-24688750I-200000J0D01*
G01*
X34615000Y-24688750D01*
G75*
G02*
X34415000Y-24488750I0J200000D01*
G01*
G37*
%TD*%
M02*
